<svg id="bf2fa4ca-06e3-4349-b659-95939431574a" data-name="Layer 1" xmlns="http://www.w3.org/2000/svg" viewBox="0 0 65 80"><defs><style>.e0a9d4cc-f841-488f-a3a2-92da53a143ab{fill:#05c4a3;}</style></defs><path class="e0a9d4cc-f841-488f-a3a2-92da53a143ab" d="M60.14,19.28a27.41,27.41,0,0,0-6.43-8.73,30.28,30.28,0,0,0-9.54-5.89,32.74,32.74,0,0,0-23.35,0,30.12,30.12,0,0,0-9.53,5.89,27.26,27.26,0,0,0-6.43,8.73A25.08,25.08,0,0,0,2.51,30a24.13,24.13,0,0,0,.64,6.11,23.48,23.48,0,0,0,2.46,5.87c2.55,4.54,7,10.36,14.41,20,3.3,4.3,7,9.18,11.48,15.08a1.28,1.28,0,0,0,1.8.19,1.21,1.21,0,0,0,.2-.19c4.44-5.9,8.18-10.78,11.48-15.08,7.39-9.64,11.86-15.46,14.41-20a23.48,23.48,0,0,0,2.46-5.87A24.13,24.13,0,0,0,62.49,30,25.23,25.23,0,0,0,60.14,19.28ZM48.46,27.54a1,1,0,0,1-1,.71H46V43.5a1,1,0,0,1-1,1H37a1,1,0,0,1-1-1v-9a1,1,0,0,0-1-1H30a1,1,0,0,0-1,1v9a1,1,0,0,1-1,1H20a1,1,0,0,1-1-1V28.25H17.5A1,1,0,0,1,17,26.42l15-10a1,1,0,0,1,1.1,0l15,10A1,1,0,0,1,48.46,27.54Z"/></svg>