<svg id="Layer_1" data-name="Layer 1" xmlns="http://www.w3.org/2000/svg" xmlns:xlink="http://www.w3.org/1999/xlink" viewBox="0 0 500 500"><defs><style>.cls-1{fill:none;}.cls-2{fill:url(#linear-gradient);}.cls-3{fill:url(#linear-gradient-2);}.cls-4{fill:url(#linear-gradient-3);}</style><linearGradient id="linear-gradient" x1="128.67" y1="1211.38" x2="131.26" y2="1211.38" gradientTransform="matrix(107.21, 0, 0, -103.63, -13595.07, 125887.96)" gradientUnits="userSpaceOnUse"><stop offset="0" stop-color="#05c4a3"/><stop offset="1" stop-color="#1bedc5"/></linearGradient><linearGradient id="linear-gradient-2" x1="123.51" y1="1211.7" x2="126.1" y2="1211.7" gradientTransform="matrix(65.57, 0, 0, -122.17, -8088.81, 148275.86)" xlink:href="#linear-gradient"/><linearGradient id="linear-gradient-3" x1="129.73" y1="1213.67" x2="132.31" y2="1213.67" gradientTransform="matrix(146.81, 0, 0, -78.57, -18936.08, 95478)" xlink:href="#linear-gradient"/></defs><g id="Group_1686" data-name="Group 1686"><line id="Line_58" data-name="Line 58" class="cls-1" x1="182.4" y1="351.21" x2="170.56" y2="367.05"/><path id="Path_357" data-name="Path 357" class="cls-2" d="M475.74,218.2c-1-.43-2,1.32-2.45,2.32l-.26.6,0,.1h0c-2.55,5.88-4.3,9.51-4.66,10.21h0a21.57,21.57,0,0,1-26.83,10.78c-1.45-.52-13.41-5-30.21-13l-.1,0c-7.61-3.56-7.68,5.22-7.68,5.22,0,.68-.08,1.35-.1,2-.1,1.48-.2,2.95-.35,4.4-.05.75-.13,1.47-.2,2.2-.18,1.45-.35,2.9-.55,4.33-.1.65-.18,1.32-.28,2q-.45,3-1,6l-.12.6c-.38,1.82-.81,3.65-1.26,5.45-.17.72-.37,1.42-.55,2.12-.34,1.28-.7,2.55-1.07,3.8-.23.8-.48,1.58-.7,2.35-.4,1.23-.8,2.43-1.2,3.61-.28.75-.52,1.49-.78,2.25-.55,1.5-1.15,3-1.75,4.5-.35.87-.72,1.75-1.1,2.6q-.76,1.88-1.65,3.75c-.4.85-.8,1.7-1.22,2.52s-.93,1.88-1.4,2.81-.93,1.8-1.43,2.67-.93,1.7-1.4,2.53-1,1.82-1.58,2.72l-1.35,2.18q-1.76,2.78-3.6,5.48c-.4.55-.78,1.1-1.15,1.65-.72,1-1.5,2-2.25,3l-1.23,1.6c-.77,1-1.6,2.05-2.4,3.05l-1.1,1.27a146.05,146.05,0,0,1-13.51,14.08l-.67.6c-1.18,1.05-2.38,2.1-3.58,3.13l-.4.33a145.2,145.2,0,0,1-16.93,12.22l-.1.08a150.54,150.54,0,0,1-24.06,12V341.39a17.58,17.58,0,0,0-26.86-14.91,414.57,414.57,0,0,0-79.86,66.69,17.54,17.54,0,0,0,0,23.46,415.4,415.4,0,0,0,79.83,66.7,17.58,17.58,0,0,0,26.89-14.9V435.18q7.95-2,15.7-4.55l2.07-.67q3-1,5.94-2.15c1.05-.38,2.13-.78,3.18-1.18,1.88-.72,3.73-1.5,5.55-2.25,1.13-.48,2.25-.95,3.38-1.45,1.81-.78,3.58-1.6,5.33-2.43,1.12-.51,2.25-1.07,3.36-1.6,1.75-.87,3.47-1.72,5.2-2.62,1.08-.58,2.15-1.15,3.23-1.75,1.72-.93,3.45-1.88,5.12-2.85,1-.55,1.93-1.15,2.88-1.72q8.92-5.34,17.28-11.48c1-.7,2-1.4,2.9-2.13,1.43-1.08,2.84-2.23,4.25-3.36,1.08-.85,2.13-1.7,3.18-2.55,1.35-1.13,2.68-2.28,4-3.4,1.1-1,2.15-1.88,3.22-2.85,1.26-1.12,2.5-2.3,3.73-3.45,1.08-1,2.13-2.05,3.18-3.07,1.17-1.18,2.37-2.35,3.52-3.56s2.11-2.19,3.13-3.32,2.2-2.35,3.28-3.55,2.17-2.55,3.27-3.83c1-1.12,1.9-2.2,2.83-3.36,1.9-2.33,3.73-4.68,5.53-7.1.8-1.08,1.57-2.2,2.35-3.3,1.07-1.45,2.12-2.93,3.12-4.43.83-1.18,1.6-2.4,2.38-3.6.95-1.45,1.88-2.9,2.8-4.38l2.23-3.72c.87-1.5,1.75-3,2.58-4.53.7-1.25,1.38-2.52,2.05-3.78.85-1.57,1.65-3.17,2.45-4.77.6-1.25,1.23-2.48,1.81-3.73.83-1.72,1.63-3.5,2.4-5.28.48-1.12,1-2.25,1.48-3.4,1-2.3,1.87-4.65,2.75-7,.26-.62.5-1.22.75-1.87q1.6-4.44,3-9c.33-1,.58-2,.88-3,.63-2.1,1.23-4.18,1.78-6.28.32-1.23.62-2.45.92-3.65.45-1.95.93-3.88,1.33-5.83.27-1.29.52-2.58.77-3.88.38-1.92.73-3.87,1.06-5.83.19-1.29.42-2.6.6-3.9.3-2,.55-4,.77-6.05.15-1.25.3-2.5.42-3.78.2-2.22.35-4.45.5-6.67.08-1.08.18-2.16.23-3.25.15-3.33.26-6.66.26-10h0c0-2.53-.08-5-.18-7.53C477,219,476.67,218.57,475.74,218.2Z"/><path id="Path_358" data-name="Path 358" class="cls-3" d="M165.54,341.17l.05-.05A140.94,140.94,0,0,1,108,228a139,139,0,0,1,1.6-21l12.46,8.43a18,18,0,0,0,17.76,1.32,17.46,17.46,0,0,0,6.7-5.53,16.52,16.52,0,0,0,3.12-8.82,387,387,0,0,0-8.9-100.15,17.52,17.52,0,0,0-19.23-13A427.39,427.39,0,0,0,21.08,115.6,17.1,17.1,0,0,0,10.5,129.46a16.76,16.76,0,0,0,7.4,15.65l26.84,18.13A206.67,206.67,0,0,0,34.34,228c0,68.06,33,128.61,84.21,167.79a37.2,37.2,0,0,0,24.53,9.11,36.24,36.24,0,0,0,36.83-35.59A35.08,35.08,0,0,0,165.54,341.17Z"/><path id="Path_359" data-name="Path 359" class="cls-4" d="M487.4,98.7a17.6,17.6,0,0,0-22.86-9.76l-30.39,12.23C357.23,2.57,214.94-15,116.34,61.91q-2.5,2-5,4l-.55.45-.5.45a2.75,2.75,0,0,0-1.1,2.85c.27,1.75,3.65,1.27,3.65,1.27h0c10.06-1.78,16.58-2.6,17.68-2.73a27.11,27.11,0,0,1,29.66,20.21c.21.85,1.3,5.55,2.73,13.11v0c3,14.09,11.3,7.45,11.3,7.45v0a151.48,151.48,0,0,1,188.81,20.73l-16.41,6.61a17.57,17.57,0,0,0-3.8,30.48A414.57,414.57,0,0,0,434.52,216a17.53,17.53,0,0,0,21.76-8.75,415.12,415.12,0,0,0,32.09-99A17.46,17.46,0,0,0,487.4,98.7Z"/></g></svg>