<svg xmlns="http://www.w3.org/2000/svg" viewBox="0 0 160 160"><defs><style>.b215208c-91de-4898-b6b6-f9d39b66181e,.b219beff-a040-479a-984c-facdf0b4ec88{fill:#fff;}.a845d1c5-d859-4bc2-a2d1-3b611940902c,.b0aa2cd8-f742-4da5-8c41-1494d689f50e{fill:#87d3c6;}.a508c0a5-5642-4869-84af-e676838cb02d,.b0aa2cd8-f742-4da5-8c41-1494d689f50e,.b219beff-a040-479a-984c-facdf0b4ec88,.b8f64fef-a0cf-49ca-8276-76a3d5ed1ab2{stroke:#007c7c;stroke-miterlimit:10;}.b8f64fef-a0cf-49ca-8276-76a3d5ed1ab2,.f1c8f4e9-31b5-4d18-8100-9a5fb60f5b67{fill:#05c4a3;}.a508c0a5-5642-4869-84af-e676838cb02d{fill:none;}</style></defs><g id="e8a8a797-8227-4854-82c8-6391b690673d" data-name="marketing"><rect class="b215208c-91de-4898-b6b6-f9d39b66181e" width="160" height="160" rx="15"/><rect class="a845d1c5-d859-4bc2-a2d1-3b611940902c" width="160" height="160" rx="15"/><path class="b0aa2cd8-f742-4da5-8c41-1494d689f50e" d="M94.45,33.27v3.31H92.13V34.86A2.26,2.26,0,0,0,90,32.54H70a2.25,2.25,0,0,0-2.17,2.31v1.73H65.55V33.26c0-2,1.16-3.56,2.58-3.56H91.86C93.29,29.7,94.45,31.3,94.45,33.27Z"/><path class="b8f64fef-a0cf-49ca-8276-76a3d5ed1ab2" d="M123.35,37.9v4.92c0,.74-.88,1.33-1.95,1.33H38.6c-1.07,0-2-.59-2-1.33V37.9c0-.73.88-1.32,2-1.32h82.8C122.47,36.58,123.35,37.17,123.35,37.9Z"/><path class="b215208c-91de-4898-b6b6-f9d39b66181e" d="M69.38,130.3H57.17c-3,0-5.54-1.79-5.82-4.13L41.47,44.12H59.33Z"/><path class="a845d1c5-d859-4bc2-a2d1-3b611940902c" d="M97.24,44.12c-1.72,25-4,57.75-5.94,86.18H69.38l-10-86.18Z"/><path class="f1c8f4e9-31b5-4d18-8100-9a5fb60f5b67" d="M118.53,44.12l-8,81.93c-.24,2.4-2.8,4.25-5.89,4.25H91.3c2-28.43,4.22-61.2,5.94-86.18Z"/><line class="f1c8f4e9-31b5-4d18-8100-9a5fb60f5b67" x1="75.35" y1="96.04" x2="74.34" y2="97.38"/><path class="f1c8f4e9-31b5-4d18-8100-9a5fb60f5b67" d="M100.37,84.78c-.08,0-.17.11-.21.19l0,.06h0c-.22.5-.37.81-.4.87h0a1.85,1.85,0,0,1-1.66,1,1.74,1.74,0,0,1-.63-.11c-.12,0-1.14-.42-2.58-1.1h0c-.65-.3-.66.44-.66.44s0,.11,0,.17l0,.37a1.23,1.23,0,0,1,0,.19c0,.12,0,.24,0,.36l0,.17a4.54,4.54,0,0,1-.09.51v0c0,.15-.06.31-.1.46s0,.12,0,.18l-.09.32-.06.2c0,.11-.07.21-.1.31a1.07,1.07,0,0,0-.07.19l-.15.38-.09.22-.14.32-.11.21L92.9,91l-.12.23-.12.21-.13.23-.12.18-.31.47-.09.14-.2.25-.1.14-.21.26-.09.11a14.33,14.33,0,0,1-1.15,1.19l-.06,0a3.88,3.88,0,0,1-.31.26l0,0a13.51,13.51,0,0,1-1.44,1h0a12.63,12.63,0,0,1-2,1v-1.6A1.51,1.51,0,0,0,84.06,94a35.43,35.43,0,0,0-6.81,5.64,1.49,1.49,0,0,0,0,2,35.43,35.43,0,0,0,6.81,5.64,1.54,1.54,0,0,0,.8.23,1.41,1.41,0,0,0,.72-.19,1.48,1.48,0,0,0,.78-1.3v-2.81c.45-.12.9-.25,1.34-.39l.17-.06c.17,0,.34-.12.51-.18l.27-.1.48-.19.28-.12.46-.21.28-.13.45-.22.27-.15.44-.24.24-.15c.51-.3,1-.63,1.48-1l.25-.18.36-.29.27-.21.34-.29.27-.24.32-.29.27-.26q.17-.15.3-.3l.27-.29a4,4,0,0,0,.28-.3c.1-.1.19-.21.28-.32l.24-.28.47-.6.2-.28.27-.38.2-.3.24-.38c.07-.1.13-.21.19-.31l.22-.38.18-.32.21-.41.15-.31c.07-.15.14-.3.2-.45s.09-.19.13-.29l.24-.59.06-.16c.09-.25.18-.5.26-.76l.07-.25a5.44,5.44,0,0,0,.15-.54,2.81,2.81,0,0,0,.08-.31l.12-.49.06-.33.09-.49c0-.11,0-.22,0-.33s.05-.34.07-.51l0-.32c0-.19,0-.38,0-.57a2.45,2.45,0,0,1,0-.27c0-.28,0-.57,0-.85h0c0-.21,0-.43,0-.64S100.45,84.81,100.37,84.78Z"/><path class="f1c8f4e9-31b5-4d18-8100-9a5fb60f5b67" d="M73.91,95.19h0A11.91,11.91,0,0,1,69,85.61a11.66,11.66,0,0,1,.14-1.78l1.06.72a1.56,1.56,0,0,0,1.51.11,1.49,1.49,0,0,0,.58-.47,1.41,1.41,0,0,0,.26-.75A32.5,32.5,0,0,0,71.79,75a1.5,1.5,0,0,0-1.64-1.1,37.26,37.26,0,0,0-8.56,2.23,1.48,1.48,0,0,0-.91,1.17,1.43,1.43,0,0,0,.64,1.33l2.28,1.53a17.54,17.54,0,0,0-.88,5.49,17.8,17.8,0,0,0,7.18,14.2,3.2,3.2,0,0,0,2.09.77,3.08,3.08,0,0,0,3.15-3A3,3,0,0,0,73.91,95.19Z"/><path class="f1c8f4e9-31b5-4d18-8100-9a5fb60f5b67" d="M101.36,74.66a1.44,1.44,0,0,0-.44-.6,1.48,1.48,0,0,0-1.5-.22l-2.6,1a19.41,19.41,0,0,0-27.53-3l-.05,0s0,0,0,0a.22.22,0,0,0-.09.24c0,.15.31.11.31.11h0c.86-.15,1.41-.22,1.51-.23a2.31,2.31,0,0,1,2.53,1.71c0,.07.11.47.23,1.11h0c.26,1.19,1,.63,1,.63h0a13,13,0,0,1,16.1,1.76l-1.4.56A1.48,1.48,0,0,0,89,80.43a35.74,35.74,0,0,0,7.81,4.16,1.51,1.51,0,0,0,1.86-.74,34.83,34.83,0,0,0,2.74-8.37A1.43,1.43,0,0,0,101.36,74.66Z"/><line class="b219beff-a040-479a-984c-facdf0b4ec88" x1="73.2" y1="93.75" x2="72.19" y2="95.09"/><path class="b219beff-a040-479a-984c-facdf0b4ec88" d="M98.22,82.49c-.08,0-.17.11-.21.19l0,.06h0c-.22.5-.37.81-.4.87h0a1.85,1.85,0,0,1-1.65,1,1.76,1.76,0,0,1-.64-.11c-.12,0-1.14-.42-2.58-1.1h0c-.65-.3-.66.44-.66.44s0,.11,0,.17l0,.37a1.23,1.23,0,0,1,0,.19c0,.12,0,.24,0,.36l0,.17a4.54,4.54,0,0,1-.09.51v.05c0,.15-.06.31-.1.46s0,.12,0,.18l-.09.32-.06.2-.1.31a1.07,1.07,0,0,0-.07.19l-.15.38-.09.22-.14.32-.11.21-.12.24-.12.23-.12.21-.13.23-.12.18L90,90l-.09.14c-.07.08-.13.17-.19.25l-.11.14-.21.26-.09.11a12.88,12.88,0,0,1-1.15,1.19l-.06,0-.3.26,0,0a13.51,13.51,0,0,1-1.44,1h0a12.63,12.63,0,0,1-2.05,1v-1.6a1.51,1.51,0,0,0-2.3-1.26A35.43,35.43,0,0,0,75.1,97.3a1.49,1.49,0,0,0,0,2,35.43,35.43,0,0,0,6.81,5.64,1.54,1.54,0,0,0,.8.23,1.41,1.41,0,0,0,.72-.19,1.48,1.48,0,0,0,.78-1.3v-2.81c.45-.12.9-.25,1.34-.39l.17-.06c.18,0,.34-.12.51-.18l.27-.1.48-.19.28-.12.46-.21.29-.13.44-.22.27-.15.44-.24.25-.15c.5-.3,1-.63,1.47-1l.25-.18.36-.29.27-.21.34-.29.28-.24.31-.29L93,96l.3-.3.26-.29a4,4,0,0,0,.28-.3c.1-.1.19-.21.28-.32l.24-.28.47-.6.21-.28c.09-.13.18-.25.26-.38s.14-.2.2-.3l.24-.38c.07-.1.13-.21.19-.31l.22-.38.18-.32.21-.41.15-.31c.07-.15.14-.3.2-.45s.09-.19.13-.29l.24-.59.06-.16c.09-.25.18-.5.26-.76l.07-.25a5.44,5.44,0,0,0,.15-.54,2.81,2.81,0,0,0,.08-.31L98,87l.06-.33.09-.49c0-.11,0-.22,0-.33s0-.34.07-.51l0-.32c0-.19,0-.38,0-.57a2.45,2.45,0,0,1,0-.27c0-.28,0-.57,0-.85h0c0-.21,0-.43,0-.64S98.3,82.52,98.22,82.49Z"/><path class="b219beff-a040-479a-984c-facdf0b4ec88" d="M71.76,92.9h0a11.89,11.89,0,0,1-4.92-9.57A11.66,11.66,0,0,1,67,81.54l1.06.72a1.58,1.58,0,0,0,1.52.11,1.53,1.53,0,0,0,.57-.47,1.41,1.41,0,0,0,.26-.75,32,32,0,0,0-.76-8.48A1.5,1.5,0,0,0,68,71.57a37.26,37.26,0,0,0-8.56,2.23,1.43,1.43,0,0,0-.9,1.17,1.4,1.4,0,0,0,.63,1.33l2.29,1.53a17.26,17.26,0,0,0-.89,5.49,17.8,17.8,0,0,0,7.18,14.2,3.2,3.2,0,0,0,2.09.77,3.08,3.08,0,0,0,3.15-3A3,3,0,0,0,71.76,92.9Z"/><path class="b219beff-a040-479a-984c-facdf0b4ec88" d="M99.22,72.37a1.56,1.56,0,0,0-.45-.6,1.48,1.48,0,0,0-1.5-.22l-2.6,1a19.41,19.41,0,0,0-27.53-3l0,0,0,0a.22.22,0,0,0-.09.24c0,.15.31.11.31.11h0c.86-.15,1.41-.22,1.51-.23a2.31,2.31,0,0,1,2.53,1.71c0,.07.11.47.23,1.11h0c.26,1.19,1,.63,1,.63h0A13,13,0,0,1,88.61,75l-1.4.56a1.48,1.48,0,0,0-.32,2.58,35.46,35.46,0,0,0,7.82,4.16,1.5,1.5,0,0,0,1.85-.74,34.83,34.83,0,0,0,2.74-8.37A1.51,1.51,0,0,0,99.22,72.37Z"/><path class="a508c0a5-5642-4869-84af-e676838cb02d" d="M118.53,44.12l-8,81.93c-.24,2.39-2.8,4.25-5.89,4.25H57.17c-3,0-5.54-1.79-5.83-4.13L41.47,44.12Z"/></g></svg>