<svg id="Layer_1" data-name="Layer 1" xmlns="http://www.w3.org/2000/svg" viewBox="0 0 65 65"><defs><style>.cls-1{fill:#05c4a3;}</style></defs><path id="Icon_awesome-directions" data-name="Icon awesome-directions" class="cls-1" d="M61.76,30.2,35.51,4a3.76,3.76,0,0,0-5.32,0L4,30.2a3.76,3.76,0,0,0,0,5.32L30.2,61.77a3.76,3.76,0,0,0,5.31,0h0L61.76,35.52a3.76,3.76,0,0,0,0-5.32ZM49.92,31.68l-9.87,9.1a1,1,0,0,1-1.33-.05.93.93,0,0,1-.25-.64V33.8H27.23v7.5a.94.94,0,0,1-.94.94H22.54a.94.94,0,0,1-.94-.94h0V31.92a3.74,3.74,0,0,1,3.74-3.75H38.48V21.88a.94.94,0,0,1,.94-.94.93.93,0,0,1,.63.25l9.87,9.1a1,1,0,0,1,0,1.33l0,.05Z"/></svg>