<?xml version="1.0" encoding="utf-8"?>
<!-- Generator: Adobe Illustrator 25.0.0, SVG Export Plug-In . SVG Version: 6.00 Build 0)  -->
<svg version="1.1" id="Layer_1" xmlns="http://www.w3.org/2000/svg" xmlns:xlink="http://www.w3.org/1999/xlink" x="0px" y="0px"
	 viewBox="0 0 1200 1072.36" style="enable-background:new 0 0 1200 1072.36;" xml:space="preserve">
<style type="text/css">
	.st0{fill:#EE655B;}
	.st1{fill:#64DADD;}
	.st2{fill:#05C4A3;}
	.st3{opacity:0.73;}
	.st4{fill:#D2F4EE;}
	.st5{fill:#FFFFFF;}
	.st6{fill:none;stroke:#000000;stroke-width:5.0725;stroke-miterlimit:10;}
	.st7{fill:#87D3C6;}
	.st8{fill:#F2A8A3;}
	.st9{fill:#EB9E3F;}
	.st10{fill:#F7EDC0;}
	.st11{fill:#AFF2E5;}
	.st12{fill:#FEAB8D;}
	.st13{fill:#F3937B;}
	.st14{fill:#F49277;}
	.st15{fill:#87E0F4;}
	.st16{opacity:0.3;}
	.st17{fill:#4B91B5;}
	.st18{fill:#383431;}
	.st19{fill:#F7857C;}
	.st20{fill:#07A889;}
	.st21{clip-path:url(#SVGID_2_);fill:#05C4A3;}
	.st22{clip-path:url(#SVGID_4_);fill:#05C4A3;}
	.st23{clip-path:url(#SVGID_6_);fill:#05C4A3;}
	.st24{fill:none;stroke:#05C4A3;stroke-width:9;stroke-linecap:round;stroke-linejoin:round;stroke-miterlimit:10;}
	.st25{clip-path:url(#SVGID_8_);fill:#05C4A3;}
	.st26{clip-path:url(#SVGID_10_);fill:#05C4A3;}
	.st27{clip-path:url(#SVGID_12_);fill:#05C4A3;}
	.st28{fill:#F7931E;}
</style>
<g>
	<g>
		<g>
			<line class="st10" x1="616.22" y1="705.79" x2="606.29" y2="719.09"/>
			<path class="st10" d="M862.44,594.14c-0.84-0.34-1.65,1.12-2.04,1.97c-0.08,0.17-0.14,0.33-0.22,0.5
				c-0.01,0.03-0.03,0.07-0.03,0.07l0,0c-2.15,4.93-3.63,7.99-3.91,8.56l0,0c-3.14,6.38-9.54,10.16-16.29,10.16
				c-2.07,0-4.18-0.36-6.24-1.11c-1.22-0.44-11.27-4.19-25.36-10.92c-0.03-0.01-0.05-0.02-0.08-0.03c-6.38-2.98-6.45,4.41-6.45,4.41
				c-0.02,0.56-0.07,1.11-0.1,1.67c-0.07,1.23-0.16,2.46-0.28,3.69c-0.06,0.62-0.12,1.24-0.18,1.86c-0.13,1.21-0.29,2.42-0.45,3.62
				c-0.08,0.55-0.15,1.11-0.23,1.66c-0.26,1.69-0.55,3.37-0.88,5.03c-0.03,0.17-0.07,0.34-0.11,0.51c-0.32,1.54-0.66,3.06-1.04,4.58
				c-0.15,0.6-0.31,1.19-0.47,1.79c-0.28,1.07-0.58,2.14-0.89,3.19c-0.2,0.66-0.4,1.32-0.6,1.97c-0.32,1.02-0.66,2.02-1.01,3.03
				c-0.22,0.63-0.43,1.26-0.65,1.88c-0.46,1.27-0.95,2.53-1.46,3.78c-0.3,0.74-0.61,1.47-0.92,2.19c-0.45,1.05-0.91,2.1-1.39,3.13
				c-0.33,0.72-0.68,1.43-1.03,2.14c-0.38,0.79-0.77,1.57-1.17,2.35c-0.39,0.75-0.79,1.51-1.19,2.25c-0.38,0.71-0.78,1.41-1.18,2.11
				c-0.44,0.77-0.87,1.54-1.33,2.29c-0.37,0.61-0.76,1.21-1.13,1.82c-0.97,1.55-1.98,3.09-3.02,4.59c-0.32,0.46-0.63,0.93-0.96,1.39
				c-0.61,0.86-1.24,1.7-1.88,2.54c-0.34,0.45-0.68,0.9-1.03,1.35c-0.67,0.86-1.34,1.71-2.03,2.55c-0.3,0.37-0.61,0.72-0.91,1.08
				c-3.51,4.17-7.29,8.12-11.34,11.8c-0.19,0.17-0.38,0.34-0.56,0.51c-0.99,0.89-1.99,1.77-3.01,2.62
				c-0.11,0.09-0.22,0.18-0.33,0.27c-4.47,3.74-9.22,7.18-14.22,10.27c-0.03,0.02-0.05,0.03-0.08,0.05
				c-6.36,3.94-13.11,7.33-20.2,10.11v-15.89c0-5.36-2.91-10.29-7.59-12.89c-4.69-2.6-10.41-2.45-14.96,0.39
				c-37.71,23.54-65.84,54.67-67.02,55.98c-5.03,5.6-5.03,14.1,0,19.7c1.18,1.31,29.31,32.44,67.02,55.98
				c2.38,1.49,5.09,2.24,7.81,2.24c2.46,0,4.92-0.62,7.15-1.85c4.69-2.6,7.59-7.53,7.59-12.89v-27.91
				c4.47-1.12,8.85-2.41,13.18-3.83c0.58-0.19,1.18-0.37,1.76-0.56c1.68-0.57,3.33-1.18,4.98-1.8c0.89-0.33,1.79-0.65,2.68-1
				c1.57-0.61,3.11-1.25,4.66-1.9c0.95-0.4,1.89-0.79,2.83-1.2c1.51-0.66,3-1.34,4.48-2.04c0.94-0.44,1.88-0.9,2.81-1.35
				c1.46-0.72,2.92-1.45,4.36-2.2c0.91-0.48,1.81-0.97,2.71-1.46c1.44-0.79,2.89-1.57,4.31-2.4c0.81-0.47,1.6-0.96,2.4-1.44
				c5-3,9.84-6.21,14.51-9.64c0.81-0.59,1.63-1.17,2.43-1.78c1.21-0.92,2.4-1.87,3.58-2.82c0.89-0.71,1.79-1.42,2.67-2.15
				c1.13-0.94,2.24-1.89,3.34-2.85c0.9-0.79,1.8-1.58,2.69-2.38c1.06-0.96,2.11-1.93,3.14-2.91c0.9-0.85,1.78-1.71,2.66-2.58
				c1-0.98,1.99-1.97,2.96-2.97c0.89-0.92,1.76-1.86,2.63-2.8c0.92-0.99,1.85-1.98,2.75-2.99c0.93-1.05,1.83-2.13,2.74-3.21
				c0.79-0.93,1.6-1.85,2.38-2.8c1.59-1.95,3.13-3.94,4.64-5.96c0.68-0.91,1.32-1.85,1.98-2.77c0.89-1.23,1.77-2.47,2.63-3.72
				c0.68-1,1.32-2.01,1.98-3.02c0.8-1.22,1.59-2.45,2.35-3.69c0.64-1.03,1.25-2.08,1.87-3.13c0.74-1.26,1.47-2.52,2.18-3.8
				c0.58-1.05,1.15-2.1,1.72-3.16c0.7-1.33,1.38-2.67,2.05-4.01c0.51-1.04,1.03-2.07,1.52-3.11c0.69-1.46,1.35-2.95,2-4.43
				c0.42-0.95,0.85-1.9,1.25-2.86c0.81-1.94,1.57-3.9,2.31-5.88c0.2-0.53,0.42-1.04,0.61-1.57c0.91-2.49,1.76-5.01,2.55-7.55
				c0.26-0.83,0.49-1.68,0.74-2.52c0.52-1.75,1.03-3.5,1.5-5.27c0.27-1.02,0.51-2.04,0.76-3.07c0.39-1.62,0.78-3.25,1.13-4.89
				c0.23-1.08,0.44-2.16,0.65-3.25c0.31-1.62,0.6-3.25,0.87-4.88c0.18-1.09,0.35-2.19,0.51-3.29c0.24-1.68,0.45-3.37,0.64-5.06
				c0.12-1.06,0.25-2.12,0.35-3.18c0.18-1.86,0.31-3.73,0.43-5.61c0.06-0.91,0.14-1.81,0.18-2.72c0.13-2.79,0.21-5.59,0.21-8.42
				c0,0,0,0,0,0l0,0c0-2.12-0.06-4.22-0.14-6.31C863.52,594.84,863.22,594.45,862.44,594.14z"/>
			<path class="st10" d="M602.07,697.37l0.05-0.04c-29.4-21.93-48.35-56.28-48.35-94.94c0-5.98,0.46-11.86,1.34-17.61l10.45,7.06
				c4.39,2.97,10.1,3.4,14.92,1.13c2.29-1.08,4.2-2.69,5.61-4.64c1.55-2.15,2.49-4.71,2.64-7.42c2.31-42.9-7.07-82.4-7.47-84.06
				c-1.71-7.08-8.67-11.79-16.14-10.9c-1.75,0.21-43.38,5.25-84.29,22.08c-4.93,2.03-8.33,6.48-8.89,11.63
				c-0.56,5.15,1.82,10.18,6.22,13.15l22.51,15.21c-5.65,17.15-8.73,35.41-8.73,54.38c0,57.12,27.66,107.94,70.67,140.84
				c5.47,4.73,12.67,7.64,20.6,7.64c17.08,0,30.92-13.37,30.92-29.87C614.13,711.38,609.4,702.83,602.07,697.37z"/>
			<path class="st10" d="M872.22,493.84c-0.92-2.28-2.41-4.34-4.38-5.94c-4.16-3.38-9.82-4.23-14.8-2.23l-25.5,10.25
				c-33.84-44.36-88.27-73.14-149.68-73.14c-46.35,0-88.7,16.41-121.25,43.52c-0.17,0.14-0.31,0.27-0.46,0.39
				c-0.14,0.12-0.28,0.25-0.42,0.37c-0.81,0.76-1.09,1.33-0.92,2.41c0.23,1.46,3.05,1.06,3.05,1.06l0,0
				c8.44-1.49,13.92-2.17,14.85-2.28c11.53-1.33,22.23,5.94,24.89,16.97c0.17,0.7,1.1,4.66,2.29,10.98c0,0.01,0.01,0.01,0.01,0.02
				c2.51,11.83,9.49,6.26,9.49,6.26l0,0.03c19.62-12.6,43.13-20,68.46-20c35.45,0,67.4,14.37,90.01,37.4l-13.78,5.54
				c-4.97,2-8.47,6.54-9.13,11.86c-0.66,5.32,1.61,10.58,5.94,13.73c35.91,26.21,75.28,40.7,76.94,41.3
				c7.07,2.58,14.95-0.59,18.27-7.35c0.78-1.59,19.16-39.3,26.94-83.07C873.55,499.15,873.24,496.36,872.22,493.84z"/>
		</g>
		<path class="st10" d="M1122.35,591.39c-6.78-105.96-51.07-202.26-119.4-275.96l46.44-46.44c14.63-14.63,14.63-38.34,0-52.97h0
			c-14.63-14.63-38.34-14.63-52.97,0l-48.75,48.75c-67.13-52.06-149.04-85.69-237.64-93.08v-70.01h42.87
			c20.69,0,37.46-16.77,37.46-37.46l0,0c0-20.69-16.77-37.46-37.46-37.46H592.25c-20.69,0-37.46,16.77-37.46,37.46l0,0
			c0,20.69,16.77,37.46,37.46,37.46h42.87v70.01c-142.3,11.77-266.16,89.98-340.19,203.54c-3.68,5.65-3.77,12.95-0.4,18.79
			l12.07,20.93c6.81,11.8,23.61,11.89,30.75,0.29c75.47-122.69,216.62-201.08,373.93-185.94
			c183.25,17.64,332.03,164.04,352.27,347.02c26.18,236.7-159.42,437.97-390.96,437.97c-201.83,0-368.81-153.05-390.8-349.14
			c-0.63-5.63-2.33-11.1-5.16-16l-21.82-37.72c-9.04-15.62-32.92-9.22-32.94,8.83l0,0.61c0,248.46,202.25,450.71,450.71,450.71
			C930.8,1071.57,1139.1,853.13,1122.35,591.39z"/>
		<path class="st10" d="M211.54,322.5l-64.96,37.35l-41.93-72.63c-7.53-13.14-3.1-30.12,10.19-37.79l16.98-9.74
			c13.14-7.68,30.12-3.1,37.79,10.19L211.54,322.5z"/>
		<polygon class="st10" points="408.03,662.79 343.22,700.14 171.09,402.37 236.04,364.87 		"/>
		<path class="st10" d="M442.58,787.24c0.59,4.28-4.28,7.09-7.68,4.58l-69.98-53.44l64.96-37.5L442.58,787.24z"/>
	</g>
	<g>
		<g>
			<line class="st28" x1="591.93" y1="681.5" x2="582" y2="694.8"/>
			<path class="st28" d="M838.15,569.85c-0.84-0.34-1.65,1.12-2.04,1.97c-0.08,0.17-0.14,0.33-0.22,0.5
				c-0.01,0.03-0.03,0.07-0.03,0.07l0,0c-2.15,4.93-3.63,7.99-3.91,8.56l0,0c-3.14,6.38-9.54,10.16-16.29,10.16
				c-2.07,0-4.18-0.36-6.24-1.11c-1.22-0.44-11.27-4.19-25.36-10.92c-0.03-0.01-0.05-0.02-0.08-0.03c-6.38-2.98-6.45,4.41-6.45,4.41
				c-0.02,0.56-0.07,1.11-0.1,1.67c-0.07,1.23-0.16,2.46-0.28,3.69c-0.06,0.62-0.12,1.24-0.18,1.86c-0.13,1.21-0.29,2.42-0.45,3.62
				c-0.08,0.55-0.15,1.11-0.23,1.66c-0.26,1.69-0.55,3.37-0.88,5.03c-0.03,0.17-0.07,0.34-0.11,0.51c-0.32,1.54-0.66,3.06-1.04,4.58
				c-0.15,0.6-0.31,1.19-0.47,1.79c-0.28,1.07-0.58,2.14-0.89,3.19c-0.2,0.66-0.4,1.32-0.6,1.97c-0.32,1.02-0.66,2.02-1.01,3.03
				c-0.22,0.63-0.43,1.26-0.65,1.88c-0.46,1.27-0.95,2.53-1.46,3.78c-0.3,0.74-0.61,1.47-0.92,2.19c-0.45,1.05-0.91,2.1-1.39,3.13
				c-0.33,0.72-0.68,1.43-1.03,2.14c-0.38,0.79-0.77,1.57-1.17,2.35c-0.39,0.75-0.79,1.51-1.19,2.25c-0.38,0.71-0.78,1.41-1.18,2.11
				c-0.44,0.77-0.87,1.54-1.33,2.29c-0.37,0.61-0.76,1.21-1.13,1.82c-0.97,1.55-1.98,3.09-3.02,4.59c-0.32,0.46-0.63,0.93-0.96,1.39
				c-0.61,0.86-1.24,1.7-1.88,2.54c-0.34,0.45-0.68,0.9-1.03,1.35c-0.67,0.86-1.34,1.71-2.03,2.55c-0.3,0.36-0.61,0.72-0.91,1.08
				c-3.51,4.17-7.29,8.12-11.34,11.8c-0.19,0.17-0.38,0.34-0.56,0.51c-0.99,0.89-1.99,1.77-3.01,2.62
				c-0.11,0.09-0.22,0.18-0.33,0.27c-4.47,3.74-9.22,7.18-14.22,10.27c-0.03,0.02-0.05,0.03-0.08,0.05
				c-6.36,3.94-13.11,7.33-20.2,10.11v-15.89c0-5.36-2.91-10.29-7.59-12.89c-4.69-2.6-10.41-2.45-14.96,0.39
				c-37.71,23.54-65.84,54.67-67.02,55.98c-5.03,5.6-5.03,14.1,0,19.7c1.18,1.31,29.31,32.44,67.02,55.98
				c2.38,1.49,5.09,2.24,7.81,2.24c2.46,0,4.92-0.62,7.15-1.85c4.69-2.6,7.59-7.53,7.59-12.89V752c4.47-1.12,8.85-2.41,13.18-3.83
				c0.58-0.19,1.18-0.37,1.76-0.56c1.68-0.57,3.33-1.18,4.98-1.8c0.89-0.33,1.79-0.65,2.68-1c1.57-0.61,3.11-1.25,4.66-1.9
				c0.95-0.4,1.89-0.79,2.83-1.2c1.51-0.66,3-1.34,4.48-2.04c0.94-0.44,1.88-0.9,2.81-1.35c1.46-0.72,2.92-1.45,4.36-2.2
				c0.91-0.48,1.81-0.97,2.71-1.46c1.44-0.79,2.89-1.57,4.31-2.4c0.81-0.47,1.6-0.96,2.4-1.44c5-3,9.84-6.21,14.51-9.64
				c0.81-0.59,1.63-1.17,2.43-1.78c1.21-0.92,2.4-1.87,3.58-2.82c0.89-0.71,1.79-1.42,2.67-2.15c1.13-0.94,2.24-1.89,3.34-2.85
				c0.9-0.79,1.8-1.58,2.69-2.38c1.06-0.96,2.11-1.93,3.14-2.91c0.9-0.85,1.78-1.71,2.66-2.58c1-0.98,1.99-1.97,2.96-2.97
				c0.89-0.92,1.76-1.86,2.63-2.8c0.92-0.99,1.85-1.98,2.75-2.99c0.93-1.05,1.83-2.13,2.74-3.21c0.79-0.93,1.6-1.85,2.38-2.8
				c1.59-1.95,3.13-3.94,4.64-5.96c0.68-0.91,1.32-1.85,1.98-2.77c0.89-1.23,1.77-2.47,2.63-3.72c0.68-1,1.32-2.01,1.98-3.02
				c0.8-1.22,1.59-2.45,2.35-3.69c0.64-1.03,1.25-2.08,1.87-3.13c0.74-1.26,1.47-2.52,2.18-3.8c0.58-1.05,1.15-2.1,1.72-3.16
				c0.7-1.33,1.38-2.67,2.05-4.01c0.51-1.04,1.03-2.07,1.52-3.11c0.69-1.46,1.35-2.95,2-4.43c0.42-0.95,0.85-1.9,1.25-2.86
				c0.81-1.94,1.57-3.9,2.31-5.88c0.2-0.53,0.42-1.04,0.61-1.57c0.91-2.49,1.76-5.01,2.55-7.55c0.26-0.83,0.49-1.68,0.74-2.52
				c0.52-1.75,1.03-3.5,1.5-5.27c0.27-1.02,0.51-2.04,0.76-3.07c0.39-1.62,0.78-3.25,1.13-4.89c0.23-1.08,0.44-2.16,0.65-3.25
				c0.31-1.62,0.6-3.25,0.87-4.88c0.18-1.09,0.35-2.19,0.51-3.29c0.24-1.68,0.45-3.37,0.64-5.06c0.12-1.06,0.25-2.12,0.35-3.18
				c0.18-1.86,0.31-3.73,0.43-5.61c0.06-0.91,0.14-1.81,0.18-2.72c0.13-2.79,0.21-5.59,0.21-8.42c0,0,0,0,0,0l0,0
				c0-2.12-0.06-4.22-0.14-6.31C839.23,570.55,838.93,570.16,838.15,569.85z"/>
			<path class="st28" d="M577.78,673.08l0.04-0.04c-29.4-21.93-48.35-56.28-48.35-94.94c0-5.98,0.46-11.86,1.34-17.61l10.45,7.06
				c4.39,2.97,10.1,3.4,14.92,1.13c2.29-1.08,4.2-2.69,5.61-4.64c1.55-2.15,2.49-4.71,2.64-7.42c2.31-42.9-7.07-82.4-7.47-84.06
				c-1.71-7.08-8.67-11.79-16.14-10.9c-1.75,0.21-43.38,5.25-84.29,22.08c-4.93,2.03-8.33,6.48-8.89,11.63
				c-0.56,5.15,1.82,10.18,6.22,13.15l22.51,15.21c-5.65,17.15-8.73,35.41-8.73,54.38c0,57.12,27.66,107.94,70.67,140.84
				c5.47,4.73,12.67,7.64,20.6,7.64c17.08,0,30.92-13.37,30.92-29.87C589.84,687.09,585.11,678.54,577.78,673.08z"/>
			<path class="st28" d="M847.93,469.55c-0.92-2.28-2.41-4.34-4.38-5.94c-4.16-3.38-9.82-4.23-14.8-2.23l-25.5,10.25
				c-33.84-44.36-88.27-73.14-149.68-73.14c-46.35,0-88.7,16.41-121.25,43.52c-0.17,0.14-0.31,0.27-0.46,0.39
				c-0.14,0.12-0.28,0.25-0.42,0.37c-0.81,0.76-1.09,1.33-0.92,2.41c0.23,1.46,3.05,1.06,3.05,1.06l0,0
				c8.44-1.49,13.92-2.17,14.85-2.28c11.53-1.33,22.23,5.94,24.89,16.97c0.17,0.7,1.1,4.66,2.29,10.98c0,0.01,0.01,0.01,0.01,0.02
				c2.51,11.83,9.49,6.26,9.49,6.26l0,0.03c19.62-12.6,43.13-20,68.46-20c35.45,0,67.4,14.37,90.01,37.4l-13.78,5.54
				c-4.97,2-8.47,6.54-9.13,11.86c-0.66,5.32,1.61,10.58,5.94,13.73c35.91,26.21,75.28,40.7,76.94,41.3
				c7.07,2.58,14.95-0.59,18.27-7.35c0.78-1.59,19.16-39.3,26.94-83.07C849.26,474.86,848.95,472.07,847.93,469.55z"/>
		</g>
		<path class="st28" d="M1098.06,567.1c-6.78-105.96-51.07-202.26-119.4-275.96l46.44-46.44c14.63-14.63,14.63-38.34,0-52.97h0
			c-14.63-14.63-38.34-14.63-52.97,0l-48.75,48.75c-67.13-52.06-149.04-85.69-237.64-93.08V77.4h42.87
			c20.69,0,37.46-16.77,37.46-37.46l0,0c0-20.69-16.77-37.46-37.46-37.46H567.96c-20.69,0-37.46,16.77-37.46,37.46l0,0
			c0,20.69,16.77,37.46,37.46,37.46h42.87v70.01c-142.3,11.77-266.16,89.98-340.19,203.54c-3.68,5.65-3.77,12.95-0.4,18.79
			l12.07,20.93c6.81,11.8,23.61,11.89,30.75,0.29C388.53,268.25,529.69,189.86,686.99,205c183.25,17.64,332.03,164.04,352.27,347.02
			C1065.44,788.73,879.84,990,648.29,990c-201.83,0-368.81-153.05-390.8-349.14c-0.63-5.63-2.33-11.1-5.16-16l-21.82-37.72
			c-9.04-15.62-32.92-9.22-32.94,8.83l0,0.61c0,248.46,202.25,450.71,450.71,450.71C906.51,1047.28,1114.81,828.84,1098.06,567.1z"
			/>
		<path class="st28" d="M187.25,298.21l-64.96,37.35l-41.93-72.63c-7.53-13.14-3.1-30.12,10.19-37.79l16.98-9.74
			c13.14-7.68,30.12-3.1,37.79,10.19L187.25,298.21z"/>
		<polygon class="st28" points="383.74,638.5 318.93,675.85 146.8,378.08 211.75,340.58 		"/>
		<path class="st28" d="M418.29,762.95c0.59,4.28-4.28,7.09-7.68,4.58l-69.98-53.44l64.96-37.5L418.29,762.95z"/>
	</g>
</g>
</svg>
