<svg id="Layer_1" data-name="Layer 1" xmlns="http://www.w3.org/2000/svg" xmlns:xlink="http://www.w3.org/1999/xlink" viewBox="0 0 500 500"><defs><style>.cls-1{fill:none;}.cls-2{clip-path:url(#clip-path);}.cls-3{fill:#f7edc0;}.cls-4{clip-path:url(#clip-path-2);}.cls-5{fill:#f7931e;}</style><clipPath id="clip-path"><rect class="cls-1" x="169.36" y="167.53" width="166.24" height="169.9"/></clipPath><clipPath id="clip-path-2"><rect class="cls-1" x="164.4" y="162.57" width="166.24" height="169.9"/></clipPath></defs><g id="Group_1697" data-name="Group 1697"><g class="cls-2"><g id="Group_1691" data-name="Group 1691"><path id="Path_7029" data-name="Path 7029" class="cls-3" d="M264.92,190.89a73.23,73.23,0,0,0-64,33.31,2.91,2.91,0,0,0-.06,3.05l2,3.4a2.9,2.9,0,0,0,4,1.06,2.85,2.85,0,0,0,1-1,64,64,0,1,1-9,40.64,6.7,6.7,0,0,0-.85-2.6l-3.55-6.12a2.86,2.86,0,0,0-5.35,1.43v.1a73.3,73.3,0,1,0,75.9-73.26"/><line id="Line_19046" data-name="Line 19046" class="cls-1" x1="253.15" y1="277.95" x2="251.53" y2="280.12"/><path id="Path_7030" data-name="Path 7030" class="cls-3" d="M293.18,259.79c-.13-.05-.27.18-.33.32l0,.08v0h0c-.35.8-.59,1.3-.64,1.39a2.94,2.94,0,0,1-2.65,1.65,2.68,2.68,0,0,1-1-.17c-.2-.07-1.84-.68-4.13-1.77h0c-1-.5-1.05.71-1.05.71v.28l0,.59a2.91,2.91,0,0,1,0,.31c0,.2,0,.39-.07.59s0,.18,0,.27c0,.27-.09.54-.14.82l0,.08c-.05.25-.11.5-.17.75l-.08.28c0,.17-.09.36-.14.52l-.1.32c-.05.17-.1.33-.16.5l-.11.3c-.07.21-.15.41-.24.62s-.09.24-.14.36l-.23.5c-.05.12-.11.24-.16.35l-.19.39-.2.36-.19.35c-.07.11-.14.25-.22.36l-.18.3c-.16.26-.32.5-.5.75,0,.08-.11.15-.17.23s-.2.28-.3.41l-.16.22c-.11.15-.22.28-.33.42l-.15.17a18.51,18.51,0,0,1-1.84,1.92l-.09.09-.49.42-.05,0a21,21,0,0,1-2.32,1.67h0a20.65,20.65,0,0,1-3.29,1.65v-2.61a2.4,2.4,0,0,0-2.39-2.4,2.38,2.38,0,0,0-1.27.37,56.3,56.3,0,0,0-10.91,9.1,2.42,2.42,0,0,0,0,3.21A56.3,56.3,0,0,0,267.1,296a2.39,2.39,0,0,0,3.66-2v-4.55c.72-.18,1.44-.39,2.15-.62a1.52,1.52,0,0,0,.28-.09c.28-.09.55-.19.81-.29l.44-.17.76-.31.45-.2c.25-.1.5-.21.74-.33l.46-.22c.24-.11.47-.23.7-.36l.44-.23.71-.39c.13-.08.26-.15.38-.24.82-.49,1.61-1,2.37-1.57l.39-.29.58-.45.44-.35.54-.47.44-.39.51-.47c.15-.14.29-.27.43-.42s.33-.32.48-.48.29-.31.43-.45l.45-.5.44-.52c.14-.17.27-.3.39-.46.26-.32.51-.64.75-1l.33-.44.43-.61c.11-.17.22-.33.32-.5s.26-.39.38-.59.2-.34.31-.51l.35-.62c.1-.17.19-.33.28-.51l.34-.66.25-.5c.1-.24.22-.48.33-.72s.14-.31.2-.47l.38-1a2,2,0,0,1,.1-.26c.14-.41.28-.82.41-1.23.05-.13.08-.27.13-.41s.16-.57.23-.86.09-.33.13-.49l.18-.8c0-.17.07-.35.1-.52s.1-.54.15-.8.05-.35.08-.53.07-.55.11-.83l.06-.52.06-.91,0-.44c0-.46,0-.92,0-1.37s0-.69,0-1-.07-.26-.19-.32"/><path id="Path_7031" data-name="Path 7031" class="cls-3" d="M250.84,276.58h0A19.26,19.26,0,0,1,243,261.14a19.57,19.57,0,0,1,.22-2.86l1.7,1.16a2.51,2.51,0,0,0,2.43.18,2.4,2.4,0,0,0,.91-.76,2.19,2.19,0,0,0,.43-1.21A52.8,52.8,0,0,0,247.45,244a2.38,2.38,0,0,0-2.62-1.77,58.09,58.09,0,0,0-13.71,3.59,2.33,2.33,0,0,0-1.44,1.89,2.27,2.27,0,0,0,1,2.14l3.66,2.47a28.31,28.31,0,0,0-1.42,8.85,28.8,28.8,0,0,0,11.5,22.9,5.14,5.14,0,0,0,3.35,1.24,5,5,0,0,0,5-4.85,4.81,4.81,0,0,0-2-3.85"/><path id="Path_7032" data-name="Path 7032" class="cls-3" d="M294.78,243.48a2.39,2.39,0,0,0-3.12-1.32l-4.16,1.66a30.91,30.91,0,0,0-43.4-5.32c-.22.17-.44.34-.65.52l-.07.06-.07,0a.41.41,0,0,0-.15.4c0,.23.5.16.5.16h0c1.38-.24,2.26-.35,2.41-.37a3.69,3.69,0,0,1,4.05,2.77c0,.11.18.75.38,1.78.4,1.93,1.54,1,1.54,1a20.69,20.69,0,0,1,25.77,2.84l-2.24.9a2.39,2.39,0,0,0-1.32,3.12,2.29,2.29,0,0,0,.8,1,57.13,57.13,0,0,0,12.51,6.72,2.4,2.4,0,0,0,3-1.2,56.69,56.69,0,0,0,4.38-13.5,2.41,2.41,0,0,0-.13-1.33"/><rect id="Rectangle_655" data-name="Rectangle 655" class="cls-3" x="256.22" y="176.49" width="12.18" height="19.02"/><path id="Path_7033" data-name="Path 7033" class="cls-3" d="M281.46,173.62h0a6.09,6.09,0,0,1-6.09,6.09H249.25a6.09,6.09,0,0,1,0-12.18h26.12a6.09,6.09,0,0,1,6.09,6.09h0"/><path id="Path_7034" data-name="Path 7034" class="cls-3" d="M323.59,198.31h0a6.1,6.1,0,0,1,0,8.61l-8.41,8.4a6.09,6.09,0,0,1-8.6-8.6l8.4-8.41a6.1,6.1,0,0,1,8.61,0"/><path id="Path_7035" data-name="Path 7035" class="cls-3" d="M187.33,215.62l-10.56,6.08L170,209.88a4.51,4.51,0,0,1,1.66-6.14l2.75-1.59a4.5,4.5,0,0,1,6.14,1.64v0Z"/><rect id="Rectangle_656" data-name="Rectangle 656" class="cls-3" x="193.94" y="221.81" width="12.18" height="55.94" transform="translate(-98.03 133.32) rotate(-29.97)"/><path id="Path_7036" data-name="Path 7036" class="cls-3" d="M224.91,291.2a.79.79,0,0,1-.67.89.85.85,0,0,1-.58-.15l-11.38-8.69,10.56-6.09Z"/></g></g></g><g id="Group_1692" data-name="Group 1692"><g class="cls-4"><g id="Group_1691-2" data-name="Group 1691-2"><path id="Path_7029-2" data-name="Path 7029-2" class="cls-5" d="M260,185.93a73.27,73.27,0,0,0-64,33.3,2.93,2.93,0,0,0-.06,3.05l2,3.41a2.91,2.91,0,0,0,4,1.06,3,3,0,0,0,1-1,64,64,0,1,1-9,40.65,6.63,6.63,0,0,0-.84-2.6l-3.55-6.13a2.87,2.87,0,0,0-5.35,1.43v.1A73.29,73.29,0,1,0,260,185.93"/><line id="Line_19046-2" data-name="Line 19046-2" class="cls-1" x1="248.18" y1="272.99" x2="246.57" y2="275.15"/><path id="Path_7030-2" data-name="Path 7030-2" class="cls-5" d="M288.22,254.83c-.14-.06-.27.18-.34.32l0,.08h0c-.35.81-.59,1.3-.63,1.39a3,3,0,0,1-3.67,1.49c-.19-.07-1.83-.69-4.12-1.78h0c-1.05-.49-1.05.72-1.05.72v.27l-.05.6,0,.3c0,.2,0,.4-.08.59l0,.28q-.06.4-.15.81l0,.08c-.05.25-.1.5-.16.75l-.08.29a5.08,5.08,0,0,1-.15.52l-.09.32c-.06.16-.11.33-.17.49l-.1.31c-.08.2-.15.41-.24.61l-.15.36-.22.51c-.06.12-.12.23-.17.35s-.12.25-.19.38-.13.25-.2.37-.12.23-.19.34a3,3,0,0,1-.22.37,2.38,2.38,0,0,1-.18.3,8.73,8.73,0,0,1-.5.74,1.88,1.88,0,0,1-.16.23l-.3.42-.17.22-.33.41-.14.17a17.68,17.68,0,0,1-1.85,1.92l-.09.09c-.17.14-.32.29-.48.43l-.06,0a22.31,22.31,0,0,1-2.31,1.68h0a20.6,20.6,0,0,1-3.29,1.64v-2.6a2.4,2.4,0,0,0-3.66-2,57,57,0,0,0-10.9,9.11,2.39,2.39,0,0,0,0,3.2,57,57,0,0,0,10.9,9.11,2.4,2.4,0,0,0,3.66-2v-4.55c.73-.18,1.44-.39,2.16-.62l.28-.09.81-.3.43-.16.77-.31.45-.2.73-.33.46-.22.71-.36.44-.24.7-.39.39-.23c.81-.5,1.6-1,2.36-1.57l.4-.29.58-.46.43-.35.55-.46.43-.39c.17-.16.34-.32.52-.47l.43-.42c.14-.15.33-.32.47-.49l.43-.45c.14-.15.31-.33.45-.5l.45-.51c.14-.18.26-.31.38-.46.26-.32.51-.64.76-1,.11-.15.21-.3.33-.45l.43-.61.32-.49c.13-.2.26-.4.38-.6l.31-.51.35-.61.28-.52.33-.65c.08-.17.17-.33.25-.51l.33-.72c.07-.16.14-.31.2-.47s.26-.63.38-.95a2.6,2.6,0,0,0,.1-.25q.22-.62.42-1.23l.12-.41c.08-.29.17-.58.24-.86l.12-.5c.07-.27.13-.52.18-.79s.08-.35.11-.53.1-.53.14-.8.06-.35.08-.53.08-.55.11-.83l.06-.52.06-.91c0-.14,0-.29,0-.44,0-.45,0-.91,0-1.36s0-.69,0-1-.07-.26-.19-.31"/><path id="Path_7031-2" data-name="Path 7031-2" class="cls-5" d="M245.88,271.62h0A19.24,19.24,0,0,1,238,256.17a18.37,18.37,0,0,1,.22-2.86l1.7,1.16a2.46,2.46,0,0,0,2.42.18,2.34,2.34,0,0,0,.92-.76,2.26,2.26,0,0,0,.42-1.2A52.75,52.75,0,0,0,242.49,239a2.39,2.39,0,0,0-2.63-1.77,58,58,0,0,0-13.7,3.58,2.32,2.32,0,0,0-1.44,1.9,2.23,2.23,0,0,0,1,2.13l3.66,2.48a28.53,28.53,0,0,0,10.08,31.74,5.1,5.1,0,0,0,3.35,1.25,5,5,0,0,0,5-4.86,4.8,4.8,0,0,0-2-3.84"/><path id="Path_7032-2" data-name="Path 7032-2" class="cls-5" d="M289.82,238.52a2.28,2.28,0,0,0-.72-1,2.37,2.37,0,0,0-2.41-.37l-4.15,1.66a30.93,30.93,0,0,0-43.41-5.32l-.64.52-.08.06-.06.06a.37.37,0,0,0-.15.39c0,.24.5.17.5.17h0c1.37-.25,2.25-.35,2.41-.37a3.7,3.7,0,0,1,4,2.76c0,.11.18.76.37,1.79.41,1.92,1.55,1,1.55,1a20.7,20.7,0,0,1,25.77,2.83l-2.25.9a2.39,2.39,0,0,0-.51,4.16,56.49,56.49,0,0,0,12.51,6.72,2.39,2.39,0,0,0,3-1.19A56.77,56.77,0,0,0,290,239.84a2.39,2.39,0,0,0-.13-1.32"/><rect id="Rectangle_655-2" data-name="Rectangle 655-2" class="cls-5" x="251.26" y="171.53" width="12.18" height="19.02"/><path id="Path_7033-2" data-name="Path 7033-2" class="cls-5" d="M276.5,168.66h0a6.09,6.09,0,0,1-6.09,6.09H244.28a6.1,6.1,0,0,1,0-12.19h26.13a6.09,6.09,0,0,1,6.09,6.09h0"/><path id="Path_7034-2" data-name="Path 7034-2" class="cls-5" d="M318.62,193.34h0a6.1,6.1,0,0,1,0,8.62l-8.4,8.4a6.09,6.09,0,0,1-8.61-8.61l8.4-8.4a6.1,6.1,0,0,1,8.62,0"/><path id="Path_7035-2" data-name="Path 7035-2" class="cls-5" d="M182.37,210.66l-10.56,6.07L165,204.92a4.53,4.53,0,0,1,1.65-6.15l2.76-1.58a4.5,4.5,0,0,1,6.14,1.64h0Z"/><rect id="Rectangle_656-2" data-name="Rectangle 656-2" class="cls-5" x="188.97" y="216.84" width="12.18" height="55.94" transform="translate(-96.21 130.17) rotate(-29.97)"/><path id="Path_7036-2" data-name="Path 7036-2" class="cls-5" d="M219.94,286.23a.79.79,0,0,1-.67.89.77.77,0,0,1-.57-.14l-11.38-8.7,10.56-6.09Z"/></g></g></g></svg>