<?xml version="1.0" encoding="utf-8"?>
<!-- Generator: Adobe Illustrator 25.0.0, SVG Export Plug-In . SVG Version: 6.00 Build 0)  -->
<svg version="1.1" id="Layer_1" xmlns="http://www.w3.org/2000/svg" xmlns:xlink="http://www.w3.org/1999/xlink" x="0px" y="0px"
	 viewBox="0 0 1200 1072.36" style="enable-background:new 0 0 1200 1072.36;" xml:space="preserve">
<style type="text/css">
	.st0{fill:#EE655B;}
	.st1{fill:#64DADD;}
	.st2{fill:#05C4A3;}
	.st3{opacity:0.73;}
	.st4{fill:#D2F4EE;}
	.st5{fill:#FFFFFF;}
	.st6{fill:none;stroke:#000000;stroke-width:5.0725;stroke-miterlimit:10;}
	.st7{fill:#87D3C6;}
	.st8{fill:#F2A8A3;}
	.st9{fill:#EB9E3F;}
	.st10{fill:#F7EDC0;}
	.st11{fill:#AFF2E5;}
	.st12{fill:#FEAB8D;}
	.st13{fill:#F3937B;}
	.st14{fill:#F49277;}
	.st15{fill:#87E0F4;}
	.st16{opacity:0.3;}
	.st17{fill:#4B91B5;}
	.st18{fill:#383431;}
	.st19{fill:#F7857C;}
	.st20{fill:#07A889;}
	.st21{clip-path:url(#SVGID_2_);fill:#05C4A3;}
	.st22{clip-path:url(#SVGID_4_);fill:#05C4A3;}
	.st23{clip-path:url(#SVGID_6_);fill:#05C4A3;}
	.st24{fill:none;stroke:#05C4A3;stroke-width:9;stroke-linecap:round;stroke-linejoin:round;stroke-miterlimit:10;}
	.st25{clip-path:url(#SVGID_8_);fill:#05C4A3;}
	.st26{clip-path:url(#SVGID_10_);fill:#05C4A3;}
	.st27{clip-path:url(#SVGID_12_);fill:#05C4A3;}
	.st28{fill:#F7931E;}
</style>
<g>
	<g>
		<path class="st10" d="M611.97,234.32c-84.74,0-164.4,33-224.32,92.91c-59.92,59.92-92.91,139.58-92.91,224.32
			c0,50.8,11.65,99.33,34.64,144.27c21.91,42.84,53.89,80.77,92.48,109.7c1.16,0.87,11.68,9.64,25.1,50.36
			c3.67,11.14,6.81,22.41,9.41,32.76h-8.44c-18.14,0-32.84,14.7-32.84,32.84v0c0,18.14,14.7,32.84,32.84,32.84h23.07
			c2.84,17.99,8.96,39.47,21.68,59.58c15.73,24.87,46.72,55.06,105.06,57.6c2.25,0.1,4.47,0.15,6.68,0.15
			c33.52,0,62.89-11.22,85.28-32.65c24.46-23.42,37.38-55.58,42.55-84.68h30.91c18.13,0,32.84-14.7,32.84-32.84v0
			c0-18.14-14.7-32.84-32.84-32.84h-10.07c3.97-10.57,8.11-20.93,12.47-30.74c15.87-35.75,25.99-44.78,28.72-46.69
			c84.5-59.42,134.95-156.49,134.95-259.66c0-84.74-33-164.4-92.91-224.32C776.37,267.32,696.71,234.32,611.97,234.32z
			 M653.04,1000.72c-13.55,12.97-30.89,18.81-53.01,17.84c-28.87-1.26-49.34-12.05-62.58-32.98c-6.16-9.74-9.93-20.33-12.24-30.09
			l152.72-0.76C673.5,971.8,665.37,988.91,653.04,1000.72z M759.37,761.61c-17.29,12.16-32.94,34.94-49.26,71.69
			c-7.87,17.73-14.97,36.6-21.53,55.34H518.71c-3.44-15.16-8.13-33.42-14.17-51.74c-13.31-40.38-28.46-66.52-46.32-79.9
			c-31.25-23.42-57.13-54.13-74.86-88.79c-18.57-36.31-27.99-75.56-27.99-116.66c0-141.49,115.11-256.59,256.59-256.59
			s256.59,115.11,256.59,256.59C868.56,635.01,827.74,713.53,759.37,761.61z"/>
		<path class="st10" d="M611.97,171.53L611.97,171.53c20.74,0,37.55-16.81,37.55-37.55V61.49c0-20.74-16.81-37.55-37.55-37.55l0,0
			c-20.74,0-37.55,16.81-37.55,37.55v72.49C574.42,154.72,591.23,171.53,611.97,171.53z"/>
		<path class="st10" d="M990.82,188.48L990.82,188.48c-14.32-15-38.09-15.55-53.09-1.22l-52.43,50.07
			c-15,14.32-15.55,38.09-1.23,53.09l0,0c14.32,15,38.09,15.55,53.09,1.23l52.43-50.07C1004.59,227.24,1005.14,203.47,990.82,188.48
			z"/>
		<path class="st10" d="M1089.48,521.86l-72.49,0.51c-20.74,0.14-37.43,17.07-37.29,37.81l0,0c0.14,20.74,17.07,37.43,37.81,37.29
			l72.49-0.51c20.74-0.15,37.43-17.07,37.29-37.81l0,0C1127.15,538.41,1110.22,521.72,1089.48,521.86z"/>
		<path class="st10" d="M338.78,290.36L338.78,290.36c14.31-15.01,13.74-38.78-1.27-53.09l-52.48-50.02
			c-15.01-14.31-38.78-13.74-53.09,1.27l0,0c-14.31,15.01-13.74,38.78,1.27,53.09l52.48,50.02
			C300.71,305.94,324.48,305.37,338.78,290.36z"/>
		<path class="st10" d="M206.81,522.64l-72.49-0.24c-20.74-0.07-37.61,16.69-37.67,37.43l0,0c-0.07,20.74,16.69,37.61,37.43,37.67
			l72.49,0.24c20.74,0.07,37.61-16.69,37.67-37.43l0,0C244.3,539.57,227.55,522.7,206.81,522.64z"/>
		<path class="st10" d="M782.91,549.68c-0.75-0.31-1.48,1.01-1.84,1.77c-0.07,0.16-0.13,0.3-0.2,0.45
			c-0.01,0.02-0.03,0.07-0.03,0.07l0,0c-1.93,4.44-3.27,7.19-3.52,7.71l0,0c-2.82,5.75-8.59,9.15-14.66,9.15
			c-1.87,0-3.76-0.32-5.61-1c-1.1-0.4-10.14-3.77-22.83-9.83c-0.03-0.01-0.05-0.02-0.07-0.03c-5.75-2.68-5.8,3.97-5.8,3.97
			c-0.02,0.5-0.06,1-0.09,1.51c-0.07,1.11-0.15,2.22-0.25,3.32c-0.05,0.56-0.11,1.12-0.17,1.68c-0.12,1.09-0.26,2.18-0.41,3.26
			c-0.07,0.5-0.13,1-0.21,1.5c-0.23,1.52-0.5,3.03-0.8,4.53c-0.03,0.15-0.07,0.31-0.1,0.46c-0.28,1.38-0.6,2.76-0.93,4.12
			c-0.13,0.54-0.28,1.07-0.42,1.61c-0.25,0.96-0.52,1.92-0.8,2.88c-0.18,0.59-0.36,1.18-0.54,1.77c-0.29,0.91-0.59,1.82-0.91,2.73
			c-0.19,0.56-0.38,1.13-0.59,1.69c-0.42,1.14-0.86,2.27-1.31,3.4c-0.27,0.66-0.55,1.32-0.83,1.98c-0.4,0.95-0.81,1.89-1.25,2.82
			c-0.3,0.65-0.62,1.28-0.93,1.92c-0.34,0.71-0.7,1.41-1.06,2.11c-0.35,0.68-0.71,1.36-1.07,2.03c-0.35,0.64-0.71,1.27-1.07,1.9
			c-0.4,0.69-0.79,1.38-1.2,2.07c-0.33,0.55-0.68,1.09-1.02,1.64c-0.88,1.4-1.78,2.78-2.72,4.13c-0.29,0.42-0.57,0.84-0.87,1.25
			c-0.55,0.77-1.12,1.53-1.69,2.29c-0.31,0.41-0.61,0.81-0.93,1.22c-0.6,0.77-1.21,1.54-1.83,2.29c-0.27,0.33-0.55,0.65-0.82,0.98
			c-3.16,3.76-6.57,7.31-10.21,10.62c-0.17,0.15-0.34,0.31-0.51,0.46c-0.89,0.8-1.8,1.59-2.71,2.36c-0.1,0.08-0.2,0.16-0.29,0.24
			c-4.03,3.37-8.3,6.46-12.8,9.25c-0.02,0.02-0.05,0.03-0.07,0.05c-5.73,3.54-11.81,6.6-18.18,9.1V642.8
			c0-4.83-2.62-9.27-6.84-11.61c-4.22-2.34-9.38-2.21-13.47,0.35c-33.95,21.2-59.28,49.22-60.34,50.4c-4.53,5.04-4.53,12.69,0,17.73
			c1.06,1.18,26.39,29.2,60.34,50.4c2.15,1.34,4.59,2.02,7.03,2.02c2.22,0,4.43-0.55,6.44-1.67c4.22-2.34,6.84-6.78,6.84-11.61
			v-25.13c4.02-1,7.97-2.17,11.87-3.45c0.53-0.17,1.06-0.33,1.58-0.51c1.51-0.51,3-1.07,4.49-1.62c0.81-0.3,1.61-0.59,2.41-0.9
			c1.41-0.55,2.8-1.12,4.19-1.71c0.85-0.36,1.7-0.71,2.55-1.08c1.36-0.59,2.7-1.21,4.03-1.83c0.85-0.4,1.69-0.81,2.53-1.22
			c1.32-0.65,2.63-1.3,3.93-1.98c0.82-0.43,1.63-0.87,2.44-1.31c1.3-0.71,2.6-1.42,3.88-2.16c0.73-0.42,1.44-0.87,2.16-1.3
			c4.5-2.7,8.86-5.59,13.07-8.68c0.73-0.53,1.47-1.06,2.18-1.6c1.09-0.83,2.16-1.69,3.23-2.54c0.8-0.64,1.61-1.28,2.4-1.94
			c1.02-0.84,2.01-1.7,3.01-2.57c0.81-0.71,1.62-1.42,2.42-2.14c0.95-0.86,1.9-1.74,2.83-2.62c0.81-0.76,1.6-1.54,2.39-2.32
			c0.9-0.88,1.79-1.77,2.66-2.67c0.8-0.83,1.58-1.68,2.37-2.52c0.83-0.89,1.66-1.78,2.47-2.69c0.84-0.95,1.65-1.92,2.47-2.89
			c0.71-0.84,1.44-1.67,2.14-2.53c1.43-1.76,2.82-3.55,4.17-5.36c0.61-0.82,1.19-1.66,1.79-2.49c0.8-1.11,1.6-2.22,2.37-3.35
			c0.61-0.9,1.19-1.81,1.78-2.72c0.72-1.1,1.43-2.2,2.12-3.32c0.57-0.93,1.13-1.87,1.68-2.81c0.67-1.13,1.32-2.27,1.96-3.42
			c0.52-0.94,1.04-1.89,1.55-2.85c0.63-1.19,1.24-2.4,1.84-3.61c0.46-0.93,0.93-1.86,1.37-2.8c0.62-1.32,1.21-2.65,1.8-3.99
			c0.38-0.86,0.77-1.71,1.13-2.57c0.73-1.75,1.42-3.51,2.08-5.29c0.18-0.47,0.38-0.94,0.55-1.41c0.82-2.24,1.58-4.51,2.3-6.8
			c0.24-0.75,0.44-1.51,0.67-2.27c0.47-1.57,0.93-3.15,1.35-4.74c0.24-0.92,0.46-1.84,0.68-2.76c0.35-1.46,0.7-2.92,1.01-4.4
			c0.21-0.97,0.4-1.95,0.59-2.93c0.28-1.46,0.54-2.92,0.79-4.39c0.16-0.98,0.32-1.97,0.46-2.96c0.22-1.51,0.41-3.03,0.58-4.56
			c0.11-0.95,0.23-1.91,0.32-2.87c0.16-1.67,0.28-3.36,0.38-5.05c0.05-0.82,0.12-1.63,0.16-2.45c0.12-2.51,0.19-5.04,0.19-7.58
			c0,0,0,0,0,0c0-1.9-0.06-3.8-0.13-5.68C783.88,550.32,783.61,549.97,782.91,549.68z"/>
		<path class="st10" d="M548.5,642.63l0.04-0.03c-26.47-19.74-43.53-50.67-43.53-85.47c0-5.39,0.41-10.68,1.2-15.85l9.41,6.36
			c3.95,2.67,9.09,3.06,13.43,1.01c2.06-0.97,3.79-2.42,5.05-4.18c1.4-1.93,2.25-4.24,2.38-6.68c2.08-38.62-6.37-74.18-6.73-75.68
			c-1.54-6.38-7.81-10.61-14.53-9.82c-1.58,0.19-39.05,4.73-75.88,19.88c-4.44,1.83-7.5,5.83-8,10.47c-0.5,4.64,1.64,9.17,5.6,11.84
			l20.27,13.69c-5.09,15.44-7.86,31.88-7.86,48.96c0,51.43,24.9,97.18,63.63,126.8c4.93,4.26,11.41,6.88,18.54,6.88
			c15.37,0,27.84-12.04,27.84-26.89C559.36,655.24,555.09,647.55,548.5,642.63z"/>
		<path class="st10" d="M787.77,454.03c-3.74-3.04-8.84-3.81-13.32-2.01l-22.95,9.23c-30.47-39.93-79.47-65.85-134.76-65.85
			c-41.73,0-79.86,14.77-109.17,39.18c-0.15,0.13-0.28,0.24-0.41,0.35c-0.13,0.11-0.25,0.22-0.38,0.33
			c-0.73,0.68-0.98,1.2-0.83,2.17c0.21,1.31,2.75,0.95,2.75,0.95l0,0c7.6-1.34,12.53-1.95,13.37-2.05
			c10.38-1.2,20.02,5.35,22.41,15.28c0.15,0.63,0.99,4.19,2.06,9.89c0,0.01,0.01,0.01,0.01,0.02c2.26,10.65,8.54,5.64,8.54,5.64
			l0,0.03c17.67-11.35,38.83-18,61.63-18c31.91,0,60.68,12.94,81.04,33.67l-12.41,4.99c-4.48,1.8-7.62,5.89-8.22,10.67
			c-0.6,4.79,1.45,9.52,5.34,12.36c32.33,23.59,67.78,36.64,69.27,37.19c6.37,2.32,13.46-0.53,16.45-6.62
			c0.7-1.43,17.25-35.38,24.25-74.79c0.44-2.49,0.16-5.01-0.75-7.27C790.89,457.33,789.55,455.48,787.77,454.03z"/>
	</g>
	<g>
		<path class="st28" d="M588.03,210.38c-84.74,0-164.4,33-224.32,92.91c-59.92,59.92-92.91,139.58-92.91,224.32
			c0,50.8,11.65,99.33,34.64,144.27c21.91,42.84,53.89,80.77,92.48,109.7c1.16,0.87,11.68,9.64,25.1,50.36
			c3.67,11.14,6.81,22.41,9.41,32.76h-8.44c-18.14,0-32.84,14.7-32.84,32.84v0c0,18.14,14.7,32.84,32.84,32.84h23.07
			c2.84,17.99,8.96,39.47,21.68,59.58c15.73,24.87,46.72,55.06,105.06,57.6c2.25,0.1,4.47,0.15,6.68,0.15
			c33.52,0,62.89-11.22,85.28-32.65c24.46-23.42,37.38-55.58,42.55-84.68h30.91c18.13,0,32.84-14.7,32.84-32.84v0
			c0-18.13-14.7-32.84-32.84-32.84h-10.07c3.97-10.57,8.11-20.93,12.47-30.74c15.87-35.75,25.99-44.78,28.72-46.69
			c84.5-59.42,134.95-156.49,134.95-259.66c0-84.74-33-164.4-92.91-224.32C752.43,243.38,672.77,210.38,588.03,210.38z
			 M629.1,976.78c-13.55,12.97-30.89,18.81-53.01,17.84c-28.87-1.26-49.34-12.05-62.58-32.98c-6.16-9.74-9.93-20.33-12.24-30.09
			l152.72-0.76C649.56,947.86,641.44,964.97,629.1,976.78z M735.43,737.67c-17.29,12.16-32.94,34.94-49.26,71.69
			c-7.87,17.73-14.97,36.6-21.53,55.34H494.77c-3.44-15.16-8.13-33.42-14.17-51.74c-13.31-40.38-28.46-66.52-46.32-79.9
			c-31.25-23.42-57.13-54.13-74.86-88.79c-18.57-36.31-27.99-75.56-27.99-116.66c0-141.49,115.11-256.59,256.59-256.59
			s256.59,115.11,256.59,256.59C844.62,611.07,803.81,689.6,735.43,737.67z"/>
		<path class="st28" d="M588.03,147.6L588.03,147.6c20.74,0,37.55-16.81,37.55-37.55V37.55C625.58,16.81,608.77,0,588.03,0l0,0
			c-20.74,0-37.55,16.81-37.55,37.55v72.49C550.48,130.78,567.29,147.6,588.03,147.6z"/>
		<path class="st28" d="M966.88,164.54L966.88,164.54c-14.32-15-38.09-15.55-53.09-1.23l-52.43,50.07
			c-15,14.32-15.55,38.09-1.23,53.09l0,0c14.32,15,38.09,15.55,53.09,1.23l52.43-50.07C980.66,203.31,981.2,179.54,966.88,164.54z"
			/>
		<path class="st28" d="M1065.54,497.93l-72.49,0.51c-20.74,0.15-37.43,17.07-37.29,37.81l0,0c0.14,20.74,17.07,37.43,37.81,37.29
			l72.49-0.51c20.74-0.15,37.43-17.07,37.29-37.81l0,0C1103.21,514.47,1086.28,497.78,1065.54,497.93z"/>
		<path class="st28" d="M314.85,266.42L314.85,266.42c14.31-15.01,13.74-38.78-1.27-53.09l-52.48-50.02
			c-15.01-14.31-38.78-13.74-53.09,1.27l0,0c-14.31,15.01-13.74,38.78,1.27,53.09l52.48,50.02
			C276.77,282,300.54,281.43,314.85,266.42z"/>
		<path class="st28" d="M182.87,498.7l-72.49-0.24c-20.74-0.07-37.61,16.69-37.67,37.43l0,0c-0.07,20.74,16.69,37.61,37.43,37.67
			l72.49,0.24c20.74,0.07,37.61-16.69,37.67-37.43l0,0C220.37,515.63,203.61,498.76,182.87,498.7z"/>
		<path class="st28" d="M758.97,525.75c-0.75-0.31-1.48,1.01-1.84,1.77c-0.07,0.16-0.13,0.3-0.2,0.45
			c-0.01,0.02-0.03,0.07-0.03,0.07l0,0c-1.93,4.44-3.27,7.19-3.52,7.71l0,0c-2.82,5.75-8.59,9.15-14.66,9.15
			c-1.87,0-3.76-0.32-5.61-1c-1.1-0.4-10.14-3.77-22.83-9.83c-0.03-0.01-0.05-0.02-0.07-0.03c-5.75-2.68-5.8,3.97-5.8,3.97
			c-0.02,0.5-0.06,1-0.09,1.51c-0.07,1.11-0.15,2.22-0.25,3.32c-0.05,0.56-0.11,1.12-0.17,1.68c-0.12,1.09-0.26,2.18-0.41,3.26
			c-0.07,0.5-0.13,1-0.21,1.5c-0.23,1.52-0.5,3.03-0.8,4.53c-0.03,0.15-0.07,0.31-0.1,0.46c-0.28,1.38-0.6,2.76-0.93,4.12
			c-0.13,0.54-0.28,1.07-0.42,1.61c-0.25,0.96-0.52,1.92-0.8,2.88c-0.18,0.59-0.36,1.18-0.54,1.77c-0.29,0.91-0.59,1.82-0.91,2.73
			c-0.19,0.56-0.38,1.13-0.59,1.69c-0.42,1.14-0.86,2.27-1.31,3.4c-0.27,0.66-0.55,1.32-0.83,1.98c-0.4,0.95-0.81,1.89-1.25,2.82
			c-0.3,0.65-0.62,1.28-0.93,1.92c-0.34,0.71-0.7,1.41-1.06,2.11c-0.35,0.68-0.71,1.36-1.07,2.03c-0.35,0.64-0.71,1.27-1.07,1.9
			c-0.4,0.69-0.79,1.38-1.2,2.07c-0.33,0.55-0.68,1.09-1.02,1.64c-0.88,1.4-1.78,2.78-2.72,4.13c-0.29,0.42-0.57,0.84-0.87,1.25
			c-0.55,0.77-1.12,1.53-1.69,2.29c-0.31,0.41-0.61,0.81-0.93,1.22c-0.6,0.77-1.21,1.54-1.83,2.29c-0.27,0.33-0.55,0.65-0.82,0.98
			c-3.16,3.76-6.57,7.31-10.21,10.62c-0.17,0.15-0.34,0.31-0.51,0.46c-0.89,0.8-1.8,1.59-2.71,2.36c-0.1,0.08-0.2,0.16-0.29,0.24
			c-4.03,3.37-8.3,6.46-12.8,9.25c-0.02,0.02-0.05,0.03-0.07,0.05c-5.73,3.54-11.81,6.6-18.18,9.1v-14.31
			c0-4.83-2.62-9.27-6.84-11.61c-4.22-2.34-9.38-2.21-13.47,0.35c-33.95,21.2-59.28,49.22-60.34,50.4c-4.53,5.04-4.53,12.69,0,17.73
			c1.06,1.18,26.39,29.2,60.34,50.4c2.15,1.34,4.59,2.02,7.03,2.02c2.22,0,4.43-0.55,6.44-1.67c4.22-2.34,6.84-6.78,6.84-11.61
			v-25.13c4.02-1,7.97-2.17,11.87-3.45c0.53-0.17,1.06-0.33,1.58-0.51c1.51-0.51,3-1.07,4.49-1.62c0.81-0.3,1.61-0.59,2.41-0.9
			c1.41-0.55,2.8-1.12,4.19-1.71c0.85-0.36,1.7-0.71,2.55-1.08c1.36-0.59,2.7-1.21,4.03-1.83c0.85-0.4,1.69-0.81,2.53-1.22
			c1.32-0.65,2.63-1.3,3.93-1.98c0.82-0.43,1.63-0.87,2.44-1.31c1.3-0.71,2.6-1.42,3.88-2.16c0.73-0.42,1.44-0.87,2.16-1.3
			c4.5-2.7,8.86-5.59,13.07-8.68c0.73-0.53,1.47-1.06,2.18-1.6c1.09-0.83,2.16-1.69,3.23-2.54c0.8-0.64,1.61-1.28,2.4-1.94
			c1.02-0.84,2.01-1.7,3.01-2.57c0.81-0.71,1.62-1.42,2.42-2.14c0.95-0.86,1.9-1.74,2.83-2.62c0.81-0.76,1.6-1.54,2.39-2.32
			c0.9-0.88,1.79-1.77,2.66-2.67c0.8-0.83,1.58-1.68,2.37-2.52c0.83-0.89,1.66-1.78,2.47-2.69c0.84-0.95,1.65-1.92,2.47-2.89
			c0.71-0.84,1.44-1.67,2.14-2.53c1.43-1.76,2.82-3.55,4.17-5.36c0.61-0.82,1.19-1.66,1.79-2.49c0.8-1.11,1.6-2.22,2.37-3.35
			c0.61-0.9,1.19-1.81,1.78-2.72c0.72-1.1,1.43-2.2,2.12-3.32c0.57-0.93,1.13-1.87,1.68-2.81c0.67-1.13,1.32-2.27,1.96-3.42
			c0.52-0.94,1.04-1.89,1.55-2.85c0.63-1.19,1.24-2.4,1.84-3.61c0.46-0.93,0.93-1.86,1.37-2.8c0.62-1.32,1.21-2.65,1.8-3.99
			c0.38-0.86,0.77-1.71,1.13-2.57c0.73-1.75,1.42-3.51,2.08-5.29c0.18-0.47,0.38-0.94,0.55-1.41c0.82-2.24,1.58-4.51,2.3-6.8
			c0.24-0.75,0.44-1.51,0.67-2.27c0.47-1.57,0.93-3.15,1.35-4.74c0.24-0.92,0.46-1.84,0.68-2.76c0.35-1.46,0.7-2.92,1.01-4.4
			c0.21-0.97,0.4-1.95,0.59-2.93c0.28-1.46,0.54-2.92,0.79-4.39c0.16-0.98,0.32-1.97,0.46-2.96c0.22-1.51,0.41-3.03,0.58-4.56
			c0.11-0.95,0.23-1.91,0.32-2.87c0.16-1.67,0.28-3.36,0.38-5.05c0.05-0.82,0.12-1.63,0.16-2.45c0.12-2.51,0.19-5.04,0.19-7.58
			c0,0,0,0,0,0c0-1.9-0.06-3.8-0.13-5.68C759.94,526.38,759.67,526.03,758.97,525.75z"/>
		<path class="st28" d="M524.56,618.69l0.04-0.03c-26.47-19.74-43.53-50.67-43.53-85.47c0-5.39,0.41-10.68,1.2-15.85l9.41,6.36
			c3.95,2.67,9.09,3.06,13.43,1.01c2.06-0.97,3.79-2.42,5.05-4.18c1.4-1.93,2.25-4.24,2.38-6.68c2.08-38.62-6.37-74.18-6.73-75.68
			c-1.54-6.38-7.81-10.61-14.53-9.82c-1.58,0.19-39.05,4.73-75.88,19.88c-4.44,1.83-7.5,5.83-8,10.47c-0.5,4.64,1.64,9.17,5.6,11.84
			l20.27,13.69c-5.09,15.44-7.86,31.88-7.86,48.96c0,51.43,24.9,97.18,63.63,126.8c4.93,4.26,11.41,6.88,18.54,6.88
			c15.37,0,27.84-12.04,27.84-26.89C535.42,631.3,531.15,623.61,524.56,618.69z"/>
		<path class="st28" d="M763.83,430.1c-3.74-3.04-8.84-3.81-13.32-2.01l-22.95,9.23c-30.47-39.93-79.47-65.85-134.76-65.85
			c-41.73,0-79.86,14.77-109.17,39.18c-0.15,0.13-0.28,0.24-0.41,0.35c-0.13,0.11-0.25,0.22-0.38,0.33
			c-0.73,0.68-0.98,1.2-0.83,2.17c0.21,1.31,2.75,0.95,2.75,0.95l0,0c7.6-1.34,12.53-1.95,13.37-2.05
			c10.38-1.2,20.02,5.35,22.41,15.28c0.15,0.63,0.99,4.19,2.06,9.89c0,0.01,0.01,0.01,0.01,0.02c2.26,10.65,8.54,5.64,8.54,5.64
			l0,0.03c17.67-11.35,38.83-18,61.63-18c31.91,0,60.68,12.94,81.04,33.67l-12.41,4.99c-4.48,1.8-7.62,5.89-8.22,10.67
			s1.45,9.52,5.34,12.36c32.33,23.59,67.78,36.64,69.27,37.19c6.37,2.32,13.46-0.53,16.45-6.62c0.7-1.43,17.25-35.38,24.25-74.79
			c0.44-2.49,0.16-5.01-0.75-7.27C766.95,433.39,765.61,431.54,763.83,430.1z"/>
	</g>
</g>
</svg>
