<svg id="Layer_1" data-name="Layer 1" xmlns="http://www.w3.org/2000/svg" xmlns:xlink="http://www.w3.org/1999/xlink" viewBox="0 0 500 500"><defs><style>.cls-1{fill:none;}.cls-2{fill:#f7edc0;}.cls-3{clip-path:url(#clip-path);}.cls-4{fill:#f7931e;}.cls-5{clip-path:url(#clip-path-2);}</style><clipPath id="clip-path"><rect class="cls-1" x="166.42" y="162.93" width="172.12" height="175.8"/></clipPath><clipPath id="clip-path-2"><rect class="cls-1" x="161.45" y="161.27" width="172.12" height="175.8"/></clipPath></defs><g id="Group_1698" data-name="Group 1698"><path id="Path_7037" data-name="Path 7037" class="cls-2" d="M243.38,263.56l1.15-1.54Z"/><g id="Group_1694" data-name="Group 1694"><g class="cls-3"><g id="Group_1693" data-name="Group 1693"><path id="Path_7038" data-name="Path 7038" class="cls-2" d="M273,249.09c-.1,0-.19.13-.24.23l0,.06h0c-.25.57-.42.92-.45,1a2.1,2.1,0,0,1-1.89,1.18,2.6,2.6,0,0,1-.72-.13c-.14-.05-1.3-.48-2.93-1.26h0c-.74-.34-.75.5-.75.5a1.41,1.41,0,0,1,0,.2c0,.14,0,.28,0,.42l0,.22c0,.14,0,.28-.05.42a1.48,1.48,0,0,1,0,.19c0,.2-.07.39-.1.58v.06c0,.18-.09.35-.13.53l-.06.21-.1.37a1.87,1.87,0,0,1-.07.22,2.53,2.53,0,0,1-.12.36l-.07.21c-.06.15-.11.3-.17.44l-.1.25-.16.36-.12.25-.14.27-.14.27a2.6,2.6,0,0,1-.13.24l-.16.26a1.07,1.07,0,0,1-.13.21,6.22,6.22,0,0,1-.35.54l-.11.15a3.3,3.3,0,0,1-.22.3l-.11.16c-.09.09-.15.19-.24.3a.4.4,0,0,0-.1.12,15.32,15.32,0,0,1-1.31,1.36l-.08.06c-.11.11-.23.21-.35.31l0,0a15.93,15.93,0,0,1-1.64,1.19h0a14.15,14.15,0,0,1-2.34,1.16v-1.84a1.71,1.71,0,0,0-1.71-1.7,1.59,1.59,0,0,0-.9.25,40.84,40.84,0,0,0-7.76,6.48,1.71,1.71,0,0,0,0,2.28,40.11,40.11,0,0,0,7.76,6.48,1.68,1.68,0,0,0,.9.26,1.6,1.6,0,0,0,.83-.21,1.71,1.71,0,0,0,.88-1.49v-3.22c.51-.14,1-.28,1.53-.45l.2-.07.58-.2.31-.11.54-.23.32-.14.52-.23.33-.16.5-.26.31-.16.5-.28.27-.16a19.52,19.52,0,0,0,1.68-1.11l.28-.21c.15-.11.28-.22.41-.33l.32-.25c.11-.08.26-.22.39-.33l.31-.28.36-.33.3-.3c.13-.11.24-.23.36-.34l.29-.33a3.59,3.59,0,0,0,.32-.35l.31-.36c.11-.13.19-.22.28-.34s.37-.45.54-.68l.23-.33c.11-.14.2-.29.3-.43s.17-.24.23-.35l.28-.43c.07-.11.14-.24.21-.36l.25-.44.21-.36c.07-.16.15-.31.23-.47a2.83,2.83,0,0,0,.16-.36q.13-.26.24-.51l.15-.33c.09-.22.18-.45.26-.68L272,257c.1-.29.2-.58.29-.87,0-.11.06-.2.09-.3s.12-.41.17-.61l.09-.35c0-.19.09-.38.12-.57a2.45,2.45,0,0,0,.08-.37c0-.19.07-.38.1-.57l.06-.38c0-.19.06-.39.08-.59s0-.24,0-.37,0-.43.05-.65,0-.2,0-.31c0-.33,0-.65,0-1s0-.48,0-.73,0-.18-.13-.22"/><path id="Path_7039" data-name="Path 7039" class="cls-2" d="M242.89,261.05h0a13.64,13.64,0,0,1-5.44-13l1.21.81a1.76,1.76,0,0,0,1.73.13,1.55,1.55,0,0,0,.65-.54,1.63,1.63,0,0,0,.31-.85,37.86,37.86,0,0,0-.87-9.73,1.71,1.71,0,0,0-1.87-1.27,42.2,42.2,0,0,0-9.75,2.55,1.64,1.64,0,0,0-.31,2.88l2.61,1.76a20,20,0,0,0-1,6.28,20.51,20.51,0,0,0,8.18,16.32,3.69,3.69,0,0,0,2.38.89,3.53,3.53,0,0,0,3.58-3.46h0a3.43,3.43,0,0,0-1.4-2.73"/><path id="Path_7040" data-name="Path 7040" class="cls-2" d="M274.16,237.49a1.76,1.76,0,0,0-.51-.7,1.73,1.73,0,0,0-1.71-.25L269,237.73a22,22,0,0,0-30.89-3.81l-.47.38,0,0-.05,0a.26.26,0,0,0-.11.27c0,.18.36.13.36.13,1-.17,1.6-.26,1.72-.27a2.64,2.64,0,0,1,2.88,2c0,.09.13.54.26,1.28h0c.3,1.36,1.11.72,1.11.72h0a14.68,14.68,0,0,1,18.33,2l-1.59.65a1.69,1.69,0,0,0-.95,2.2,1.65,1.65,0,0,0,.58.75,40.41,40.41,0,0,0,8.9,4.78,1.7,1.7,0,0,0,2.12-.85,40.16,40.16,0,0,0,3.12-9.61,1.78,1.78,0,0,0-.1-.94"/><path id="Path_7041" data-name="Path 7041" class="cls-2" d="M233,318.53a5.06,5.06,0,0,1-5-4.2c-1.91-11-5.25-19.38-7.26-20.88a53,53,0,1,1,62.19,1c-2.33,1.63-5.53,8.52-9.52,20.47a5.06,5.06,0,0,1-4.78,3.47l-35.62.18Zm35.62-5.25ZM252.48,208.19a42.86,42.86,0,0,0-25.68,77.16c5.49,4.11,8.74,15.49,10.35,23l27.82-.14c3.8-10.93,7.43-18.82,12.13-22.12a42.86,42.86,0,0,0-24.62-77.93"/><path id="Path_7042" data-name="Path 7042" class="cls-2" d="M276.61,321.31H227a7,7,0,1,1,0-14h49.63a7,7,0,0,1,0,14"/><path id="Path_7043" data-name="Path 7043" class="cls-2" d="M258.75,169.2v12.1a6.27,6.27,0,0,1-12.54,0h0V169.2a6.27,6.27,0,0,1,12.54,0h0"/><path id="Path_7044" data-name="Path 7044" class="cls-2" d="M306.88,190.2l-8.74,8.36a6.27,6.27,0,1,0,8.65,9.07l8.76-8.36a6.27,6.27,0,1,0-8.66-9.07"/><path id="Path_7045" data-name="Path 7045" class="cls-2" d="M332.31,258.62l-12.1.09a6.28,6.28,0,0,1-.09-12.55l12.1-.08a6.27,6.27,0,1,1,.09,12.54"/><path id="Path_7046" data-name="Path 7046" class="cls-2" d="M189.23,199.28l8.76,8.36a6.28,6.28,0,0,0,8.66-9.09h0l-8.77-8.35a6.27,6.27,0,1,0-8.65,9.08"/><path id="Path_7047" data-name="Path 7047" class="cls-2" d="M172.71,246.17l12.11,0a6.27,6.27,0,1,1,0,12.54h0l-12.11,0a6.27,6.27,0,0,1,0-12.54"/><path id="Path_7048" data-name="Path 7048" class="cls-2" d="M251.05,338.73c-10.7,0-19.87-11.23-19.87-20.42a3.31,3.31,0,0,1,3.31-3.31h33.12a3.31,3.31,0,0,1,3.31,3.31c0,9.19-9.17,20.42-19.87,20.42m-12.61-17.11c1.73,4.93,6.8,10.47,12.61,10.47s10.88-5.54,12.61-10.47H238.44Z"/></g></g></g></g><g id="Group_1695" data-name="Group 1695"><path id="Path_7037-2" data-name="Path 7037-2" class="cls-4" d="M238.42,261.9l1.15-1.53Z"/><g id="Group_1694-2" data-name="Group 1694-2"><g class="cls-5"><g id="Group_1693-2" data-name="Group 1693-2"><path id="Path_7038-2" data-name="Path 7038-2" class="cls-4" d="M268.07,247.43c-.11,0-.2.14-.25.24v.05h0c-.25.57-.42.93-.46,1a2.08,2.08,0,0,1-1.88,1.17,2,2,0,0,1-.72-.13,31.54,31.54,0,0,1-2.93-1.26h0c-.74-.34-.75.5-.75.5s0,.14,0,.2l0,.43c0,.07,0,.14,0,.21s0,.28-.06.42a1.23,1.23,0,0,1,0,.19c0,.2-.07.39-.11.58v.07c0,.17-.08.35-.13.53a1.46,1.46,0,0,1-.05.2l-.1.37c0,.08,0,.16-.07.23l-.12.35-.08.22c-.05.14-.1.29-.16.43l-.11.26-.15.35-.13.26c0,.09-.09.17-.14.27l-.13.26a1.7,1.7,0,0,1-.14.24l-.15.27a2.39,2.39,0,0,1-.13.21c-.11.18-.23.36-.35.53l-.12.16c-.06.1-.14.2-.21.3l-.12.15c-.08.1-.15.2-.24.3l-.1.12a12.93,12.93,0,0,1-1.31,1.36l-.08.07-.34.3,0,0a19,19,0,0,1-1.64,1.19h0a14.51,14.51,0,0,1-2.34,1.15V259.4a1.71,1.71,0,0,0-2.61-1.45,40.41,40.41,0,0,0-7.75,6.48,1.69,1.69,0,0,0,0,2.28,40.78,40.78,0,0,0,7.75,6.48,1.72,1.72,0,0,0,.91.26,1.58,1.58,0,0,0,.82-.22,1.69,1.69,0,0,0,.88-1.49v-3.22c.51-.13,1-.28,1.53-.44l.2-.07c.2-.07.39-.13.58-.21l.31-.11.54-.22.32-.14.53-.24.33-.16.49-.25.32-.17.49-.27.28-.17A18.76,18.76,0,0,0,259.7,265l.27-.2a5.13,5.13,0,0,0,.42-.33l.32-.25.38-.33.32-.28.36-.33.3-.3.35-.35.3-.33.32-.34.31-.37.28-.33.54-.69c.07-.1.15-.21.22-.33s.21-.28.31-.43l.23-.34.28-.43.21-.37c.08-.14.16-.29.25-.43l.2-.37.23-.46c.06-.12.12-.24.17-.37a4,4,0,0,0,.23-.51l.15-.33c.09-.22.18-.45.26-.68l.08-.18c.11-.29.21-.58.29-.87l.09-.29c.06-.2.13-.41.17-.61l.1-.36.12-.56c0-.13.05-.25.08-.38s.07-.38.1-.56a2.32,2.32,0,0,1,.06-.38c0-.2.06-.4.07-.59s0-.24,0-.37,0-.44.05-.65,0-.21,0-.32c0-.33,0-.64,0-1s0-.49,0-.73-.05-.19-.14-.23"/><path id="Path_7039-2" data-name="Path 7039-2" class="cls-4" d="M237.93,259.39h0a13.64,13.64,0,0,1-5.44-13l1.21.82a1.75,1.75,0,0,0,1.73.12,1.59,1.59,0,0,0,.65-.53,1.65,1.65,0,0,0,.3-.86,37,37,0,0,0-.87-9.73,1.69,1.69,0,0,0-1.86-1.26,41.57,41.57,0,0,0-9.75,2.55,1.62,1.62,0,0,0-.31,2.87l2.6,1.76a20.05,20.05,0,0,0-1,6.29,20.5,20.5,0,0,0,8.18,16.31,3.66,3.66,0,0,0,2.38.89,3.51,3.51,0,0,0,3.58-3.46h0a3.38,3.38,0,0,0-1.39-2.73"/><path id="Path_7040-2" data-name="Path 7040-2" class="cls-4" d="M269.2,235.83a1.76,1.76,0,0,0-.51-.69,1.71,1.71,0,0,0-1.71-.25l-3,1.18a22,22,0,0,0-30.9-3.8l-.47.37,0,.05-.05,0a.26.26,0,0,0-.1.27c0,.18.35.13.35.13,1-.17,1.61-.25,1.72-.26a2.62,2.62,0,0,1,2.88,2c0,.08.13.54.27,1.27h0c.29,1.37,1.1.72,1.1.72h0a14.71,14.71,0,0,1,18.34,2l-1.6.64a1.7,1.7,0,0,0-1,2.2,1.64,1.64,0,0,0,.59.76,40.53,40.53,0,0,0,8.89,4.78,1.71,1.71,0,0,0,2.12-.85,40.64,40.64,0,0,0,3.13-9.61,1.88,1.88,0,0,0-.1-.94"/><path id="Path_7041-2" data-name="Path 7041-2" class="cls-4" d="M228,316.87a5.06,5.06,0,0,1-5-4.19c-1.9-11-5.24-19.38-7.25-20.89a53,53,0,1,1,62.18,1c-2.32,1.64-5.53,8.52-9.52,20.48a5,5,0,0,1-4.77,3.46l-35.62.18Zm35.62-5.24Zm-16.11-105.1a42.86,42.86,0,0,0-25.68,77.17c5.49,4.1,8.74,15.49,10.35,23l27.81-.14c3.81-10.92,7.43-18.81,12.13-22.11a42.85,42.85,0,0,0-24.61-77.93"/><path id="Path_7042-2" data-name="Path 7042-2" class="cls-4" d="M271.65,319.66H222a7,7,0,1,1,0-14h49.64a7,7,0,0,1,0,14"/><path id="Path_7043-2" data-name="Path 7043-2" class="cls-4" d="M253.79,167.54v12.1a6.27,6.27,0,1,1-12.54,0h0v-12.1a6.27,6.27,0,1,1,12.54,0h0"/><path id="Path_7044-2" data-name="Path 7044-2" class="cls-4" d="M301.92,188.54l-8.75,8.36a6.27,6.27,0,1,0,8.66,9.08l8.76-8.37a6.27,6.27,0,0,0-8.66-9.07"/><path id="Path_7045-2" data-name="Path 7045-2" class="cls-4" d="M327.35,257l-12.1.09a6.28,6.28,0,0,1-.1-12.55l12.11-.08a6.27,6.27,0,0,1,.09,12.54"/><path id="Path_7046-2" data-name="Path 7046-2" class="cls-4" d="M184.26,197.63,193,206a6.27,6.27,0,1,0,8.65-9.08h0l-8.76-8.36a6.28,6.28,0,0,0-8.66,9.09"/><path id="Path_7047-2" data-name="Path 7047-2" class="cls-4" d="M167.74,244.51l12.11,0a6.28,6.28,0,0,1,0,12.55h0l-12.11,0a6.28,6.28,0,0,1,0-12.55"/><path id="Path_7048-2" data-name="Path 7048-2" class="cls-4" d="M246.09,337.07c-10.71,0-19.87-11.23-19.87-20.42a3.31,3.31,0,0,1,3.31-3.31h33.12a3.31,3.31,0,0,1,3.31,3.31c0,9.19-9.17,20.42-19.88,20.42M233.47,320c1.73,4.94,6.81,10.48,12.61,10.48S257,324.9,258.7,320H233.47Z"/></g></g></g></g></svg>