<?xml version="1.0" encoding="utf-8"?>
<!-- Generator: Adobe Illustrator 25.0.0, SVG Export Plug-In . SVG Version: 6.00 Build 0)  -->
<svg version="1.1" id="Layer_1" xmlns="http://www.w3.org/2000/svg" xmlns:xlink="http://www.w3.org/1999/xlink" x="0px" y="0px"
	 viewBox="0 0 1200 1072.36" style="enable-background:new 0 0 1200 1072.36;" xml:space="preserve">
<style type="text/css">
	.st0{fill:#EE655B;}
	.st1{fill:#64DADD;}
	.st2{fill:#05C4A3;}
	.st3{opacity:0.73;}
	.st4{fill:#D2F4EE;}
	.st5{fill:#FFFFFF;}
	.st6{fill:none;stroke:#000000;stroke-width:5.0725;stroke-miterlimit:10;}
	.st7{fill:#87D3C6;}
	.st8{fill:#F2A8A3;}
	.st9{fill:#EB9E3F;}
	.st10{fill:#F7EDC0;}
	.st11{fill:#AFF2E5;}
	.st12{fill:#FEAB8D;}
	.st13{fill:#F3937B;}
	.st14{fill:#F49277;}
	.st15{fill:#87E0F4;}
	.st16{opacity:0.3;}
	.st17{fill:#4B91B5;}
	.st18{fill:#383431;}
	.st19{fill:#F7857C;}
	.st20{fill:#07A889;}
	.st21{clip-path:url(#SVGID_2_);fill:#05C4A3;}
	.st22{clip-path:url(#SVGID_4_);fill:#05C4A3;}
	.st23{clip-path:url(#SVGID_6_);fill:#05C4A3;}
	.st24{fill:none;stroke:#05C4A3;stroke-width:9;stroke-linecap:round;stroke-linejoin:round;stroke-miterlimit:10;}
	.st25{clip-path:url(#SVGID_8_);fill:#05C4A3;}
	.st26{clip-path:url(#SVGID_10_);fill:#05C4A3;}
	.st27{clip-path:url(#SVGID_12_);fill:#05C4A3;}
</style>
<g>
	<g>
		<path class="st2" d="M1177.62,580.71v291.08H907.35v-53.9h216.37V580.71c0-37.35-14.69-72.58-41.29-99.17
			c-26.6-26.6-61.77-41.23-99.12-41.23c-28.84,0-57.4,9.23-80.44,25.99c-19,13.38-34.08,30.96-44.24,51.06
			c-8.3-11.52-17.59-22.45-27.8-32.66c-3.28-3.28-6.61-6.45-10.05-9.56c13.22-20.43,30.31-38.34,50.68-52.7
			c31.84-23.21,71.7-36.1,111.84-36.1c51.71,0,100.48,20.26,137.29,57.07C1157.36,480.23,1177.62,528.94,1177.62,580.71z"/>
	</g>
	<g>
		<path class="st2" d="M983.55,342.67c-66.29,0-120.23-53.93-120.23-120.23S917.26,102.2,983.55,102.2
			c66.31,0,120.25,53.93,120.25,120.23S1049.85,342.67,983.55,342.67z M983.55,156.13c-36.56,0-66.31,29.76-66.31,66.31
			s29.74,66.31,66.31,66.31s66.32-29.76,66.32-66.31S1020.11,156.13,983.55,156.13z"/>
	</g>
	<g>
		<path class="st2" d="M374.18,467.72c-14.36,11.74-27.31,24.85-38.66,39.16c-5.68-9.06-12.4-17.58-20.15-25.34
			c-26.6-26.6-61.82-41.23-99.17-41.23c-28.83,0-57.39,9.23-80.44,25.99c-37.35,26.27-59.42,68.97-59.42,114.41v237.17h202.5v53.9
			H22.38V580.71c0-62.97,30.69-122.11,82.03-158.26c31.84-23.21,71.65-36.1,111.79-36.1c51.77,0,100.49,20.26,137.29,57.07
			C361.13,451.01,368.01,459.15,374.18,467.72z"/>
	</g>
	<g>
		<path class="st2" d="M853.41,1071.29H332.78V675.43c0-84.42,41.09-163.76,109.94-212.24c42.79-31.12,96.19-48.4,150.04-48.4
			c69.4,0,134.8,27.18,184.16,76.5c49.33,49.35,76.5,114.76,76.5,184.14V1071.29z M386.71,1017.36h412.77V675.43
			c0-54.98-21.55-106.86-60.71-146.01c-39.16-39.13-91.02-60.7-146.01-60.7c-42.54,0-84.69,13.61-118.65,38.31
			c-54.85,38.63-87.4,101.51-87.4,168.4V1017.36z"/>
	</g>
	<g>
		<path class="st2" d="M216.47,342.67c-66.29,0-120.23-53.93-120.23-120.23S150.18,102.2,216.47,102.2s120.23,53.93,120.23,120.23
			S282.76,342.67,216.47,342.67z M216.47,156.13c-36.56,0-66.31,29.76-66.31,66.31s29.74,66.31,66.31,66.31s66.31-29.76,66.31-66.31
			S253.03,156.13,216.47,156.13z"/>
	</g>
	<g>
		<g>
			<g id="Path_344-2_2_">
				<path class="st2" d="M758.36,152.23c-0.72-0.3-1.43,0.99-1.77,1.74l-0.19,0.44v0.07l0,0c-1.87,4.35-3.16,7.04-3.4,7.55l0,0
					c-3.55,7.36-12.02,10.81-19.6,7.99c-1.06-0.39-9.81-3.69-22.07-9.63l-0.08-0.03c-5.56-2.63-5.61,3.89-5.61,3.89
					c0,0.5-0.05,0.98-0.08,1.48c-0.07,1.11-0.14,2.17-0.24,3.25c-0.04,0.56-0.1,1.11-0.16,1.67c-0.12,1.07-0.25,2.13-0.4,3.19
					c-0.07,0.49-0.13,0.98-0.2,1.47c-0.23,1.48-0.49,2.96-0.77,4.45c0,0.15-0.07,0.29-0.1,0.44c-0.27,1.36-0.57,2.7-0.9,4.03
					c-0.13,0.56-0.27,1.06-0.42,1.58c-0.24,0.94-0.5,1.89-0.77,2.82c-0.17,0.56-0.35,1.16-0.55,1.73c-0.28,0.9-0.55,1.78-0.87,2.67
					c-0.19,0.56-0.37,1.11-0.55,1.67c-0.4,1.11-0.83,2.22-1.27,3.33c-0.26,0.66-0.55,1.29-0.81,1.94c-0.39,0.92-0.78,1.85-1.21,2.78
					c-0.29,0.63-0.59,1.26-0.9,1.88c-0.31,0.63-0.67,1.38-1.02,2.07c-0.35,0.68-0.69,1.33-1.04,1.98c-0.35,0.66-0.68,1.24-1.03,1.86
					c-0.35,0.62-0.76,1.35-1.16,2.02c-0.32,0.56-0.66,1.07-0.99,1.59c-0.84,1.37-1.72,2.72-2.63,4.05
					c-0.28,0.41-0.55,0.83-0.83,1.23c-0.55,0.76-1.1,1.5-1.65,2.22c-0.29,0.4-0.59,0.79-0.89,1.19c-0.58,0.74-1.17,1.48-1.77,2.22
					c-0.26,0.32-0.55,0.63-0.79,0.96c-3.06,3.69-6.36,7.16-9.87,10.4l-0.49,0.45c-0.86,0.79-1.74,1.56-2.62,2.32l-0.29,0.24
					c-3.91,3.31-8.05,6.34-12.38,9.06l-0.07,0.04c-5.58,3.49-11.45,6.47-17.55,8.89v-14.02c0-7.18-5.75-13-12.84-13
					c-2.4,0-4.76,0.68-6.8,1.97c-21.41,13.91-41.01,30.5-58.34,49.36c-4.38,4.94-4.38,12.43,0,17.37
					c17.32,18.87,36.92,35.45,58.34,49.36c6.01,3.81,13.92,1.96,17.68-4.13c1.28-2.07,1.95-4.46,1.95-6.89v-24.61
					c3.89-0.98,7.68-2.13,11.47-3.38c0.51-0.17,1.02-0.32,1.53-0.5c1.46-0.51,2.9-1.04,4.33-1.58c0.78-0.29,1.56-0.56,2.33-0.88
					c1.37-0.56,2.72-1.11,4.05-1.67c0.82-0.35,1.65-0.7,2.46-1.06c1.31-0.56,2.61-1.18,3.9-1.8c0.82-0.39,1.65-0.79,2.45-1.19
					c1.28-0.63,2.55-1.27,3.8-1.94c0.79-0.42,1.57-0.86,2.35-1.29c1.26-0.69,2.51-1.38,3.75-2.11c0.7-0.42,1.39-0.84,2.09-1.27
					c4.36-2.64,8.56-5.47,12.62-8.5c0.7-0.52,1.42-1.03,2.11-1.57c1.05-0.81,2.08-1.67,3.12-2.48c0.78-0.63,1.56-1.26,2.33-1.9
					c0.98-0.82,1.95-1.67,2.9-2.52c0.79-0.69,1.57-1.39,2.34-2.1c0.93-0.84,1.84-1.7,2.74-2.57c0.78-0.74,1.55-1.51,2.31-2.27
					c0.87-0.87,1.73-1.73,2.58-2.62c0.85-0.88,1.52-1.67,2.29-2.46c0.76-0.79,1.61-1.75,2.39-2.64c0.78-0.89,1.6-1.88,2.39-2.83
					c0.69-0.82,1.39-1.63,2.07-2.47c1.38-1.73,2.72-3.48,4.03-5.26c0.59-0.8,1.15-1.63,1.72-2.45c0.77-1.11,1.55-2.17,2.29-3.28
					c0.59-0.88,1.15-1.77,1.72-2.66c0.7-1.07,1.38-2.16,2.05-3.25c0.55-0.91,1.1-1.83,1.65-2.78c0.65-1.11,1.28-2.22,1.9-3.33
					c0.5-0.92,1-1.85,1.49-2.78c0.61-1.17,1.2-2.35,1.78-3.53c0.44-0.91,0.89-1.82,1.33-2.75c0.6-1.29,1.17-2.6,1.74-3.89
					c0.36-0.84,0.74-1.67,1.1-2.52c0.7-1.71,1.37-3.45,2.01-5.18c0.17-0.46,0.36-0.92,0.55-1.38c0.78-2.2,1.53-4.42,2.19-6.67
					c0.23-0.74,0.43-1.48,0.65-2.22c0.46-1.54,0.9-3.08,1.3-4.65c0.24-0.9,0.44-1.81,0.66-2.7c0.35-1.43,0.67-2.87,0.98-4.31
					c0.2-0.95,0.38-1.91,0.55-2.87c0.27-1.43,0.55-2.87,0.76-4.3c0.15-0.97,0.31-1.93,0.44-2.91c0.21-1.48,0.39-2.97,0.55-4.45
					c0.11-0.94,0.22-1.87,0.31-2.81c0.15-1.67,0.26-3.29,0.37-4.95c0.04-0.8,0.12-1.59,0.15-2.4c0.12-2.46,0.19-4.93,0.19-7.42l0,0
					c0-1.86-0.05-3.72-0.12-5.56C759.3,152.83,759.03,152.48,758.36,152.23z"/>
			</g>
			<g id="Path_344-2_1_">
				<path class="st2" d="M758.14,152.19c-0.63,0-1.24,1.11-1.55,1.78l-0.19,0.44v0.06c-1.88,4.35-3.16,7.04-3.4,7.55
					c-2.71,5.63-8.3,8.97-14.17,8.97c-1.81,0-3.65-0.32-5.43-0.98c-1.06-0.39-9.81-3.69-22.07-9.62l-0.07-0.03
					c-0.93-0.44-1.71-0.63-2.36-0.63c-3.21,0-3.25,4.51-3.25,4.51c0,0.5-0.06,0.99-0.08,1.48c-0.07,1.11-0.15,2.17-0.24,3.25
					c-0.04,0.55-0.11,1.11-0.15,1.67c-0.12,1.07-0.25,2.13-0.4,3.19c-0.07,0.49-0.13,0.98-0.19,1.47c-0.24,1.48-0.49,2.96-0.78,4.44
					c0,0.15-0.06,0.3-0.1,0.45c-0.27,1.36-0.57,2.7-0.89,4.03c-0.14,0.56-0.28,1.06-0.42,1.58c-0.24,0.95-0.5,1.89-0.77,2.82
					c-0.17,0.56-0.34,1.16-0.54,1.73c-0.28,0.9-0.55,1.78-0.88,2.67c-0.19,0.56-0.37,1.11-0.54,1.67c-0.41,1.11-0.83,2.22-1.28,3.33
					c-0.26,0.66-0.54,1.3-0.8,1.94c-0.39,0.92-0.79,1.85-1.21,2.78c-0.28,0.63-0.59,1.26-0.89,1.88c-0.31,0.63-0.67,1.39-1.02,2.07
					c-0.35,0.68-0.68,1.33-1.04,1.98c-0.35,0.66-0.67,1.25-1.03,1.86c-0.35,0.61-0.76,1.35-1.15,2.02
					c-0.32,0.55-0.66,1.06-0.99,1.59c-0.84,1.37-1.72,2.73-2.62,4.05c-0.28,0.41-0.55,0.82-0.84,1.23c-0.54,0.76-1.1,1.5-1.64,2.22
					c-0.29,0.4-0.59,0.8-0.89,1.19c-0.58,0.74-1.17,1.48-1.77,2.22c-0.26,0.32-0.54,0.63-0.79,0.96c-3.05,3.68-6.35,7.16-9.87,10.4
					l-0.5,0.45c-0.86,0.79-1.73,1.56-2.62,2.32l-0.28,0.24c-3.92,3.31-8.05,6.34-12.38,9.06l-0.07,0.04
					c-5.58,3.49-11.45,6.46-17.56,8.89v-14.02c0-7.18-5.75-13-12.84-13c-2.4,0-4.76,0.68-6.8,1.97
					c-21.41,13.91-41.01,30.5-58.34,49.36c-4.38,4.94-4.38,12.43,0,17.36c17.33,18.87,36.92,35.46,58.34,49.37
					c2.12,1.34,4.47,1.98,6.79,1.98c4.27,0,8.46-2.16,10.89-6.11c1.28-2.07,1.95-4.46,1.95-6.9v-24.61
					c3.89-0.98,7.68-2.13,11.47-3.38c0.51-0.17,1.02-0.32,1.53-0.5c1.46-0.51,2.9-1.04,4.34-1.58c0.78-0.3,1.55-0.56,2.33-0.88
					c1.36-0.56,2.71-1.11,4.05-1.67c0.82-0.35,1.64-0.7,2.46-1.06c1.31-0.56,2.61-1.18,3.9-1.8c0.82-0.39,1.65-0.79,2.45-1.19
					c1.28-0.63,2.54-1.28,3.8-1.94c0.79-0.42,1.57-0.86,2.36-1.29c1.25-0.69,2.51-1.39,3.75-2.11c0.7-0.42,1.39-0.84,2.09-1.27
					c4.35-2.64,8.56-5.47,12.62-8.5c0.7-0.52,1.41-1.04,2.11-1.57c1.06-0.81,2.08-1.67,3.11-2.49c0.78-0.63,1.56-1.26,2.33-1.9
					c0.98-0.82,1.94-1.67,2.9-2.52c0.79-0.69,1.57-1.39,2.34-2.09c0.93-0.84,1.84-1.7,2.75-2.58c0.78-0.74,1.55-1.51,2.31-2.27
					c0.87-0.87,1.73-1.73,2.58-2.62c0.85-0.88,1.53-1.67,2.29-2.46c0.76-0.79,1.61-1.74,2.39-2.64c0.79-0.89,1.6-1.88,2.39-2.83
					c0.69-0.82,1.4-1.63,2.07-2.47c1.37-1.73,2.72-3.48,4.03-5.26c0.59-0.8,1.15-1.63,1.72-2.45c0.77-1.11,1.55-2.17,2.29-3.28
					c0.59-0.88,1.15-1.77,1.72-2.66c0.69-1.07,1.38-2.15,2.05-3.25c0.54-0.91,1.1-1.83,1.64-2.78c0.65-1.11,1.28-2.22,1.9-3.33
					c0.5-0.92,1-1.85,1.49-2.78c0.61-1.17,1.2-2.35,1.79-3.53c0.45-0.91,0.89-1.82,1.32-2.75c0.6-1.3,1.17-2.6,1.74-3.89
					c0.37-0.84,0.75-1.67,1.1-2.52c0.71-1.71,1.37-3.44,2.01-5.18c0.17-0.46,0.37-0.92,0.55-1.39c0.78-2.19,1.52-4.42,2.19-6.67
					c0.23-0.74,0.43-1.47,0.65-2.22c0.45-1.54,0.89-3.08,1.3-4.65c0.24-0.9,0.44-1.8,0.66-2.7c0.34-1.43,0.67-2.87,0.97-4.31
					c0.2-0.95,0.39-1.91,0.55-2.87c0.28-1.43,0.54-2.87,0.76-4.3c0.15-0.97,0.31-1.93,0.44-2.91c0.21-1.48,0.39-2.97,0.55-4.44
					c0.11-0.94,0.23-1.87,0.31-2.81c0.15-1.67,0.27-3.29,0.37-4.95c0.04-0.8,0.11-1.6,0.15-2.4c0.11-2.46,0.19-4.94,0.19-7.42
					c0-1.86-0.05-3.72-0.12-5.56c-0.11-1.16-0.39-1.51-1.06-1.75C758.28,152.21,758.21,152.19,758.14,152.19L758.14,152.19z"/>
			</g>
		</g>
		<g>
			<g id="Path_345-2_2_">
				<path class="st2" d="M531.74,243.23l0.04-0.03c-26.34-19.56-41.96-50.63-42.08-83.71c0-5.2,0.39-10.38,1.16-15.52l9.09,6.22
					c3.85,2.62,8.78,3,12.98,0.99c1.94-0.92,3.62-2.33,4.89-4.08c1.37-1.91,2.17-4.19,2.3-6.55c1.01-24.89-1.18-49.81-6.51-74.13
					c-1.62-6.34-7.65-10.46-14.05-9.61c-25.14,3.44-49.78,9.97-73.36,19.45c-4.24,1.72-7.21,5.66-7.73,10.25
					c-0.47,4.59,1.62,9.06,5.41,11.6l19.6,13.41c-5.04,15.47-7.6,31.66-7.6,47.95c0.19,48.87,22.96,94.83,61.51,124.19
					c4.98,4.36,11.34,6.76,17.93,6.74c14.61,0.25,26.65-11.54,26.91-26.34C542.2,255.83,538.3,248.1,531.74,243.23z"/>
			</g>
			<g id="Path_345-2_1_">
				<path class="st2" d="M501.24,56.7c-0.55,0-1.11,0.04-1.67,0.11c-25.14,3.44-49.78,9.97-73.36,19.45
					c-4.23,1.72-7.21,5.66-7.73,10.25c-0.47,4.59,1.62,9.06,5.41,11.6l19.59,13.41c-5.04,15.47-7.6,31.66-7.6,47.95
					c0.19,48.87,22.96,94.83,61.51,124.19c4.96,4.35,11.31,6.74,17.86,6.74c0.02,0,0.04,0,0.07,0c0.15,0,0.3,0,0.45,0
					c14.4,0,26.2-11.7,26.46-26.34c-0.04-8.24-3.93-15.97-10.5-20.84l0.05-0.04c-26.34-19.56-41.96-50.63-42.09-83.71
					c0-5.2,0.39-10.38,1.16-15.52l9.09,6.22c2.22,1.51,4.78,2.27,7.36,2.27c1.91,0,3.83-0.42,5.62-1.28
					c1.94-0.92,3.62-2.33,4.89-4.08c1.37-1.91,2.17-4.19,2.3-6.55c1.01-24.89-1.18-49.81-6.51-74.13
					C512.14,60.64,507,56.7,501.24,56.7L501.24,56.7z"/>
			</g>
		</g>
		<g>
			<g id="Path_346-2_2_">
				<path class="st2" d="M766.87,63.76c-2.64-6.66-10.11-9.9-16.68-7.23c0,0-0.01,0-0.01,0l-22.19,9.04
					C671.76-7.41,567.77-20.4,495.73,36.57c-1.2,0.95-2.38,1.91-3.55,2.89l-0.4,0.34l-0.36,0.32c-0.66,0.48-0.98,1.32-0.8,2.12
					c0.2,1.29,2.65,0.93,2.65,0.93l0,0c7.35-1.31,12.11-1.91,12.93-2.01c9.91-1.27,19.21,5.15,21.67,14.96
					c0.14,0.62,0.95,4.11,1.99,9.69l0,0c2.19,10.43,8.26,5.52,8.26,5.52l0,0c43.82-28.38,101.24-21.99,137.94,15.35l-12,4.88
					c-6.58,2.68-9.76,10.26-7.11,16.92c0.9,2.25,2.4,4.21,4.33,5.64c20.73,14.93,43.23,27.17,66.97,36.42
					c6.16,2.27,13.02-0.52,15.91-6.48c10.81-23.33,18.68-47.93,23.44-73.25C768.01,68.45,767.76,66,766.87,63.76z"/>
			</g>
			<g id="Path_346-2_1_">
				<path class="st2" d="M597.43,1.07c-35.6,0-71.45,11.58-101.7,35.5c-1.19,0.95-2.38,1.91-3.55,2.89l-0.4,0.34l-0.37,0.32
					c-0.66,0.48-0.97,1.32-0.8,2.12c0.12,0.83,1.19,0.98,1.93,0.98c0.41,0,0.72-0.04,0.72-0.04c7.35-1.31,12.11-1.91,12.92-2.01
					c0.84-0.11,1.67-0.16,2.49-0.16c8.94,0,16.92,6.13,19.17,15.12c0.15,0.62,0.95,4.11,1.99,9.69c1.13,5.37,3.29,6.68,5.12,6.68
					c1.72,0,3.14-1.15,3.14-1.15c18.3-11.85,38.98-17.64,59.52-17.64c28.65,0,57.04,11.25,78.41,32.99l-11.99,4.88
					c-6.58,2.68-9.76,10.26-7.12,16.92c0.89,2.25,2.4,4.21,4.33,5.64c20.73,14.94,43.23,27.17,66.97,36.42
					c1.45,0.53,2.92,0.79,4.39,0.79c4.77,0,9.31-2.71,11.53-7.27c10.8-23.33,18.68-47.94,23.44-73.25c0.41-2.38,0.16-4.83-0.72-7.07
					c-2.01-5.08-6.82-8.17-11.91-8.17c-1.59,0-3.2,0.3-4.77,0.94c-0.01,0-0.01,0-0.01,0l-22.19,9.04
					C695.36,23.23,646.64,1.08,597.43,1.07L597.43,1.07z"/>
			</g>
		</g>
	</g>
</g>
</svg>
