<?xml version="1.0" encoding="utf-8"?>
<!-- Generator: Adobe Illustrator 25.0.0, SVG Export Plug-In . SVG Version: 6.00 Build 0)  -->
<svg version="1.1" id="Layer_1" xmlns="http://www.w3.org/2000/svg" xmlns:xlink="http://www.w3.org/1999/xlink" x="0px" y="0px"
	 viewBox="0 0 1200 1072.36" style="enable-background:new 0 0 1200 1072.36;" xml:space="preserve">
<style type="text/css">
	.st0{fill:#EE655B;}
	.st1{fill:#64DADD;}
	.st2{fill:#05C4A3;}
	.st3{opacity:0.73;}
	.st4{fill:#D2F4EE;}
	.st5{fill:#FFFFFF;}
	.st6{fill:none;stroke:#000000;stroke-width:5.0725;stroke-miterlimit:10;}
	.st7{fill:#87D3C6;}
	.st8{fill:#F2A8A3;}
	.st9{fill:#EB9E3F;}
	.st10{fill:#F7EDC0;}
	.st11{fill:#AFF2E5;}
	.st12{fill:#FEAB8D;}
	.st13{fill:#F3937B;}
	.st14{fill:#F49277;}
	.st15{fill:#87E0F4;}
	.st16{opacity:0.3;}
	.st17{fill:#4B91B5;}
	.st18{fill:#383431;}
	.st19{fill:#F7857C;}
	.st20{fill:#07A889;}
	.st21{clip-path:url(#SVGID_2_);fill:#05C4A3;}
	.st22{clip-path:url(#SVGID_4_);fill:#05C4A3;}
	.st23{clip-path:url(#SVGID_6_);fill:#05C4A3;}
	.st24{fill:none;stroke:#05C4A3;stroke-width:9;stroke-linecap:round;stroke-linejoin:round;stroke-miterlimit:10;}
	.st25{clip-path:url(#SVGID_8_);fill:#05C4A3;}
	.st26{clip-path:url(#SVGID_10_);fill:#05C4A3;}
	.st27{clip-path:url(#SVGID_12_);fill:#05C4A3;}
</style>
<g>
	<path class="st2" d="M659.12,933.76l-9.07,0.01l-24.22-258.32h-51.66l-24.22,258.39l-9.08,0.01c-13.5,0.01-21.93,14.63-15.17,26.32
		l29.6,51.18l29.6,51.19c6.76,11.69,23.64,11.68,30.38-0.02l29.53-51.23l29.53-51.23C681.07,948.36,672.62,933.75,659.12,933.76z"/>
	<path class="st2" d="M876.84,532.66h-201.8c38.24-10.99,73.88-30.43,104.55-57.58c54.21-47.96,86.5-114.19,90.9-186.45
		c4.42-72.23-19.57-141.89-67.55-196.09C754.98,38.31,688.77,6.02,616.52,1.62C467.06-7.81,338.62,106.46,329.5,255.63
		c-7.88,129.1,76.46,242.86,196,277.03H323.15c-73.42,0-133.14,59.73-133.14,133.14v108.1c0,16.73,13.55,30.28,30.28,30.28
		c16.72,0,30.28-13.54,30.28-30.28V665.8c0-40.03,32.57-72.59,72.59-72.59h553.69c40.02,0,72.59,32.55,72.59,72.59v122.14
		c0,16.74,13.55,30.28,30.28,30.28c16.72,0,30.28-13.54,30.28-30.28V665.8C1009.99,592.39,950.26,532.66,876.84,532.66z
		 M389.93,259.3c6.82-111.47,99.69-197.63,209.94-197.63c4.29,0,8.62,0.12,12.95,0.38c56.1,3.43,107.52,28.5,144.78,70.61
		c37.25,42.1,55.9,96.18,52.47,152.3c-3.43,56.12-28.5,107.54-70.59,144.79c-42.1,37.23-96.4,55.79-152.3,52.45
		C471.34,475.14,382.86,375.14,389.93,259.3z"/>
</g>
</svg>
