<?xml version="1.0" encoding="utf-8"?>
<!-- Generator: Adobe Illustrator 25.0.0, SVG Export Plug-In . SVG Version: 6.00 Build 0)  -->
<svg version="1.1" id="Layer_1" xmlns="http://www.w3.org/2000/svg" xmlns:xlink="http://www.w3.org/1999/xlink" x="0px" y="0px"
	 viewBox="0 0 1500 1390.08" style="enable-background:new 0 0 1500 1390.08;" xml:space="preserve">
<style type="text/css">
	.st0{fill:#EE655B;}
	.st1{fill:#64DADD;}
	.st2{fill:#05C4A3;}
	.st3{opacity:0.73;}
	.st4{fill:#D2F4EE;}
	.st5{fill:#FFFFFF;}
	.st6{fill:none;stroke:#000000;stroke-width:5.0725;stroke-miterlimit:10;}
	.st7{fill:#87D3C6;}
	.st8{fill:#F2A8A3;}
	.st9{fill:#EB9E3F;}
	.st10{fill:#F7EDC0;}
	.st11{fill:#AFF2E5;}
	.st12{fill:#FEAB8D;}
	.st13{fill:#F3937B;}
	.st14{fill:#F49277;}
	.st15{fill:#87E0F4;}
	.st16{opacity:0.3;}
	.st17{fill:#4B91B5;}
	.st18{fill:#383431;}
	.st19{fill:#F7857C;}
	.st20{fill:#07A889;}
	.st21{clip-path:url(#SVGID_2_);fill:#05C4A3;}
	.st22{clip-path:url(#SVGID_4_);fill:#05C4A3;}
	.st23{clip-path:url(#SVGID_6_);fill:#05C4A3;}
	.st24{fill:none;stroke:#05C4A3;stroke-width:9;stroke-linecap:round;stroke-linejoin:round;stroke-miterlimit:10;}
	.st25{clip-path:url(#SVGID_8_);fill:#05C4A3;}
	.st26{clip-path:url(#SVGID_10_);fill:#05C4A3;}
	.st27{clip-path:url(#SVGID_12_);fill:#05C4A3;}
</style>
<g>
	<g>
		<path class="st11" d="M1126.21,1.17c0,0,92.35,0,94.88,98.68s-94.88,98.68-94.88,98.68s-54.4,12.65-53.13,60.73
			c1.27,48.07,29.1,60.73,56.93,60.73c19.87,0,94.55,0,135.65,0c35.98,0,71.52,9.41,102.03,28.47
			c37.48,23.4,75.43,65.15,77.33,138.53c3.8,146.75-108.8,196.09-148.02,201.15c-18.23,2.35-49.87,2.52-78.5,2.02
			c-52.24-0.91-87.73,54.05-63.9,100.55c0.63,1.23,1.29,2.46,1.97,3.7c17.27,31.22,56.99,46.58,91.24,51.73
			c243.11,36.55,250.12,170.86,250.16,265.2c0.1,230.82-146.58,257.44-231.34,271.36c-79.48,13.05-1034.43,1.81-1153.1,0.15
			c-38.47-0.54-107.5-12.36-107.5-112.16c0-105.01,95.43-104.33,95.43-104.33l168.54,6.74c0,0,64.83,0.9,66.77-48.49
			c2.13-54.36-60.73-60.73-60.73-60.73l-42.94-4.16c-102.54-9.92-179.95-98.8-173.85-201.64c0.13-2.22,2.98-163.05,163.07-163.05
			H314c0,0,68.32,0.02,68.32-71.41c0-33.93-23.25-50.23-42.62-57.92c-10.57-4.2-21.85-6.3-33.22-6.78
			c-39.08-1.65-219.62-18.04-282.29-179.65C-2.95,309.27,0.82,231.1,32.32,162.97c0.54-1.17,1.1-2.35,1.66-3.54
			C80.23,62.28,179.11,1.17,286.71,1.17L1126.21,1.17z"/>
	</g>
	<g>
		<path class="st5" d="M310.82,89.83c0,0,10.22,0,10.5,6.35c0.25,5.6-26.84,6.26-33.26,6.34c-1.49,0.02-2.96,0.26-4.34,0.8
			c-1.49,0.59-2.96,1.57-2.89,3.12c0.14,3.1,3.22,3.91,6.3,3.91c2.2,0,34.57,0,39.12,0c3.98,0,7.92,0.61,11.29,1.83
			c4.15,1.51,8.35,4.2,8.56,8.92c0.42,9.45-12.04,12.63-16.38,12.95c-2.02,0.15-5.52,0.16-8.69,0.13c-5.78-0.06-8.67,0.19-8.74,4.36
			c-0.05,2.77,1.03,4.9,11.99,5.68c26.95,1.91,27.69,11,27.69,17.08c0.01,14.86-16.23,16.58-25.61,17.47
			c-8.8,0.84-114.5,0.12-127.64,0.01c-4.26-0.03-11.9-0.8-11.9-7.22c0-6.76,10.56-6.72,10.56-6.72l18.66,0.43
			c0,0,7.18,0.06,7.39-3.12c0.24-3.5-6.72-3.91-6.72-3.91l-4.75-0.27c-11.35-0.64-19.92-6.36-19.24-12.98
			c0.01-0.14,0.33-10.5,18.05-10.5h34.5c0,0,7.3,0,7.56-4.36c0.06-1.09-0.54-2.14-1.48-2.7c-1.89-1.15-4.38-1.64-6.91-1.7
			c-4.33-0.11-48.66-1.16-55.6-11.57c-3-4.51-2.59-9.54,0.9-13.93c0.06-0.08,0.12-0.15,0.18-0.23c5.12-6.26,16.06-10.19,27.98-10.19
			H310.82z"/>
	</g>
	<g>
		<path class="st5" d="M1209.29,503.25c0,0-10.22,0-10.5,6.35c-0.25,5.6,26.84,6.26,33.26,6.34c1.49,0.02,2.96,0.26,4.34,0.8
			c1.49,0.59,2.96,1.57,2.89,3.12c-0.14,3.1-3.22,3.91-6.3,3.91c-2.2,0-34.57,0-39.12,0c-3.98,0-7.92,0.61-11.29,1.83
			c-4.15,1.51-8.35,4.2-8.56,8.92c-0.42,9.45,12.04,12.63,16.38,12.95c2.02,0.15,5.52,0.16,8.69,0.13c5.78-0.06,8.67,0.19,8.74,4.36
			c0.05,2.77-1.03,4.9-11.99,5.68c-26.95,1.91-27.69,11-27.69,17.08c-0.01,14.86,16.23,16.58,25.61,17.47
			c8.8,0.84,114.5,0.12,127.64,0.01c4.26-0.03,11.9-0.8,11.9-7.22c0-6.76-10.56-6.72-10.56-6.72l-18.66,0.43
			c0,0-7.18,0.06-7.39-3.12c-0.24-3.5,6.72-3.91,6.72-3.91l4.75-0.27c11.35-0.64,19.92-6.36,19.24-12.98
			c-0.01-0.14-0.33-10.5-18.05-10.5h-34.5c0,0-7.3,0-7.56-4.36c-0.06-1.09,0.54-2.14,1.48-2.7c1.89-1.15,4.38-1.64,6.91-1.7
			c4.33-0.11,48.66-1.16,55.6-11.57c3-4.51,2.59-9.54-0.9-13.93c-0.06-0.08-0.12-0.15-0.18-0.23c-5.12-6.26-16.07-10.19-27.98-10.19
			H1209.29z"/>
	</g>
	<g>
		<g>
			<path class="st12" d="M234.88,807.58v170.11c0,8.31,3,16.35,8.46,22.62l218.81,251.55c6.15,7.07,8.26,16.8,5.59,25.78
				l-33.98,108.47l154.68,1.44l11.71-100.75c0.43-5.07,1.94-10,4.54-14.37c14.95-25.1,57.9-128.45-175.19-221.3
				c-7.5-2.99-13.68-8.61-17.32-15.82l-24.15-47.87c-3.19-6.33-3.56-13.71-1.01-20.32l33.11-85.86l-18.44-32.6l-59.75,110.17
				l-3.24-42.07c-0.33-4.28,0.22-8.58,1.6-12.64l24.04-70.41c0,0,3.68-12.87-12.66-22.02c-5.05-2.83-11.46-0.98-14.23,4.1
				l-36.25,66.46c-2.68,4.92-4.2,10.39-4.42,15.99l-1.53,38.17l-21.39-113.54c-2.31-12.24-10.71-22.65-22.44-26.85
				C242.93,793,234.88,793.76,234.88,807.58z"/>
		</g>
		<g>
			<path class="st13" d="M412.74,1034.81l-24.15-47.87c-3.19-6.33-3.56-13.71-1.01-20.32l33.11-85.86l-18.44-32.6l-59.75,110.17
				l-3.24-42.07c-0.33-4.28,0.22-8.58,1.6-12.64l24.04-70.41c0,0,3.68-12.87-12.66-22.02c-5.05-2.83-11.46-0.98-14.23,4.1
				l-36.25,66.46c-2.68,4.92-4.2,10.39-4.42,15.99l-1.53,38.17l1.18,31.58c0.04,1.16,0.59,2.25,1.49,2.98l22.16,17.9
				c0.75,0.6,1.84,0.56,2.5-0.15c2.06-2.21,7.36-6.21,17.67-4.13c5.64,1.14,10.81,3.94,15.14,7.72l64.02,55.81L412.74,1034.81z"/>
		</g>
		<g>
			<path class="st14" d="M326.55,1096.67l-8.46-88.98c-0.17-1.75,2.25-2.38,2.94-0.76c13.45,31.5,60.37,137.03,119.71,221.02
				L326.55,1096.67z"/>
		</g>
	</g>
	<g>
		<g>
			<path class="st12" d="M1261.91,807.58v170.11c0,8.31-3,16.35-8.46,22.62l-218.81,251.55c-6.15,7.07-8.26,16.8-5.59,25.78
				l33.06,111.23H905.25l-8.61-102.06c-0.43-5.07-1.94-10-4.54-14.37c-14.95-25.1-57.9-128.45,175.19-221.3
				c7.5-2.99,13.68-8.61,17.32-15.82l24.15-47.87c3.19-6.33,3.56-13.71,1.01-20.32l-33.11-85.86l18.44-32.6l59.75,110.17l3.24-42.07
				c0.33-4.28-0.22-8.58-1.6-12.64l-24.04-70.41c0,0-3.68-12.87,12.66-22.02c5.05-2.83,11.46-0.98,14.23,4.1l36.25,66.46
				c2.68,4.92,4.2,10.39,4.42,15.99l1.53,38.17l21.39-113.54c2.31-12.24,10.71-22.65,22.44-26.85
				C1253.86,793,1261.91,793.76,1261.91,807.58z"/>
		</g>
		<g>
			<path class="st13" d="M1084.05,1034.81l24.15-47.87c3.19-6.33,3.56-13.71,1.01-20.32l-33.11-85.86l18.44-32.6l59.75,110.17
				l3.24-42.07c0.33-4.28-0.22-8.58-1.6-12.64l-24.04-70.41c0,0-3.68-12.87,12.66-22.02c5.05-2.83,11.46-0.98,14.23,4.1l36.25,66.46
				c2.68,4.92,4.2,10.39,4.42,15.99l1.53,38.17l-1.18,31.58c-0.04,1.16-0.59,2.25-1.49,2.98l-22.16,17.9
				c-0.75,0.6-1.84,0.56-2.5-0.15c-2.06-2.21-7.36-6.21-17.67-4.13c-5.64,1.14-10.81,3.94-15.14,7.72l-64.02,55.81L1084.05,1034.81z
				"/>
		</g>
		<g>
			<path class="st14" d="M1170.24,1096.67l8.46-88.98c0.17-1.75-2.25-2.38-2.94-0.76c-13.45,31.5-60.37,137.03-119.71,221.02
				L1170.24,1096.67z"/>
		</g>
	</g>
	<g>
		<g>
			<path class="st15" d="M1128.26,696.25c0,71.14-19.55,137.69-53.55,194.62l-0.02,0.02c-26.99,45.23-63.11,84.37-105.84,114.86
				c-62.21,44.44-138.39,70.6-220.69,70.6c-52.92,0-103.33-10.82-149.1-30.36C490.36,999.61,407.7,904.02,379,787.25
				c-7.15-29.15-10.95-59.65-10.95-91c0-16.01,0.99-31.8,2.92-47.3c7.15-57.78,27.3-111.54,57.42-158.27
				c18.11-28.14,39.83-53.71,64.53-76.11c0-0.02,0-0.02,0.02-0.02c29.44-26.67,63.09-48.81,99.84-65.29
				c47.43-21.28,100.02-33.11,155.37-33.11c95.34,0,182.5,35.11,249.21,93.11c0.25,0.2,0.47,0.4,0.72,0.61
				c70.58,61.63,118.15,148.92,128.2,247.32c0,0,0,0,0,0.02C1127.59,670.04,1128.26,683.07,1128.26,696.25z"/>
		</g>
		<g>
			<path class="st2" d="M497.84,412.94c0,0-118.4,100.9-125.08,229.42c0,0,21.95,2.17,48.68,65.91c0,0,5.14,28.79,63.23,32.39
				c0,0,19.54,6.68-1.54,50.9c-19.64,41.2-2.67,87.32,42.17,108.38c5.53,2.6,8.3,8.84,6.42,14.65
				c-7.22,22.33-18.79,75.18,20.09,106.04c10.07,7.99,48.24,24.81,48.24,24.81s34.96-59.39,32.67-107.31
				c-0.25-5.23-1.23-10.38-2.49-15.46c-1.96-7.9-3.7-28.88,30.26-35.5c42.16-8.23,57.58-80.2-109.5-104.87
				c0,0-41.13-17.48,50.9-63.23c0,0,42.66-38.39-34.51-35.99c-10.96,0.34-20-9.34-17.93-20.11c2.31-12.02,16.97-27.44,66.32-41.06
				c0,0,18.09-12.06-4.83-24.96c-14.27-8.03-31.45-9.15-46.86-3.6c-21.33,7.69-55.17,17.7-62.44,6.97
				c-10.8-15.94-12.68-32.9,30.93-38.56c0,0,70.56-10.16,15.41-45.25c-9.05-5.76-8.44-19.45,1.36-23.82
				c9.9-4.41,24.23-4.9,43.11,8.92c13.57,9.92,31.77,10.68,46.1,1.9c19.55-11.97,42.88-32.78,49.08-65.86
				c3.66-19.5-13.86-36.52-33.16-31.9c-8.12,1.94-18.16,5.03-30.58,9.72c-6.14,2.32-13.03,0.8-17.77-3.73
				c-9.53-9.12-29.79-19.92-63.01,2.19c-7.16,4.76-15.95,6.39-24.4,4.79L497.84,412.94z"/>
		</g>
		<g>
			<path class="st2" d="M1038.47,450.63c0,0,119.45,122.56,83.41,317.46c0,0-97.33,29.01-73.68,92.76c9.46,25.5,3.7,44.17-6.61,57.4
				c-18.25,23.4-50.67,29.78-77.68,17.49c-17.13-7.79-32.37-21.27-25.21-44.04c14.39-45.75,0-57.06-29.3-78.66
				c-28.13-20.73-66.68-81.09,43.95-64.22c14.51,2.21,29.45,0.83,43.12-4.52c19.59-7.67,37.99-22.98,13.22-52.26
				c-8.72-10.3-24.07-11.68-34.74-3.43c-18.58,14.36-48.84,30.95-67.3,5.44c-4.56-6.3-11.7-10.18-19.42-11.06
				c-12.98-1.48-29.7-7.26-22.75-27.94c2.01-6,1.7-12.52-0.51-18.44c-6.46-17.33-12.63-49.91,41.35-33.33
				c0,0,32.39,22.62,46.27-18.51c8.98-26.61-16.27-27.18-35.2-24.26c-13.32,2.05-26.68-3.92-33.65-15.46
				c-10.98-18.19-19.92-45.18,6.34-64.01c9.54-6.84,21.11-10.25,32.85-10.38C948.91,470.38,1014.08,467.82,1038.47,450.63z"/>
		</g>
		<g class="st16">
			<g>
				<path class="st17" d="M1126.67,655.6c0-0.02,0-0.02,0-0.02c-10.09-98.78-57.81-186.4-128.61-248.26
					c-0.25-0.2-0.47-0.41-0.72-0.61c-21.3-18.53-44.53-32.77-69.59-46.25c6.93,5.24,13.52,8.75,20.06,14.45
					c0.25,0.2,0.47,0.41,0.72,0.61c70.81,61.86,118.53,149.48,128.62,248.26c0,0,0,0,0,0.02c1.31,12.89,1.98,25.96,1.98,39.19
					c0,71.41-19.61,138.22-53.72,195.36l-0.02,0.02c-27.08,45.4-63.31,84.69-106.19,115.3c-62.41,44.61-138.84,70.87-221.4,70.87
					c-53.09,0-103.66-10.86-149.58-30.48c-10.44-4.46-20.64-9.38-30.58-14.72c24.56,18.57,51.42,34.27,80.11,46.52
					c45.92,19.62,96.48,30.48,149.58,30.48c82.56,0,158.99-26.26,221.4-70.87c42.87-30.62,79.11-69.9,106.19-115.3l0.02-0.02
					c34.12-57.14,53.73-123.95,53.73-195.36C1128.65,681.56,1127.98,668.49,1126.67,655.6z"/>
			</g>
		</g>
	</g>
	<g>
		<path class="st18" d="M746.08,843.88c-46.96-1.3-83.78-43.92-83.78-94.25l0,0c0-3.91,3.16-7.08,7.08-7.08
			c31.69,0,126.65,0,157.93,0.01c3.91,0,7.1,3.2,7.1,7.11v2.04C834.4,803.43,794.64,845.22,746.08,843.88z"/>
	</g>
	<g>
		<path class="st19" d="M758.25,790.19c-1.83-0.18-3.52,0.93-4.26,2.62c-1.07,2.46-3.16,4.13-5.59,4.13c-2.41,0-4.5-1.65-5.57-4.08
			c-0.8-1.81-2.55-3.04-4.52-2.9c-24.79,1.77-53.5,23.1-53.5,23.1s22.41,30.85,63.35,30.85c45.47,0,62.59-28.71,62.59-28.71
			S783.48,792.6,758.25,790.19z"/>
	</g>
	<g>
		<g>
			<g>
				<circle class="st18" cx="590.51" cy="635.7" r="45.21"/>
			</g>
			<g>
				<circle class="st5" cx="574.9" cy="620.09" r="15.61"/>
			</g>
		</g>
		<g>
			<g>
				<circle class="st18" cx="900.13" cy="635.7" r="45.21"/>
			</g>
			<g>
				<circle class="st5" cx="884.52" cy="620.09" r="15.61"/>
			</g>
		</g>
	</g>
	<g>
		<path class="st18" d="M967.23,546.84c0.72,0.32,0.43,1.22-0.34,1.07c-8.87-4.71-23.59-11.3-42.72-14.47
			c-12.96-2.14-24.1-2.08-32.48-1.41c-3.9,0.31-8-1.42-10.03-4.54c-0.02-0.03-0.04-0.07-0.07-0.1c-1.41-2.21-1.89-4.81-1.12-7.27
			c1.55-4.92,7.54-7.42,13.38-5.58c9.3,2.03,20.41,5.14,32.5,10.01C943.84,531.59,957.48,539.92,967.23,546.84z"/>
	</g>
	<g>
		<path class="st18" d="M531.54,546.84c-0.72,0.32-0.43,1.22,0.34,1.07c8.87-4.71,23.59-11.3,42.72-14.47
			c12.96-2.14,24.1-2.08,32.48-1.41c3.9,0.31,8-1.42,10.03-4.54c0.02-0.03,0.04-0.07,0.07-0.1c1.41-2.21,1.89-4.81,1.12-7.27
			c-1.55-4.92-7.54-7.42-13.38-5.58c-9.3,2.03-20.41,5.14-32.5,10.01C554.93,531.59,541.29,539.92,531.54,546.84z"/>
	</g>
	<g class="st16">
		<g>
			<ellipse class="st17" cx="748.16" cy="349.09" rx="14.47" ry="7.21"/>
		</g>
	</g>
	<g>
		<path class="st20" d="M748.16,349.92c-3.01,0-5.45-2.44-5.45-5.45V240.42c0-3.01,2.44-5.45,5.45-5.45c3.01,0,5.45,2.44,5.45,5.45
			v104.05C753.6,347.48,751.16,349.92,748.16,349.92z"/>
	</g>
	<g>
		<path class="st20" d="M719.36,229.47c17.32,9.71,23.45,32.97,25,40.38c0.29,1.39-0.42,2.66-1.76,3.14
			c-7.13,2.54-30.17,9.45-47.49-0.27c-17.32-9.71-23.45-32.97-25-40.38c-0.29-1.39,0.42-2.66,1.76-3.14
			C678.99,226.67,702.03,219.76,719.36,229.47z"/>
	</g>
	<g>
		<path class="st20" d="M782.46,263.96c18.62-6.91,40.31,3.48,46.96,7.1c1.25,0.68,1.76,2.05,1.25,3.38
			c-2.68,7.08-12.34,29.11-30.96,36.02c-18.62,6.91-40.31-3.48-46.96-7.1c-1.25-0.68-1.76-2.05-1.25-3.38
			C754.18,292.9,763.84,270.87,782.46,263.96z"/>
	</g>
	<g>
		<circle class="st5" cx="122.89" cy="1276.27" r="85.9"/>
	</g>
	<g>
		<circle class="st11" cx="1397.27" cy="101.88" r="100.7"/>
	</g>
	<g>
		<circle class="st11" cx="65.13" cy="609.94" r="63.11"/>
	</g>
	<g>
		<g>
			<line class="st2" x1="104.41" y1="1305.47" x2="101.63" y2="1309.19"/>
		</g>
		<g>
			<g>
				<defs>
					<path id="SVGID_1_" d="M173.27,1274.24c-0.23-0.09-0.46,0.31-0.57,0.55c-0.02,0.05-0.04,0.09-0.06,0.14
						c0,0.01-0.01,0.02-0.01,0.02l0,0c-0.6,1.38-1.01,2.23-1.09,2.39l0,0c-0.88,1.79-2.67,2.84-4.55,2.84
						c-0.58,0-1.17-0.1-1.74-0.31c-0.34-0.12-3.15-1.17-7.09-3.05c-0.01,0-0.01,0-0.02-0.01c-1.78-0.83-1.8,1.23-1.8,1.23
						c-0.01,0.16-0.02,0.31-0.03,0.47c-0.02,0.35-0.05,0.69-0.08,1.03c-0.02,0.17-0.03,0.35-0.05,0.52
						c-0.04,0.34-0.08,0.68-0.13,1.01c-0.02,0.16-0.04,0.31-0.07,0.46c-0.07,0.47-0.15,0.94-0.25,1.41
						c-0.01,0.05-0.02,0.09-0.03,0.14c-0.09,0.43-0.19,0.86-0.29,1.28c-0.04,0.17-0.09,0.33-0.13,0.5c-0.08,0.3-0.16,0.6-0.25,0.89
						c-0.05,0.18-0.11,0.37-0.17,0.55c-0.09,0.28-0.18,0.57-0.28,0.85c-0.06,0.18-0.12,0.35-0.18,0.53
						c-0.13,0.35-0.27,0.71-0.41,1.06c-0.08,0.21-0.17,0.41-0.26,0.61c-0.13,0.29-0.25,0.59-0.39,0.88c-0.09,0.2-0.19,0.4-0.29,0.6
						c-0.11,0.22-0.22,0.44-0.33,0.66c-0.11,0.21-0.22,0.42-0.33,0.63c-0.11,0.2-0.22,0.39-0.33,0.59
						c-0.12,0.21-0.24,0.43-0.37,0.64c-0.1,0.17-0.21,0.34-0.32,0.51c-0.27,0.43-0.55,0.86-0.85,1.28
						c-0.09,0.13-0.18,0.26-0.27,0.39c-0.17,0.24-0.35,0.48-0.53,0.71c-0.1,0.13-0.19,0.25-0.29,0.38
						c-0.19,0.24-0.38,0.48-0.57,0.71c-0.08,0.1-0.17,0.2-0.25,0.3c-0.98,1.17-2.04,2.27-3.17,3.3c-0.05,0.05-0.11,0.1-0.16,0.14
						c-0.28,0.25-0.56,0.49-0.84,0.73c-0.03,0.03-0.06,0.05-0.09,0.08c-1.25,1.05-2.58,2.01-3.98,2.87c-0.01,0-0.02,0.01-0.02,0.01
						c-1.78,1.1-3.67,2.05-5.65,2.83v-4.44c0-1.5-0.81-2.88-2.12-3.61c-1.31-0.73-2.91-0.69-4.18,0.11
						c-10.55,6.58-18.41,15.29-18.74,15.66c-1.41,1.57-1.41,3.94,0,5.51c0.33,0.37,8.2,9.07,18.74,15.66
						c0.67,0.42,1.42,0.63,2.18,0.63c0.69,0,1.38-0.17,2-0.52c1.31-0.73,2.12-2.11,2.12-3.61v-7.81c1.25-0.31,2.48-0.67,3.69-1.07
						c0.16-0.05,0.33-0.1,0.49-0.16c0.47-0.16,0.93-0.33,1.39-0.5c0.25-0.09,0.5-0.18,0.75-0.28c0.44-0.17,0.87-0.35,1.3-0.53
						c0.26-0.11,0.53-0.22,0.79-0.34c0.42-0.18,0.84-0.38,1.25-0.57c0.26-0.12,0.53-0.25,0.79-0.38c0.41-0.2,0.82-0.4,1.22-0.62
						c0.25-0.13,0.51-0.27,0.76-0.41c0.4-0.22,0.81-0.44,1.2-0.67c0.23-0.13,0.45-0.27,0.67-0.4c1.4-0.84,2.75-1.74,4.06-2.7
						c0.23-0.17,0.46-0.33,0.68-0.5c0.34-0.26,0.67-0.52,1-0.79c0.25-0.2,0.5-0.4,0.75-0.6c0.32-0.26,0.63-0.53,0.93-0.8
						c0.25-0.22,0.5-0.44,0.75-0.67c0.3-0.27,0.59-0.54,0.88-0.81c0.25-0.24,0.5-0.48,0.74-0.72c0.28-0.27,0.56-0.55,0.83-0.83
						c0.25-0.26,0.49-0.52,0.74-0.78c0.26-0.28,0.52-0.55,0.77-0.84c0.26-0.29,0.51-0.6,0.77-0.9c0.22-0.26,0.45-0.52,0.66-0.78
						c0.44-0.55,0.88-1.1,1.3-1.67c0.19-0.25,0.37-0.52,0.55-0.77c0.25-0.35,0.5-0.69,0.73-1.04c0.19-0.28,0.37-0.56,0.55-0.84
						c0.22-0.34,0.44-0.68,0.66-1.03c0.18-0.29,0.35-0.58,0.52-0.87c0.21-0.35,0.41-0.71,0.61-1.06c0.16-0.29,0.32-0.59,0.48-0.88
						c0.2-0.37,0.39-0.75,0.57-1.12c0.14-0.29,0.29-0.58,0.43-0.87c0.19-0.41,0.38-0.82,0.56-1.24c0.12-0.27,0.24-0.53,0.35-0.8
						c0.23-0.54,0.44-1.09,0.65-1.64c0.06-0.15,0.12-0.29,0.17-0.44c0.25-0.7,0.49-1.4,0.71-2.11c0.07-0.23,0.14-0.47,0.21-0.7
						c0.15-0.49,0.29-0.98,0.42-1.47c0.07-0.28,0.14-0.57,0.21-0.86c0.11-0.45,0.22-0.91,0.32-1.37c0.06-0.3,0.12-0.61,0.18-0.91
						c0.09-0.45,0.17-0.91,0.24-1.36c0.05-0.31,0.1-0.61,0.14-0.92c0.07-0.47,0.13-0.94,0.18-1.42c0.03-0.3,0.07-0.59,0.1-0.89
						c0.05-0.52,0.09-1.04,0.12-1.57c0.02-0.25,0.04-0.51,0.05-0.76c0.04-0.78,0.06-1.56,0.06-2.35c0,0,0,0,0,0l0,0
						c0-0.59-0.02-1.18-0.04-1.77C173.57,1274.44,173.49,1274.33,173.27,1274.24z"/>
				</defs>
				<use xlink:href="#SVGID_1_"  style="overflow:visible;fill:#05C4A3;"/>
				<clipPath id="SVGID_2_">
					<use xlink:href="#SVGID_1_"  style="overflow:visible;"/>
				</clipPath>
				<polygon class="st21" points="173.64,1275.7 172.32,1274.15 173.64,1274.15 				"/>
				<polygon class="st21" points="173.64,1280.44 168.26,1274.15 172.32,1274.15 173.64,1275.7 				"/>
				<polygon class="st21" points="173.64,1285.17 164.2,1274.15 168.26,1274.15 173.64,1280.44 				"/>
				<polygon class="st21" points="173.64,1289.91 160.13,1274.15 164.2,1274.15 173.64,1285.17 				"/>
				<polygon class="st21" points="173.64,1294.65 156.07,1274.15 160.13,1274.15 173.64,1289.91 				"/>
				<polygon class="st21" points="173.64,1299.39 152.01,1274.15 156.07,1274.15 173.64,1294.65 				"/>
				<polygon class="st21" points="173.64,1304.12 147.95,1274.15 152.01,1274.15 173.64,1299.39 				"/>
				<polygon class="st21" points="173.64,1308.86 145.18,1275.65 146.93,1274.15 147.95,1274.15 173.64,1304.12 				"/>
				<polygon class="st21" points="173.64,1308.97 171.36,1310.93 142.84,1277.66 145.18,1275.65 173.64,1308.86 				"/>
				
					<rect x="154.38" y="1273.39" transform="matrix(0.7593 -0.6508 0.6508 0.7593 -805.431 413.3101)" class="st21" width="3.08" height="43.82"/>
				
					<rect x="152.04" y="1275.4" transform="matrix(0.7593 -0.6508 0.6508 0.7593 -807.3005 412.2697)" class="st21" width="3.08" height="43.82"/>
				
					<rect x="149.7" y="1277.4" transform="matrix(0.7593 -0.6508 0.6508 0.7593 -809.1699 411.2292)" class="st21" width="3.08" height="43.82"/>
				
					<rect x="147.36" y="1279.41" transform="matrix(0.7593 -0.6508 0.6508 0.7593 -811.0395 410.1887)" class="st21" width="3.08" height="43.82"/>
				
					<rect x="145.02" y="1281.42" transform="matrix(0.7593 -0.6508 0.6508 0.7593 -812.909 409.1483)" class="st21" width="3.08" height="43.82"/>
				
					<rect x="142.68" y="1283.42" transform="matrix(0.7593 -0.6508 0.6508 0.7593 -814.7785 408.1078)" class="st21" width="3.08" height="43.82"/>
				
					<rect x="140.34" y="1285.43" transform="matrix(0.7593 -0.6508 0.6508 0.7593 -816.6479 407.0673)" class="st21" width="3.08" height="43.82"/>
				
					<rect x="138" y="1287.44" transform="matrix(0.7593 -0.6508 0.6508 0.7593 -818.5177 406.0271)" class="st21" width="3.08" height="43.82"/>
				
					<rect x="135.66" y="1289.44" transform="matrix(0.7593 -0.6508 0.6508 0.7593 -820.3867 404.9861)" class="st21" width="3.08" height="43.82"/>
				
					<rect x="133.32" y="1291.45" transform="matrix(0.7593 -0.6508 0.6508 0.7593 -822.2565 403.9459)" class="st21" width="3.08" height="43.82"/>
				
					<rect x="130.97" y="1293.46" transform="matrix(0.7593 -0.6508 0.6508 0.7593 -824.126 402.9055)" class="st21" width="3.08" height="43.82"/>
				
					<rect x="128.63" y="1295.46" transform="matrix(0.7593 -0.6508 0.6508 0.7593 -825.9957 401.8653)" class="st21" width="3.08" height="43.82"/>
				
					<rect x="126.29" y="1297.47" transform="matrix(0.7593 -0.6508 0.6508 0.7593 -827.865 400.8245)" class="st21" width="3.08" height="43.82"/>
				<polygon class="st21" points="140.92,1337.02 140.81,1337.11 136.94,1337.11 110.06,1305.75 112.4,1303.75 				"/>
				<polygon class="st21" points="132.88,1337.11 108.24,1308.37 108.24,1307.31 110.06,1305.75 136.94,1337.11 				"/>
				<polygon class="st21" points="128.82,1337.11 108.24,1313.11 108.24,1308.37 132.88,1337.11 				"/>
				<polygon class="st21" points="124.76,1337.11 108.24,1317.85 108.24,1313.11 128.82,1337.11 				"/>
				<polygon class="st21" points="120.7,1337.11 108.24,1322.58 108.24,1317.85 124.76,1337.11 				"/>
				<polygon class="st21" points="116.64,1337.11 108.24,1327.32 108.24,1322.58 120.7,1337.11 				"/>
				<polygon class="st21" points="112.58,1337.11 108.24,1332.06 108.24,1327.32 116.64,1337.11 				"/>
				<polygon class="st21" points="108.52,1337.11 108.24,1336.8 108.24,1332.06 112.58,1337.11 				"/>
				<polygon class="st21" points="108.24,1336.8 108.52,1337.11 108.24,1337.11 				"/>
			</g>
		</g>
		<g>
			<g>
				<defs>
					<path id="SVGID_3_" d="M100.45,1303.11l0.01-0.01c-8.22-6.13-13.52-15.74-13.52-26.55c0-1.67,0.13-3.32,0.37-4.92l2.92,1.97
						c1.23,0.83,2.83,0.95,4.17,0.31c0.64-0.3,1.18-0.75,1.57-1.3c0.43-0.6,0.7-1.32,0.74-2.08c0.65-12-1.98-23.04-2.09-23.51
						c-0.48-1.98-2.42-3.3-4.51-3.05c-0.49,0.06-12.13,1.47-23.57,6.17c-1.38,0.57-2.33,1.81-2.49,3.25
						c-0.16,1.44,0.51,2.85,1.74,3.68l6.3,4.25c-1.58,4.8-2.44,9.9-2.44,15.21c0,15.97,7.73,30.19,19.76,39.39
						c1.53,1.32,3.54,2.14,5.76,2.14c4.78,0,8.65-3.74,8.65-8.35C103.83,1307.03,102.5,1304.64,100.45,1303.11z"/>
				</defs>
				<use xlink:href="#SVGID_3_"  style="overflow:visible;fill:#05C4A3;"/>
				<clipPath id="SVGID_4_">
					<use xlink:href="#SVGID_3_"  style="overflow:visible;"/>
				</clipPath>
				<polygon class="st22" points="101.52,1318.08 103.83,1317.39 103.83,1318.08 				"/>
				<polygon class="st22" points="91.04,1318.08 103.83,1314.24 103.83,1317.39 101.52,1318.08 				"/>
				<polygon class="st22" points="80.56,1318.08 103.83,1311.1 103.83,1314.24 91.04,1318.08 				"/>
				<polygon class="st22" points="71.63,1318.08 71.5,1317.65 103.83,1307.95 103.83,1311.1 80.56,1318.08 				"/>
				<polygon class="st22" points="71.5,1317.65 70.64,1314.77 103.83,1304.81 103.83,1307.95 				"/>
				<polygon class="st22" points="70.64,1314.77 69.77,1311.88 103.83,1301.67 103.83,1304.81 				"/>
				<polygon class="st22" points="69.77,1311.88 68.91,1309 103.83,1298.52 103.83,1301.67 				"/>
				<polygon class="st22" points="68.91,1309 68.04,1306.11 103.83,1295.38 103.83,1298.52 				"/>
				<polygon class="st22" points="68.04,1306.11 67.18,1303.23 103.83,1292.23 103.83,1295.38 				"/>
				<polygon class="st22" points="67.18,1303.23 66.31,1300.34 103.83,1289.09 103.83,1292.23 				"/>
				<polygon class="st22" points="66.31,1300.34 65.45,1297.46 103.83,1285.95 103.83,1289.09 				"/>
				<polygon class="st22" points="65.45,1297.46 64.58,1294.58 103.83,1282.8 103.83,1285.95 				"/>
				<polygon class="st22" points="64.58,1294.58 63.91,1292.32 63.91,1291.64 103.83,1279.66 103.83,1282.8 				"/>
				<polygon class="st22" points="63.91,1288.49 103.83,1276.52 103.83,1279.66 63.91,1291.64 				"/>
				<polygon class="st22" points="63.91,1285.35 103.83,1273.37 103.83,1276.52 63.91,1288.49 				"/>
				<polygon class="st22" points="63.91,1282.2 103.83,1270.23 103.83,1273.37 63.91,1285.35 				"/>
				<polygon class="st22" points="63.91,1279.06 103.83,1267.08 103.83,1270.23 63.91,1282.2 				"/>
				<polygon class="st22" points="63.91,1275.92 103.83,1263.94 103.83,1267.08 63.91,1279.06 				"/>
				<polygon class="st22" points="63.91,1272.77 103.83,1260.8 103.83,1263.94 63.91,1275.92 				"/>
				<polygon class="st22" points="63.91,1269.63 103.64,1257.71 103.83,1258.34 103.83,1260.8 63.91,1272.77 				"/>
				<polygon class="st22" points="63.91,1266.48 102.77,1254.83 103.64,1257.71 63.91,1269.63 				"/>
				<polygon class="st22" points="63.91,1263.34 101.91,1251.94 102.77,1254.83 63.91,1266.48 				"/>
				<polygon class="st22" points="63.91,1260.2 101.04,1249.06 101.91,1251.94 63.91,1263.34 				"/>
				<polygon class="st22" points="63.91,1257.05 100.17,1246.17 101.04,1249.06 63.91,1260.2 				"/>
				<polygon class="st22" points="63.91,1253.91 97.8,1243.74 99.45,1243.74 100.17,1246.17 63.91,1257.05 				"/>
				<polygon class="st22" points="63.91,1250.77 87.32,1243.74 97.8,1243.74 63.91,1253.91 				"/>
				<polygon class="st22" points="63.91,1247.62 76.84,1243.74 87.32,1243.74 63.91,1250.77 				"/>
				<polygon class="st22" points="63.91,1244.48 66.36,1243.74 76.84,1243.74 63.91,1247.62 				"/>
				<polygon class="st22" points="66.36,1243.74 63.91,1244.48 63.91,1243.74 				"/>
			</g>
		</g>
		<g>
			<g>
				<defs>
					<path id="SVGID_5_" d="M176,1246.19c-0.26-0.64-0.67-1.21-1.23-1.66c-1.16-0.94-2.75-1.18-4.14-0.62l-7.13,2.87
						c-9.46-12.4-24.68-20.46-41.86-20.46c-12.96,0-24.81,4.59-33.91,12.17c-0.05,0.04-0.09,0.07-0.13,0.11
						c-0.04,0.03-0.08,0.07-0.12,0.1c-0.23,0.21-0.3,0.37-0.26,0.67c0.07,0.41,0.85,0.3,0.85,0.3l0,0c2.36-0.42,3.89-0.61,4.15-0.64
						c3.23-0.37,6.22,1.66,6.96,4.74c0.05,0.2,0.31,1.3,0.64,3.07c0,0,0,0,0,0.01c0.7,3.31,2.65,1.75,2.65,1.75l0,0.01
						c5.49-3.52,12.06-5.59,19.15-5.59c9.91,0,18.85,4.02,25.17,10.46l-3.85,1.55c-1.39,0.56-2.37,1.83-2.55,3.32
						c-0.19,1.49,0.45,2.96,1.66,3.84c10.04,7.33,21.05,11.38,21.52,11.55c1.98,0.72,4.18-0.17,5.11-2.05
						c0.22-0.44,5.36-10.99,7.53-23.23C176.37,1247.68,176.29,1246.9,176,1246.19z"/>
				</defs>
				<use xlink:href="#SVGID_5_"  style="overflow:visible;fill:#05C4A3;"/>
				<clipPath id="SVGID_6_">
					<use xlink:href="#SVGID_5_"  style="overflow:visible;"/>
				</clipPath>
				<polygon class="st23" points="88.8,1226.32 87.19,1229.2 87.19,1226.32 				"/>
				<polygon class="st23" points="92.34,1226.32 87.19,1235.55 87.19,1229.2 88.8,1226.32 				"/>
				<polygon class="st23" points="95.88,1226.32 87.19,1241.9 87.19,1235.55 92.34,1226.32 				"/>
				<polygon class="st23" points="99.42,1226.32 87.19,1248.25 87.19,1241.9 95.88,1226.32 				"/>
				<polygon class="st23" points="102.96,1226.32 89.6,1250.29 87.19,1248.95 87.19,1248.25 99.42,1226.32 				"/>
				<polygon class="st23" points="106.5,1226.32 92.3,1251.8 89.6,1250.29 102.96,1226.32 				"/>
				<polygon class="st23" points="110.04,1226.32 95,1253.3 92.3,1251.8 106.5,1226.32 				"/>
				<polygon class="st23" points="113.59,1226.32 97.7,1254.81 95,1253.3 110.04,1226.32 				"/>
				<polygon class="st23" points="117.13,1226.32 100.4,1256.32 97.7,1254.81 113.59,1226.32 				"/>
				<polygon class="st23" points="120.67,1226.32 103.1,1257.82 100.4,1256.32 117.13,1226.32 				"/>
				<polygon class="st23" points="124.21,1226.32 105.8,1259.33 103.1,1257.82 120.67,1226.32 				"/>
				<polygon class="st23" points="127.75,1226.32 108.5,1260.83 105.8,1259.33 124.21,1226.32 				"/>
				<polygon class="st23" points="131.29,1226.32 111.21,1262.34 108.5,1260.83 127.75,1226.32 				"/>
				<polygon class="st23" points="134.83,1226.32 113.91,1263.85 111.21,1262.34 131.29,1226.32 				"/>
				<polygon class="st23" points="138.37,1226.32 116.61,1265.35 113.91,1263.85 134.83,1226.32 				"/>
				<polygon class="st23" points="141.91,1226.32 119.31,1266.86 116.61,1265.35 138.37,1226.32 				"/>
				<polygon class="st23" points="145.45,1226.32 122.01,1268.36 119.31,1266.86 141.91,1226.32 				"/>
				<polygon class="st23" points="149,1226.32 124.71,1269.87 122.01,1268.36 145.45,1226.32 				"/>
				<polygon class="st23" points="152.54,1226.32 127.41,1271.38 124.71,1269.87 149,1226.32 				"/>
				<polygon class="st23" points="153.83,1226.32 155.54,1227.28 130.11,1272.88 127.41,1271.38 152.54,1226.32 				"/>
				
					<rect x="118.07" y="1249.29" transform="matrix(0.487 -0.8734 0.8734 0.487 -1018.5106 767.592)" class="st23" width="52.22" height="3.09"/>
				<polygon class="st23" points="158.25,1228.78 160.95,1230.29 136.32,1274.46 132.94,1274.46 132.81,1274.39 				"/>
				<polygon class="st23" points="160.95,1230.29 163.65,1231.79 139.86,1274.46 136.32,1274.46 				"/>
				<polygon class="st23" points="163.65,1231.79 166.35,1233.3 143.4,1274.46 139.86,1274.46 				"/>
				<polygon class="st23" points="166.35,1233.3 169.05,1234.81 146.94,1274.46 143.4,1274.46 				"/>
				<polygon class="st23" points="169.05,1234.81 171.75,1236.31 150.48,1274.46 146.94,1274.46 				"/>
				<polygon class="st23" points="171.75,1236.31 174.45,1237.82 154.02,1274.46 150.48,1274.46 				"/>
				<polygon class="st23" points="174.45,1237.82 176.37,1238.89 176.37,1240.72 157.56,1274.46 154.02,1274.46 				"/>
				<polygon class="st23" points="176.37,1247.07 161.1,1274.46 157.56,1274.46 176.37,1240.72 				"/>
				<polygon class="st23" points="176.37,1253.42 164.64,1274.46 161.1,1274.46 176.37,1247.07 				"/>
				<polygon class="st23" points="176.37,1259.77 168.19,1274.46 164.64,1274.46 176.37,1253.42 				"/>
				<polygon class="st23" points="176.37,1266.13 171.73,1274.46 168.19,1274.46 176.37,1259.77 				"/>
				<polygon class="st23" points="176.37,1272.48 175.27,1274.46 171.73,1274.46 176.37,1266.13 				"/>
				<polygon class="st23" points="175.27,1274.46 176.37,1272.48 176.37,1274.46 				"/>
			</g>
		</g>
	</g>
	<g>
		<g>
			<path class="st2" d="M1380.54,1193.09h-160.96c-1.51,0-2.72-1.22-2.72-2.72s1.22-2.72,2.72-2.72h160.96
				c1.51,0,2.72,1.22,2.72,2.72S1382.05,1193.09,1380.54,1193.09z"/>
		</g>
		<g>
			<path class="st2" d="M1304.4,1230.67h-84.82c-1.51,0-2.72-1.22-2.72-2.72c0-1.51,1.22-2.72,2.72-2.72h84.82
				c1.51,0,2.72,1.22,2.72,2.72C1307.12,1229.46,1305.9,1230.67,1304.4,1230.67z"/>
		</g>
		<g>
			<path class="st2" d="M1304.32,1268.25h-84.82c-1.51,0-2.72-1.22-2.72-2.72c0-1.51,1.22-2.72,2.72-2.72h84.82
				c1.51,0,2.72,1.22,2.72,2.72C1307.04,1267.03,1305.82,1268.25,1304.32,1268.25z"/>
		</g>
		<g>
			<path class="st2" d="M1344.95,1230.67h-20.91c-1.51,0-2.72-1.22-2.72-2.72c0-1.51,1.22-2.72,2.72-2.72h20.91
				c1.51,0,2.72,1.22,2.72,2.72C1347.67,1229.46,1346.46,1230.67,1344.95,1230.67z"/>
		</g>
	</g>
	<g>
		<g>
			<path class="st2" d="M282.2,310.24H121.24c-1.51,0-2.72-1.22-2.72-2.72s1.22-2.72,2.72-2.72H282.2c1.51,0,2.72,1.22,2.72,2.72
				S283.7,310.24,282.2,310.24z"/>
		</g>
		<g>
			<path class="st2" d="M206.05,347.82h-84.82c-1.51,0-2.72-1.22-2.72-2.72s1.22-2.72,2.72-2.72h84.82c1.51,0,2.72,1.22,2.72,2.72
				S207.56,347.82,206.05,347.82z"/>
		</g>
		<g>
			<path class="st2" d="M205.97,385.39h-84.82c-1.51,0-2.72-1.22-2.72-2.72s1.22-2.72,2.72-2.72h84.82c1.51,0,2.72,1.22,2.72,2.72
				S207.48,385.39,205.97,385.39z"/>
		</g>
		<g>
			<path class="st2" d="M246.61,347.82H225.7c-1.51,0-2.72-1.22-2.72-2.72s1.22-2.72,2.72-2.72h20.91c1.51,0,2.72,1.22,2.72,2.72
				S248.11,347.82,246.61,347.82z"/>
		</g>
	</g>
	<g>
		<g>
			<path class="st2" d="M1150.93,62.08H989.97c-1.51,0-2.72-1.22-2.72-2.72s1.22-2.72,2.72-2.72h160.96c1.51,0,2.72,1.22,2.72,2.72
				S1152.44,62.08,1150.93,62.08z"/>
		</g>
		<g>
			<path class="st2" d="M1150.93,99.66h-84.82c-1.51,0-2.72-1.22-2.72-2.72s1.22-2.72,2.72-2.72h84.82c1.51,0,2.72,1.22,2.72,2.72
				S1152.44,99.66,1150.93,99.66z"/>
		</g>
		<g>
			<path class="st2" d="M1151.01,137.23h-84.82c-1.51,0-2.72-1.22-2.72-2.72s1.22-2.72,2.72-2.72h84.82c1.51,0,2.72,1.22,2.72,2.72
				S1152.52,137.23,1151.01,137.23z"/>
		</g>
		<g>
			<path class="st2" d="M1046.47,99.66h-20.91c-1.51,0-2.72-1.22-2.72-2.72s1.22-2.72,2.72-2.72h20.91c1.51,0,2.72,1.22,2.72,2.72
				S1047.98,99.66,1046.47,99.66z"/>
		</g>
	</g>
	<g>
		<circle class="st5" cx="318.08" cy="1226.32" r="17.64"/>
	</g>
	<g>
		<circle class="st5" cx="994.73" cy="164.58" r="17.64"/>
	</g>
	<g>
		<circle class="st5" cx="1315.65" cy="450.63" r="17.64"/>
	</g>
	<g>
		<circle class="st5" cx="499.99" cy="146.94" r="17.64"/>
	</g>
	<g>
		<circle class="st5" cx="762.63" cy="1160.42" r="17.64"/>
	</g>
	<g>
		<circle class="st5" cx="141.12" cy="822.56" r="17.64"/>
	</g>
</g>
</svg>
