<svg id="Layer_1" data-name="Layer 1" xmlns="http://www.w3.org/2000/svg" viewBox="0 0 500 500"><defs><style>.cls-1{fill:#fff;}.cls-2{fill:#05c4a3;}</style></defs><rect class="cls-1" x="163.59" y="279.7" width="61.86" height="54.03" rx="0.76" transform="translate(501.23 112.2) rotate(90)"/><path class="cls-2" d="M217.44,343.06H171.6a9.53,9.53,0,0,1-9.52-9.51V279.88a9.54,9.54,0,0,1,9.52-9.52h45.84a9.54,9.54,0,0,1,9.52,9.52v53.67A9.53,9.53,0,0,1,217.44,343.06Zm-44.52-10.84h43.19v-51H172.92Z"/><rect class="cls-1" x="263.48" y="269.39" width="82.47" height="54.03" rx="0.76" transform="translate(601.12 -8.31) rotate(90)"/><path class="cls-2" d="M327.64,343.06H281.8a9.53,9.53,0,0,1-9.52-9.51V259.26a9.52,9.52,0,0,1,9.52-9.51h45.84a9.52,9.52,0,0,1,9.52,9.51v74.29A9.53,9.53,0,0,1,327.64,343.06Zm-44.52-10.84h43.19V260.59H283.12Z"/><rect class="cls-1" x="187.41" y="248.77" width="125.13" height="54.03" rx="0.76" transform="translate(525.76 25.81) rotate(90)"/><path class="cls-2" d="M272.89,343.78H227.05a9.54,9.54,0,0,1-9.52-9.52V217.31a9.53,9.53,0,0,1,9.52-9.51h45.84a9.53,9.53,0,0,1,9.52,9.51v117A9.54,9.54,0,0,1,272.89,343.78Zm-44.51-10.85h43.19V218.64H228.38Z"/><path class="cls-2" d="M261.83,169.91c-3.31,5.52-6.82,5.62-9.76,3.86s-4.17-4.71-.86-10.23,11.31-6.81,11.31-6.81S265.14,164.39,261.83,169.91Z"/><path class="cls-2" d="M241.67,161.67c3.68,5.44,2.26,8.73-.63,10.68s-6.15,1.83-9.83-3.61-1.43-13.39-1.43-13.39S238,156.23,241.67,161.67Z"/><path class="cls-2" d="M249.49,194.9a2.84,2.84,0,0,1-2.81-2.47,39.34,39.34,0,0,0-3.05-10.75,45.72,45.72,0,0,0-5.27-8.92,2.84,2.84,0,1,1,4.54-3.42,50.43,50.43,0,0,1,5.93,10,44.74,44.74,0,0,1,3.49,12.3,2.84,2.84,0,0,1-2.45,3.19A2.43,2.43,0,0,1,249.49,194.9Z"/><line class="cls-2" x1="253.41" y1="172.32" x2="247.99" y2="184.12"/><path class="cls-2" d="M248,187a2.74,2.74,0,0,1-1.18-.26,2.85,2.85,0,0,1-1.4-3.77l5.42-11.8a2.85,2.85,0,0,1,5.17,2.38l-5.42,11.79A2.85,2.85,0,0,1,248,187Z"/><path class="cls-2" d="M355.47,344.65H144.53a5.43,5.43,0,0,1,0-10.85H355.47a5.43,5.43,0,0,1,0,10.85Z"/></svg>