<?xml version="1.0" encoding="utf-8"?>
<!-- Generator: Adobe Illustrator 25.0.0, SVG Export Plug-In . SVG Version: 6.00 Build 0)  -->
<svg version="1.1" id="Layer_1" xmlns="http://www.w3.org/2000/svg" xmlns:xlink="http://www.w3.org/1999/xlink" x="0px" y="0px"
	 viewBox="0 0 1500 1390.08" style="enable-background:new 0 0 1500 1390.08;" xml:space="preserve">
<style type="text/css">
	.st0{fill:#EE655B;}
	.st1{fill:#64DADD;}
	.st2{fill:#05C4A3;}
	.st3{opacity:0.73;}
	.st4{fill:#D2F4EE;}
	.st5{fill:#FFFFFF;}
	.st6{fill:none;stroke:#000000;stroke-width:5.0725;stroke-miterlimit:10;}
	.st7{fill:#87D3C6;}
	.st8{fill:#F2A8A3;}
	.st9{fill:#EB9E3F;}
	.st10{fill:#F7EDC0;}
	.st11{fill:none;stroke:#05C4A3;stroke-width:9;stroke-linecap:round;stroke-linejoin:round;stroke-miterlimit:10;}
	.st12{fill:#AFF2E5;}
	.st13{fill:#FEAB8D;}
	.st14{fill:#F3937B;}
	.st15{fill:#F49277;}
	.st16{fill:#87E0F4;}
	.st17{opacity:0.3;}
	.st18{fill:#4B91B5;}
	.st19{fill:#383431;}
	.st20{fill:#07A889;}
	.st21{fill:#F7931E;}
	.st22{fill:#F7857C;}
</style>
<g>
	<g>
		<path class="st12" d="M1126.21,1.17c0,0,92.35,0,94.88,98.68s-94.88,98.68-94.88,98.68s-54.4,12.65-53.13,60.73
			c1.27,48.07,29.1,60.73,56.93,60.73c19.87,0,94.55,0,135.65,0c35.98,0,71.52,9.41,102.03,28.47
			c37.48,23.4,75.43,65.15,77.33,138.53c3.8,146.75-108.8,196.09-148.02,201.15c-18.23,2.35-49.87,2.52-78.5,2.02
			c-52.24-0.91-87.73,54.05-63.9,100.55c0.63,1.23,1.29,2.46,1.97,3.7c17.27,31.22,56.99,46.58,91.24,51.73
			c243.11,36.55,250.12,170.86,250.16,265.2c0.1,230.82-146.58,257.44-231.34,271.36c-79.48,13.05-1034.43,1.81-1153.1,0.15
			c-38.47-0.54-107.5-12.36-107.5-112.16c0-105.01,95.43-104.33,95.43-104.33l168.54,6.74c0,0,64.83,0.9,66.77-48.49
			c2.13-54.36-60.73-60.73-60.73-60.73l-42.94-4.16c-102.54-9.92-179.95-98.8-173.85-201.64c0.13-2.22,2.98-163.05,163.07-163.05
			H314c0,0,68.32,0.02,68.32-71.41c0-33.93-23.25-50.23-42.62-57.92c-10.57-4.2-21.85-6.3-33.22-6.78
			c-39.08-1.65-219.62-18.04-282.29-179.65C-2.95,309.27,0.82,231.1,32.32,162.97c0.54-1.17,1.1-2.35,1.66-3.54
			C80.23,62.28,179.11,1.17,286.71,1.17L1126.21,1.17z"/>
	</g>
	<g>
		<path class="st5" d="M310.82,89.83c0,0,10.22,0,10.5,6.35c0.25,5.6-26.84,6.26-33.26,6.34c-1.49,0.02-2.96,0.26-4.34,0.8
			c-1.49,0.59-2.96,1.57-2.89,3.12c0.14,3.1,3.22,3.91,6.3,3.91c2.2,0,34.57,0,39.12,0c3.98,0,7.92,0.61,11.29,1.83
			c4.15,1.51,8.35,4.2,8.56,8.92c0.42,9.45-12.04,12.63-16.38,12.95c-2.02,0.15-5.52,0.16-8.69,0.13c-5.78-0.06-8.67,0.19-8.74,4.36
			c-0.05,2.77,1.03,4.9,11.99,5.68c26.95,1.91,27.69,11,27.69,17.08c0.01,14.86-16.23,16.58-25.61,17.47
			c-8.8,0.84-114.5,0.12-127.64,0.01c-4.26-0.03-11.9-0.8-11.9-7.22c0-6.76,10.56-6.72,10.56-6.72l18.66,0.43
			c0,0,7.18,0.06,7.39-3.12c0.24-3.5-6.72-3.91-6.72-3.91l-4.75-0.27c-11.35-0.64-19.92-6.36-19.24-12.98
			c0.01-0.14,0.33-10.5,18.05-10.5h34.5c0,0,7.3,0,7.56-4.36c0.06-1.09-0.54-2.14-1.48-2.7c-1.89-1.15-4.38-1.64-6.91-1.7
			c-4.33-0.11-48.66-1.16-55.6-11.57c-3-4.51-2.59-9.54,0.9-13.93c0.06-0.08,0.12-0.15,0.18-0.23c5.12-6.26,16.06-10.19,27.98-10.19
			H310.82z"/>
	</g>
	<g>
		<path class="st5" d="M1209.29,503.25c0,0-10.22,0-10.5,6.35c-0.25,5.6,26.84,6.26,33.26,6.34c1.49,0.02,2.96,0.26,4.34,0.8
			c1.49,0.59,2.96,1.57,2.89,3.12c-0.14,3.1-3.22,3.91-6.3,3.91c-2.2,0-34.57,0-39.12,0c-3.98,0-7.92,0.61-11.29,1.83
			c-4.15,1.51-8.35,4.2-8.56,8.92c-0.42,9.45,12.04,12.63,16.38,12.95c2.02,0.15,5.52,0.16,8.69,0.13c5.78-0.06,8.67,0.19,8.74,4.36
			c0.05,2.77-1.03,4.9-11.99,5.68c-26.95,1.91-27.69,11-27.69,17.08c-0.01,14.86,16.23,16.58,25.61,17.47
			c8.8,0.84,114.5,0.12,127.64,0.01c4.26-0.03,11.9-0.8,11.9-7.22c0-6.76-10.56-6.72-10.56-6.72l-18.66,0.43
			c0,0-7.18,0.06-7.39-3.12c-0.24-3.5,6.72-3.91,6.72-3.91l4.75-0.27c11.35-0.64,19.92-6.36,19.24-12.98
			c-0.01-0.14-0.33-10.5-18.05-10.5h-34.5c0,0-7.3,0-7.56-4.36c-0.06-1.09,0.54-2.14,1.48-2.7c1.89-1.15,4.38-1.64,6.91-1.7
			c4.33-0.11,48.66-1.16,55.6-11.57c3-4.51,2.59-9.54-0.9-13.93c-0.06-0.08-0.12-0.15-0.18-0.23c-5.12-6.26-16.07-10.19-27.98-10.19
			H1209.29z"/>
	</g>
	<g>
		<g>
			<path class="st13" d="M234.88,807.58v170.11c0,8.31,3,16.35,8.46,22.62l218.81,251.55c6.15,7.07,8.26,16.8,5.59,25.78
				l-33.98,108.47l154.68,1.44l11.71-100.75c0.43-5.07,1.94-10,4.54-14.37c14.95-25.1,57.9-128.45-175.19-221.3
				c-7.5-2.99-13.68-8.61-17.32-15.82l-24.15-47.87c-3.19-6.33-3.56-13.71-1.01-20.32l33.11-85.86l-18.44-32.6l-59.75,110.17
				l-3.24-42.07c-0.33-4.28,0.22-8.58,1.6-12.64l24.04-70.41c0,0,3.68-12.87-12.66-22.02c-5.05-2.83-11.46-0.98-14.23,4.1
				l-36.25,66.46c-2.68,4.92-4.2,10.39-4.42,15.99l-1.53,38.17l-21.39-113.54c-2.31-12.24-10.71-22.65-22.44-26.85
				C242.93,793,234.88,793.76,234.88,807.58z"/>
		</g>
		<g>
			<path class="st14" d="M412.74,1034.81l-24.15-47.87c-3.19-6.33-3.56-13.71-1.01-20.32l33.11-85.86l-18.44-32.6l-59.75,110.17
				l-3.24-42.07c-0.33-4.28,0.22-8.58,1.6-12.64l24.04-70.41c0,0,3.68-12.87-12.66-22.02c-5.05-2.83-11.46-0.98-14.23,4.1
				l-36.25,66.46c-2.68,4.92-4.2,10.39-4.42,15.99l-1.53,38.17l1.18,31.58c0.04,1.16,0.59,2.25,1.49,2.98l22.16,17.9
				c0.75,0.6,1.84,0.56,2.5-0.15c2.06-2.21,7.36-6.21,17.67-4.13c5.64,1.14,10.81,3.94,15.14,7.72l64.02,55.81L412.74,1034.81z"/>
		</g>
		<g>
			<path class="st15" d="M326.55,1096.67l-8.46-88.98c-0.17-1.75,2.25-2.38,2.94-0.76c13.45,31.5,60.37,137.03,119.71,221.02
				L326.55,1096.67z"/>
		</g>
	</g>
	<g>
		<g>
			<path class="st13" d="M1261.91,807.58v170.11c0,8.31-3,16.35-8.46,22.62l-218.81,251.55c-6.15,7.07-8.26,16.8-5.59,25.78
				l33.06,111.23H905.25l-8.61-102.06c-0.43-5.07-1.94-10-4.54-14.37c-14.95-25.1-57.9-128.45,175.19-221.3
				c7.5-2.99,13.68-8.61,17.32-15.82l24.15-47.87c3.19-6.33,3.56-13.71,1.01-20.32l-33.11-85.86l18.44-32.6l59.75,110.17l3.24-42.07
				c0.33-4.28-0.22-8.58-1.6-12.64l-24.04-70.41c0,0-3.68-12.87,12.66-22.02c5.05-2.83,11.46-0.98,14.23,4.1l36.25,66.46
				c2.68,4.92,4.2,10.39,4.42,15.99l1.53,38.17l21.39-113.54c2.31-12.24,10.71-22.65,22.44-26.85
				C1253.86,793,1261.91,793.76,1261.91,807.58z"/>
		</g>
		<g>
			<path class="st14" d="M1084.05,1034.81l24.15-47.87c3.19-6.33,3.56-13.71,1.01-20.32l-33.11-85.86l18.44-32.6l59.75,110.17
				l3.24-42.07c0.33-4.28-0.22-8.58-1.6-12.64l-24.04-70.41c0,0-3.68-12.87,12.66-22.02c5.05-2.83,11.46-0.98,14.23,4.1l36.25,66.46
				c2.68,4.92,4.2,10.39,4.42,15.99l1.53,38.17l-1.18,31.58c-0.04,1.16-0.59,2.25-1.49,2.98l-22.16,17.9
				c-0.75,0.6-1.84,0.56-2.5-0.15c-2.06-2.21-7.36-6.21-17.67-4.13c-5.64,1.14-10.81,3.94-15.14,7.72l-64.02,55.81L1084.05,1034.81z
				"/>
		</g>
		<g>
			<path class="st15" d="M1170.24,1096.67l8.46-88.98c0.17-1.75-2.25-2.38-2.94-0.76c-13.45,31.5-60.37,137.03-119.71,221.02
				L1170.24,1096.67z"/>
		</g>
	</g>
	<g>
		<g>
			<path class="st16" d="M1128.26,696.25c0,71.14-19.55,137.69-53.55,194.62l-0.02,0.02c-26.99,45.23-63.11,84.37-105.84,114.86
				c-62.21,44.44-138.39,70.6-220.69,70.6c-52.92,0-103.33-10.82-149.1-30.36C490.36,999.61,407.7,904.02,379,787.25
				c-7.15-29.15-10.95-59.65-10.95-91c0-16.01,0.99-31.8,2.92-47.3c7.15-57.78,27.3-111.54,57.42-158.27
				c18.11-28.14,39.83-53.71,64.53-76.11c0-0.02,0-0.02,0.02-0.02c29.44-26.67,63.09-48.81,99.84-65.29
				c47.43-21.28,100.02-33.11,155.37-33.11c95.34,0,182.5,35.11,249.21,93.11c0.25,0.2,0.47,0.4,0.72,0.61
				c70.58,61.63,118.15,148.92,128.2,247.32c0,0,0,0,0,0.02C1127.59,670.04,1128.26,683.07,1128.26,696.25z"/>
		</g>
		<g>
			<path class="st2" d="M497.84,412.94c0,0-118.4,100.9-125.08,229.42c0,0,21.95,2.17,48.68,65.91c0,0,5.14,28.79,63.23,32.39
				c0,0,19.54,6.68-1.54,50.9c-19.64,41.2-2.67,87.32,42.17,108.38c5.53,2.6,8.3,8.84,6.42,14.65
				c-7.22,22.33-18.79,75.18,20.09,106.04c10.07,7.99,48.24,24.81,48.24,24.81s34.96-59.39,32.67-107.31
				c-0.25-5.23-1.23-10.38-2.49-15.46c-1.96-7.9-3.7-28.88,30.26-35.5c42.16-8.23,57.58-80.2-109.5-104.87
				c0,0-41.13-17.48,50.9-63.23c0,0,42.66-38.39-34.51-35.99c-10.96,0.34-20-9.34-17.93-20.11c2.31-12.02,16.97-27.44,66.32-41.06
				c0,0,18.09-12.06-4.83-24.96c-14.27-8.03-31.45-9.15-46.86-3.6c-21.33,7.69-55.17,17.7-62.44,6.97
				c-10.8-15.94-12.68-32.9,30.93-38.56c0,0,70.56-10.16,15.41-45.25c-9.05-5.76-8.44-19.45,1.36-23.82
				c9.9-4.41,24.23-4.9,43.11,8.92c13.57,9.92,31.77,10.68,46.1,1.9c19.55-11.97,42.88-32.78,49.08-65.86
				c3.66-19.5-13.86-36.52-33.16-31.9c-8.12,1.94-18.16,5.03-30.58,9.72c-6.14,2.32-13.03,0.8-17.77-3.73
				c-9.53-9.12-29.79-19.92-63.01,2.19c-7.16,4.76-15.95,6.39-24.4,4.79L497.84,412.94z"/>
		</g>
		<g>
			<path class="st2" d="M1038.47,450.63c0,0,119.45,122.56,83.41,317.46c0,0-97.33,29.01-73.68,92.76c9.46,25.5,3.7,44.17-6.61,57.4
				c-18.25,23.4-50.67,29.78-77.68,17.49c-17.13-7.79-32.37-21.27-25.21-44.04c14.39-45.75,0-57.06-29.3-78.66
				c-28.13-20.73-66.68-81.09,43.95-64.22c14.51,2.21,29.45,0.83,43.12-4.52c19.59-7.67,37.99-22.98,13.22-52.26
				c-8.72-10.3-24.07-11.68-34.74-3.43c-18.58,14.36-48.84,30.95-67.3,5.44c-4.56-6.3-11.7-10.18-19.42-11.06
				c-12.98-1.48-29.7-7.26-22.75-27.94c2.01-6,1.7-12.52-0.51-18.44c-6.46-17.33-12.63-49.91,41.35-33.33
				c0,0,32.39,22.62,46.27-18.51c8.98-26.61-16.27-27.18-35.2-24.26c-13.32,2.05-26.68-3.92-33.65-15.46
				c-10.98-18.19-19.92-45.18,6.34-64.01c9.54-6.84,21.11-10.25,32.85-10.38C948.91,470.38,1014.08,467.82,1038.47,450.63z"/>
		</g>
		<g class="st17">
			<g>
				<path class="st18" d="M1126.67,655.6c0-0.02,0-0.02,0-0.02c-10.09-98.78-57.81-186.4-128.61-248.26
					c-0.25-0.2-0.47-0.41-0.72-0.61c-21.3-18.53-44.53-32.77-69.59-46.25c6.93,5.24,13.52,8.75,20.06,14.45
					c0.25,0.2,0.47,0.41,0.72,0.61c70.81,61.86,118.53,149.48,128.62,248.26c0,0,0,0,0,0.02c1.31,12.89,1.98,25.96,1.98,39.19
					c0,71.41-19.61,138.22-53.72,195.36l-0.02,0.02c-27.08,45.4-63.31,84.69-106.19,115.3c-62.41,44.61-138.84,70.87-221.4,70.87
					c-53.09,0-103.66-10.86-149.58-30.48c-10.44-4.46-20.64-9.38-30.58-14.72c24.56,18.57,51.42,34.27,80.11,46.52
					c45.92,19.62,96.48,30.48,149.58,30.48c82.56,0,158.99-26.26,221.4-70.87c42.87-30.62,79.11-69.9,106.19-115.3l0.02-0.02
					c34.12-57.14,53.73-123.95,53.73-195.36C1128.65,681.56,1127.98,668.49,1126.67,655.6z"/>
			</g>
		</g>
	</g>
	<g>
		<path class="st19" d="M746.08,843.88c-46.96-1.3-83.78-43.92-83.78-94.25l0,0c0-3.91,3.16-7.08,7.08-7.08
			c31.69,0,126.65,0,157.93,0.01c3.91,0,7.1,3.2,7.1,7.11v2.04C834.4,803.43,794.64,845.22,746.08,843.88z"/>
	</g>
	<g>
		<path class="st22" d="M758.25,790.19c-1.83-0.18-3.52,0.93-4.26,2.62c-1.07,2.46-3.16,4.13-5.59,4.13c-2.41,0-4.5-1.65-5.57-4.08
			c-0.8-1.81-2.55-3.04-4.52-2.9c-24.79,1.77-53.5,23.1-53.5,23.1s22.41,30.85,63.35,30.85c45.47,0,62.59-28.71,62.59-28.71
			S783.48,792.6,758.25,790.19z"/>
	</g>
	<g>
		<g>
			<g>
				<circle class="st19" cx="590.51" cy="635.7" r="45.21"/>
			</g>
			<g>
				<circle class="st5" cx="574.9" cy="620.09" r="15.61"/>
			</g>
		</g>
		<g>
			<g>
				<circle class="st19" cx="900.13" cy="635.7" r="45.21"/>
			</g>
			<g>
				<circle class="st5" cx="884.52" cy="620.09" r="15.61"/>
			</g>
		</g>
	</g>
	<g>
		<path class="st19" d="M967.23,546.84c0.72,0.32,0.43,1.22-0.34,1.07c-8.87-4.71-23.59-11.3-42.72-14.47
			c-12.96-2.14-24.1-2.08-32.48-1.41c-3.9,0.31-8-1.42-10.03-4.54c-0.02-0.03-0.04-0.07-0.07-0.1c-1.41-2.21-1.89-4.81-1.12-7.27
			c1.55-4.92,7.54-7.42,13.38-5.58c9.3,2.03,20.41,5.14,32.5,10.01C943.84,531.59,957.48,539.92,967.23,546.84z"/>
	</g>
	<g>
		<path class="st19" d="M531.54,546.84c-0.72,0.32-0.43,1.22,0.34,1.07c8.87-4.71,23.59-11.3,42.72-14.47
			c12.96-2.14,24.1-2.08,32.48-1.41c3.9,0.31,8-1.42,10.03-4.54c0.02-0.03,0.04-0.07,0.07-0.1c1.41-2.21,1.89-4.81,1.12-7.27
			c-1.55-4.92-7.54-7.42-13.38-5.58c-9.3,2.03-20.41,5.14-32.5,10.01C554.93,531.59,541.29,539.92,531.54,546.84z"/>
	</g>
	<g class="st17">
		<g>
			<ellipse class="st18" cx="748.16" cy="349.09" rx="14.47" ry="7.21"/>
		</g>
	</g>
	<g>
		<path class="st20" d="M748.16,349.92c-3.01,0-5.45-2.44-5.45-5.45V240.42c0-3.01,2.44-5.45,5.45-5.45c3.01,0,5.45,2.44,5.45,5.45
			v104.05C753.6,347.48,751.16,349.92,748.16,349.92z"/>
	</g>
	<g>
		<path class="st20" d="M719.36,229.47c17.32,9.71,23.45,32.97,25,40.38c0.29,1.39-0.42,2.66-1.76,3.14
			c-7.13,2.54-30.17,9.45-47.49-0.27c-17.32-9.71-23.45-32.97-25-40.38c-0.29-1.39,0.42-2.66,1.76-3.14
			C678.99,226.67,702.03,219.76,719.36,229.47z"/>
	</g>
	<g>
		<path class="st20" d="M782.46,263.96c18.62-6.91,40.31,3.48,46.96,7.1c1.25,0.68,1.76,2.05,1.25,3.38
			c-2.68,7.08-12.34,29.11-30.96,36.02c-18.62,6.91-40.31-3.48-46.96-7.1c-1.25-0.68-1.76-2.05-1.25-3.38
			C754.18,292.9,763.84,270.87,782.46,263.96z"/>
	</g>
	<g>
		<circle class="st5" cx="122.89" cy="1276.27" r="85.9"/>
	</g>
	<g>
		<circle class="st12" cx="1397.27" cy="101.88" r="100.7"/>
	</g>
	<g>
		<circle class="st12" cx="65.13" cy="609.94" r="63.11"/>
	</g>
	<g>
		<g>
			<path class="st2" d="M1380.54,1193.09h-160.96c-1.51,0-2.72-1.22-2.72-2.72s1.22-2.72,2.72-2.72h160.96
				c1.51,0,2.72,1.22,2.72,2.72S1382.05,1193.09,1380.54,1193.09z"/>
		</g>
		<g>
			<path class="st2" d="M1304.4,1230.67h-84.82c-1.51,0-2.72-1.22-2.72-2.72c0-1.51,1.22-2.72,2.72-2.72h84.82
				c1.51,0,2.72,1.22,2.72,2.72C1307.12,1229.46,1305.9,1230.67,1304.4,1230.67z"/>
		</g>
		<g>
			<path class="st2" d="M1304.32,1268.25h-84.82c-1.51,0-2.72-1.22-2.72-2.72c0-1.51,1.22-2.72,2.72-2.72h84.82
				c1.51,0,2.72,1.22,2.72,2.72C1307.04,1267.03,1305.82,1268.25,1304.32,1268.25z"/>
		</g>
		<g>
			<path class="st2" d="M1344.95,1230.67h-20.91c-1.51,0-2.72-1.22-2.72-2.72c0-1.51,1.22-2.72,2.72-2.72h20.91
				c1.51,0,2.72,1.22,2.72,2.72C1347.67,1229.46,1346.46,1230.67,1344.95,1230.67z"/>
		</g>
	</g>
	<g>
		<g>
			<path class="st2" d="M282.2,310.24H121.24c-1.51,0-2.72-1.22-2.72-2.72s1.22-2.72,2.72-2.72H282.2c1.51,0,2.72,1.22,2.72,2.72
				S283.7,310.24,282.2,310.24z"/>
		</g>
		<g>
			<path class="st2" d="M206.05,347.82h-84.82c-1.51,0-2.72-1.22-2.72-2.72s1.22-2.72,2.72-2.72h84.82c1.51,0,2.72,1.22,2.72,2.72
				S207.56,347.82,206.05,347.82z"/>
		</g>
		<g>
			<path class="st2" d="M205.97,385.39h-84.82c-1.51,0-2.72-1.22-2.72-2.72s1.22-2.72,2.72-2.72h84.82c1.51,0,2.72,1.22,2.72,2.72
				S207.48,385.39,205.97,385.39z"/>
		</g>
		<g>
			<path class="st2" d="M246.61,347.82H225.7c-1.51,0-2.72-1.22-2.72-2.72s1.22-2.72,2.72-2.72h20.91c1.51,0,2.72,1.22,2.72,2.72
				S248.11,347.82,246.61,347.82z"/>
		</g>
	</g>
	<g>
		<g>
			<path class="st2" d="M1150.93,62.08H989.97c-1.51,0-2.72-1.22-2.72-2.72s1.22-2.72,2.72-2.72h160.96c1.51,0,2.72,1.22,2.72,2.72
				S1152.44,62.08,1150.93,62.08z"/>
		</g>
		<g>
			<path class="st2" d="M1150.93,99.66h-84.82c-1.51,0-2.72-1.22-2.72-2.72s1.22-2.72,2.72-2.72h84.82c1.51,0,2.72,1.22,2.72,2.72
				S1152.44,99.66,1150.93,99.66z"/>
		</g>
		<g>
			<path class="st2" d="M1151.01,137.23h-84.82c-1.51,0-2.72-1.22-2.72-2.72s1.22-2.72,2.72-2.72h84.82c1.51,0,2.72,1.22,2.72,2.72
				S1152.52,137.23,1151.01,137.23z"/>
		</g>
		<g>
			<path class="st2" d="M1046.47,99.66h-20.91c-1.51,0-2.72-1.22-2.72-2.72s1.22-2.72,2.72-2.72h20.91c1.51,0,2.72,1.22,2.72,2.72
				S1047.98,99.66,1046.47,99.66z"/>
		</g>
	</g>
	<g>
		<circle class="st5" cx="318.08" cy="1226.32" r="17.64"/>
	</g>
	<g>
		<circle class="st5" cx="994.73" cy="164.58" r="17.64"/>
	</g>
	<g>
		<circle class="st5" cx="1315.65" cy="450.63" r="17.64"/>
	</g>
	<g>
		<circle class="st5" cx="499.99" cy="146.94" r="17.64"/>
	</g>
	<g>
		<circle class="st5" cx="762.63" cy="1160.42" r="17.64"/>
	</g>
	<g>
		<circle class="st5" cx="141.12" cy="822.56" r="17.64"/>
	</g>
	<g>
		<line class="st2" x1="104.45" y1="1305.56" x2="101.67" y2="1309.29"/>
		<path class="st2" d="M173.39,1274.3c-0.23-0.09-0.46,0.31-0.57,0.55c-0.02,0.05-0.04,0.09-0.06,0.14c0,0.01-0.01,0.02-0.01,0.02
			l0,0c-0.6,1.38-1.02,2.24-1.09,2.4l0,0c-0.88,1.79-2.67,2.85-4.56,2.85c-0.58,0-1.17-0.1-1.75-0.31c-0.34-0.12-3.15-1.17-7.1-3.06
			c-0.01,0-0.01-0.01-0.02-0.01c-1.79-0.83-1.8,1.23-1.8,1.23c-0.01,0.16-0.02,0.31-0.03,0.47c-0.02,0.35-0.05,0.69-0.08,1.03
			c-0.02,0.17-0.03,0.35-0.05,0.52c-0.04,0.34-0.08,0.68-0.13,1.01c-0.02,0.16-0.04,0.31-0.07,0.47c-0.07,0.47-0.15,0.94-0.25,1.41
			c-0.01,0.05-0.02,0.09-0.03,0.14c-0.09,0.43-0.19,0.86-0.29,1.28c-0.04,0.17-0.09,0.33-0.13,0.5c-0.08,0.3-0.16,0.6-0.25,0.89
			c-0.05,0.18-0.11,0.37-0.17,0.55c-0.09,0.28-0.18,0.57-0.28,0.85c-0.06,0.18-0.12,0.35-0.18,0.53c-0.13,0.36-0.27,0.71-0.41,1.06
			c-0.08,0.21-0.17,0.41-0.26,0.61c-0.13,0.29-0.25,0.59-0.39,0.88c-0.09,0.2-0.19,0.4-0.29,0.6c-0.11,0.22-0.22,0.44-0.33,0.66
			c-0.11,0.21-0.22,0.42-0.33,0.63c-0.11,0.2-0.22,0.39-0.33,0.59c-0.12,0.22-0.24,0.43-0.37,0.64c-0.1,0.17-0.21,0.34-0.32,0.51
			c-0.27,0.43-0.55,0.86-0.85,1.29c-0.09,0.13-0.18,0.26-0.27,0.39c-0.17,0.24-0.35,0.48-0.53,0.71c-0.1,0.13-0.19,0.25-0.29,0.38
			c-0.19,0.24-0.38,0.48-0.57,0.71c-0.08,0.1-0.17,0.2-0.25,0.3c-0.98,1.17-2.04,2.27-3.18,3.3c-0.05,0.05-0.11,0.1-0.16,0.14
			c-0.28,0.25-0.56,0.49-0.84,0.73c-0.03,0.03-0.06,0.05-0.09,0.08c-1.25,1.05-2.58,2.01-3.98,2.88c-0.01,0-0.02,0.01-0.02,0.01
			c-1.78,1.1-3.67,2.05-5.65,2.83v-4.45c0-1.5-0.81-2.88-2.13-3.61c-1.31-0.73-2.92-0.69-4.19,0.11
			c-10.56,6.59-18.44,15.31-18.77,15.67c-1.41,1.57-1.41,3.95,0,5.51c0.33,0.37,8.21,9.08,18.77,15.67
			c0.67,0.42,1.43,0.63,2.19,0.63c0.69,0,1.38-0.17,2-0.52c1.31-0.73,2.13-2.11,2.13-3.61v-7.82c1.25-0.31,2.48-0.68,3.69-1.07
			c0.16-0.05,0.33-0.1,0.49-0.16c0.47-0.16,0.93-0.33,1.4-0.5c0.25-0.09,0.5-0.18,0.75-0.28c0.44-0.17,0.87-0.35,1.3-0.53
			c0.27-0.11,0.53-0.22,0.79-0.34c0.42-0.18,0.84-0.38,1.25-0.57c0.26-0.12,0.53-0.25,0.79-0.38c0.41-0.2,0.82-0.4,1.22-0.62
			c0.25-0.13,0.51-0.27,0.76-0.41c0.4-0.22,0.81-0.44,1.21-0.67c0.23-0.13,0.45-0.27,0.67-0.4c1.4-0.84,2.76-1.74,4.06-2.7
			c0.23-0.17,0.46-0.33,0.68-0.5c0.34-0.26,0.67-0.52,1-0.79c0.25-0.2,0.5-0.4,0.75-0.6c0.32-0.26,0.63-0.53,0.94-0.8
			c0.25-0.22,0.5-0.44,0.75-0.67c0.3-0.27,0.59-0.54,0.88-0.82c0.25-0.24,0.5-0.48,0.74-0.72c0.28-0.28,0.56-0.55,0.83-0.83
			c0.25-0.26,0.49-0.52,0.74-0.78c0.26-0.28,0.52-0.55,0.77-0.84c0.26-0.29,0.51-0.6,0.77-0.9c0.22-0.26,0.45-0.52,0.67-0.79
			c0.44-0.55,0.88-1.1,1.3-1.67c0.19-0.26,0.37-0.52,0.56-0.78c0.25-0.35,0.5-0.69,0.74-1.04c0.19-0.28,0.37-0.56,0.55-0.85
			c0.22-0.34,0.44-0.68,0.66-1.03c0.18-0.29,0.35-0.58,0.52-0.88c0.21-0.35,0.41-0.71,0.61-1.06c0.16-0.29,0.32-0.59,0.48-0.89
			c0.2-0.37,0.39-0.75,0.57-1.12c0.14-0.29,0.29-0.58,0.43-0.87c0.19-0.41,0.38-0.83,0.56-1.24c0.12-0.27,0.24-0.53,0.35-0.8
			c0.23-0.54,0.44-1.09,0.65-1.65c0.06-0.15,0.12-0.29,0.17-0.44c0.25-0.7,0.49-1.4,0.71-2.11c0.07-0.23,0.14-0.47,0.21-0.71
			c0.15-0.49,0.29-0.98,0.42-1.48c0.07-0.28,0.14-0.57,0.21-0.86c0.11-0.45,0.22-0.91,0.32-1.37c0.06-0.3,0.12-0.61,0.18-0.91
			c0.09-0.45,0.17-0.91,0.24-1.37c0.05-0.31,0.1-0.61,0.14-0.92c0.07-0.47,0.13-0.94,0.18-1.42c0.03-0.3,0.07-0.59,0.1-0.89
			c0.05-0.52,0.09-1.04,0.12-1.57c0.02-0.25,0.04-0.51,0.05-0.76c0.04-0.78,0.06-1.57,0.06-2.36c0,0,0,0,0,0l0,0
			c0-0.59-0.02-1.18-0.04-1.77C173.7,1274.5,173.61,1274.39,173.39,1274.3z"/>
		<path class="st2" d="M100.49,1303.21l0.01-0.01c-8.23-6.14-13.54-15.76-13.54-26.58c0-1.67,0.13-3.32,0.37-4.93l2.93,1.98
			c1.23,0.83,2.83,0.95,4.18,0.32c0.64-0.3,1.18-0.75,1.57-1.3c0.44-0.6,0.7-1.32,0.74-2.08c0.65-12.01-1.98-23.07-2.09-23.54
			c-0.48-1.98-2.43-3.3-4.52-3.05c-0.49,0.06-12.15,1.47-23.6,6.18c-1.38,0.57-2.33,1.81-2.49,3.26c-0.16,1.44,0.51,2.85,1.74,3.68
			l6.3,4.26c-1.58,4.8-2.44,9.92-2.44,15.23c0,15.99,7.74,30.22,19.79,39.44c1.53,1.33,3.55,2.14,5.77,2.14
			c4.78,0,8.66-3.74,8.66-8.36C103.87,1307.13,102.54,1304.74,100.49,1303.21z"/>
		<path class="st2" d="M176.13,1246.22c-0.26-0.64-0.67-1.21-1.23-1.66c-1.16-0.95-2.75-1.19-4.14-0.63l-7.14,2.87
			c-9.48-12.42-24.71-20.48-41.91-20.48c-12.98,0-24.84,4.59-33.95,12.18c-0.05,0.04-0.09,0.07-0.13,0.11
			c-0.04,0.03-0.08,0.07-0.12,0.1c-0.23,0.21-0.31,0.37-0.26,0.67c0.07,0.41,0.86,0.3,0.86,0.3l0,0c2.36-0.42,3.9-0.61,4.16-0.64
			c3.23-0.37,6.22,1.66,6.97,4.75c0.05,0.2,0.31,1.3,0.64,3.08c0,0,0,0,0,0.01c0.7,3.31,2.66,1.75,2.66,1.75l0,0.01
			c5.49-3.53,12.08-5.6,19.17-5.6c9.92,0,18.87,4.02,25.2,10.47l-3.86,1.55c-1.39,0.56-2.37,1.83-2.56,3.32
			c-0.19,1.49,0.45,2.96,1.66,3.85c10.06,7.34,21.08,11.4,21.54,11.56c1.98,0.72,4.19-0.17,5.12-2.06c0.22-0.44,5.36-11,7.54-23.26
			C176.5,1247.71,176.42,1246.92,176.13,1246.22z"/>
	</g>
</g>
</svg>
