<?xml version="1.0" encoding="utf-8"?>
<!-- Generator: Adobe Illustrator 25.0.0, SVG Export Plug-In . SVG Version: 6.00 Build 0)  -->
<svg version="1.1" id="Layer_1" xmlns="http://www.w3.org/2000/svg" xmlns:xlink="http://www.w3.org/1999/xlink" x="0px" y="0px"
	 viewBox="0 0 2566.83 1507.19" style="enable-background:new 0 0 2566.83 1507.19;" xml:space="preserve">
<style type="text/css">
	.st0{fill:#D3EDF5;}
	.st1{fill:#E2FAFA;}
	.st2{fill:#05C4A3;stroke:#05C4A3;stroke-width:0.9535;stroke-miterlimit:10;}
	.st3{opacity:0.5;fill:#FFFFFF;}
	.st4{opacity:0.5;fill:#A6DAD1;}
	.st5{opacity:0.5;fill:#D9EEE9;}
	.st6{fill:#83D2C5;}
	.st7{fill:none;stroke:#00C4A2;stroke-linecap:round;stroke-linejoin:round;stroke-miterlimit:10;}
	.st8{fill:#00C4A2;}
	.st9{fill:none;stroke:#83D2C5;stroke-linecap:round;stroke-linejoin:round;stroke-miterlimit:10;}
	.st10{fill:#C7EFE8;}
	.st11{fill:#EB9E3F;}
	.st12{fill:#079E81;}
	.st13{fill:#05C4A3;}
	.st14{fill:#F7CFB2;stroke:#F2C8AD;stroke-miterlimit:10;}
	.st15{fill:#F2C8AD;}
	.st16{fill:#FFFFFF;}
	.st17{fill:#F7CFB2;}
	.st18{fill:#E0BBA2;}
	.st19{fill:none;stroke:#383431;stroke-width:2;stroke-linecap:round;stroke-miterlimit:10;}
	.st20{fill:#E3626E;}
	.st21{fill:#383431;}
	.st22{fill:#EEBBB2;}
	.st23{fill:#232323;}
	.st24{fill:#F2C4A5;}
	.st25{opacity:0.5;fill:#B3E1EA;}
	.st26{fill:#EE655B;}
	.st27{fill:#F2A8A3;}
	.st28{fill:#E29E9C;}
	.st29{fill:#F1EFFD;}
	.st30{opacity:0.9;fill:#FFFFFF;}
	.st31{fill:none;stroke:#00C4A2;stroke-width:1.3419;stroke-linecap:round;stroke-linejoin:round;stroke-miterlimit:10;}
	.st32{fill:none;stroke:#383431;stroke-width:0.75;stroke-linecap:round;stroke-miterlimit:10;}
	.st33{fill:#F4CABE;}
	.st34{fill:#F7EDC0;}
	.st35{fill:none;stroke:#E0D7B3;stroke-miterlimit:10;}
	.st36{fill:#E0D7B3;}
	.st37{fill:#EAEAEA;}
	.st38{fill:none;stroke:#3A3A3A;stroke-miterlimit:10;}
	.st39{fill-rule:evenodd;clip-rule:evenodd;fill:#05C4A3;}
	.st40{fill:#00B0B3;}
	.st41{fill:#80C9D4;}
	.st42{fill:#E68074;}
	.st43{fill:#E9B3AE;}
	.st44{fill:#E8A960;}
	.st45{fill:#F3E8CA;}
	.st46{fill:#D1EBF3;}
	.st47{fill:#E0F8F8;}
	.st48{opacity:0.5;fill:#A4D8CF;}
	.st49{opacity:0.5;fill:#D7ECE7;}
	.st50{fill:#C5EDE6;}
	.st51{fill:#E99C3F;}
	.st52{fill:#079C80;}
	.st53{fill:#F5CDB0;stroke:#F0C6AB;stroke-width:4.1004;stroke-miterlimit:10;}
	.st54{fill:#F0C6AB;}
	.st55{fill:none;}
	.st56{font-family:'Lato-Bold';}
	.st57{font-size:41.004px;}
	.st58{letter-spacing:6;}
	.st59{fill:#F5CDB0;}
	.st60{fill:#DEB9A0;}
	.st61{fill:none;stroke:#383431;stroke-width:8.2008;stroke-linecap:round;stroke-miterlimit:10;}
	.st62{fill:#E1626E;}
	.st63{fill:#ECB9B0;}
	.st64{fill:#F0C2A3;}
	.st65{opacity:0.5;fill:#B1DFE8;}
	.st66{fill:#EC655B;}
	.st67{fill:#F0A6A1;}
	.st68{fill:#E09C9A;}
	.st69{fill:#EFEDFA;}
	.st70{fill:none;stroke:#383431;stroke-width:3.0753;stroke-linecap:round;stroke-miterlimit:10;}
	.st71{fill:#F2C8BC;}
	.st72{fill:#F5EBBE;}
	.st73{fill:none;stroke:#DED5B1;stroke-width:4.1004;stroke-miterlimit:10;}
	.st74{fill:#DED5B1;}
	.st75{fill:#E8E8E8;}
	.st76{fill:none;stroke:#3A3A3A;stroke-width:4.1004;stroke-miterlimit:10;}
	.st77{fill-rule:evenodd;clip-rule:evenodd;fill:#06C2A1;}
</style>
<g>
	<path class="st46" d="M378.62,5.44c0,0-275.09,7.62-286.91,283.02c-9.2,214.41,159.84,284.88,235.16,305.58
		c15.32,4.21,31.01,6.84,46.82,8.42c24.2,2.42,77.97,13.53,77.97,64.61c0,60.41-75.22,58.65-87.76,57.94
		c-1.31-0.07-2.63-0.12-3.94-0.12l-108.12,0.23c-40.85,0.09-80.9,13.36-112.54,39.19c-25.64,20.93-47.94,51.44-47.94,94.24
		c0,100.71,66.34,154.59,114.75,154.8c33.99,0.15,166.61,6.84,154.8,147.34c-4.68,55.61,21.82,100.1,55.54,133.55
		c50.13,49.73,118.68,76.42,189.3,76.42h1583.52c0,0,284.73-3.57,294.68-301.36c0,0,15.56-273.48-323.21-293.79
		c-23.99-1.44-45.77-15.68-55.09-37.84c-0.99-2.36-1.9-4.85-2.7-7.48c-5.05-16.54-3.04-34.54,5.34-49.67
		c6.59-11.89,16.96-24.02,31.87-24.02h203.21c31.26,0,62.21-8.07,88.67-24.71c32.1-20.2,64.2-56.32,66.12-120.28
		c0.1-3.36,0.24-6.72,0.51-10.07c1.58-19.53,2.81-105.01-93.15-130.36c-14.78-3.91-30.06-5.52-45.35-5.52
		c-39.07,0-142.36,0-161.12,0c-2.67,0-5.3-0.15-7.94-0.48c-22.49-2.81-113.5-21.07-120.79-133.27c-1.8-27.67-7.45-55.02-18.61-80.4
		c-22.92-52.1-73.28-121.28-181.35-137.1C1691.92-11.81,378.62,5.44,378.62,5.44z"/>
	<path class="st47" d="M353.51,25.1c0,0-275.09,7.62-286.91,283.02C57.41,522.53,226.45,593,301.77,613.7
		c15.32,4.21,31.01,6.84,46.82,8.42c24.2,2.42,77.97,13.53,77.97,64.61c0,60.41-75.22,58.65-87.76,57.94
		c-1.31-0.07-2.63-0.12-3.94-0.12l-108.12,0.23c-40.85,0.09-80.9,13.36-112.54,39.19c-25.64,20.93-47.94,51.44-47.94,94.24
		c0,100.71,66.34,154.59,114.75,154.8c33.99,0.15,166.61,6.84,154.8,147.34c-4.68,55.61,21.82,100.1,55.54,133.55
		c50.13,49.73,118.68,76.42,189.3,76.42h1583.52c0,0,284.73-3.57,294.68-301.36c0,0,15.56-273.48-323.21-293.79
		c-23.99-1.44-45.77-15.68-55.09-37.84c-0.99-2.36-1.9-4.85-2.7-7.48c-5.05-16.54-3.04-34.54,5.34-49.67
		c6.59-11.89,16.96-24.02,31.87-24.02h203.21c31.26,0,62.21-8.07,88.67-24.71c32.1-20.2,64.2-56.32,66.12-120.28
		c0.1-3.36,0.24-6.72,0.51-10.07c1.58-19.53,2.81-105.01-93.15-130.36c-14.78-3.91-30.06-5.52-45.35-5.52
		c-39.07,0-142.36,0-161.12,0c-2.67,0-5.3-0.15-7.94-0.48c-22.49-2.81-113.5-21.07-120.79-133.27c-1.8-27.67-7.45-55.02-18.61-80.4
		c-22.92-52.1-73.28-121.28-181.35-137.1C1666.81,7.84,353.51,25.1,353.51,25.1z"/>
	<path class="st3" d="M1717.51,733.78c-28.24,1.31-59.7-5.9-94.52-25.4c-28.36-15.89,36.47-174.72-2.54-272.15
		c-28.63-71.5-103.96-87.43-168.07-87.4c-64.11,0.03-136.52,2.99-182.1-53.2c-4.15-5.11-8.07-10.84-9.87-17.76
		c-2.52-9.7-0.51-20.39,2.86-29.69c19.33-53.42,73.78-67.66,120.42-75.06c31.47-4.99,82.28-13.08,126.56-20.17
		c52.02-8.34,92.44-49.81,99.42-102.03c8-59.87,6.57-100.72-50.67-131.98c-62.28-34.02-140.86-12.4-178.26,47.91
		c-8.21,13.24-17.58,25.14-28.57,35.15c-43.56,39.66-101.84,39.49-155.78,39.16c-178.81-1.07-357.69,14.01-534.76,45.08
		c-34.03,5.97-68.9,12.92-98.61,34.43c-29.71,21.51-53.51,61.02-51.49,103.77c2.29,48.42,35.91,85.82,71.18,106.32
		c35.27,20.5,74.45,30.04,108.19,54.21c14.13,10.12,28.56,26.6,26.73,46.78c-1.67,18.43-15.87,30.2-27.07,42.42
		c-28.84,31.45-43.65,81.72-38.01,128.96c156.97,79.07,332.62,61.42,501.89,65.65c48.32,1.21,98.93,5.15,140.2,36.47
		c13.62,10.34,26.62,24.97,29.79,44.45c2.32,14.21-0.95,28.87-4.91,42.5c-25.54,87.71-82.4,170.13-67.81,261.65
		c15.78,99.02,105.49,147.01,184.31,170.27c39.27,11.59,268.37,74.36,369.39,99.34C1745.88,1104.33,1724.79,888.26,1717.51,733.78z"
		/>
	<g>
		<path class="st48" d="M282.27,1331.54c-7.91-8.71-14.49-18.66-19.32-29.99c-24.7-58.05,5.55-132.41,67.88-149.49
			c39.6-10.85,85.06,4.53,109.93,37.2c11.79,15.49,19.07,34.08,31.23,49.28c52.08,65.1,92.91-12.67,54.85-65.95
			c-22.95-32.13-48.58-62.36-76.52-90.27c-32.91-32.87-72.11-69.73-68.6-116.12c3.29-43.38,42.83-73.77,79.1-97.79
			c37.5-24.84,77.18-49.84,121.91-54.55c181.5-19.12,125.2,282.77,140.99,386.09c13.63,89.18,74.01,107.49,135.11,37.27
			c42.57-48.93-13.69-82.24-0.28-134.21c5.05-19.57,19.71-35.14,35.14-48.18c30.54-25.82,67.65-45.83,107.6-48.35
			c69.44-4.36,115.31,53.45,125.1,117.89c5.93,39.05-25.19,166.94,16.77,184.11c15.7,6.42,33.45,3.36,50.25,0.99
			c96.33-13.59,204.06,3.38,270.79,74.18c-122.08-6.04-247.3,3.14-369.78,3.14c-221.65,0-448.42,15-669.39,0.27
			C375.96,1383.79,316.61,1369.34,282.27,1331.54z"/>
		<path class="st49" d="M195.4,1329.73c-7.91-8.71-14.49-18.66-19.32-29.99c-24.7-58.05,5.55-132.41,67.88-149.49
			c39.6-10.85,85.06,4.53,109.93,37.2c11.79,15.49,19.07,34.08,31.23,49.28c52.08,65.1,92.91-12.67,54.85-65.95
			c-22.95-32.13-48.58-62.36-76.52-90.27c-32.91-32.87-72.11-69.73-68.6-116.12c3.29-43.38,42.83-73.77,79.1-97.79
			c37.5-24.84,77.18-49.84,121.91-54.55c181.5-19.12,125.2,282.77,140.99,386.09c13.63,89.18,74.01,107.49,135.11,37.27
			c42.57-48.93-13.69-82.24-0.28-134.21c5.05-19.57,19.71-35.14,35.14-48.18c30.54-25.82,67.65-45.83,107.6-48.35
			c69.44-4.36,115.31,53.45,125.1,117.89c5.93,39.05-25.19,166.94,16.77,184.11c15.7,6.42,33.45,3.36,50.25,0.99
			c96.33-13.59,204.06,3.38,270.79,74.18c-122.08-6.04-247.3,3.14-369.78,3.14c-221.65,0-448.42,15-669.39,0.27
			C289.1,1381.98,229.74,1367.53,195.4,1329.73z"/>
	</g>
	<g>
		<path class="st48" d="M2291.99,1318.31c6.93-7.97,12.64-17.02,16.75-27.29c21.04-52.57-7.54-118.71-63.81-132.84
			c-35.74-8.97-76.25,5.71-97.93,35.51c-10.28,14.13-16.45,30.95-27.07,44.83c-45.48,59.42-83.62-9.57-50.5-58.13
			c19.98-29.28,42.39-56.9,66.92-82.48c28.9-30.14,63.37-63.97,59.32-105.53c-3.79-38.86-39.86-65.37-72.87-86.23
			c-34.13-21.56-70.22-43.23-110.45-46.59c-163.24-13.64-106.89,256.18-119.05,349.2c-10.5,80.29-64.34,97.89-120.53,36.06
			c-39.15-43.08,10.69-74.07-2.34-120.45c-4.91-17.46-18.37-31.15-32.47-42.56c-27.91-22.58-61.6-39.82-97.49-41.31
			c-62.4-2.57-102.44,50.19-109.98,108.21c-4.57,35.16,25.83,149.32-11.49,165.54c-13.97,6.07-29.95,3.67-45.07,1.86
			c-86.71-10.33-183.05,6.98-241.56,71.81c109.43-7.78,221.98-1.96,331.89-4.33c198.9-4.29,402.69,4.79,600.7-12.7
			C2208.92,1367.01,2261.9,1352.9,2291.99,1318.31z"/>
		<path class="st49" d="M2369.9,1318.31c6.93-7.97,12.64-17.02,16.75-27.29c21.04-52.57-7.54-118.71-63.81-132.84
			c-35.74-8.97-76.25,5.71-97.93,35.51c-10.28,14.13-16.45,30.95-27.07,44.83c-45.48,59.42-83.62-9.57-50.5-58.13
			c19.98-29.28,42.39-56.9,66.92-82.48c28.9-30.14,63.37-63.97,59.32-105.53c-3.79-38.86-39.86-65.37-72.87-86.23
			c-34.13-21.56-70.22-43.23-110.45-46.59c-163.24-13.64-106.89,256.18-119.05,349.2c-10.5,80.29-64.34,97.89-120.53,36.06
			c-39.15-43.08,10.69-74.07-2.34-120.45c-4.91-17.46-18.37-31.15-32.47-42.56c-27.91-22.58-61.6-39.82-97.49-41.31
			c-62.4-2.57-102.44,50.19-109.98,108.21c-4.57,35.16,25.83,149.32-11.49,165.54c-13.97,6.07-29.95,3.67-45.07,1.86
			c-86.71-10.33-198.47,6.06-256.98,70.89c109.43-7.78,237.4-1.04,347.3-3.41c198.9-4.29,402.69,4.79,600.7-12.7
			C2286.83,1367.01,2339.82,1352.9,2369.9,1318.31z"/>
	</g>
	<g>
		<path d="M1548.45,1043.15v332.46h-166.76l-19.1-137.82c-0.64-4.6-5.51-4.56-6.1,0.05l-17.86,137.77H1171.9v-332.46h209.79
			l-0.18,1.38L1548.45,1043.15z"/>
		<path class="st51" d="M1599.74,760.29l-54.84,34.05l3.55,246.8c-76.47,64.19-274.26,30.57-376.53,7.35
			c0,0-0.14-132.84-0.22-257.82l-48.94-30.39c-16.45-10.22-26.19-29.92-24.96-50.68c2.21-38.25,25.25-96.14,35.57-125.41
			c15.79-44.7,148.89-57.13,148.89-57.13l-0.15,0.51c5.04-0.47,7.93-0.51,7.93-0.51l147.18-0.43c0,0,2.93,0.22,7.9,0.94
			c0.04,0,0.11,0,0.18,0.04c24.42,2.79,129.9,17.1,143.81,56.58c10.32,29.27,33.36,87.16,35.61,125.41
			C1625.93,730.36,1616.22,750.07,1599.74,760.29z"/>
		<g>
			<path class="st52" d="M1112.8,706.08l14,267.68c0.42,8.03,7.06,14.33,15.1,14.33h430.93c8.01,0,14.62-6.24,15.09-14.23
				l15.75-267.68c0.51-8.68-6.39-16.01-15.09-16.01H1127.9C1119.24,690.17,1112.35,697.43,1112.8,706.08z"/>
			<path class="st13" d="M1128.03,720.98l12.97,237.89c0.44,8.03,7.36,14.33,15.74,14.33h401.38c8.35,0,15.25-6.24,15.74-14.23
				l14.59-237.89c0.53-8.68-6.67-16.01-15.74-16.01h-428.94C1134.74,705.07,1127.55,712.33,1128.03,720.98z"/>
			<g>
				<path class="st53" d="M1580.56,726.47c-9.29,1.04-22,5.11-30.72,18.48c0,0-6.92,12.62,16.49,12.22
					c17.09-0.3,43.39-4.65,55.48-10.18c6.36-2.91,9.53-9.34,7.4-22.48c-0.71-4.35-3.5-8.52-10.33-10.36
					c-3.63-0.98-7.51-0.55-10.88,1.1C1600.69,718.83,1585.75,725.89,1580.56,726.47z"/>
				<path class="st53" d="M1585.17,757.18c0,0-34.61-8.87-34.2,9.05s27.08,18.83,40.01,20.46c12.93,1.63,38.37-9.41,40.56-13.38
					c2.2-3.97,12.03-21.05-5.27-27.97C1608.95,738.42,1585.17,757.18,1585.17,757.18z"/>
				<path class="st53" d="M1631.53,773.31c0,0,15.94,19.62-7.06,32.24c0,0-55.69,8.42-59.46,4.65c-3.3-3.3-17.97-13.61-11.09-22.75
					c1.88-2.5,4.9-3.84,8.02-4.03C1575.72,782.61,1624.04,779.33,1631.53,773.31z"/>
				<path class="st53" d="M1565.64,825.8c7.44,3.06,32.73,12.04,53.03,2.32c5.01-2.4,8.69-7.15,9-12.69
					c0.17-2.99-0.56-6.42-3.2-9.88l-53.74,4.21c-6.22,0.49-10.59,6.72-8.46,12.58c0.03,0.07,0.05,0.14,0.08,0.22
					C1562.92,824.05,1564.16,825.19,1565.64,825.8z"/>
				<g>
					<path class="st54" d="M1580.5,724.42c1.32,0.13,2.62,0.36,3.88,0.68c0.63,0.16,1.25,0.34,1.86,0.55
						c0.61,0.21,1.28,0.42,1.85,0.68c2.33,1.01,4.46,2.19,6.58,3.44l-0.36,0.74c-2.27-0.82-4.61-1.57-6.9-2.09
						c-0.59-0.12-1.09-0.22-1.68-0.24c-0.58-0.03-1.16-0.03-1.74-0.02c-1.15,0.03-2.29,0.15-3.39,0.35L1580.5,724.42z"/>
				</g>
			</g>
			<g>
				<path class="st53" d="M1139.57,726.47c9.29,1.04,22,5.11,30.72,18.48c0,0,6.92,12.62-16.49,12.22
					c-17.09-0.3-43.39-4.65-55.48-10.18c-6.36-2.91-9.53-9.34-7.4-22.48c0.71-4.35,3.5-8.52,10.33-10.36
					c3.63-0.98,7.51-0.55,10.88,1.1C1119.44,718.83,1134.38,725.89,1139.57,726.47z"/>
				<path class="st53" d="M1134.96,757.18c0,0,34.61-8.87,34.2,9.05c-0.41,17.92-27.08,18.83-40.01,20.46s-38.37-9.41-40.56-13.38
					c-2.2-3.97-12.03-21.05,5.27-27.97S1134.96,757.18,1134.96,757.18z"/>
				<path class="st53" d="M1088.6,773.31c0,0-15.94,19.62,7.06,32.24c0,0,55.69,8.42,59.46,4.65c3.3-3.3,17.97-13.61,11.09-22.75
					c-1.88-2.5-4.9-3.84-8.02-4.03C1144.42,782.61,1096.09,779.33,1088.6,773.31z"/>
				<path class="st53" d="M1154.49,825.8c-7.44,3.06-32.73,12.04-53.03,2.32c-5.01-2.4-8.69-7.15-9-12.69
					c-0.17-2.99,0.56-6.42,3.2-9.88l53.74,4.21c6.22,0.49,10.59,6.72,8.46,12.58c-0.03,0.07-0.05,0.14-0.08,0.22
					C1157.21,824.05,1155.97,825.19,1154.49,825.8z"/>
				<g>
					<path class="st54" d="M1139.51,728.52c-1.11-0.2-2.24-0.32-3.39-0.35c-0.58-0.02-1.15-0.01-1.74,0.02
						c-0.59,0.02-1.09,0.12-1.68,0.24c-2.29,0.52-4.63,1.27-6.9,2.09l-0.36-0.74c2.13-1.26,4.26-2.43,6.58-3.44
						c0.57-0.26,1.24-0.47,1.85-0.68c0.61-0.21,1.23-0.39,1.86-0.55c1.26-0.32,2.56-0.55,3.88-0.68L1139.51,728.52z"/>
				</g>
			</g>
			<rect x="1214.2" y="731.82" class="st55" width="288.17" height="57.22"/>
			<text transform="matrix(1 0 0 1 1294.6539 762.2806)" class="st16 st56 st57 st58">LET’S </text>
			<g>
				<line class="st16" x1="1346" y1="857.65" x2="1343.84" y2="860.55"/>
				<path class="st16" d="M1399.69,833.31c-0.18-0.07-0.36,0.24-0.45,0.43c-0.02,0.04-0.03,0.07-0.05,0.11
					c0,0.01-0.01,0.02-0.01,0.02l0,0c-0.47,1.07-0.79,1.74-0.85,1.87l0,0c-0.68,1.39-2.08,2.22-3.55,2.22
					c-0.45,0-0.91-0.08-1.36-0.24c-0.27-0.1-2.46-0.91-5.53-2.38c-0.01,0-0.01,0-0.02-0.01c-1.39-0.65-1.41,0.96-1.41,0.96
					c-0.01,0.12-0.01,0.24-0.02,0.36c-0.02,0.27-0.04,0.54-0.06,0.8c-0.01,0.14-0.03,0.27-0.04,0.41c-0.03,0.26-0.06,0.53-0.1,0.79
					c-0.02,0.12-0.03,0.24-0.05,0.36c-0.06,0.37-0.12,0.73-0.19,1.1c-0.01,0.04-0.02,0.07-0.02,0.11c-0.07,0.34-0.14,0.67-0.23,1
					c-0.03,0.13-0.07,0.26-0.1,0.39c-0.06,0.23-0.13,0.47-0.19,0.7c-0.04,0.14-0.09,0.29-0.13,0.43c-0.07,0.22-0.14,0.44-0.22,0.66
					c-0.05,0.14-0.09,0.27-0.14,0.41c-0.1,0.28-0.21,0.55-0.32,0.82c-0.07,0.16-0.13,0.32-0.2,0.48c-0.1,0.23-0.2,0.46-0.3,0.68
					c-0.07,0.16-0.15,0.31-0.22,0.47c-0.08,0.17-0.17,0.34-0.26,0.51c-0.08,0.16-0.17,0.33-0.26,0.49
					c-0.08,0.15-0.17,0.31-0.26,0.46c-0.1,0.17-0.19,0.34-0.29,0.5c-0.08,0.13-0.16,0.26-0.25,0.4c-0.21,0.34-0.43,0.67-0.66,1
					c-0.07,0.1-0.14,0.2-0.21,0.3c-0.13,0.19-0.27,0.37-0.41,0.55c-0.07,0.1-0.15,0.2-0.22,0.29c-0.15,0.19-0.29,0.37-0.44,0.56
					c-0.07,0.08-0.13,0.16-0.2,0.24c-0.76,0.91-1.59,1.77-2.47,2.57c-0.04,0.04-0.08,0.07-0.12,0.11c-0.22,0.19-0.43,0.38-0.66,0.57
					c-0.02,0.02-0.05,0.04-0.07,0.06c-0.98,0.82-2.01,1.56-3.1,2.24c-0.01,0-0.01,0.01-0.02,0.01c-1.39,0.86-2.86,1.6-4.4,2.2v-3.47
					c0-1.17-0.63-2.24-1.66-2.81c-1.02-0.57-2.27-0.53-3.26,0.08c-8.22,5.13-14.36,11.92-14.61,12.21c-1.1,1.22-1.1,3.07,0,4.29
					c0.26,0.29,6.39,7.07,14.61,12.21c0.52,0.32,1.11,0.49,1.7,0.49c0.54,0,1.07-0.13,1.56-0.4c1.02-0.57,1.66-1.64,1.66-2.81v-6.09
					c0.97-0.24,1.93-0.53,2.87-0.84c0.13-0.04,0.26-0.08,0.38-0.12c0.37-0.12,0.73-0.26,1.09-0.39c0.19-0.07,0.39-0.14,0.58-0.22
					c0.34-0.13,0.68-0.27,1.02-0.41c0.21-0.09,0.41-0.17,0.62-0.26c0.33-0.14,0.65-0.29,0.98-0.44c0.21-0.1,0.41-0.2,0.61-0.3
					c0.32-0.16,0.64-0.32,0.95-0.48c0.2-0.1,0.39-0.21,0.59-0.32c0.31-0.17,0.63-0.34,0.94-0.52c0.18-0.1,0.35-0.21,0.52-0.31
					c1.09-0.65,2.15-1.35,3.16-2.1c0.18-0.13,0.36-0.26,0.53-0.39c0.26-0.2,0.52-0.41,0.78-0.62c0.19-0.16,0.39-0.31,0.58-0.47
					c0.25-0.2,0.49-0.41,0.73-0.62c0.2-0.17,0.39-0.34,0.59-0.52c0.23-0.21,0.46-0.42,0.69-0.64c0.2-0.19,0.39-0.37,0.58-0.56
					c0.22-0.21,0.43-0.43,0.64-0.65c0.19-0.2,0.38-0.41,0.57-0.61c0.2-0.22,0.4-0.43,0.6-0.65c0.2-0.23,0.4-0.47,0.6-0.7
					c0.17-0.2,0.35-0.4,0.52-0.61c0.35-0.43,0.68-0.86,1.01-1.3c0.15-0.2,0.29-0.4,0.43-0.6c0.19-0.27,0.39-0.54,0.57-0.81
					c0.15-0.22,0.29-0.44,0.43-0.66c0.17-0.27,0.35-0.53,0.51-0.8c0.14-0.23,0.27-0.45,0.41-0.68c0.16-0.27,0.32-0.55,0.47-0.83
					c0.13-0.23,0.25-0.46,0.37-0.69c0.15-0.29,0.3-0.58,0.45-0.88c0.11-0.23,0.22-0.45,0.33-0.68c0.15-0.32,0.29-0.64,0.44-0.97
					c0.09-0.21,0.19-0.41,0.27-0.62c0.18-0.42,0.34-0.85,0.5-1.28c0.04-0.11,0.09-0.23,0.13-0.34c0.2-0.54,0.38-1.09,0.56-1.65
					c0.06-0.18,0.11-0.37,0.16-0.55c0.11-0.38,0.22-0.76,0.33-1.15c0.06-0.22,0.11-0.45,0.17-0.67c0.09-0.35,0.17-0.71,0.25-1.07
					c0.05-0.24,0.1-0.47,0.14-0.71c0.07-0.35,0.13-0.71,0.19-1.06c0.04-0.24,0.08-0.48,0.11-0.72c0.05-0.37,0.1-0.73,0.14-1.1
					c0.03-0.23,0.05-0.46,0.08-0.69c0.04-0.41,0.07-0.81,0.09-1.22c0.01-0.2,0.03-0.4,0.04-0.59c0.03-0.61,0.05-1.22,0.05-1.84
					c0,0,0,0,0,0l0,0c0-0.46-0.01-0.92-0.03-1.38C1399.93,833.46,1399.86,833.38,1399.69,833.31z"/>
				<path class="st16" d="M1342.92,855.82L1342.92,855.82c-6.4-4.79-10.53-12.28-10.53-20.71c0-1.3,0.1-2.59,0.29-3.84l2.28,1.54
					c0.96,0.65,2.2,0.74,3.25,0.25c0.5-0.24,0.92-0.59,1.22-1.01c0.34-0.47,0.54-1.03,0.58-1.62c0.5-9.35-1.54-17.97-1.63-18.33
					c-0.37-1.54-1.89-2.57-3.52-2.38c-0.38,0.05-9.46,1.15-18.38,4.81c-1.07,0.44-1.82,1.41-1.94,2.54
					c-0.12,1.12,0.4,2.22,1.36,2.87l4.91,3.32c-1.23,3.74-1.9,7.72-1.9,11.86c0,12.46,6.03,23.54,15.41,30.71
					c1.19,1.03,2.76,1.67,4.49,1.67c3.72,0,6.74-2.92,6.74-6.51C1345.55,858.87,1344.51,857.01,1342.92,855.82z"/>
				<path class="st16" d="M1401.82,811.44c-0.2-0.5-0.53-0.95-0.96-1.3c-0.91-0.74-2.14-0.92-3.23-0.49l-5.56,2.24
					c-7.38-9.67-19.25-15.95-32.64-15.95c-10.11,0-19.34,3.58-26.44,9.49c-0.04,0.03-0.07,0.06-0.1,0.09
					c-0.03,0.03-0.06,0.05-0.09,0.08c-0.18,0.17-0.24,0.29-0.2,0.53c0.05,0.32,0.67,0.23,0.67,0.23l0,0
					c1.84-0.32,3.03-0.47,3.24-0.5c2.51-0.29,4.85,1.3,5.43,3.7c0.04,0.15,0.24,1.02,0.5,2.39c0,0,0,0,0,0.01
					c0.55,2.58,2.07,1.37,2.07,1.37l0,0.01c4.28-2.75,9.4-4.36,14.93-4.36c7.73,0,14.7,3.13,19.63,8.16l-3.01,1.21
					c-1.08,0.44-1.85,1.43-1.99,2.59c-0.14,1.16,0.35,2.31,1.29,2.99c7.83,5.71,16.42,8.87,16.78,9.01c1.54,0.56,3.26-0.13,3.98-1.6
					c0.17-0.35,4.18-8.57,5.87-18.11C1402.11,812.59,1402.05,811.99,1401.82,811.44z"/>
			</g>
			<rect x="1214.14" y="914.58" class="st55" width="285.52" height="48.42"/>
			<text transform="matrix(1 0 0 1 1225.3278 945.0453)" class="st16 st56 st57 st58">TOGETHER</text>
		</g>
		<path class="st59" d="M1311.44,464.02l-9.88,42.88c0,0-5.96,47.45,56.91,47.45c62.74,0,62.74-47.45,62.74-47.45l-12.49-42.88
			H1311.44z"/>
		<path class="st16" d="M1440.1,526.63c0.13,0.14,0.19,0.3,0.16,0.48c-0.65,5.13-10.53,83.08-16.45,96.6
			c-5.82,13.2-57.17-23.12-62.99-27.3c-0.22-0.16-0.5-0.16-0.72,0c-5.92,4.37-55.61,40.42-61.37,27.27
			c-5.95-13.52-15.84-91.47-16.49-96.6c-0.02-0.18,0.04-0.34,0.17-0.48l19.15-19.69c0.27-0.29,58.43,88.15,58.43,88.15
			c0.25,0.34,0.76,0.35,1.01,0.01l60.21-88.16C1421.45,506.58,1440.1,526.63,1440.1,526.63z"/>
		<path class="st60" d="M1312.88,470.3h96.76C1409.64,470.3,1361.08,516.56,1312.88,470.3z"/>
		<g>
			<ellipse class="st59" cx="1359.74" cy="363.58" rx="102.91" ry="120.05"/>
			<path class="st61" d="M1296.11,326.01c2.34-1.39,9.03-4.97,18.2-4.45c7.36,0.42,12.64,3.27,15.01,4.75"/>
			<g>
				<path d="M1376.84,450.67h-34.19c-2.8,0-5.07-2.27-5.07-5.07l0-21.54c0-0.41,0.33-0.75,0.75-0.75l42.84,0
					c0.41,0,0.75,0.33,0.75,0.75v21.54C1381.91,448.4,1379.64,450.67,1376.84,450.67z"/>
				<path class="st16" d="M1372.14,430.09h-24.09c-0.49,0-0.89-0.4-0.89-0.89v-5.89h25.87v5.89
					C1373.03,429.69,1372.63,430.09,1372.14,430.09z"/>
				<path class="st62" d="M1342.34,442.74c0,0,6.18,8.12,17.58,7.92c11.4-0.19,16.95-7.61,16.95-7.61
					c-3.35-1.42-9.19-3.41-16.93-3.53c-7.9-0.12-14.05,1.82-17.47,3.17"/>
			</g>
			<ellipse class="st21" cx="1312.71" cy="346.94" rx="12.91" ry="12.14"/>
			<path class="st61" d="M1393.87,326.01c2.34-1.39,9.03-4.97,18.2-4.45c7.36,0.42,12.64,3.27,15.01,4.75"/>
			<ellipse class="st21" cx="1410.48" cy="346.94" rx="12.91" ry="12.14"/>
			<ellipse class="st63" cx="1295.63" cy="390.38" rx="17.09" ry="16.07"/>
			<ellipse class="st63" cx="1424.08" cy="390.38" rx="17.09" ry="16.07"/>
			<path class="st63" d="M1362.25,383.21c4.72,10.42,7.29,17.75,8.6,22c0.76,2.46-1.1,4.98-3.83,5.13
				c-3.01,0.16-6.92-0.07-10.38-1.68"/>
			<g>
				<path class="st23" d="M1282.65,316.65c0,9.54-7.18,17.35-16.27,17.96l-9.1,34.94l-14.06-10.46l-8.53-74.85l37.27,3.14
					l-1.45,12.14C1277.54,301.8,1282.65,308.6,1282.65,316.65z"/>
				<path class="st23" d="M1487.86,284.24l-13.08,78.42l-12.37,9.2l-6.3-37.62c-7.83-1.77-13.67-9-13.67-17.59
					c0-7.07,3.96-13.2,9.72-16.13l-1.57-13.14L1487.86,284.24z"/>
				<path d="M1500.94,266.7c0,25.61-22.57,46.35-50.36,46.35c-17.51,0-32.93-8.2-41.94-20.7c-14.77,5.73-31.84,9-50.03,9
					c-14.15,0-27.65-1.98-39.87-5.55c-9.81,6.92-22.39,11.1-36.09,11.1c-31.37,0-56.83-21.83-56.83-48.79
					c0-20.55,14.86-38.17,35.86-45.34c12.58-28.2,51.21-48.72,96.93-48.72c50,0,91.56,24.61,99.74,56.9
					C1482.45,224.35,1500.94,243.56,1500.94,266.7z"/>
			</g>
			<path class="st64" d="M1261.3,354.08c-4.18-4.92-9.13-7.45-13.64-6.3c-8.24,2.12-12.03,15.75-8.1,30.36
				c6.07,22.57,22.15,22.58,22.28,22.54C1254.88,376.22,1261.29,354.11,1261.3,354.08z"/>
			<path class="st64" d="M1459.53,354.66c4.3-4.81,8.86-6.73,13.34-5.46c8.18,2.33,11.62,16.05,7.33,30.56
				c-6.64,22.4-22.72,22.01-22.84,21.97C1464.55,375.28,1459.44,355.63,1459.53,354.66z"/>
		</g>
	</g>
	<path class="st65" d="M2051.69,596.17c3.04-13.23,14.88-23.1,29.03-23.1c2.6,0,5.12,0.33,7.52,0.96
		c6.98-14.94,22.14-25.29,39.72-25.29c4.54,0,8.93,0.69,13.05,1.98c9.46-15.67,26.65-26.15,46.29-26.15
		c23.37,0,43.27,14.83,50.81,35.59c5.34-2.98,11.48-4.68,18.03-4.68c20.48,0,37.09,16.6,37.09,37.09c0,1.21-0.06,2.41-0.18,3.6
		H2051.69z"/>
	<g>
		<path d="M2103.84,1104.1v320.84h-159.13l-18.22-133c-0.61-4.44-5.25-4.4-5.82,0.05l-17.04,132.95h-159.1V1104.1h200.18l-0.17,1.33
			L2103.84,1104.1z"/>
		<path class="st66" d="M1846.28,560.37l-104.95,34.57c20.64,26.98,3.2,446.78,3.19,509.14c54.93,6.08,116.19,10.12,182.81,10.23
			c64.17,0.1,123.33-3.46,176.62-8.98c-7.09-83.89-7.22-175.95-9.8-274.95c-2.96-113.44-2.08-220.81,13.2-238.5l-89.49-31.02
			L1846.28,560.37z"/>
		<polygon class="st59" points="2084.35,870.3 2056.45,881.5 2078.88,919.19 2088.05,916.9 		"/>
		<g>
			<line class="st16" x1="1907.85" y1="892.89" x2="1903.58" y2="898.6"/>
			<path class="st16" d="M2013.68,844.9c-0.36-0.15-0.71,0.48-0.88,0.85c-0.03,0.08-0.06,0.14-0.09,0.22c0,0.01-0.01,0.03-0.01,0.03
				l0,0c-0.92,2.12-1.56,3.43-1.68,3.68l0,0c-1.35,2.74-4.1,4.37-7,4.37c-0.89,0-1.8-0.15-2.68-0.48c-0.52-0.19-4.84-1.8-10.9-4.69
				c-0.01-0.01-0.02-0.01-0.04-0.01c-2.74-1.28-2.77,1.89-2.77,1.89c-0.01,0.24-0.03,0.48-0.04,0.72c-0.03,0.53-0.07,1.06-0.12,1.59
				c-0.02,0.27-0.05,0.53-0.08,0.8c-0.06,0.52-0.12,1.04-0.19,1.55c-0.03,0.24-0.06,0.48-0.1,0.71c-0.11,0.73-0.24,1.45-0.38,2.16
				c-0.01,0.07-0.03,0.15-0.05,0.22c-0.14,0.66-0.28,1.32-0.45,1.97c-0.06,0.26-0.13,0.51-0.2,0.77c-0.12,0.46-0.25,0.92-0.38,1.37
				c-0.08,0.28-0.17,0.57-0.26,0.85c-0.14,0.44-0.28,0.87-0.43,1.3c-0.09,0.27-0.18,0.54-0.28,0.81c-0.2,0.55-0.41,1.09-0.63,1.62
				c-0.13,0.32-0.26,0.63-0.4,0.94c-0.19,0.45-0.39,0.9-0.6,1.35c-0.14,0.31-0.29,0.61-0.44,0.92c-0.16,0.34-0.33,0.67-0.5,1.01
				c-0.17,0.32-0.34,0.65-0.51,0.97c-0.17,0.3-0.34,0.61-0.51,0.91c-0.19,0.33-0.38,0.66-0.57,0.99c-0.16,0.26-0.32,0.52-0.49,0.78
				c-0.42,0.67-0.85,1.33-1.3,1.97c-0.14,0.2-0.27,0.4-0.41,0.6c-0.26,0.37-0.53,0.73-0.81,1.09c-0.15,0.19-0.29,0.39-0.44,0.58
				c-0.29,0.37-0.58,0.73-0.87,1.1c-0.13,0.16-0.26,0.31-0.39,0.47c-1.51,1.79-3.13,3.49-4.87,5.07c-0.08,0.07-0.16,0.15-0.24,0.22
				c-0.43,0.38-0.86,0.76-1.3,1.13c-0.05,0.04-0.09,0.08-0.14,0.12c-1.92,1.61-3.96,3.08-6.11,4.42c-0.01,0.01-0.02,0.01-0.03,0.02
				c-2.73,1.69-5.64,3.15-8.68,4.34v-6.83c0-2.3-1.25-4.42-3.26-5.54c-2.02-1.12-4.48-1.05-6.43,0.17
				c-16.21,10.12-28.3,23.5-28.81,24.06c-2.16,2.41-2.16,6.06,0,8.47c0.51,0.56,12.6,13.94,28.81,24.06
				c1.02,0.64,2.19,0.96,3.36,0.96c1.06,0,2.12-0.26,3.07-0.8c2.01-1.12,3.26-3.24,3.26-5.54v-12c1.92-0.48,3.81-1.04,5.67-1.65
				c0.25-0.08,0.51-0.16,0.76-0.24c0.72-0.24,1.43-0.51,2.14-0.77c0.38-0.14,0.77-0.28,1.15-0.43c0.67-0.26,1.34-0.54,2-0.81
				c0.41-0.17,0.81-0.34,1.22-0.52c0.65-0.28,1.29-0.58,1.93-0.88c0.41-0.19,0.81-0.39,1.21-0.58c0.63-0.31,1.26-0.62,1.88-0.95
				c0.39-0.2,0.78-0.42,1.16-0.63c0.62-0.34,1.24-0.68,1.85-1.03c0.35-0.2,0.69-0.41,1.03-0.62c2.15-1.29,4.23-2.67,6.24-4.14
				c0.35-0.26,0.7-0.5,1.04-0.76c0.52-0.4,1.03-0.81,1.54-1.21c0.38-0.31,0.77-0.61,1.15-0.92c0.48-0.4,0.96-0.81,1.44-1.23
				c0.39-0.34,0.78-0.68,1.16-1.02c0.46-0.41,0.91-0.83,1.35-1.25c0.39-0.36,0.76-0.74,1.14-1.11c0.43-0.42,0.85-0.85,1.27-1.28
				c0.38-0.4,0.76-0.8,1.13-1.2c0.4-0.43,0.79-0.85,1.18-1.28c0.4-0.45,0.79-0.92,1.18-1.38c0.34-0.4,0.69-0.8,1.02-1.21
				c0.68-0.84,1.35-1.69,1.99-2.56c0.29-0.39,0.57-0.79,0.85-1.19c0.38-0.53,0.76-1.06,1.13-1.6c0.29-0.43,0.57-0.86,0.85-1.3
				c0.34-0.53,0.68-1.05,1.01-1.59c0.27-0.44,0.54-0.89,0.8-1.34c0.32-0.54,0.63-1.09,0.94-1.63c0.25-0.45,0.5-0.9,0.74-1.36
				c0.3-0.57,0.59-1.15,0.88-1.73c0.22-0.44,0.44-0.89,0.66-1.34c0.3-0.63,0.58-1.27,0.86-1.91c0.18-0.41,0.37-0.81,0.54-1.23
				c0.35-0.83,0.68-1.68,0.99-2.53c0.09-0.23,0.18-0.45,0.26-0.67c0.39-1.07,0.75-2.15,1.1-3.25c0.11-0.36,0.21-0.72,0.32-1.08
				c0.22-0.75,0.44-1.5,0.64-2.26c0.11-0.44,0.22-0.88,0.33-1.32c0.17-0.7,0.33-1.4,0.48-2.1c0.1-0.46,0.19-0.93,0.28-1.4
				c0.13-0.7,0.26-1.4,0.38-2.1c0.08-0.47,0.15-0.94,0.22-1.41c0.1-0.72,0.19-1.45,0.28-2.18c0.05-0.46,0.11-0.91,0.15-1.37
				c0.08-0.8,0.13-1.6,0.18-2.41c0.02-0.39,0.06-0.78,0.08-1.17c0.06-1.2,0.09-2.4,0.09-3.62c0,0,0,0,0,0l0,0
				c0-0.91-0.03-1.81-0.06-2.71C2014.14,845.2,2014.01,845.03,2013.68,844.9z"/>
			<path class="st16" d="M1901.77,889.27l0.02-0.02c-12.63-9.42-20.78-24.19-20.78-40.81c0-2.57,0.2-5.1,0.57-7.57l4.49,3.03
				c1.89,1.28,4.34,1.46,6.41,0.48c0.98-0.46,1.81-1.16,2.41-1.99c0.67-0.92,1.07-2.02,1.13-3.19c0.99-18.44-3.04-35.42-3.21-36.13
				c-0.73-3.04-3.73-5.07-6.94-4.69c-0.75,0.09-18.64,2.26-36.23,9.49c-2.12,0.87-3.58,2.78-3.82,5c-0.24,2.21,0.78,4.38,2.67,5.65
				l9.68,6.54c-2.43,7.37-3.75,15.22-3.75,23.37c0,24.55,11.89,46.4,30.38,60.54c2.35,2.03,5.45,3.28,8.85,3.28
				c7.34,0,13.29-5.75,13.29-12.84C1906.95,895.29,1904.92,891.61,1901.77,889.27z"/>
			<path class="st16" d="M2017.88,801.79c-0.39-0.98-1.04-1.86-1.88-2.55c-1.79-1.45-4.22-1.82-6.36-0.96l-10.96,4.41
				c-14.55-19.06-37.94-31.44-64.33-31.44c-19.92,0-38.13,7.05-52.12,18.7c-0.07,0.06-0.13,0.11-0.2,0.17
				c-0.06,0.05-0.12,0.11-0.18,0.16c-0.35,0.33-0.47,0.57-0.39,1.04c0.1,0.63,1.31,0.45,1.31,0.45l0,0
				c3.63-0.64,5.98-0.93,6.38-0.98c4.96-0.57,9.56,2.55,10.7,7.29c0.07,0.3,0.47,2,0.98,4.72c0,0,0,0.01,0,0.01
				c1.08,5.08,4.08,2.69,4.08,2.69l0,0.01c8.43-5.42,18.54-8.59,29.42-8.59c15.24,0,28.97,6.18,38.69,16.07l-5.92,2.38
				c-2.14,0.86-3.64,2.81-3.92,5.1c-0.28,2.29,0.69,4.55,2.55,5.9c15.44,11.26,32.36,17.49,33.07,17.75
				c3.04,1.11,6.43-0.25,7.85-3.16c0.33-0.68,8.24-16.89,11.58-35.7C2018.45,804.07,2018.32,802.87,2017.88,801.79z"/>
		</g>
		<path class="st67" d="M1742.2,594.66c0,0-101.03,21.45-56.57,357.67c1.78,13.48,15.89,21.99,28.52,27.03
			c20.75,8.29,60.11,19.79,120.96,21.27c43.06,1.05,85.74-7.94,125.11-25.4c28.41-12.6,67.08-31.45,116.57-59.16
			c0,0-24.71-51.45-43.56-56.55s-25.98,12.23-25.98,12.23s-95.26,20.63-110.03,20.63c-14.77,0-62.91-3.06-118.44-9.93
			C1778.77,882.44,1791.87,670.92,1742.2,594.66z"/>
		<path class="st59" d="M1742.72,848.71c0,0,24.85,28.55,36.05,33.73c7.66,0.95,31.62,3.63,31.62,3.63l-7.51-32.73
			c-0.84-3.68-2.36-7.16-4.5-10.27c-6.53-9.51-21.4-30.28-30.48-36.1c0,0-11.79-2.19-4.17,9.27l-14.44-10.32
			c-3.05-2.18-7.73-4.97-10.83-2.86c-1.99,1.34-3.71,7.1-0.82,9.45c0,0-13.9,5.76,4.53,21.5
			C1742.17,834.01,1731.97,840.21,1742.72,848.71z"/>
		<path class="st67" d="M2107.35,591.88c112.53,28.33,109.15,351.51,40.58,403.61c-4.53,3.44-10.05,5.28-15.72,5.76
			c-84.89,7.23-293.92,22.73-314.72-1.36l268.46-87.84C2085.95,912.05,2068.12,642.08,2107.35,591.88z"/>
		<path class="st68" d="M1817.49,999.89l270.56-87.82l-183.76,100.79C1904.29,1012.86,1830.79,1013.36,1817.49,999.89z"/>
		<path class="st69" d="M1878.65,549.47c-5.31,1.72-34.98,11.78-34.98,11.78v25.11c0,3.14,0.8,6.23,2.35,9.05l36.3,66.16
			c0.99,1.8,3.98,1.42,4.36-0.57l6.55-34.56c0.7-3.67,3.21-6.86,6.84-8.67l27.17-13.54c3.59-1.79,7.96-1.8,11.56-0.03l24.52,12.07
			c3.36,1.65,5.79,4.49,6.7,7.83l10.31,37.6c0.52,1.89,3.39,2.16,4.33,0.4l35.28-65.89c1.48-2.77,2.25-5.8,2.25-8.87v-24.97
			l-30.81-15.52L1878.65,549.47z"/>
		<path class="st59" d="M1881.53,508.31l-10.01,43.46c0,0-6.04,48.09,57.67,48.09c63.59,0,63.59-48.09,63.59-48.09l-12.66-43.46
			H1881.53z"/>
		<path class="st60" d="M1885.54,514.31h91.07C1976.61,514.31,1930.91,559.52,1885.54,514.31z"/>
		<ellipse class="st59" cx="1932.58" cy="402.81" rx="104.62" ry="125.66"/>
		<path class="st61" d="M1864.72,369.01c2.33-1.47,9-5.26,18.13-4.71c7.33,0.44,12.59,3.46,14.95,5.03"/>
		<path class="st61" d="M1968.76,366.7c2.31-1.5,8.95-5.35,18.08-4.88c7.34,0.37,12.62,3.34,15,4.88"/>
		<circle class="st63" cx="1867.84" cy="437.75" r="14.87"/>
		<circle class="st63" cx="2000.17" cy="437.75" r="14.87"/>
		<g>
			<path d="M1949.28,494.78l-33.39,0c-2.97,0-5.39-2.41-5.39-5.39v-22.28c0-0.73,0.59-1.32,1.32-1.32l41.53,0
				c0.73,0,1.32,0.59,1.32,1.32v22.28C1954.66,492.37,1952.25,494.78,1949.28,494.78z"/>
			<path class="st16" d="M1944.93,472.98l-24,0c-0.49,0-0.89-0.4-0.89-0.89v-6.29h25.77v6.29
				C1945.82,472.58,1945.42,472.98,1944.93,472.98z"/>
			<path class="st62" d="M1915.25,486.38c0,0,6.16,8.6,17.51,8.4c11.35-0.2,16.89-8.07,16.89-8.07c-3.34-1.51-9.16-3.61-16.86-3.74
				c-7.87-0.13-14,1.93-17.4,3.35L1915.25,486.38z"/>
		</g>
		<path class="st61" d="M1867.85,402.81c-0.19-8.28,6.76-14.87,14.45-14.45c7.16,0.39,13.12,6.76,12.91,14.45"/>
		<path class="st61" d="M1972.81,402.81c-0.19-8.28,6.76-14.87,14.45-14.45c7.16,0.39,13.12,6.76,12.91,14.45"/>
		<path class="st63" d="M1932.69,418.58c5.44,10.61,8.51,18.13,10.12,22.51c0.93,2.54-0.74,5.3-3.44,5.64
			c-2.98,0.37-6.88,0.39-10.43-1.07L1932.69,418.58z"/>
		<path d="M1812.66,339.69c0.12-1.68-43.25-43.97,9.65-74.52c16.01-9.24,35.51-13.82,55.28-13.82h34.91c0,0,18.01-35.77,58.62-35.77
			s61.36,50.38,61.36,50.38s77.5,26.12,3.91,152.63l-25.69-99.35c0,0-58.4,42.56-173.3,35.56c-11.27,17.98-8.1,68.09-8.1,68.09
			S1809,389.09,1812.66,339.69z"/>
		<path class="st64" d="M1829.1,395.98c-3.83-4.18-7.19-4.61-11.11-3.45c-7.16,2.13-10.04,14.22-6.11,26.91
			c6.06,19.6,20.26,19.1,20.37,19.06C1828.52,400.8,1829.09,396.01,1829.1,395.98z"/>
		<path class="st64" d="M2031.83,401c3.78-4.22,9.69-5.86,13.62-4.74c7.18,2.04,10.21,14.1,6.43,26.83
			c-5.83,19.67-19.95,19.33-20.06,19.29C2038.15,419.16,2031.76,401.85,2031.83,401z"/>
	</g>
	<path class="st65" d="M433.85,221.53c2.24-9.75,10.97-17.03,21.4-17.03c1.91,0,3.77,0.25,5.54,0.71
		c5.15-11.01,16.32-18.64,29.28-18.64c3.35,0,6.58,0.51,9.62,1.46c6.98-11.55,19.65-19.27,34.12-19.27
		c17.22,0,31.89,10.93,37.45,26.23c3.93-2.19,8.46-3.45,13.29-3.45c15.1,0,27.34,12.24,27.34,27.34c0,0.9-0.05,1.78-0.13,2.65
		H433.85z"/>
	<path class="st30" d="M33.16,453.12c3.63-15.79,17.76-27.58,34.66-27.58c3.1,0,6.11,0.4,8.98,1.14
		c8.34-17.83,26.43-30.19,47.42-30.19c5.43,0,10.66,0.83,15.58,2.36c11.3-18.71,31.82-31.22,55.27-31.22
		c27.9,0,51.66,17.71,60.66,42.49c6.37-3.55,13.71-5.58,21.52-5.58c24.45,0,44.27,19.82,44.27,44.27c0,1.45-0.07,2.88-0.21,4.3
		H33.16z"/>
	<g>
		<path d="M973.82,460.4c-3.85,108.99,19.62,211.12-166.98,209.64c-185.55-1.47-164.69-75.11-165.36-184.17
			c-0.7-113.89,60.6-217.77,152.65-218.17C890.3,267.28,977.61,353.07,973.82,460.4z"/>
		<g>
			<path class="st59" d="M762.1,554.41l-8.99,52.44c0,0-5.43,58.02,51.81,58.02c57.13,0,57.13-58.02,57.13-58.02l-11.37-52.44H762.1
				z"/>
			<path class="st60" d="M765.7,561.65h81.82C847.52,561.65,806.46,616.2,765.7,561.65z"/>
		</g>
		<g>
			<g>
				<path class="st59" d="M804.08,572.68c-57.01-1.24-101.99-59.56-100.47-130.26c0.28-12.73,2.01-24.99,5.08-36.49l73.48-62.18
					l123.06,60.9c3.42,13.27,5.15,27.47,4.83,42.18C908.54,517.54,861.1,573.89,804.08,572.68z"/>
				<path class="st61" d="M740.36,394.69c2.41-1.37,9.3-4.87,18.46-3.9c7.36,0.79,12.51,4.07,14.81,5.75"/>
				<path class="st61" d="M843.1,401.17c2.53-1.13,9.73-3.94,18.75-2.07c7.24,1.5,12.05,5.27,14.18,7.17"/>
				<g>
					<circle class="st21" cx="757.87" cy="430.14" r="13.31"/>
					<line class="st70" x1="747.46" y1="415.31" x2="750.83" y2="421.5"/>
					<line class="st70" x1="748.63" y1="423.91" x2="744.03" y2="418.11"/>
					<line class="st70" x1="740.49" y1="420.85" x2="747.52" y2="426.42"/>
				</g>
				<g>
					<circle class="st21" cx="856.41" cy="438.57" r="13.31"/>
					<line class="st70" x1="868.93" y1="425.48" x2="864.67" y2="431.09"/>
					<line class="st70" x1="866.48" y1="433.81" x2="871.91" y2="428.77"/>
					<line class="st70" x1="874.99" y1="432.01" x2="867.19" y2="436.46"/>
				</g>
				<circle class="st63" cx="742.53" cy="465.84" r="14.98"/>
				<circle class="st63" cx="861.95" cy="477.97" r="14.98"/>
				<g>
					<path d="M817.65,534.7l-33.46-3.42c-2.98-0.3-5.15-2.97-4.84-5.95l2.34-22.85c0.04-0.44,0.44-0.76,0.87-0.71l42.66,4.36
						c0.44,0.04,0.76,0.44,0.71,0.87l-2.34,22.85C823.29,532.84,820.63,535.01,817.65,534.7z"/>
					<path class="st16" d="M815.53,512.41l-24.05-2.46c-0.49-0.05-0.84-0.49-0.79-0.97l0.65-6.31l25.82,2.64l-0.65,6.31
						C816.46,512.11,816.02,512.46,815.53,512.41z"/>
					<path class="st62" d="M784.41,522.8c0,0,5.29,9.25,16.68,10.21c11.39,0.96,17.75-6.35,17.75-6.35
						c-3.19-1.85-8.81-4.56-16.51-5.48c-7.87-0.94-14.22,0.5-17.78,1.58L784.41,522.8z"/>
				</g>
			</g>
			<path class="st71" d="M807.94,455.71c2.69,11.78,3.83,19.93,4.32,24.63c0.28,2.72-2.03,5.03-4.75,4.7
				c-3.01-0.37-6.82-1.31-9.93-3.61L807.94,455.71z"/>
		</g>
		<g>
			<path class="st59" d="M578.2,779.66c0,0-13.07,102.53-7.42,140.69c0,0-34.63,29.89-13.78,111.06h86.93l11.66-228.79
				C655.59,802.62,606.83,805.76,578.2,779.66z"/>
			<path class="st59" d="M1027.79,779.66c0,0,13.07,102.53,7.42,140.69c0,0,34.63,29.89,13.78,111.06h-86.93l-11.66-228.79
				C950.41,802.62,999.17,805.76,1027.79,779.66z"/>
			<g>
				<path class="st16" d="M753.1,606.85l-29.29,4.61c0,0,23.02,63.51,84.08,59.78c2.03-0.12,4.04-0.22,6.07-0.2
					c11.83,0.14,61.72-5.48,72.39-59.58l-24.32-4.61c0,0-20.91,29.71-54.13,30.77C774.7,638.68,753.1,606.85,753.1,606.85z"/>
				<path class="st66" d="M723.81,611.46l-80.57,18.38c0,0,65.96,221.44,18.38,429.69h296.83c0,0-32.04-352.42,8.48-432.52
					l-80.57-15.55c0,0-6.59,56.54-74.91,56.54C811.45,668,752.56,676.48,723.81,611.46z"/>
				<path class="st67" d="M643.25,629.83c0,0-59.6,0.71-74.44,106.95c0,0-2.36,20.26-16.96,28.27c0,0,2.12,21.67,69.97,39.58
					l36.75,9.89l8.84-68.61C667.4,745.92,666.35,648.4,643.25,629.83z"/>
				<path class="st67" d="M966.93,627.01c0,0,38.16,8.72,53.24,41.46c15.08,32.75,16.96,83.16,38.16,101.06
					c0,0-10.35,8.46-25.11,17.41c-19.01,11.53-45.34,23.89-66.29,20.04l-19.14-64.97C947.79,742.02,949.73,652.68,966.93,627.01z"/>
				<g>
					<g>
						<ellipse class="st72" cx="835.79" cy="759.67" rx="47.62" ry="13.78"/>
						<ellipse class="st73" cx="835.93" cy="759.67" rx="40.95" ry="7.29"/>
						<path class="st74" d="M801.67,763.19c0,0,7.01-5.12,35.34-5.12c23.09,0,30.21,5.12,30.21,5.12S836.83,771.2,801.67,763.19z"/>
						<path class="st72" d="M788.17,760.28c4.69,28.58,27.64,73.67,27.64,73.67l53-1.33l-6.89-22.79c0,0,8.66-3.36,2.65-7.69
							c-6.01-4.33,2.65-5.34,2.65-5.34s26.47-36.95,16.2-37.14c0,0-4.42,12.84-43.49,13.73
							C839.93,773.4,798.16,775.08,788.17,760.28z"/>
					</g>
					<g>
						<g>
							<path class="st72" d="M688.62,736.36l30.74,135.24c1.24,5.46-2.18,10.88-7.63,12.12l-61.56,13.99
								c-5.46,1.24-10.88-2.18-12.12-7.63l-30.74-135.24c-2.31-10.15,1.42-20.24,8.81-26.55c5.63-4.8,8.5-12.08,6.86-19.3
								l-4.55-20.03l31.72-7.21l4.55,20.03c1.64,7.22,7.37,12.54,14.52,14.44C678.61,718.72,686.32,726.22,688.62,736.36z"/>
							<path class="st72" d="M658.78,679.79l-48.99,11.13c-0.55,0.13-1.11-0.22-1.23-0.78l-6.43-28.29
								c-0.13-0.55,0.22-1.11,0.78-1.23l48.99-11.13c0.55-0.13,1.11,0.22,1.23,0.78l6.43,28.29
								C659.68,679.11,659.33,679.66,658.78,679.79z"/>
						</g>
						<path class="st74" d="M622.98,708.99c0,0,10.41,6.5,21.07-0.36s9.72,46.38,9.72,46.38s3.53,9.89,15.9-14.84
							c0,0,8.13-21.38,10.6,32.33c1.52,32.91-8.78,59.53-16.98,75.2c-4.99,9.55-13.78,16.53-24.21,19.21l-5.95,1.53l4.92,21.64
							c0,0,1.54,10.04,12.12,7.63c10.59-2.41,61.56-13.99,61.56-13.99s9.7-3.03,7.63-12.12s-30.74-135.24-30.74-135.24
							s-5.71-18.47-19.4-20.14c-13.69-1.67-14.52-14.44-14.52-14.44l-4.55-20.03l-31.72,7.21L622.98,708.99z"/>
					</g>
					<g>
						<g>
							<path class="st67" d="M939.73,742.42l38.46,169.24c1.55,6.83-2.5,13.57-9.04,15.06l-73.85,16.78
								c-6.55,1.49-13.11-2.84-14.66-9.67l-38.46-169.24c-2.89-12.7,1.48-25.27,10.3-33.06c6.72-5.94,10.09-15,8.03-24.03
								l-5.7-25.06l38.05-8.65l5.7,25.07c2.05,9.03,9,15.74,17.62,18.2C927.5,720.27,936.85,729.72,939.73,742.42z"/>
							<path class="st67" d="M903.42,671.38l-59.17,13.45c-0.55,0.13-1.11-0.22-1.23-0.78l-6.43-28.31
								c-0.13-0.55,0.22-1.11,0.78-1.23l59.17-13.45c0.55-0.13,1.11,0.22,1.23,0.78l6.43,28.31
								C904.32,670.71,903.97,671.26,903.42,671.38z"/>
						</g>
						
							<rect x="855.1" y="772.49" transform="matrix(0.9751 -0.2216 0.2216 0.9751 -158.3034 220.8781)" class="st16" width="99.95" height="86.69"/>
						<polygon class="st68" points="854.82,682.44 896.62,690.32 892.87,673.79 						"/>
						<path class="st68" d="M916.19,717.05c0,0,26.84,101.21,32.57,133.31c4.5,25.24,8.26,52.09,10.21,78.67l10.19-2.32
							c0,0,11.32-5.03,9.04-15.06c-0.92-4.04-7.35-32.32-14.69-64.65c-6.84-30.12-14.49-63.74-19.21-84.54
							c-2.79-12.25-4.56-20.05-4.56-20.05S934.5,719.56,916.19,717.05z"/>
						<polygon class="st75" points="928.88,765.98 944.29,762.47 963.5,847.01 948.75,850.36 						"/>
					</g>
					<g>
						<g>
							<path class="st67" d="M724.7,754.34l-25.44,46.64c0,0-7.07,8.83,3.71,14.84c10.78,6.01,17.49,11.66,17.49,11.66h88.52v-44.52
								c0,0,3.18-9.89-10.07-9.54c-10.39,0.28-23.38-0.21-28.51-0.43c-1.47-0.06-2.89-0.44-4.2-1.1l-26.08-13.27
								c-1.28-0.65-2.38-1.58-3.31-2.68C734.84,753.62,729.3,747.98,724.7,754.34z"/>
							<path d="M816.4,827.49h-7.42v-44.52h5.61c1,0,1.81,0.81,1.81,1.81V827.49z"/>
							<path d="M699.26,800.98l-3.54-2.58c-2.25-1.64-2.9-4.72-1.5-7.14l17.56-30.21c1.52-2.62,4.9-3.5,7.5-1.94l2.13,1.27
								L699.26,800.98z"/>
						</g>
						<polygon class="st68" points="747.89,762.58 759.16,800.98 781.92,773.38 766.2,771.89 						"/>
						<path class="st68" d="M703.82,792.63l4.43,10.48l44.9,24.38h-32.69l-17.49-11.66c0,0-10.6-4.86-3.71-14.84
							C703.82,792.63,703.82,792.63,703.82,792.63z"/>
					</g>
					<g>
						<path class="st72" d="M962.07,736.9l-32.86,9.54c0,0-9.89-0.44-11.13,14.31s-9.54,58.84-9.54,58.84l-14.84,46.11h96.47
							c0,0,6.47-19.67-16.43-30.21c0,0,6.18-10.42-1.06-19.08l25.97-38.16c0,0,5.3-11.84,0-18.02s-11.66-13.25-11.66-13.25
							L962.07,736.9z"/>
						<path class="st74" d="M972.67,816.4H957.3c0,0-14.84-1.77-3.18-15.11l46.6-30.33c0,0,0,0-2.07,7.27
							C995.39,789.64,972.67,816.4,972.67,816.4z"/>
						<path class="st74" d="M973.73,835.48h-26.38l42.47,16.35C989.81,851.84,986.27,842.2,973.73,835.48z"/>
						<path class="st74" d="M908.53,819.58c0,0,0.88,46.11,0,46.11c-0.88,0-14.84,0-14.84,0L908.53,819.58z"/>
						<path class="st74" d="M967.62,721.56l-5.55,15.34l24.91,10.07l6.83-15.31c0.71-1.59-0.06-3.45-1.69-4.06l-20.57-7.84
							C969.97,719.16,968.2,719.97,967.62,721.56z"/>
					</g>
					<g>
						<path class="st13" d="M591.48,848.58v254.36c0,12.02,9.74,21.76,21.76,21.76h383.7c12.02,0,21.76-9.74,21.76-21.76V848.58
							c0-12.02-9.74-21.76-21.76-21.76h-383.7C601.22,826.82,591.48,836.56,591.48,848.58z"/>
						<g>
							<line class="st16" x1="781.1" y1="1013.05" x2="776.87" y2="1018.71"/>
							<path class="st16" d="M885.91,965.52c-0.36-0.14-0.7,0.48-0.87,0.84c-0.03,0.07-0.06,0.14-0.09,0.21
								c0,0.01-0.01,0.03-0.01,0.03l0,0c-0.91,2.1-1.54,3.4-1.66,3.64l0,0c-1.33,2.72-4.06,4.33-6.93,4.33
								c-0.88,0-1.78-0.15-2.65-0.47c-0.52-0.19-4.8-1.78-10.79-4.65c-0.01-0.01-0.02-0.01-0.04-0.01
								c-2.72-1.27-2.74,1.88-2.74,1.88c-0.01,0.24-0.03,0.47-0.04,0.71c-0.03,0.53-0.07,1.05-0.12,1.57
								c-0.02,0.26-0.05,0.53-0.08,0.79c-0.06,0.52-0.12,1.03-0.19,1.54c-0.03,0.24-0.06,0.47-0.1,0.71
								c-0.11,0.72-0.23,1.43-0.38,2.14c-0.01,0.07-0.03,0.14-0.05,0.22c-0.13,0.65-0.28,1.3-0.44,1.95
								c-0.06,0.26-0.13,0.51-0.2,0.76c-0.12,0.46-0.25,0.91-0.38,1.36c-0.08,0.28-0.17,0.56-0.26,0.84
								c-0.14,0.43-0.28,0.86-0.43,1.29c-0.09,0.27-0.18,0.53-0.28,0.8c-0.2,0.54-0.41,1.08-0.62,1.61
								c-0.13,0.31-0.26,0.62-0.39,0.93c-0.19,0.45-0.39,0.89-0.59,1.33c-0.14,0.31-0.29,0.61-0.44,0.91c-0.16,0.33-0.33,0.67-0.5,1
								c-0.17,0.32-0.34,0.64-0.51,0.96c-0.16,0.3-0.33,0.6-0.5,0.9c-0.19,0.33-0.37,0.65-0.57,0.98c-0.16,0.26-0.32,0.52-0.48,0.77
								c-0.41,0.66-0.84,1.31-1.29,1.95c-0.14,0.2-0.27,0.4-0.41,0.59c-0.26,0.36-0.53,0.72-0.8,1.08
								c-0.15,0.19-0.29,0.38-0.44,0.58c-0.28,0.37-0.57,0.73-0.86,1.09c-0.13,0.16-0.26,0.31-0.39,0.46
								c-1.49,1.78-3.1,3.46-4.83,5.02c-0.08,0.07-0.16,0.15-0.24,0.22c-0.42,0.38-0.85,0.75-1.28,1.12
								c-0.05,0.04-0.09,0.08-0.14,0.12c-1.9,1.59-3.93,3.05-6.05,4.37c-0.01,0.01-0.02,0.01-0.03,0.02
								c-2.71,1.68-5.58,3.12-8.6,4.3v-6.77c0-2.28-1.24-4.38-3.23-5.49c-2-1.11-4.43-1.04-6.37,0.16
								c-16.05,10.02-28.03,23.27-28.53,23.83c-2.14,2.38-2.14,6,0,8.38c0.5,0.56,12.48,13.81,28.53,23.83
								c1.01,0.63,2.17,0.95,3.32,0.95c1.05,0,2.1-0.26,3.04-0.79c1.99-1.11,3.23-3.21,3.23-5.49v-11.88
								c1.9-0.47,3.77-1.03,5.61-1.63c0.25-0.08,0.5-0.16,0.75-0.24c0.71-0.24,1.42-0.5,2.12-0.77c0.38-0.14,0.76-0.28,1.14-0.42
								c0.67-0.26,1.33-0.53,1.98-0.81c0.4-0.17,0.81-0.34,1.2-0.51c0.64-0.28,1.28-0.57,1.91-0.87c0.4-0.19,0.8-0.38,1.2-0.58
								c0.62-0.31,1.24-0.62,1.86-0.94c0.39-0.2,0.77-0.41,1.15-0.62c0.61-0.33,1.23-0.67,1.83-1.02c0.34-0.2,0.68-0.41,1.02-0.61
								c2.13-1.28,4.19-2.64,6.18-4.1c0.34-0.25,0.69-0.5,1.03-0.76c0.52-0.39,1.02-0.8,1.53-1.2c0.38-0.3,0.76-0.6,1.14-0.92
								c0.48-0.4,0.95-0.81,1.42-1.21c0.38-0.33,0.77-0.67,1.15-1.01c0.45-0.41,0.9-0.82,1.34-1.24c0.38-0.36,0.76-0.73,1.13-1.1
								c0.42-0.42,0.85-0.84,1.26-1.26c0.38-0.39,0.75-0.79,1.12-1.19c0.39-0.42,0.79-0.84,1.17-1.27c0.4-0.45,0.78-0.91,1.17-1.37
								c0.34-0.4,0.68-0.79,1.01-1.19c0.68-0.83,1.33-1.68,1.97-2.54c0.29-0.39,0.56-0.79,0.84-1.18c0.38-0.53,0.75-1.05,1.12-1.58
								c0.29-0.42,0.56-0.86,0.84-1.29c0.34-0.52,0.68-1.04,1-1.57c0.27-0.44,0.53-0.88,0.8-1.33c0.32-0.54,0.62-1.07,0.93-1.62
								c0.25-0.45,0.49-0.89,0.73-1.35c0.3-0.56,0.59-1.14,0.87-1.71c0.22-0.44,0.44-0.88,0.65-1.33c0.29-0.62,0.57-1.25,0.85-1.89
								c0.18-0.41,0.36-0.81,0.53-1.22c0.35-0.83,0.67-1.66,0.99-2.5c0.08-0.22,0.18-0.44,0.26-0.67c0.39-1.06,0.75-2.13,1.09-3.21
								c0.11-0.36,0.21-0.72,0.31-1.07c0.22-0.74,0.44-1.49,0.64-2.24c0.11-0.43,0.22-0.87,0.32-1.31c0.17-0.69,0.33-1.38,0.48-2.08
								c0.1-0.46,0.19-0.92,0.28-1.38c0.13-0.69,0.26-1.38,0.37-2.08c0.08-0.47,0.15-0.93,0.22-1.4c0.1-0.71,0.19-1.43,0.27-2.15
								c0.05-0.45,0.11-0.9,0.15-1.36c0.08-0.79,0.13-1.59,0.18-2.39c0.02-0.39,0.06-0.77,0.08-1.16c0.06-1.19,0.09-2.38,0.09-3.58
								c0,0,0,0,0,0l0,0c0-0.9-0.03-1.8-0.06-2.69C886.37,965.82,886.25,965.66,885.91,965.52z"/>
							<path class="st16" d="M775.08,1009.47l0.02-0.02c-12.51-9.33-20.58-23.96-20.58-40.41c0-2.55,0.19-5.05,0.57-7.49l4.45,3.01
								c1.87,1.26,4.3,1.45,6.35,0.48c0.97-0.46,1.79-1.14,2.39-1.97c0.66-0.91,1.06-2,1.12-3.16c0.99-18.26-3.01-35.08-3.18-35.78
								c-0.73-3.02-3.69-5.02-6.87-4.64c-0.75,0.09-18.47,2.24-35.88,9.4c-2.1,0.86-3.55,2.76-3.78,4.95
								c-0.24,2.19,0.78,4.34,2.65,5.6l9.58,6.47c-2.41,7.3-3.71,15.08-3.71,23.15c0,24.32,11.77,45.95,30.09,59.96
								c2.33,2.02,5.4,3.25,8.77,3.25c7.27,0,13.16-5.69,13.16-12.72C780.21,1015.43,778.19,1011.8,775.08,1009.47z"/>
							<path class="st16" d="M890.08,922.83c-0.39-0.97-1.03-1.85-1.87-2.53c-1.77-1.44-4.18-1.8-6.3-0.95l-10.85,4.36
								c-14.41-18.88-37.57-31.14-63.72-31.14c-19.73,0-37.76,6.99-51.62,18.53c-0.07,0.06-0.13,0.11-0.19,0.17
								c-0.06,0.05-0.12,0.1-0.18,0.16c-0.34,0.32-0.46,0.57-0.39,1.03c0.1,0.62,1.3,0.45,1.3,0.45l0,0
								c3.59-0.63,5.92-0.92,6.32-0.97c4.91-0.57,9.46,2.53,10.6,7.22c0.07,0.3,0.47,1.98,0.97,4.68c0,0,0,0.01,0,0.01
								c1.07,5.03,4.04,2.67,4.04,2.67l0,0.01c8.35-5.36,18.36-8.51,29.14-8.51c15.09,0,28.69,6.12,38.32,15.92l-5.87,2.36
								c-2.12,0.85-3.6,2.78-3.89,5.05c-0.28,2.26,0.69,4.5,2.53,5.85c15.29,11.16,32.05,17.33,32.75,17.58
								c3.01,1.1,6.37-0.25,7.78-3.13c0.33-0.68,8.16-16.73,11.47-35.36C890.64,925.09,890.51,923.9,890.08,922.83z"/>
						</g>
					</g>
				</g>
				<path class="st52" d="M634.6,826.82c0,0-17.92,8.96-17.92,33.56c0,24.6,0,214.96,0,214.96s0,26.96,36.9,26.96
					s365.12,0.64,365.12,0.64s-2.34,19.57-21.76,21.76s-383.7,0-383.7,0s-22.36-0.61-21.76-21.76c0.6-21.15,0-254.36,0-254.36
					s0.36-22.22,24.29-21.76C638.62,827.25,634.6,826.82,634.6,826.82z"/>
			</g>
			<g>
				<polygon points="625.47,1124.7 585.19,1376.77 1033.45,1376.77 983.57,1124.7 				"/>
				<line class="st76" x1="675.65" y1="1209.28" x2="641.72" y2="1376.77"/>
				<line class="st76" x1="810.92" y1="1209.28" x2="803.13" y2="1376.77"/>
				<line class="st76" x1="940.6" y1="1209.28" x2="974.53" y2="1376.77"/>
			</g>
			<g>
				<path class="st59" d="M575.6,1012.57l1.3-28.18c0,0,1.41-21.56,14.31-7.69l0.29,68.46l41.68,12.46c0,0,15.28,3.45,8.75,14.58
					c0,0,17.31,4.33,6.1,15.64c0,0,3.27,7.95-4.77,9.81l-24.65,10.34c0,0,0.94,4.66-2.3,6.76c-9.02,5.84-11.35,4.51-13.3,4.33
					c-1.33-0.12-12.08-1.04-18.79-1.62c-4.49-0.38-8.61-2.97-10.55-7.04c-1.12-2.35-1.42-4.92,0.67-6.93
					c0,0-22.26-16.08-16.43-24.91c0,0-14.93-10.95-3.71-26.24c0,0-10.16-10.95,0.8-19.08L575.6,1012.57z"/>
				<g>
					<path class="st54" d="M557.92,1078.36c7.54,0.45,15.07,1,22.61,1.5l22.59,1.71c7.53,0.6,15.09,0.84,22.57,1.91
						c3.74,0.53,7.48,1.08,11.2,1.76c3.73,0.67,7.44,1.42,11.14,2.39l-0.04,0.41c-3.81,0.2-7.61,0.17-11.39,0.07
						c-3.79-0.09-7.56-0.31-11.33-0.55c-7.54-0.47-14.99-1.78-22.49-2.73l-22.46-2.93c-7.48-1.05-14.97-2.04-22.44-3.13
						L557.92,1078.36z"/>
				</g>
				<g>
					<path class="st54" d="M574.35,1103.27c3.72,0.05,7.43,0.21,11.15,0.31l5.57,0.23l5.56,0.29c1.85,0.1,3.71,0.13,5.57,0.18
						c1.86,0.06,3.7,0.24,5.53,0.54c1.83,0.31,3.66,0.68,5.47,1.17c1.82,0.47,3.62,1.02,5.41,1.79l-0.04,0.41
						c-1.9,0.4-3.78,0.57-5.66,0.67c-1.87,0.11-3.74,0.11-5.59,0.04c-1.86-0.07-3.7-0.27-5.53-0.58c-1.83-0.33-3.66-0.68-5.49-0.95
						l-5.5-0.84l-5.5-0.9c-3.66-0.65-7.33-1.24-10.98-1.94L574.35,1103.27z"/>
				</g>
				<g>
					<path class="st54" d="M591.05,976.83c-1.6-0.89-3.01-1.84-4.42-2.58c-0.7-0.36-1.39-0.69-2.06-0.85
						c-0.67-0.16-1.3-0.15-1.84,0.04c-1.09,0.38-2.01,1.62-2.64,3.06c-0.63,1.45-1.06,3.08-1.41,4.74l0.02-0.17l-1.12,15.77
						c-0.36,5.26-0.69,10.52-0.93,15.78l-0.02,0.39l-0.29,0.29c-3.41,3.47-6.83,6.93-10.21,10.44l-10.16,10.48l-0.09,0.08
						c-1.17,1.08-2.3,2.49-3.1,3.92c-0.81,1.45-1.38,3.01-1.47,4.56c-0.11,1.55,0.23,3.08,0.96,4.47c0.74,1.39,1.81,2.66,3.07,3.78
						l-0.78-0.41l22.01,4.63c7.33,1.55,14.63,3.25,21.91,5.04c14.56,3.58,29.08,7.34,43.47,11.69l-0.09,0.4
						c-14.85-2.28-29.58-5.15-44.26-8.19c-7.34-1.52-14.66-3.13-21.95-4.9l-21.85-5.31l-0.47-0.11l-0.31-0.29
						c-1.45-1.36-2.76-2.97-3.69-4.85c-0.93-1.89-1.36-4.09-1.14-6.21c0.2-2.12,0.99-4.08,2.02-5.8c1.06-1.73,2.28-3.2,3.86-4.57
						l-0.09,0.08l10.45-10.19c3.49-3.39,6.94-6.82,10.41-10.24l-0.31,0.68c0.35-5.26,0.61-10.52,0.84-15.79l0.64-15.8l0-0.07
						l0.02-0.1c0.32-1.79,0.74-3.6,1.52-5.37c0.39-0.88,0.88-1.76,1.56-2.57c0.67-0.81,1.6-1.55,2.73-1.92
						c1.13-0.38,2.33-0.32,3.36-0.05c1.03,0.28,1.94,0.74,2.73,1.31c1.56,1.16,2.74,2.63,3.42,4.41L591.05,976.83z"/>
				</g>
			</g>
			<g>
				<path class="st59" d="M1034.26,1015.71l-1.3-28.18c0,0-1.41-21.56-14.31-7.69v68.38l-41.96,12.54c0,0-15.28,3.45-8.75,14.58
					c0,0-17.31,4.33-6.1,15.64c0,0-3.27,7.95,4.77,9.81l24.65,10.34c0,0-0.94,4.66,2.3,6.76c9.02,5.84,11.35,4.51,13.3,4.33
					c1.33-0.12,12.08-1.04,18.79-1.62c4.49-0.38,8.61-2.97,10.55-7.04c1.12-2.35,1.42-4.92-0.67-6.93c0,0,22.26-16.08,16.43-24.91
					c0,0,14.93-10.95,3.71-26.24c0,0,10.16-10.95-0.8-19.08L1034.26,1015.71z"/>
				<g>
					<path class="st54" d="M1051.98,1081.9c-7.48,1.1-14.96,2.09-22.44,3.13l-22.46,2.93c-7.49,0.95-14.95,2.25-22.48,2.73
						c-3.77,0.25-7.54,0.47-11.33,0.55c-3.78,0.1-7.58,0.13-11.39-0.07l-0.04-0.41c3.69-0.97,7.41-1.72,11.14-2.39
						c3.72-0.68,7.46-1.24,11.2-1.76c7.48-1.07,15.04-1.32,22.57-1.91l22.59-1.71c7.54-0.5,15.07-1.06,22.61-1.5L1051.98,1081.9z"/>
				</g>
				<g>
					<path class="st54" d="M1035.55,1106.82c-3.66,0.7-7.32,1.29-10.98,1.94l-5.5,0.9l-5.5,0.84c-1.84,0.27-3.66,0.62-5.49,0.95
						c-1.83,0.32-3.67,0.51-5.53,0.58c-1.86,0.07-3.72,0.07-5.59-0.04c-1.87-0.1-3.75-0.27-5.66-0.67l-0.04-0.41
						c1.78-0.77,3.59-1.32,5.41-1.79c1.81-0.48,3.64-0.86,5.47-1.17c1.83-0.31,3.68-0.48,5.53-0.54c1.86-0.05,3.72-0.07,5.57-0.18
						l5.56-0.29l5.57-0.23c3.72-0.1,7.43-0.26,11.15-0.31L1035.55,1106.82z"/>
				</g>
				<g>
					<path class="st54" d="M1018.49,979.71c1.13-1.38,2.42-2.62,3.93-3.61c0.75-0.49,1.57-0.91,2.47-1.16
						c0.89-0.25,1.88-0.29,2.8,0.01c0.92,0.3,1.71,0.9,2.31,1.61c0.61,0.71,1.08,1.51,1.46,2.33c0.76,1.65,1.22,3.4,1.58,5.14
						l0.01,0.03l0,0.05l2.28,31.54l-0.31-0.7l20.87,20.41l-0.09-0.09c1.58,1.38,2.79,2.85,3.86,4.59c1.03,1.72,1.82,3.68,2.02,5.81
						c0.22,2.12-0.22,4.32-1.15,6.21c-0.93,1.89-2.24,3.49-3.69,4.85l-0.31,0.29l-0.47,0.11l-21.85,5.31
						c-7.29,1.76-14.61,3.38-21.95,4.9c-14.68,3.04-29.4,5.91-44.26,8.19l-0.09-0.4c14.39-4.35,28.91-8.1,43.47-11.69
						c7.28-1.79,14.58-3.49,21.91-5.04l22.01-4.63l-0.78,0.41c1.26-1.12,2.33-2.39,3.07-3.78c0.73-1.4,1.07-2.92,0.95-4.47
						c-0.1-1.55-0.66-3.11-1.48-4.55c-0.81-1.43-1.94-2.84-3.11-3.91l-0.09-0.09l-20.35-20.93l-0.29-0.3l-0.02-0.39l-1.25-31.6
						l0.01,0.07c-0.29-1.7-0.69-3.4-1.35-4.96c-0.65-1.54-1.64-3.05-3.16-3.61c-1.53-0.56-3.27,0.04-4.71,0.92
						c-1.46,0.9-2.78,2.08-3.92,3.38L1018.49,979.71z"/>
				</g>
			</g>
		</g>
	</g>
	<path id="Path_446_1_" class="st77" d="M2536.08,1428.22h-65.97c-10.15,0.03-18.37,9.87-18.41,22.01l0,0
		c0.03,12.15,8.25,21.99,18.41,22.02h27.63c8.06,0.03,14.58,7.83,14.61,17.47l0,0c-0.02,9.64-6.55,17.45-14.61,17.48H63.19
		c-8.06-0.03-14.58-7.84-14.61-17.48l0,0c0.02-9.64,6.55-17.44,14.61-17.47h26.36c10.15-0.04,18.37-9.87,18.4-22.02l0,0
		c-0.03-12.14-8.25-21.97-18.4-22.01H29.21c-16.11-0.06-29.16-15.67-29.21-34.95l0,0c0.05-19.28,13.1-34.89,29.21-34.95h2506.87
		c16.11,0.06,29.16,15.67,29.21,34.95l0,0C2565.24,1412.54,2552.2,1428.16,2536.08,1428.22z M2537.2,1507.19
		c8.07,0,14.61-7.82,14.61-17.47c0-9.65-6.54-17.47-14.61-17.47c-8.06,0-14.6,7.82-14.61,17.47
		C2522.6,1499.37,2529.13,1507.19,2537.2,1507.19L2537.2,1507.19z"/>
</g>
</svg>
