<?xml version="1.0" encoding="utf-8"?>
<!-- Generator: Adobe Illustrator 25.0.0, SVG Export Plug-In . SVG Version: 6.00 Build 0)  -->
<svg version="1.1" id="Layer_1" xmlns="http://www.w3.org/2000/svg" xmlns:xlink="http://www.w3.org/1999/xlink" x="0px" y="0px"
	 viewBox="0 0 1500 1390.08" style="enable-background:new 0 0 1500 1390.08;" xml:space="preserve">
<style type="text/css">
	.st0{fill:#EE655B;}
	.st1{fill:#64DADD;}
	.st2{fill:#05C4A3;}
	.st3{opacity:0.73;}
	.st4{fill:#D2F4EE;}
	.st5{fill:#FFFFFF;}
	.st6{fill:none;stroke:#000000;stroke-width:5.0725;stroke-miterlimit:10;}
	.st7{fill:#87D3C6;}
	.st8{fill:#F2A8A3;}
	.st9{fill:#EB9E3F;}
	.st10{fill:#F7EDC0;}
	.st11{fill:none;stroke:#05C4A3;stroke-width:9;stroke-linecap:round;stroke-linejoin:round;stroke-miterlimit:10;}
	.st12{fill:#AFF2E5;}
	.st13{fill:#FEAB8D;}
	.st14{fill:#F3937B;}
	.st15{fill:#F49277;}
	.st16{fill:#87E0F4;}
	.st17{opacity:0.3;}
	.st18{fill:#4B91B5;}
	.st19{fill:#383431;}
	.st20{fill:#07A889;}
	.st21{fill:#F7931E;}
	.st22{fill:#F7857C;}
</style>
<g>
	<g>
		<circle class="st12" cx="65.13" cy="609.94" r="63.11"/>
	</g>
	<g>
		<g>
			<path class="st12" d="M1126.22-2.58c0,0,92.85,0,95.4,99.21s-95.4,99.21-95.4,99.21s-54.69,12.72-53.42,61.05
				s29.25,61.05,57.24,61.05c19.98,0,95.06,0,136.39,0c36.17,0,71.9,9.46,102.58,28.62c37.68,23.53,75.84,65.51,77.75,139.28
				c3.82,147.55-109.39,197.15-148.82,202.24c-18.33,2.37-50.14,2.53-78.92,2.03c-52.52-0.91-88.2,54.34-64.25,101.09
				c0.63,1.23,1.29,2.47,1.98,3.72c17.36,31.39,57.3,46.83,91.74,52.01c244.42,36.75,251.47,171.79,251.52,266.63
				c0.1,232.07-147.37,258.83-232.59,272.82c-79.91,13.12-1040.02,1.82-1159.33,0.15C69.4,1386.01,0,1374.12,0,1273.78
				c0-105.58,95.94-104.89,95.94-104.89l169.45,6.78c0,0,65.18,0.9,67.13-48.75c2.15-54.65-61.05-61.05-61.05-61.05l-43.17-4.18
				c-103.1-9.98-180.93-99.34-174.79-202.73c0.13-2.23,3-163.94,163.95-163.94h92.17c0,0,68.69,0.02,68.69-71.79
				c0-34.12-23.37-50.5-42.85-58.24c-10.63-4.22-21.97-6.33-33.4-6.82c-39.29-1.66-220.8-18.14-283.82-180.62
				c-27.29-70.36-23.5-148.96,8.18-217.46c0.55-1.18,1.1-2.37,1.67-3.55C74.6,58.86,174.01-2.58,282.19-2.58L1126.22-2.58z"/>
		</g>
		<g>
			<path class="st5" d="M306.43,86.56c0,0,10.28,0,10.56,6.39c0.25,5.63-26.99,6.3-33.44,6.38c-1.49,0.02-2.98,0.26-4.37,0.81
				c-1.5,0.59-2.97,1.58-2.9,3.13c0.14,3.11,3.24,3.93,6.34,3.93c2.21,0,34.76,0,39.33,0c4,0,7.96,0.61,11.36,1.84
				c4.17,1.52,8.39,4.22,8.61,8.97c0.42,9.5-12.11,12.69-16.47,13.02c-2.03,0.15-5.55,0.16-8.74,0.13c-5.81-0.06-8.71,0.2-8.79,4.39
				c-0.05,2.79,1.03,4.93,12.05,5.71c27.09,1.92,27.84,11.06,27.84,17.17c0.01,14.94-16.31,16.67-25.75,17.57
				c-8.85,0.84-115.12,0.12-128.33,0.01c-4.28-0.03-11.96-0.8-11.96-7.26c0-6.8,10.62-6.75,10.62-6.75l18.76,0.44
				c0,0,7.22,0.06,7.43-3.14c0.24-3.52-6.76-3.93-6.76-3.93l-4.78-0.27c-11.41-0.64-20.03-6.4-19.35-13.05
				c0.01-0.14,0.33-10.56,18.15-10.56h34.68c0,0,7.34,0,7.6-4.39c0.06-1.1-0.55-2.15-1.49-2.72c-1.9-1.16-4.41-1.65-6.95-1.71
				c-4.35-0.11-48.92-1.17-55.9-11.63c-3.02-4.53-2.6-9.59,0.91-14c0.06-0.08,0.12-0.15,0.18-0.23
				c5.15-6.29,16.15-10.25,28.13-10.25H306.43z"/>
		</g>
		<g>
			<path class="st5" d="M1209.76,502.21c0,0-10.28,0-10.56,6.39c-0.25,5.63,26.99,6.3,33.44,6.38c1.49,0.02,2.98,0.26,4.37,0.81
				c1.5,0.59,2.97,1.58,2.9,3.13c-0.14,3.11-3.24,3.93-6.34,3.93c-2.21,0-34.76,0-39.33,0c-4,0-7.96,0.61-11.35,1.84
				c-4.17,1.52-8.39,4.22-8.61,8.97c-0.42,9.5,12.11,12.69,16.47,13.02c2.03,0.15,5.55,0.16,8.74,0.13c5.81-0.06,8.71,0.2,8.79,4.39
				c0.05,2.79-1.03,4.93-12.05,5.71c-27.09,1.92-27.84,11.06-27.84,17.17c-0.01,14.94,16.31,16.67,25.75,17.57
				c8.85,0.84,115.12,0.12,128.33,0.01c4.28-0.03,11.96-0.8,11.96-7.26c0-6.8-10.62-6.75-10.62-6.75l-18.76,0.44
				c0,0-7.22,0.06-7.43-3.14c-0.24-3.52,6.76-3.93,6.76-3.93l4.78-0.27c11.41-0.64,20.03-6.4,19.35-13.05
				c-0.01-0.14-0.33-10.56-18.15-10.56h-34.68c0,0-7.34,0-7.6-4.39c-0.06-1.1,0.55-2.15,1.49-2.72c1.9-1.16,4.41-1.65,6.95-1.71
				c4.35-0.11,48.92-1.17,55.9-11.63c3.02-4.53,2.6-9.59-0.91-14c-0.06-0.08-0.12-0.15-0.18-0.23
				c-5.15-6.29-16.15-10.25-28.13-10.25H1209.76z"/>
		</g>
		<g>
			<g>
				<path class="st13" d="M230.08,808.19v171.03c0,8.36,3.02,16.43,8.51,22.74l219.99,252.91c6.19,7.11,8.31,16.89,5.62,25.92
					l-32.49,109.3l157.06,1.2l8.54-101.29c0.43-5.1,1.95-10.05,4.57-14.45c15.03-25.24,58.22-129.14-176.14-222.5
					c-7.54-3-13.75-8.66-17.41-15.91l-24.28-48.12c-3.21-6.36-3.58-13.78-1.01-20.43l33.29-86.33l-18.54-32.78l-60.08,110.77
					l-3.25-42.29c-0.33-4.3,0.22-8.62,1.61-12.71l24.17-70.79c0,0,3.7-12.94-12.73-22.14c-5.08-2.84-11.52-0.99-14.31,4.12
					l-36.45,66.82c-2.7,4.95-4.22,10.45-4.44,16.07l-1.54,38.38l-21.51-114.16c-2.32-12.31-10.77-22.78-22.56-26.99
					C238.17,793.52,230.08,794.3,230.08,808.19z"/>
			</g>
			<g>
				<path class="st14" d="M408.9,1036.65l-24.28-48.12c-3.21-6.36-3.58-13.78-1.01-20.43l33.29-86.33l-18.54-32.78l-60.08,110.77
					l-3.25-42.29c-0.33-4.3,0.22-8.62,1.61-12.71l24.17-70.79c0,0,3.7-12.94-12.73-22.14c-5.08-2.84-11.52-0.99-14.31,4.12
					l-36.45,66.82c-2.7,4.95-4.22,10.45-4.44,16.07l-1.54,38.38l1.18,31.75c0.04,1.17,0.59,2.26,1.5,2.99l22.28,18
					c0.75,0.61,1.85,0.56,2.51-0.15c2.07-2.22,7.4-6.24,17.77-4.16c5.67,1.14,10.86,3.96,15.22,7.76l64.36,56.11L408.9,1036.65z"/>
			</g>
			<g>
				<path class="st15" d="M322.24,1098.84l-8.51-89.46c-0.17-1.76,2.26-2.39,2.96-0.77c13.52,31.67,60.69,137.77,120.36,222.21
					L322.24,1098.84z"/>
			</g>
		</g>
		<g>
			<g>
				<path class="st13" d="M1262.66,808.19v171.03c0,8.36-3.02,16.43-8.51,22.74l-219.99,252.91c-6.19,7.11-8.31,16.89-5.62,25.92
					l33.24,111.83h-157.7L895.41,1290c-0.43-5.1-1.95-10.05-4.57-14.45c-15.03-25.24-58.22-129.14,176.14-222.5
					c7.54-3,13.75-8.66,17.41-15.91l24.28-48.12c3.21-6.36,3.58-13.78,1.01-20.43l-33.29-86.33l18.54-32.78l60.08,110.77l3.25-42.29
					c0.33-4.3-0.22-8.62-1.61-12.71l-24.17-70.79c0,0-3.7-12.94,12.73-22.14c5.08-2.84,11.52-0.99,14.31,4.12l36.45,66.82
					c2.7,4.95,4.22,10.45,4.44,16.07l1.54,38.38l21.51-114.16c2.32-12.31,10.77-22.78,22.56-26.99
					C1254.56,793.52,1262.66,794.3,1262.66,808.19z"/>
			</g>
			<g>
				<path class="st14" d="M1083.84,1036.65l24.28-48.12c3.21-6.36,3.58-13.78,1.01-20.43l-33.29-86.33l18.54-32.78l60.08,110.77
					l3.25-42.29c0.33-4.3-0.22-8.62-1.61-12.71l-24.17-70.79c0,0-3.7-12.94,12.73-22.14c5.08-2.84,11.52-0.99,14.31,4.12
					l36.45,66.82c2.7,4.95,4.22,10.45,4.44,16.07l1.54,38.38l-1.18,31.75c-0.04,1.17-0.59,2.26-1.5,2.99l-22.28,18
					c-0.75,0.61-1.85,0.56-2.51-0.15c-2.07-2.22-7.4-6.24-17.77-4.16c-5.67,1.14-10.86,3.96-15.22,7.76l-64.36,56.11
					L1083.84,1036.65z"/>
			</g>
			<g>
				<path class="st15" d="M1170.49,1098.84l8.51-89.46c0.17-1.76-2.26-2.39-2.95-0.77c-13.52,31.67-60.69,137.77-120.36,222.21
					L1170.49,1098.84z"/>
			</g>
		</g>
		<g>
			<path class="st16" d="M1128.29,696.25c0,71.52-19.65,138.44-53.84,195.67l-0.02,0.02c-27.14,45.47-63.45,84.82-106.42,115.48
				c-62.55,44.68-139.14,70.98-221.88,70.98c-53.21,0-103.88-10.88-149.9-30.53c-109.29-46.63-192.39-142.73-221.25-260.14
				c-7.19-29.31-11.01-59.97-11.01-91.49c0-16.1,0.99-31.97,2.94-47.56c7.19-58.09,27.45-112.14,57.73-159.13
				c18.2-28.29,40.05-54,64.88-76.52c0-0.02,0-0.02,0.02-0.02c29.6-26.82,63.43-49.07,100.38-65.65
				c47.69-21.39,100.56-33.29,156.21-33.29c95.86,0,183.48,35.3,250.55,93.62c0.25,0.2,0.47,0.41,0.72,0.61
				c70.96,61.96,118.79,149.72,128.89,248.65c0,0,0,0,0,0.02C1127.61,669.91,1128.29,683,1128.29,696.25z"/>
		</g>
		<g>
			<path class="st2" d="M494.46,411.41c0,0-119.04,101.45-125.76,230.66c0,0,22.06,2.18,48.94,66.27c0,0,5.17,28.94,63.57,32.56
				c0,0,19.64,6.72-1.55,51.17c-19.75,41.43-2.69,87.79,42.4,108.97c5.56,2.61,8.34,8.88,6.45,14.73
				c-7.26,22.45-18.89,75.59,20.2,106.62c10.12,8.03,48.5,24.95,48.5,24.95s35.15-59.71,32.85-107.89
				c-0.25-5.25-1.24-10.44-2.5-15.54c-1.97-7.95-3.72-29.03,30.43-35.69c42.38-8.27,57.89-80.63-110.09-105.44
				c0,0-41.35-17.57,51.17-63.57c0,0,42.89-38.6-34.69-36.18c-11.02,0.34-20.11-9.39-18.03-20.22
				c2.33-12.08,17.06-27.59,66.68-41.28c0,0,18.19-12.13-4.85-25.09c-14.35-8.08-31.62-9.2-47.12-3.62
				c-21.45,7.73-55.47,17.79-62.77,7c-10.85-16.02-12.75-33.08,31.1-38.77c0,0,70.94-10.22,15.49-45.49
				c-9.1-5.79-8.49-19.55,1.36-23.95c9.95-4.44,24.36-4.92,43.34,8.96c13.64,9.98,31.94,10.74,46.35,1.91
				c19.65-12.04,43.11-32.96,49.34-66.22c3.68-19.61-13.94-36.72-33.34-32.08c-8.16,1.95-18.26,5.05-30.74,9.77
				c-6.17,2.33-13.1,0.81-17.87-3.75c-9.58-9.17-29.95-20.03-63.35,2.21c-7.19,4.79-16.04,6.43-24.53,4.81L494.46,411.41z"/>
		</g>
		<g>
			<path class="st2" d="M1038.01,449.31c0,0,120.1,123.22,83.86,319.18c0,0-97.85,29.16-74.08,93.26
				c9.51,25.64,3.72,44.41-6.65,57.71c-18.35,23.52-50.94,29.94-78.1,17.58c-17.22-7.83-32.55-21.38-25.35-44.28
				c14.47-46,0-57.37-29.46-79.08c-28.28-20.84-67.04-81.53,44.19-64.57c14.59,2.23,29.61,0.84,43.35-4.55
				c19.69-7.71,38.2-23.11,13.29-52.54c-8.77-10.36-24.2-11.75-34.93-3.45c-18.68,14.44-49.1,31.11-67.66,5.47
				c-4.58-6.33-11.76-10.23-19.53-11.12c-13.05-1.49-29.86-7.3-22.88-28.09c2.02-6.03,1.71-12.58-0.51-18.54
				c-6.49-17.42-12.7-50.18,41.58-33.51c0,0,32.56,22.74,46.52-18.61c9.03-26.76-16.35-27.33-35.39-24.4
				c-13.39,2.06-26.83-3.94-33.83-15.54c-11.03-18.29-20.03-45.42,6.37-64.35c9.59-6.88,21.22-10.31,33.03-10.44
				C947.97,469.17,1013.49,466.6,1038.01,449.31z"/>
		</g>
		<g class="st17">
			<g>
				<path class="st18" d="M1126.69,655.39c0-0.02,0-0.02,0-0.02c-10.14-99.31-58.12-187.41-129.31-249.6
					c-0.25-0.2-0.48-0.41-0.73-0.61c-21.42-18.63-44.77-32.95-69.97-46.5c6.96,5.27,13.59,8.8,20.17,14.53
					c0.25,0.2,0.48,0.41,0.73,0.61c71.19,62.2,119.17,150.29,129.31,249.6c0,0,0,0,0,0.02c1.32,12.96,2,26.1,2,39.41
					c0,71.8-19.71,138.97-54.01,196.42l-0.02,0.02c-27.22,45.65-63.66,85.15-106.76,115.93c-62.75,44.85-139.59,71.25-222.6,71.25
					c-53.38,0-104.22-10.92-150.39-30.64c-10.5-4.48-20.75-9.43-30.75-14.8c24.7,18.67,51.7,34.46,80.54,46.77
					c46.17,19.73,97,30.64,150.39,30.64c83.01,0,159.85-26.4,222.59-71.25c43.1-30.78,79.54-70.28,106.76-115.93l0.02-0.02
					c34.3-57.45,54.02-124.62,54.02-196.42C1128.68,681.49,1128,668.35,1126.69,655.39z"/>
			</g>
		</g>
		<g>
			<g>
				<g>
					<circle class="st19" cx="587.63" cy="635.38" r="45.45"/>
				</g>
				<g>
					<circle class="st5" cx="571.93" cy="619.68" r="15.7"/>
				</g>
			</g>
			<g>
				<g>
					<circle class="st19" cx="898.93" cy="635.38" r="45.45"/>
				</g>
				<g>
					<circle class="st5" cx="883.23" cy="619.68" r="15.7"/>
				</g>
			</g>
		</g>
		<g>
			<path class="st19" d="M966.38,546.04c0.72,0.32,0.43,1.23-0.34,1.07c-8.92-4.74-23.72-11.36-42.96-14.54
				c-13.03-2.15-24.23-2.09-32.65-1.42c-3.92,0.31-8.04-1.43-10.09-4.56c-0.02-0.03-0.05-0.07-0.07-0.1
				c-1.42-2.23-1.9-4.84-1.12-7.31c1.56-4.95,7.58-7.46,13.45-5.61c9.35,2.04,20.52,5.17,32.68,10.07
				C942.87,530.71,956.58,539.09,966.38,546.04z"/>
		</g>
		<g>
			<path class="st19" d="M528.34,546.04c-0.72,0.32-0.43,1.23,0.34,1.07c8.92-4.74,23.72-11.36,42.96-14.54
				c13.03-2.15,24.23-2.09,32.65-1.42c3.92,0.31,8.04-1.43,10.09-4.56c0.02-0.03,0.05-0.07,0.07-0.1c1.42-2.23,1.9-4.84,1.12-7.31
				c-1.56-4.95-7.58-7.46-13.45-5.61c-9.35,2.04-20.52,5.17-32.68,10.07C551.86,530.71,538.14,539.09,528.34,546.04z"/>
		</g>
		<g class="st17">
			<g>
				<ellipse class="st18" cx="746.13" cy="347.22" rx="14.55" ry="7.25"/>
			</g>
		</g>
		<g>
			<path class="st20" d="M746.13,348.05c-3.02,0-5.48-2.45-5.48-5.48V237.97c0-3.02,2.45-5.48,5.48-5.48s5.48,2.45,5.48,5.48v104.61
				C751.6,345.6,749.15,348.05,746.13,348.05z"/>
		</g>
		<g>
			<path class="st20" d="M717.17,226.96c17.42,9.77,23.58,33.15,25.14,40.6c0.29,1.4-0.42,2.68-1.77,3.16
				c-7.17,2.56-30.33,9.5-47.75-0.27c-17.42-9.77-23.58-33.15-25.14-40.6c-0.29-1.4,0.42-2.68,1.77-3.16
				C676.59,224.14,699.76,217.19,717.17,226.96z"/>
		</g>
		<g>
			<path class="st20" d="M780.62,261.63c18.72-6.95,40.53,3.5,47.22,7.14c1.26,0.68,1.77,2.06,1.26,3.4
				c-2.69,7.12-12.41,29.27-31.13,36.21c-18.72,6.95-40.53-3.5-47.22-7.14c-1.26-0.68-1.77-2.06-1.26-3.4
				C752.18,290.72,761.9,268.58,780.62,261.63z"/>
		</g>
		<g>
			<g>
				<path class="st2" d="M1381.93,1195.79H1220.1c-1.51,0-2.74-1.22-2.74-2.74c0-1.51,1.22-2.74,2.74-2.74h161.83
					c1.51,0,2.74,1.22,2.74,2.74C1384.67,1194.56,1383.44,1195.79,1381.93,1195.79z"/>
			</g>
			<g>
				<path class="st2" d="M1305.37,1233.57h-85.27c-1.51,0-2.74-1.22-2.74-2.74s1.22-2.74,2.74-2.74h85.27
					c1.51,0,2.74,1.22,2.74,2.74S1306.89,1233.57,1305.37,1233.57z"/>
			</g>
			<g>
				<path class="st2" d="M1305.29,1271.35h-85.27c-1.51,0-2.74-1.22-2.74-2.74s1.22-2.74,2.74-2.74h85.27
					c1.51,0,2.74,1.22,2.74,2.74S1306.8,1271.35,1305.29,1271.35z"/>
			</g>
			<g>
				<path class="st2" d="M1346.18,1233.57h-21.02c-1.51,0-2.74-1.22-2.74-2.74s1.22-2.74,2.74-2.74h21.02
					c1.51,0,2.74,1.22,2.74,2.74S1347.69,1233.57,1346.18,1233.57z"/>
			</g>
		</g>
		<g>
			<g>
				<path class="st2" d="M277.65,308.16H115.82c-1.51,0-2.74-1.23-2.74-2.74s1.22-2.74,2.74-2.74h161.83c1.51,0,2.74,1.23,2.74,2.74
					S279.17,308.16,277.65,308.16z"/>
			</g>
			<g>
				<path class="st2" d="M201.1,345.94h-85.27c-1.51,0-2.74-1.23-2.74-2.74s1.22-2.74,2.74-2.74h85.27c1.51,0,2.74,1.23,2.74,2.74
					S202.61,345.94,201.1,345.94z"/>
			</g>
			<g>
				<path class="st2" d="M201.01,383.72h-85.27c-1.51,0-2.74-1.23-2.74-2.74s1.22-2.74,2.74-2.74h85.27c1.51,0,2.74,1.23,2.74,2.74
					S202.53,383.72,201.01,383.72z"/>
			</g>
			<g>
				<path class="st2" d="M241.9,345.94h-21.02c-1.51,0-2.74-1.23-2.74-2.74s1.22-2.74,2.74-2.74h21.02c1.51,0,2.74,1.23,2.74,2.74
					S243.41,345.94,241.9,345.94z"/>
			</g>
		</g>
		<g>
			<g>
				<path class="st2" d="M1151.08,58.66H989.25c-1.51,0-2.74-1.23-2.74-2.74c0-1.51,1.22-2.74,2.74-2.74h161.83
					c1.51,0,2.74,1.23,2.74,2.74C1153.82,57.43,1152.59,58.66,1151.08,58.66z"/>
			</g>
			<g>
				<path class="st2" d="M1151.08,96.44h-85.27c-1.51,0-2.74-1.23-2.74-2.74s1.22-2.74,2.74-2.74h85.27c1.51,0,2.74,1.23,2.74,2.74
					S1152.59,96.44,1151.08,96.44z"/>
			</g>
			<g>
				<path class="st2" d="M1151.16,134.22h-85.27c-1.51,0-2.74-1.23-2.74-2.74s1.22-2.74,2.74-2.74h85.27c1.51,0,2.74,1.23,2.74,2.74
					S1152.67,134.22,1151.16,134.22z"/>
			</g>
			<g>
				<path class="st2" d="M1046.03,96.44H1025c-1.51,0-2.74-1.23-2.74-2.74s1.22-2.74,2.74-2.74h21.02c1.51,0,2.74,1.23,2.74,2.74
					S1047.54,96.44,1046.03,96.44z"/>
			</g>
		</g>
		<g>
			<circle class="st5" cx="313.73" cy="1229.19" r="17.74"/>
		</g>
		<g>
			<circle class="st5" cx="994.03" cy="161.72" r="17.74"/>
		</g>
		<g>
			<circle class="st5" cx="1316.68" cy="449.31" r="17.74"/>
		</g>
		<g>
			<circle class="st5" cx="496.62" cy="143.98" r="17.74"/>
		</g>
		<g>
			<circle class="st5" cx="760.68" cy="1162.93" r="17.74"/>
		</g>
		<g>
			<circle class="st5" cx="135.81" cy="823.25" r="17.74"/>
		</g>
		<g>
			<path class="st19" d="M746.32,761.58c38.15,0,70.21,22.9,79.45,53.93c0.4,1.36,2.7,1.11,2.71-0.3c0-0.03,0-0.06,0-0.1
				c0-39.95-36.78-72.33-82.16-72.33s-82.16,32.38-82.16,72.33c0,0.03,0,0.06,0,0.1c0,1.4,2.3,1.66,2.71,0.3
				C676.12,784.48,708.17,761.58,746.32,761.58z"/>
		</g>
		<g>
			<circle class="st5" cx="122.89" cy="1276.27" r="85.9"/>
		</g>
		<g>
			<line class="st2" x1="104.45" y1="1305.56" x2="101.67" y2="1309.29"/>
			<path class="st2" d="M173.39,1274.3c-0.23-0.09-0.46,0.31-0.57,0.55c-0.02,0.05-0.04,0.09-0.06,0.14c0,0.01-0.01,0.02-0.01,0.02
				l0,0c-0.6,1.38-1.02,2.24-1.09,2.4l0,0c-0.88,1.79-2.67,2.85-4.56,2.85c-0.58,0-1.17-0.1-1.75-0.31
				c-0.34-0.12-3.15-1.17-7.1-3.06c-0.01,0-0.01-0.01-0.02-0.01c-1.79-0.83-1.8,1.23-1.8,1.23c-0.01,0.16-0.02,0.31-0.03,0.47
				c-0.02,0.35-0.05,0.69-0.08,1.03c-0.02,0.17-0.03,0.35-0.05,0.52c-0.04,0.34-0.08,0.68-0.13,1.01c-0.02,0.16-0.04,0.31-0.07,0.47
				c-0.07,0.47-0.15,0.94-0.25,1.41c-0.01,0.05-0.02,0.09-0.03,0.14c-0.09,0.43-0.19,0.86-0.29,1.28c-0.04,0.17-0.09,0.33-0.13,0.5
				c-0.08,0.3-0.16,0.6-0.25,0.89c-0.05,0.18-0.11,0.37-0.17,0.55c-0.09,0.28-0.18,0.57-0.28,0.85c-0.06,0.18-0.12,0.35-0.18,0.53
				c-0.13,0.36-0.27,0.71-0.41,1.06c-0.08,0.21-0.17,0.41-0.26,0.61c-0.13,0.29-0.25,0.59-0.39,0.88c-0.09,0.2-0.19,0.4-0.29,0.6
				c-0.11,0.22-0.22,0.44-0.33,0.66c-0.11,0.21-0.22,0.42-0.33,0.63c-0.11,0.2-0.22,0.39-0.33,0.59c-0.12,0.22-0.24,0.43-0.37,0.64
				c-0.1,0.17-0.21,0.34-0.32,0.51c-0.27,0.43-0.55,0.86-0.85,1.29c-0.09,0.13-0.18,0.26-0.27,0.39c-0.17,0.24-0.35,0.48-0.53,0.71
				c-0.1,0.13-0.19,0.25-0.29,0.38c-0.19,0.24-0.38,0.48-0.57,0.71c-0.08,0.1-0.17,0.2-0.25,0.3c-0.98,1.17-2.04,2.27-3.18,3.3
				c-0.05,0.05-0.11,0.1-0.16,0.14c-0.28,0.25-0.56,0.49-0.84,0.73c-0.03,0.03-0.06,0.05-0.09,0.08c-1.25,1.05-2.58,2.01-3.98,2.88
				c-0.01,0-0.02,0.01-0.02,0.01c-1.78,1.1-3.67,2.05-5.65,2.83v-4.45c0-1.5-0.81-2.88-2.13-3.61c-1.31-0.73-2.92-0.69-4.19,0.11
				c-10.56,6.59-18.44,15.31-18.77,15.67c-1.41,1.57-1.41,3.95,0,5.51c0.33,0.37,8.21,9.08,18.77,15.67
				c0.67,0.42,1.43,0.63,2.19,0.63c0.69,0,1.38-0.17,2-0.52c1.31-0.73,2.13-2.11,2.13-3.61v-7.82c1.25-0.31,2.48-0.68,3.69-1.07
				c0.16-0.05,0.33-0.1,0.49-0.16c0.47-0.16,0.93-0.33,1.4-0.5c0.25-0.09,0.5-0.18,0.75-0.28c0.44-0.17,0.87-0.35,1.3-0.53
				c0.27-0.11,0.53-0.22,0.79-0.34c0.42-0.18,0.84-0.38,1.25-0.57c0.26-0.12,0.53-0.25,0.79-0.38c0.41-0.2,0.82-0.4,1.22-0.62
				c0.25-0.13,0.51-0.27,0.76-0.41c0.4-0.22,0.81-0.44,1.21-0.67c0.23-0.13,0.45-0.27,0.67-0.4c1.4-0.84,2.76-1.74,4.06-2.7
				c0.23-0.17,0.46-0.33,0.68-0.5c0.34-0.26,0.67-0.52,1-0.79c0.25-0.2,0.5-0.4,0.75-0.6c0.32-0.26,0.63-0.53,0.94-0.8
				c0.25-0.22,0.5-0.44,0.75-0.67c0.3-0.27,0.59-0.54,0.88-0.82c0.25-0.24,0.5-0.48,0.74-0.72c0.28-0.28,0.56-0.55,0.83-0.83
				c0.25-0.26,0.49-0.52,0.74-0.78c0.26-0.28,0.52-0.55,0.77-0.84c0.26-0.29,0.51-0.6,0.77-0.9c0.22-0.26,0.45-0.52,0.67-0.79
				c0.44-0.55,0.88-1.1,1.3-1.67c0.19-0.26,0.37-0.52,0.56-0.78c0.25-0.35,0.5-0.69,0.74-1.04c0.19-0.28,0.37-0.56,0.55-0.85
				c0.22-0.34,0.44-0.68,0.66-1.03c0.18-0.29,0.35-0.58,0.52-0.88c0.21-0.35,0.41-0.71,0.61-1.06c0.16-0.29,0.32-0.59,0.48-0.89
				c0.2-0.37,0.39-0.75,0.57-1.12c0.14-0.29,0.29-0.58,0.43-0.87c0.19-0.41,0.38-0.83,0.56-1.24c0.12-0.27,0.24-0.53,0.35-0.8
				c0.23-0.54,0.44-1.09,0.65-1.65c0.06-0.15,0.12-0.29,0.17-0.44c0.25-0.7,0.49-1.4,0.71-2.11c0.07-0.23,0.14-0.47,0.21-0.71
				c0.15-0.49,0.29-0.98,0.42-1.48c0.07-0.28,0.14-0.57,0.21-0.86c0.11-0.45,0.22-0.91,0.32-1.37c0.06-0.3,0.12-0.61,0.18-0.91
				c0.09-0.45,0.17-0.91,0.24-1.37c0.05-0.31,0.1-0.61,0.14-0.92c0.07-0.47,0.13-0.94,0.18-1.42c0.03-0.3,0.07-0.59,0.1-0.89
				c0.05-0.52,0.09-1.04,0.12-1.57c0.02-0.25,0.04-0.51,0.05-0.76c0.04-0.78,0.06-1.57,0.06-2.36c0,0,0,0,0,0l0,0
				c0-0.59-0.02-1.18-0.04-1.77C173.7,1274.5,173.61,1274.39,173.39,1274.3z"/>
			<path class="st2" d="M100.49,1303.21l0.01-0.01c-8.23-6.14-13.54-15.76-13.54-26.58c0-1.67,0.13-3.32,0.37-4.93l2.93,1.98
				c1.23,0.83,2.83,0.95,4.18,0.32c0.64-0.3,1.18-0.75,1.57-1.3c0.44-0.6,0.7-1.32,0.74-2.08c0.65-12.01-1.98-23.07-2.09-23.54
				c-0.48-1.98-2.43-3.3-4.52-3.05c-0.49,0.06-12.15,1.47-23.6,6.18c-1.38,0.57-2.33,1.81-2.49,3.26c-0.16,1.44,0.51,2.85,1.74,3.68
				l6.3,4.26c-1.58,4.8-2.44,9.92-2.44,15.23c0,15.99,7.74,30.22,19.79,39.44c1.53,1.33,3.55,2.14,5.77,2.14
				c4.78,0,8.66-3.74,8.66-8.36C103.87,1307.13,102.54,1304.74,100.49,1303.21z"/>
			<path class="st2" d="M176.13,1246.22c-0.26-0.64-0.67-1.21-1.23-1.66c-1.16-0.95-2.75-1.19-4.14-0.63l-7.14,2.87
				c-9.48-12.42-24.71-20.48-41.91-20.48c-12.98,0-24.84,4.59-33.95,12.18c-0.05,0.04-0.09,0.07-0.13,0.11
				c-0.04,0.03-0.08,0.07-0.12,0.1c-0.23,0.21-0.31,0.37-0.26,0.67c0.07,0.41,0.86,0.3,0.86,0.3l0,0c2.36-0.42,3.9-0.61,4.16-0.64
				c3.23-0.37,6.22,1.66,6.97,4.75c0.05,0.2,0.31,1.3,0.64,3.08c0,0,0,0,0,0.01c0.7,3.31,2.66,1.75,2.66,1.75l0,0.01
				c5.49-3.53,12.08-5.6,19.17-5.6c9.92,0,18.87,4.02,25.2,10.47l-3.86,1.55c-1.39,0.56-2.37,1.83-2.56,3.32
				c-0.19,1.49,0.45,2.96,1.66,3.85c10.06,7.34,21.08,11.4,21.54,11.56c1.98,0.72,4.19-0.17,5.12-2.06c0.22-0.44,5.36-11,7.54-23.26
				C176.5,1247.71,176.42,1246.92,176.13,1246.22z"/>
		</g>
	</g>
	<g>
		<circle class="st12" cx="1397.27" cy="101.88" r="100.7"/>
	</g>
</g>
</svg>
