<svg id="Layer_1" data-name="Layer 1" xmlns="http://www.w3.org/2000/svg" viewBox="0 0 2566.83 1507.19"><defs><style>.cls-1{fill:#d1ebf3;}.cls-2{fill:#e0f8f8;}.cls-10,.cls-11,.cls-27,.cls-3,.cls-9{fill:#fff;}.cls-22,.cls-3,.cls-4,.cls-5{opacity:0.5;}.cls-4{fill:#a4d8cf;}.cls-5{fill:#d7ece7;}.cls-6{fill:#e99c3f;}.cls-7{fill:#079c80;}.cls-8{fill:#05c4a3;}.cls-11,.cls-9{font-size:41px;font-family:Lato-Bold, Lato;font-weight:700;}.cls-12,.cls-9{letter-spacing:0.16em;}.cls-11{letter-spacing:0.14em;}.cls-13{fill:#f5cdb0;}.cls-14{fill:#f0c6ab;}.cls-15{fill:#deb9a0;}.cls-16,.cls-28,.cls-30,.cls-33{fill:none;stroke-miterlimit:10;}.cls-16,.cls-28{stroke:#383431;stroke-linecap:round;}.cls-16{stroke-width:8.2px;}.cls-17{fill:#e1626e;}.cls-18{fill:#383431;}.cls-19{fill:#ecb9b0;}.cls-20{fill:#232323;}.cls-21{fill:#f0c2a3;}.cls-22{fill:#b1dfe8;}.cls-23{fill:#ec655b;}.cls-24{fill:#f0a6a1;}.cls-25{fill:#e09c9a;}.cls-26{fill:#efedfa;}.cls-27{opacity:0.9;}.cls-28{stroke-width:3.08px;}.cls-29{fill:#f5ebbe;}.cls-30{stroke:#ded5b1;}.cls-30,.cls-33{stroke-width:4.1px;}.cls-31{fill:#ded5b1;}.cls-32{fill:#e8e8e8;}.cls-33{stroke:#3a3a3a;}.cls-34{fill:#06c2a1;fill-rule:evenodd;}</style></defs><path class="cls-1" d="M378.62,5.44s-275.09,7.62-286.9,283C82.52,502.87,251.56,573.34,326.88,594a282.47,282.47,0,0,0,46.82,8.42c24.2,2.41,78,13.53,78,64.6,0,60.41-75.22,58.65-87.76,57.94-1.32-.08-2.63-.12-4-.12l-108.12.23c-40.84.09-80.9,13.36-112.54,39.19-25.65,20.93-47.94,51.44-47.94,94.24,0,100.71,66.33,154.59,114.75,154.8,34,.15,166.61,6.84,154.79,147.34-4.67,55.61,21.82,100.1,55.54,133.55,50.13,49.73,118.69,76.42,189.3,76.42H2189.26s284.73-3.58,294.68-301.36c0,0,15.56-273.48-323.21-293.79-24-1.44-45.77-15.68-55.09-37.84a76.82,76.82,0,0,1-2.7-7.47,64.15,64.15,0,0,1,5.34-49.68c6.59-11.88,17-24,31.87-24h203.21c31.26,0,62.21-8.06,88.67-24.71,32.1-20.19,64.2-56.32,66.12-120.28.1-3.36.24-6.72.51-10.07,1.58-19.53,2.81-105-93.15-130.36a177.62,177.62,0,0,0-45.35-5.52H2199a64,64,0,0,1-7.94-.49c-22.49-2.8-113.5-21.07-120.79-133.26-1.8-27.67-7.45-55-18.62-80.4-22.91-52.1-73.28-121.29-181.35-137.1C1691.92-11.81,378.62,5.44,378.62,5.44Z"/><path class="cls-2" d="M353.51,25.1s-275.09,7.61-286.9,283C57.41,522.53,226.45,593,301.77,613.7a282.45,282.45,0,0,0,46.82,8.41c24.2,2.42,78,13.54,78,64.61,0,60.41-75.22,58.65-87.76,57.94-1.32-.08-2.63-.12-3.95-.12l-108.12.23c-40.84.09-80.9,13.36-112.54,39.19-25.65,20.93-47.94,51.43-47.94,94.24,0,100.71,66.33,154.58,114.75,154.79,34,.15,166.61,6.84,154.79,147.34-4.67,55.62,21.82,100.1,55.54,133.56,50.13,49.73,118.69,76.41,189.3,76.41H2164.15s284.73-3.57,294.68-301.35c0,0,15.56-273.48-323.21-293.79-24-1.44-45.77-15.69-55.09-37.84a78,78,0,0,1-2.7-7.48,64.14,64.14,0,0,1,5.34-49.67c6.59-11.89,17-24,31.87-24h203.21c31.26,0,62.21-8.07,88.67-24.71,32.1-20.2,64.2-56.32,66.12-120.28.1-3.36.24-6.72.51-10.07,1.58-19.53,2.81-105-93.15-130.36a177.19,177.19,0,0,0-45.35-5.53H2173.93a64,64,0,0,1-7.94-.48c-22.49-2.81-113.5-21.07-120.79-133.27-1.8-27.67-7.45-55-18.62-80.4C2003.67,119,1953.3,49.77,1845.23,34,1666.81,7.84,353.51,25.1,353.51,25.1Z"/><path class="cls-3" d="M1717.51,733.78c-28.23,1.31-59.7-5.9-94.52-25.4-28.36-15.89,36.47-174.72-2.54-272.15-28.63-71.5-104-87.43-168.07-87.4s-136.52,3-182.1-53.2c-4.15-5.12-8.07-10.84-9.87-17.76-2.53-9.7-.51-20.39,2.85-29.69,19.33-53.42,73.78-67.66,120.43-75.06,31.46-5,82.28-13.07,126.56-20.17a119.36,119.36,0,0,0,99.41-102c2.52-18.8,4.1-35.73,3.31-51.07H1354.43c-.76.72-1.5,1.45-2.27,2.15-43.56,39.66-101.84,39.49-155.78,39.17A2989.94,2989.94,0,0,0,661.62,86.25c-34,6-68.89,12.92-98.61,34.43s-53.51,61-51.48,103.77c2.29,48.42,35.91,85.82,71.18,106.32s74.45,30,108.19,54.21c14.12,10.12,28.56,26.61,26.73,46.79C716,450.2,701.76,462,690.56,474.19c-28.84,31.45-43.66,81.72-38,129,157,79.06,332.62,61.42,501.89,65.65,48.32,1.21,98.93,5.14,140.21,36.47,13.62,10.33,26.61,25,29.79,44.45,2.32,14.2-1,28.86-4.91,42.49-25.55,87.71-82.4,170.13-67.82,261.65,15.78,99,105.49,147,184.31,170.27,39.27,11.6,268.37,74.36,369.39,99.35C1745.88,1104.33,1724.79,888.26,1717.51,733.78Z"/><path class="cls-4" d="M282.27,1331.54a106.58,106.58,0,0,1-19.32-30c-24.7-58,5.55-132.41,67.89-149.5,39.59-10.85,85.06,4.54,109.93,37.2,11.79,15.49,19.07,34.08,31.23,49.29,52.08,65.09,92.91-12.67,54.85-66a716.35,716.35,0,0,0-76.52-90.27c-32.92-32.87-72.12-69.73-68.6-116.11,3.28-43.38,42.83-73.77,79.1-97.79,37.49-24.84,77.18-49.84,121.9-54.55,181.5-19.12,125.21,282.77,141,386.09,13.63,89.18,74,107.5,135.12,37.27,42.57-48.92-13.69-82.24-.28-134.21,5-19.57,19.71-35.14,35.14-48.18,30.54-25.83,67.65-45.84,107.6-48.35,69.44-4.36,115.3,53.45,125.1,117.89,5.93,39.05-25.19,166.94,16.77,184.1,15.7,6.43,33.45,3.37,50.25,1,96.33-13.59,204.06,3.38,270.79,74.18-122.08-6-247.3,3.14-369.78,3.14-221.65,0-448.42,15-669.39.27C376,1383.79,316.61,1369.34,282.27,1331.54Z"/><path class="cls-5" d="M195.4,1329.73a106.46,106.46,0,0,1-19.31-30c-24.7-58,5.55-132.4,67.88-149.49,39.6-10.85,85.07,4.54,109.94,37.2,11.79,15.49,19.06,34.08,31.23,49.28,52.08,65.1,92.91-12.66,54.85-66a715.64,715.64,0,0,0-76.52-90.27c-32.92-32.87-72.12-69.73-68.61-116.11,3.29-43.38,42.84-73.77,79.1-97.8,37.5-24.83,77.18-49.84,121.91-54.55,181.5-19.11,125.2,282.78,141,386.1,13.63,89.18,74,107.49,135.11,37.27,42.58-48.93-13.68-82.24-.28-134.21,5-19.57,19.71-35.14,35.14-48.19,30.54-25.82,67.66-45.83,107.61-48.35,69.44-4.35,115.3,53.45,125.1,117.9,5.93,39-25.19,166.94,16.77,184.1,15.7,6.43,33.44,3.37,50.25,1,96.33-13.59,204.06,3.38,270.78,74.18-122.07-6-247.3,3.14-369.77,3.14-221.65,0-448.43,15-669.39.27C289.1,1382,229.74,1367.53,195.4,1329.73Z"/><path class="cls-4" d="M2292,1318.31a95.43,95.43,0,0,0,16.75-27.29c21-52.57-7.54-118.71-63.81-132.84-35.74-9-76.24,5.72-97.93,35.51-10.28,14.13-16.45,31-27.07,44.83-45.48,59.42-83.63-9.57-50.5-58.12a643.1,643.1,0,0,1,66.92-82.49c28.9-30.13,63.37-64,59.32-105.52-3.79-38.87-39.86-65.37-72.87-86.23-34.13-21.56-70.23-43.23-110.46-46.59-163.24-13.65-106.88,256.17-119,349.19-10.51,80.3-64.34,97.9-120.53,36.06-39.15-43.08,10.7-74.06-2.34-120.44-4.91-17.46-18.37-31.15-32.47-42.56-27.9-22.58-61.59-39.82-97.49-41.31-62.4-2.56-102.44,50.2-110,108.21-4.57,35.16,25.83,149.33-11.49,165.54-14,6.07-30,3.67-45.08,1.86-86.71-10.33-183.05,7-241.56,71.81,109.43-7.78,222-2,331.89-4.33,198.9-4.29,402.69,4.79,600.7-12.7C2208.92,1367,2261.9,1352.9,2292,1318.31Z"/><path class="cls-5" d="M2369.9,1318.31a95.43,95.43,0,0,0,16.75-27.29c21-52.57-7.53-118.71-63.81-132.84-35.74-9-76.24,5.72-97.93,35.51-10.28,14.13-16.45,31-27.07,44.83-45.48,59.42-83.62-9.57-50.5-58.12a642.32,642.32,0,0,1,66.93-82.49c28.9-30.13,63.36-64,59.31-105.52-3.79-38.87-39.86-65.37-72.87-86.23-34.13-21.56-70.22-43.23-110.45-46.59-163.24-13.65-106.89,256.17-119.06,349.19-10.5,80.3-64.33,97.9-120.52,36.06-39.16-43.08,10.69-74.06-2.35-120.44-4.91-17.46-18.37-31.15-32.46-42.56-27.91-22.58-61.6-39.82-97.5-41.31-62.4-2.56-102.44,50.2-110,108.21-4.57,35.16,25.83,149.33-11.49,165.54-14,6.07-30,3.67-45.07,1.86-86.71-10.33-198.47,6.07-257,70.89,109.43-7.78,237.39-1,347.3-3.41,198.9-4.29,402.7,4.79,600.7-12.7C2286.83,1367,2339.82,1352.9,2369.9,1318.31Z"/><path d="M1548.45,1043.15v332.46H1381.68l-19.09-137.82c-.64-4.6-5.51-4.56-6.11,0l-17.85,137.77H1171.9V1043.15h209.78l-.17,1.38Z"/><path class="cls-6" d="M1610.18,773.09l-65.29,21.25,3.55,246.8c-76.47,64.19-274.26,30.57-376.52,7.35,0,0-.15-132.83-.22-257.81L1112.78,771c-16.45-10.22,10.27-157.5,20.59-186.77,15.8-44.71,148.89-57.13,148.89-57.13l-.15.51c5-.48,7.94-.51,7.94-.51l147.18-.44s2.93.22,7.9,1a.47.47,0,0,1,.18,0c24.41,2.79,125.58,23.33,139.5,62.81C1595.13,619.7,1626.66,762.87,1610.18,773.09Z"/><path class="cls-7" d="M1112.8,706.08l14,267.68a15.11,15.11,0,0,0,15.1,14.33h430.93a15.11,15.11,0,0,0,15.09-14.23l15.75-267.68a15.12,15.12,0,0,0-15.09-16H1127.9A15.12,15.12,0,0,0,1112.8,706.08Z"/><path class="cls-8" d="M1128,721l13,237.89c.44,8,7.36,14.33,15.75,14.33h401.38c8.34,0,15.24-6.24,15.73-14.23l14.59-237.89c.54-8.69-6.66-16-15.73-16H1143.77C1134.74,705.07,1127.55,712.33,1128,721Z"/><text class="cls-9" transform="translate(1294.65 762.28)">LET’S </text><line class="cls-10" x1="1346" y1="857.65" x2="1343.84" y2="860.55"/><path class="cls-10" d="M1399.69,833.31c-.18-.08-.36.24-.44.43l0,.11h0c-.47,1.08-.79,1.74-.85,1.87h0a4,4,0,0,1-3.55,2.22,3.84,3.84,0,0,1-1.36-.25c-.27-.09-2.46-.91-5.53-2.38h0c-1.39-.65-1.41,1-1.41,1s0,.24,0,.36,0,.54-.06.81,0,.27,0,.4-.06.53-.1.79,0,.24,0,.36c0,.37-.12.74-.19,1.1a.43.43,0,0,0,0,.11c-.07.34-.15.67-.23,1,0,.13-.07.26-.1.39s-.13.47-.2.7-.08.28-.13.43-.14.44-.22.66-.09.27-.14.41-.21.55-.32.82-.13.32-.2.48l-.3.68c-.07.16-.15.31-.23.47s-.16.34-.25.51l-.26.49-.26.46c-.1.17-.19.34-.29.5s-.17.26-.25.4c-.21.34-.43.67-.66,1l-.21.3c-.13.19-.27.37-.41.56l-.22.29-.44.56c-.07.08-.14.15-.2.23a28.64,28.64,0,0,1-2.47,2.58.69.69,0,0,0-.13.11l-.65.57-.08.06a27.79,27.79,0,0,1-3.1,2.24h0a26.68,26.68,0,0,1-4.41,2.2v-3.46a3.22,3.22,0,0,0-4.92-2.73,75.8,75.8,0,0,0-14.61,12.21,3.2,3.2,0,0,0,0,4.29,75.8,75.8,0,0,0,14.61,12.21,3.2,3.2,0,0,0,3.27.08,3.2,3.2,0,0,0,1.65-2.81V873c1-.25,1.93-.53,2.88-.84l.38-.12,1.09-.39.58-.22q.51-.19,1-.42l.61-.26,1-.44.61-.3c.32-.15.64-.31,1-.48l.59-.32.94-.52.53-.31c1.09-.66,2.14-1.36,3.16-2.1l.53-.39c.27-.2.52-.41.78-.62s.39-.31.58-.47.49-.41.73-.62.4-.34.59-.52l.68-.63.58-.57c.22-.21.44-.42.65-.64l.57-.61c.2-.22.41-.43.6-.65s.4-.47.6-.7l.52-.62c.34-.42.68-.86,1-1.3.15-.19.29-.4.43-.6s.39-.54.57-.81l.44-.66.51-.8.41-.69.47-.82.38-.69c.15-.29.3-.59.44-.88s.23-.45.33-.68.3-.64.44-1,.19-.42.27-.63c.18-.42.35-.85.51-1.28l.13-.34c.2-.54.38-1.09.56-1.65,0-.18.1-.36.16-.55.11-.38.22-.76.32-1.15.06-.22.11-.44.17-.67s.17-.7.25-1.06.09-.47.14-.71.13-.71.19-1.06.07-.48.11-.72.1-.74.14-1.11,0-.46.08-.69c0-.41.06-.81.09-1.22,0-.2,0-.4,0-.6,0-.6,0-1.22,0-1.83h0c0-.46,0-.92,0-1.38C1399.93,833.46,1399.86,833.38,1399.69,833.31Z"/><path class="cls-10" d="M1342.92,855.82h0a25.8,25.8,0,0,1-10.55-20.7,24.27,24.27,0,0,1,.3-3.84l2.27,1.54a3.3,3.3,0,0,0,3.26.24,3.09,3.09,0,0,0,1.22-1,3,3,0,0,0,.58-1.62,71.74,71.74,0,0,0-1.63-18.33,3.2,3.2,0,0,0-3.52-2.37,77.77,77.77,0,0,0-18.38,4.81,3.1,3.1,0,0,0-1.94,2.54,3.05,3.05,0,0,0,1.36,2.86l4.91,3.32a37.59,37.59,0,0,0-1.91,11.86,38.61,38.61,0,0,0,15.41,30.71,6.89,6.89,0,0,0,4.5,1.67,6.63,6.63,0,0,0,6.74-6.52A6.43,6.43,0,0,0,1342.92,855.82Z"/><path class="cls-10" d="M1401.82,811.44a3.2,3.2,0,0,0-4.18-1.79l-5.56,2.24a41.46,41.46,0,0,0-59.08-6.46.39.39,0,0,1-.1.08l-.09.08a.54.54,0,0,0-.2.53c.05.32.67.23.67.23h0c1.84-.32,3-.47,3.24-.5a5,5,0,0,1,5.43,3.7c0,.16.24,1,.5,2.4h0c.54,2.58,2.07,1.37,2.07,1.37h0a27.7,27.7,0,0,1,34.55,3.8l-3,1.21a3.18,3.18,0,0,0-2,2.58,3.22,3.22,0,0,0,1.29,3,76,76,0,0,0,16.78,9,3.19,3.19,0,0,0,4-1.6A76,76,0,0,0,1402,813.2,3.18,3.18,0,0,0,1401.82,811.44Z"/><text class="cls-11" transform="translate(1225.82 945.05)">T<tspan class="cls-12" x="30.18" y="0">OGETHER</tspan></text><path class="cls-13" d="M1114.92,744.43,1117,786l41.88,12.47s15.28,3.45,8.75,14.58c0,0,17.31,4.33,6.09,15.63,0,0,3.27,7.95-4.77,9.81l-24.65,10.33s.94,4.67-2.29,6.76c-9,5.85-11.36,4.51-13.3,4.33l-18.79-1.61a12.78,12.78,0,0,1-10.54-7.05c-1.12-2.35-1.42-4.92.66-6.93,0,0-22.26-16.08-16.43-24.91,0,0-14.93-11-3.71-26.24,0,0-10.16-11,.8-19.08Z"/><path class="cls-14" d="M1085.17,819.23c7.54.45,15.08,1,22.61,1.51l22.59,1.7c7.53.6,15.09.84,22.57,1.91,3.74.53,7.48,1.08,11.2,1.77s7.45,1.42,11.14,2.39l0,.41c-3.82.19-7.61.17-11.39.07s-7.56-.31-11.33-.56c-7.54-.47-15-1.77-22.48-2.72l-22.47-2.93c-7.48-1-15-2-22.44-3.14Z"/><path class="cls-14" d="M1101.6,844.15c3.73,0,7.44.2,11.15.31l5.57.22,5.56.29c1.85.1,3.71.13,5.57.18a39.37,39.37,0,0,1,5.53.54c1.84.31,3.66.68,5.48,1.17a36.72,36.72,0,0,1,5.4,1.79l0,.41a36.69,36.69,0,0,1-5.66.67c-1.87.11-3.73.1-5.59,0a41,41,0,0,1-5.53-.59c-1.83-.32-3.66-.67-5.49-.95l-5.51-.83-5.5-.9c-3.66-.65-7.32-1.25-11-2Z"/><path class="cls-14" d="M1114.68,744.58a7.23,7.23,0,0,1-2.29,3.61c-1,.95-2,1.91-3,2.83-2,1.86-4.11,3.65-6.18,5.46-4.21,3.53-8.22,7.3-12.2,11.09l-5.93,5.74-1.48,1.44c-.52.5-.94.86-1.37,1.36a16.07,16.07,0,0,0-2.22,3,9.58,9.58,0,0,0-1.27,6.84,11.6,11.6,0,0,0,3.86,5.93l-.78-.41,22,4.63c7.33,1.55,14.63,3.25,21.91,5,14.56,3.59,29.08,7.34,43.47,11.69l-.09.4c-14.86-2.28-29.58-5.15-44.26-8.19-7.34-1.53-14.66-3.14-21.95-4.9l-21.85-5.31-.47-.11-.31-.3a14.9,14.9,0,0,1-4.69-7.83,11.63,11.63,0,0,1,.11-4.74,14.91,14.91,0,0,1,1.74-4.23,19.45,19.45,0,0,1,2.72-3.52,21.66,21.66,0,0,1,1.61-1.48l1.55-1.36,6.21-5.41c4.1-3.64,8.19-7.31,12.07-11.21,2-1.91,3.92-3.84,6-5.7,1-.93,2-1.83,3.07-2.74a7.1,7.1,0,0,1,3.78-2Z"/><path class="cls-13" d="M1600.09,744.43,1598,786l-41.88,12.47s-15.28,3.45-8.74,14.58c0,0-17.32,4.33-6.1,15.63,0,0-3.27,7.95,4.77,9.81l24.65,10.33s-.94,4.67,2.29,6.76c9,5.85,11.36,4.51,13.3,4.33l18.79-1.61a12.78,12.78,0,0,0,10.54-7.05c1.12-2.35,1.42-4.92-.66-6.93,0,0,22.26-16.08,16.43-24.91,0,0,14.93-11,3.71-26.24,0,0,10.16-11-.8-19.08Z"/><path class="cls-14" d="M1629.88,819.64c-7.48,1.1-15,2.09-22.44,3.14L1585,825.71c-7.49.95-14.94,2.25-22.48,2.72-3.77.25-7.54.47-11.33.56s-7.57.12-11.39-.07l0-.41c3.69-1,7.41-1.72,11.14-2.39s7.46-1.24,11.2-1.77c7.48-1.07,15-1.31,22.57-1.91l22.59-1.7c7.53-.5,15.07-1.06,22.61-1.51Z"/><path class="cls-14" d="M1613.45,844.55c-3.66.7-7.32,1.3-11,2l-5.5.9-5.51.83c-1.83.28-3.66.63-5.49.95a41,41,0,0,1-5.53.59c-1.86.06-3.72.07-5.59,0a36.69,36.69,0,0,1-5.66-.67l0-.41a36.45,36.45,0,0,1,5.41-1.79c1.81-.49,3.63-.86,5.47-1.17a39.37,39.37,0,0,1,5.53-.54c1.86,0,3.72-.08,5.57-.18l5.56-.29,5.57-.22c3.72-.11,7.43-.27,11.15-.31Z"/><path class="cls-14" d="M1600.61,744.28a7.1,7.1,0,0,1,3.78,2c1,.91,2.07,1.81,3.07,2.74,2,1.86,4,3.79,6,5.7,3.88,3.9,8,7.57,12.07,11.21l6.21,5.41,1.55,1.36a21.66,21.66,0,0,1,1.61,1.48,19.45,19.45,0,0,1,2.72,3.52,14.93,14.93,0,0,1,1.75,4.23,11.81,11.81,0,0,1,.1,4.74,14.9,14.9,0,0,1-4.69,7.83l-.31.3-.47.11-21.85,5.31c-7.29,1.76-14.61,3.37-21.95,4.9-14.68,3-29.4,5.91-44.26,8.19l-.09-.4c14.39-4.35,28.91-8.1,43.47-11.69,7.28-1.79,14.58-3.49,21.91-5l22-4.63-.78.41a11.6,11.6,0,0,0,3.86-5.93,9.58,9.58,0,0,0-1.27-6.84,16.07,16.07,0,0,0-2.22-3c-.43-.5-.85-.86-1.37-1.36l-1.48-1.44-5.93-5.74c-4-3.79-8-7.56-12.2-11.09-2.07-1.81-4.16-3.6-6.18-5.46-1-.92-2-1.88-3-2.83a7.23,7.23,0,0,1-2.29-3.61Z"/><path class="cls-13" d="M1311.44,464l-9.88,42.88s-6,47.45,56.91,47.45,62.74-47.45,62.74-47.45L1408.72,464Z"/><path class="cls-10" d="M1440.1,526.63a.58.58,0,0,1,.17.48c-.65,5.13-10.53,83.08-16.45,96.6-5.82,13.2-57.17-23.12-63-27.3a.6.6,0,0,0-.73,0c-5.91,4.36-55.6,40.42-61.37,27.26-6-13.52-15.84-91.46-16.48-96.6a.58.58,0,0,1,.16-.48l19.15-19.69c.27-.29,58.43,88.15,58.43,88.15a.64.64,0,0,0,1,0l60.2-88.16C1421.45,506.58,1440.1,526.63,1440.1,526.63Z"/><path class="cls-15" d="M1312.88,470.3h96.76S1361.08,516.56,1312.88,470.3Z"/><ellipse class="cls-13" cx="1359.74" cy="363.58" rx="102.91" ry="120.05"/><path class="cls-16" d="M1296.11,326a32.34,32.34,0,0,1,18.2-4.44,31.9,31.9,0,0,1,15,4.74"/><path d="M1342.77,423.31h33.95a5.19,5.19,0,0,1,5.19,5.19v0a22.17,22.17,0,0,1-22.17,22.17h0a22.17,22.17,0,0,1-22.17-22.17v0A5.19,5.19,0,0,1,1342.77,423.31Z"/><path class="cls-10" d="M1347.16,423.31H1373a0,0,0,0,1,0,0v5.89a.89.89,0,0,1-.89.89H1348a.89.89,0,0,1-.89-.89v-5.89a0,0,0,0,1,0,0Z"/><path class="cls-17" d="M1342.34,442.74a22.64,22.64,0,0,0,17.58,7.92c11.39-.19,16.95-7.61,16.95-7.61a45,45,0,0,0-16.92-3.53,45.59,45.59,0,0,0-17.47,3.16"/><ellipse class="cls-18" cx="1312.71" cy="346.94" rx="12.91" ry="12.14"/><path class="cls-16" d="M1393.87,326a49.42,49.42,0,0,1,18.18-2.62,47.65,47.65,0,0,1,15,2.93"/><ellipse class="cls-18" cx="1410.48" cy="346.94" rx="12.91" ry="12.14"/><ellipse class="cls-19" cx="1295.63" cy="390.38" rx="17.09" ry="16.07"/><ellipse class="cls-19" cx="1424.08" cy="390.38" rx="17.09" ry="16.07"/><path class="cls-19" d="M1362.25,383.21a189.7,189.7,0,0,1,8.6,22,4.05,4.05,0,0,1-3.83,5.13,22.27,22.27,0,0,1-10.38-1.68"/><path class="cls-20" d="M1282.65,316.65a17.76,17.76,0,0,1-16.28,18l-9.1,34.94-14-10.46-8.54-74.85,37.27,3.14-1.44,12.13A17.91,17.91,0,0,1,1282.65,316.65Z"/><path class="cls-20" d="M1487.86,284.24l-13.09,78.42-12.36,9.2-6.3-37.62a18.19,18.19,0,0,1-4-33.72l-1.57-13.14Z"/><path d="M1500.94,266.7c0,25.62-22.56,46.35-50.36,46.35-17.51,0-32.93-8.2-41.94-20.7a138.89,138.89,0,0,1-50,9,142.73,142.73,0,0,1-39.87-5.55,62.65,62.65,0,0,1-36.09,11.1c-31.37,0-56.83-21.83-56.83-48.78,0-20.56,14.86-38.18,35.86-45.34,12.58-28.21,51.21-48.73,96.93-48.73,50,0,91.56,24.61,99.74,56.9C1482.45,224.35,1500.94,243.56,1500.94,266.7Z"/><path class="cls-21" d="M1261.3,354.08c-4.18-4.92-9.13-7.46-13.63-6.3-8.24,2.12-12,15.75-8.1,30.36,6.06,22.57,22.15,22.58,22.27,22.54C1254.88,376.22,1261.29,354.11,1261.3,354.08Z"/><path class="cls-21" d="M1459.53,354.66c4.3-4.81,8.86-6.73,13.34-5.46,8.18,2.33,11.62,16.06,7.32,30.56-6.63,22.41-22.71,22-22.84,22A105.46,105.46,0,0,0,1459.53,354.66Z"/><path class="cls-22" d="M2051.69,596.17A29.81,29.81,0,0,1,2088.24,574,43.87,43.87,0,0,1,2141,550.72a54.06,54.06,0,0,1,97.11,9.44,37.08,37.08,0,0,1,55.11,32.41,35.86,35.86,0,0,1-.18,3.6Z"/><path d="M2103.84,1104.1v320.84H1944.71l-18.22-133c-.61-4.44-5.25-4.4-5.82,0l-17,133h-159.1V1104.1h200.18l-.16,1.33Z"/><path class="cls-23" d="M1846.28,560.37l-105,34.57c20.64,27,3.2,446.78,3.19,509.14a1687.2,1687.2,0,0,0,182.81,10.23,1686,1686,0,0,0,176.62-9c-7.09-83.89-7.22-175.94-9.8-274.95-3-113.44-2.09-220.8,13.2-238.5l-89.49-31Z"/><polygon class="cls-13" points="2084.35 870.3 2056.45 881.5 2078.88 919.19 2088.05 916.9 2084.35 870.3"/><line class="cls-10" x1="1907.85" y1="892.89" x2="1903.58" y2="898.6"/><path class="cls-10" d="M2013.68,844.9c-.36-.15-.71.48-.88.84a2.14,2.14,0,0,1-.1.22v0h0c-.92,2.12-1.56,3.43-1.68,3.68h0a7.78,7.78,0,0,1-9.68,3.89c-.52-.19-4.84-1.8-10.9-4.69h0c-2.75-1.28-2.78,1.89-2.78,1.89,0,.24,0,.48,0,.72,0,.53-.07,1.06-.12,1.58,0,.27,0,.54-.08.8-.05.52-.12,1-.19,1.56,0,.24-.06.48-.1.71-.11.73-.24,1.45-.38,2.17a1.6,1.6,0,0,1,0,.21c-.13.67-.28,1.32-.44,2l-.21.77c-.12.46-.24.92-.38,1.37-.08.29-.17.57-.26.85-.13.44-.28.87-.43,1.3-.09.27-.18.54-.28.81q-.3.82-.63,1.62l-.39.95c-.2.45-.39.9-.6,1.34s-.29.62-.44.92l-.51,1-.51,1-.51.91-.57,1-.49.78c-.42.67-.85,1.33-1.3,2-.14.2-.27.4-.41.59-.26.37-.54.74-.81,1.1l-.44.58-.87,1.09-.39.47a53.08,53.08,0,0,1-4.88,5.07l-.24.22c-.43.38-.86.76-1.3,1.13l-.14.12a53.6,53.6,0,0,1-6.11,4.41l0,0a54.15,54.15,0,0,1-8.68,4.35v-6.83a6.34,6.34,0,0,0-9.7-5.38,149.61,149.61,0,0,0-28.8,24.06,6.32,6.32,0,0,0,0,8.47,149.61,149.61,0,0,0,28.8,24.06,6.34,6.34,0,0,0,9.7-5.38v-12c1.92-.48,3.8-1,5.66-1.65l.76-.24c.72-.25,1.43-.51,2.14-.78l1.15-.43c.67-.26,1.34-.53,2-.81l1.22-.52c.64-.28,1.29-.57,1.92-.87l1.21-.59c.63-.3,1.26-.62,1.88-.94l1.16-.63c.62-.34,1.24-.67,1.85-1,.35-.2.69-.41,1-.62q3.22-1.94,6.24-4.14l1-.77c.52-.39,1-.8,1.54-1.21l1.14-.92,1.44-1.23,1.15-1c.46-.42.91-.83,1.36-1.26l1.14-1.1,1.27-1.28,1.13-1.2c.4-.43.79-.85,1.18-1.29s.79-.91,1.18-1.37.69-.8,1-1.21c.68-.84,1.35-1.69,2-2.56.3-.39.57-.8.86-1.19s.76-1.06,1.13-1.6.57-.87.85-1.3.68-1,1-1.59.54-.89.8-1.34.63-1.08.94-1.63.49-.91.73-1.36.6-1.15.88-1.73.45-.89.66-1.34c.3-.63.58-1.26.86-1.9l.54-1.23c.34-.83.67-1.68,1-2.53.09-.22.18-.44.26-.67.39-1.07.76-2.15,1.1-3.25.11-.35.21-.72.32-1.08.22-.75.44-1.5.64-2.26.12-.44.22-.88.33-1.32q.26-1.05.48-2.1c.1-.47.19-.93.28-1.4.14-.7.26-1.4.38-2.1.07-.47.15-.94.22-1.41.1-.72.19-1.45.27-2.18,0-.45.11-.91.15-1.37.08-.8.14-1.6.19-2.41,0-.39.06-.77.07-1.17.06-1.2.1-2.4.1-3.61h0c0-.91,0-1.82-.07-2.72C2014.14,845.2,2014,845,2013.68,844.9Z"/><path class="cls-10" d="M1901.77,889.27l0,0a50.83,50.83,0,0,1-20.78-40.8,49.68,49.68,0,0,1,.57-7.57l4.49,3a6.53,6.53,0,0,0,6.41.49,6.33,6.33,0,0,0,2.42-2,5.92,5.92,0,0,0,1.13-3.19,140.05,140.05,0,0,0-3.21-36.13,6.32,6.32,0,0,0-6.94-4.68,153.22,153.22,0,0,0-36.22,9.49,6.14,6.14,0,0,0-3.82,5,6,6,0,0,0,2.67,5.66l9.67,6.53a74.83,74.83,0,0,0-3.75,23.38c0,24.55,11.89,46.39,30.38,60.53a13.46,13.46,0,0,0,8.85,3.28A13.06,13.06,0,0,0,1907,899.43,12.64,12.64,0,0,0,1901.77,889.27Z"/><path class="cls-10" d="M2017.88,801.79a6.32,6.32,0,0,0-8.24-3.52l-11,4.41a81.72,81.72,0,0,0-116.45-12.74l-.2.17-.18.16a1,1,0,0,0-.39,1c.1.63,1.31.46,1.31.46h0c3.63-.64,6-.93,6.39-1a9.79,9.79,0,0,1,10.7,7.29c.07.3.47,2,1,4.72h0c1.08,5.09,4.08,2.7,4.08,2.7h0A54.6,54.6,0,0,1,1973,813l-5.92,2.38a6.34,6.34,0,0,0-1.37,11,150,150,0,0,0,33.07,17.75,6.32,6.32,0,0,0,7.85-3.16,149.42,149.42,0,0,0,11.58-35.7A6.29,6.29,0,0,0,2017.88,801.79Z"/><path class="cls-24" d="M1742.2,594.66s-101,21.44-56.58,357.67c1.78,13.47,15.9,22,28.52,27,20.75,8.29,60.11,19.8,121,21.28a291.52,291.52,0,0,0,125.11-25.4c28.42-12.6,67.08-31.45,116.57-59.16,0,0-24.7-51.46-43.55-56.55s-26,12.23-26,12.23-95.26,20.63-110,20.63-62.91-3.06-118.44-9.94C1778.77,882.44,1791.87,670.92,1742.2,594.66Z"/><path class="cls-13" d="M1742.72,848.71s24.85,28.55,36,33.73c7.66.95,31.62,3.64,31.62,3.64l-7.51-32.74a29.79,29.79,0,0,0-4.5-10.27c-6.53-9.51-21.4-30.28-30.48-36.1,0,0-11.8-2.2-4.17,9.27l-14.44-10.32c-3-2.17-7.73-5-10.84-2.86-2,1.35-3.7,7.1-.82,9.45,0,0-13.89,5.76,4.54,21.5C1742.17,834,1732,840.21,1742.72,848.71Z"/><path class="cls-24" d="M2107.35,591.88c112.52,28.34,109.15,351.51,40.58,403.62a30.05,30.05,0,0,1-15.72,5.76c-84.89,7.23-293.92,22.73-314.72-1.36L2086,912.05S2068.12,642.08,2107.35,591.88Z"/><path class="cls-25" d="M1817.49,999.89l270.56-87.82-183.76,100.79S1830.79,1013.36,1817.49,999.89Z"/><path class="cls-26" d="M1878.65,549.47c-5.31,1.72-35,11.78-35,11.78v25.11a18.69,18.69,0,0,0,2.35,9l36.3,66.16c1,1.81,4,1.42,4.35-.57l6.56-34.55a12.39,12.39,0,0,1,6.84-8.67l27.17-13.54a13.2,13.2,0,0,1,11.57,0l24.51,12.08a12.52,12.52,0,0,1,6.7,7.82l10.31,37.6a2.4,2.4,0,0,0,4.33.4l35.28-65.89a18.68,18.68,0,0,0,2.26-8.87v-25l-30.82-15.52Z"/><path class="cls-13" d="M1881.53,508.31l-10,43.46s-6,48.09,57.67,48.09,63.59-48.09,63.59-48.09l-12.66-43.46Z"/><path class="cls-15" d="M1885.54,514.31h91.07S1930.91,559.52,1885.54,514.31Z"/><ellipse class="cls-13" cx="1932.58" cy="402.81" rx="104.62" ry="125.66"/><path class="cls-16" d="M1864.72,369a30.24,30.24,0,0,1,33.08.32"/><path class="cls-16" d="M1968.76,366.7a30.27,30.27,0,0,1,33.08,0"/><circle class="cls-19" cx="1867.84" cy="437.75" r="14.87"/><circle class="cls-19" cx="2000.17" cy="437.75" r="14.87"/><path d="M1917.4,465.8h30.36a6.9,6.9,0,0,1,6.9,6.9v0a22.08,22.08,0,0,1-22.08,22.08h0a22.08,22.08,0,0,1-22.08-22.08v0a6.9,6.9,0,0,1,6.9-6.9Z"/><path class="cls-10" d="M1920,465.8h25.77a0,0,0,0,1,0,0v6.29a.89.89,0,0,1-.89.89h-24a.89.89,0,0,1-.89-.89V465.8a0,0,0,0,1,0,0Z"/><path class="cls-17" d="M1915.25,486.38a22.19,22.19,0,0,0,17.51,8.4,21.77,21.77,0,0,0,16.89-8.07,42.56,42.56,0,0,0-16.86-3.74,43.14,43.14,0,0,0-17.4,3.35Z"/><path class="cls-16" d="M1867.85,402.81c-.2-8.28,6.76-14.87,14.44-14.45a14,14,0,0,1,12.92,14.45"/><path class="cls-16" d="M1972.81,402.81c-.19-8.28,6.76-14.87,14.44-14.45a14,14,0,0,1,12.92,14.45"/><path class="cls-19" d="M1932.69,418.58a207,207,0,0,1,10.12,22.5,4.22,4.22,0,0,1-3.44,5.64,21.08,21.08,0,0,1-10.43-1.07Z"/><path d="M1812.66,339.69c.13-1.68-43.25-44,9.65-74.52,16-9.24,35.51-13.82,55.27-13.82h34.91s18-35.78,58.62-35.78S2032.47,266,2032.47,266s77.5,26.12,3.91,152.63l-25.69-99.36s-58.4,42.56-173.3,35.56c-11.27,18-8.1,68.09-8.1,68.09S1809,389.09,1812.66,339.69Z"/><path class="cls-21" d="M1829.1,396c-3.83-4.18-7.2-4.61-11.11-3.45-7.16,2.13-10,14.22-6.12,26.91,6.06,19.6,20.26,19.1,20.37,19.06C1828.52,400.8,1829.09,396,1829.1,396Z"/><path class="cls-21" d="M2031.83,401c3.78-4.23,9.7-5.86,13.63-4.74,7.18,2,10.2,14.1,6.43,26.83-5.83,19.68-19.95,19.33-20.06,19.3A78,78,0,0,0,2031.83,401Z"/><path class="cls-22" d="M433.85,221.53a22,22,0,0,1,26.94-16.32A32.37,32.37,0,0,1,499.68,188a39.85,39.85,0,0,1,71.58,7,27.34,27.34,0,0,1,40.63,23.88,26,26,0,0,1-.14,2.66Z"/><path class="cls-27" d="M33.16,453.12a35.57,35.57,0,0,1,43.63-26.43,52.39,52.39,0,0,1,63-27.83,64.54,64.54,0,0,1,115.93,11.28,44.27,44.27,0,0,1,65.8,38.69c0,1.44-.08,2.88-.21,4.29Z"/><path d="M973.82,460.4c-3.85,109,19.62,211.12-167,209.64-185.54-1.47-164.68-75.11-165.35-184.17C640.78,372,702.08,268.1,794.12,267.7,890.3,267.28,977.61,353.07,973.82,460.4Z"/><path class="cls-13" d="M762.1,554.41l-9,52.44s-5.42,58,51.82,58,57.12-58,57.12-58l-11.37-52.44Z"/><path class="cls-15" d="M765.7,561.65h81.82S806.46,616.2,765.7,561.65Z"/><path class="cls-13" d="M804.08,572.68c-57-1.25-102-59.56-100.47-130.26a154.77,154.77,0,0,1,5.08-36.49l73.48-62.18,123.06,60.9a155.6,155.6,0,0,1,4.83,42.18C908.54,517.54,861.1,573.89,804.08,572.68Z"/><path class="cls-16" d="M740.36,394.69a30.47,30.47,0,0,1,33.27,1.85"/><path class="cls-16" d="M843.1,401.17a31,31,0,0,1,18.75-2.08A30.59,30.59,0,0,1,876,406.27"/><circle class="cls-18" cx="757.87" cy="430.14" r="13.31"/><line class="cls-28" x1="747.46" y1="415.31" x2="750.83" y2="421.5"/><line class="cls-28" x1="748.63" y1="423.91" x2="744.03" y2="418.11"/><line class="cls-28" x1="740.49" y1="420.85" x2="747.52" y2="426.42"/><circle class="cls-18" cx="856.41" cy="438.57" r="13.31"/><line class="cls-28" x1="868.93" y1="425.48" x2="864.67" y2="431.09"/><line class="cls-28" x1="866.48" y1="433.81" x2="871.91" y2="428.77"/><line class="cls-28" x1="874.99" y1="432.01" x2="867.19" y2="436.46"/><circle class="cls-19" cx="742.53" cy="465.84" r="14.98"/><circle class="cls-19" cx="861.95" cy="477.97" r="14.98"/><path d="M787.11,503.88h30.58a6.95,6.95,0,0,1,6.95,6.95v0a22.24,22.24,0,0,1-22.24,22.24h0a22.24,22.24,0,0,1-22.24-22.24v0a6.95,6.95,0,0,1,6.95-6.95Z" transform="translate(56.92 -78.95) rotate(5.84)"/><path class="cls-10" d="M790.9,504h26a0,0,0,0,1,0,0v6.34a.89.89,0,0,1-.89.89H791.79a.89.89,0,0,1-.89-.89V504A0,0,0,0,1,790.9,504Z" transform="translate(55.82 -79.16) rotate(5.84)"/><path class="cls-17" d="M784.41,522.8A22.34,22.34,0,0,0,801.1,533a21.94,21.94,0,0,0,17.75-6.36,43.43,43.43,0,0,0-34.29-3.89Z"/><path class="cls-19" d="M807.94,455.71a196,196,0,0,1,4.57,23.63,4.08,4.08,0,0,1-4.69,4.45,22,22,0,0,1-9.94-3.56Z"/><path class="cls-13" d="M578.2,779.66s-13.07,102.53-7.42,140.69c0,0-34.63,29.9-13.78,111.07h86.93l11.66-228.8S606.83,805.76,578.2,779.66Z"/><path class="cls-13" d="M1027.79,779.66s13.08,102.53,7.43,140.69c0,0,34.63,29.9,13.78,111.07H962.07l-11.66-228.8S999.17,805.76,1027.79,779.66Z"/><path class="cls-10" d="M753.1,606.85l-29.29,4.61s23,63.51,84.09,59.78c2-.13,4-.22,6.07-.2,11.83.14,64.1-5,74.77-59.12L862,606.85s-20.91,29.71-54.12,30.77S753.1,606.85,753.1,606.85Z"/><path class="cls-23" d="M723.81,611.46l-80.56,18.37s66,221.44,18.37,429.69H958.45s-32-352.42,8.48-432.51l-80.57-15.55S879.77,668,811.45,668C811.45,668,752.56,676.48,723.81,611.46Z"/><path class="cls-24" d="M643.25,629.83s-59.6.71-74.44,106.95c0,0-2.36,20.26-17,28.27,0,0,2.12,21.68,70,39.58l36.75,9.89,8.84-68.6S666.35,648.4,643.25,629.83Z"/><path class="cls-24" d="M966.93,627s38.16,8.71,53.24,41.46,17,83.16,38.16,101.06a242.5,242.5,0,0,1-25.11,17.41c-19,11.54-45.34,23.89-66.29,20l-19.14-65S949.73,652.68,966.93,627Z"/><ellipse class="cls-29" cx="835.79" cy="759.67" rx="47.62" ry="13.78"/><ellipse class="cls-30" cx="835.93" cy="759.67" rx="40.95" ry="7.29"/><path class="cls-31" d="M801.67,763.19s7-5.12,35.34-5.12c23.09,0,30.21,5.12,30.21,5.12S836.83,771.2,801.67,763.19Z"/><path class="cls-29" d="M788.17,760.28c4.69,28.58,27.64,73.67,27.64,73.67l53-1.32-6.89-22.79s8.66-3.36,2.65-7.69,2.65-5.34,2.65-5.34,26.47-36.95,16.2-37.14c0,0-4.43,12.85-43.49,13.73C839.93,773.4,798.16,775.08,788.17,760.28Z"/><path class="cls-29" d="M688.62,736.36,719.36,871.6a10.13,10.13,0,0,1-7.64,12.12l-61.55,14A10.14,10.14,0,0,1,638,890.08L607.31,754.85a27,27,0,0,1,8.81-26.55c5.63-4.81,8.5-12.09,6.86-19.31l-4.55-20,31.72-7.21,4.55,20c1.64,7.21,7.37,12.54,14.52,14.44A27,27,0,0,1,688.62,736.36Z"/><rect class="cls-29" x="604.69" y="654.67" width="52.3" height="31.07" rx="1.03" transform="translate(-132.85 156.48) rotate(-12.8)"/><path class="cls-31" d="M623,709s10.41,6.5,21.07-.35S653.76,755,653.76,755s3.54,9.89,15.91-14.84c0,0,8.12-21.38,10.6,32.33,1.51,32.91-8.78,59.52-17,75.2a38,38,0,0,1-24.22,19.2l-6,1.53L638,890.08s1.54,10,12.13,7.64l61.55-14s9.7-3,7.64-12.12L688.62,736.36s-5.7-18.46-19.4-20.13-14.52-14.44-14.52-14.44l-4.55-20L618.43,689Z"/><path class="cls-24" d="M939.73,742.42,978.2,911.66a12.43,12.43,0,0,1-9.05,15.06L895.31,943.5a12.42,12.42,0,0,1-14.66-9.67L842.18,764.59a34,34,0,0,1,10.3-33.06,24.72,24.72,0,0,0,8-24l-5.69-25.06,38-8.65,5.69,25.07a24.75,24.75,0,0,0,17.63,18.19A34,34,0,0,1,939.73,742.42Z"/><rect class="cls-24" x="839.02" y="647.4" width="62.74" height="31.09" rx="1.03" transform="translate(-125.28 209.39) rotate(-12.8)"/><rect class="cls-10" x="855.1" y="772.49" width="99.95" height="86.69" transform="translate(-158.3 220.88) rotate(-12.8)"/><polygon class="cls-25" points="854.82 682.44 896.62 690.32 892.87 673.79 854.82 682.44"/><path class="cls-25" d="M916.19,717.05S943,818.26,948.75,850.36A777.75,777.75,0,0,1,959,929l10.18-2.31s11.32-5,9.05-15.06L963.5,847l-19.21-84.54-4.56-20.05S934.5,719.56,916.19,717.05Z"/><polygon class="cls-32" points="928.88 765.98 944.29 762.48 963.5 847.01 948.75 850.36 928.88 765.98"/><path class="cls-24" d="M724.7,754.34,699.26,801s-7.07,8.84,3.71,14.85a120.72,120.72,0,0,1,17.49,11.66H809V783s3.18-9.89-10.07-9.54c-10.39.28-23.38-.2-28.51-.43a10.08,10.08,0,0,1-4.2-1.1l-26.08-13.27a10.6,10.6,0,0,1-3.31-2.68C734.84,753.62,729.3,748,724.7,754.34Z"/><path d="M809,783h5.61a1.81,1.81,0,0,1,1.81,1.81v42.71a0,0,0,0,1,0,0H809a0,0,0,0,1,0,0V783A0,0,0,0,1,809,783Z"/><path d="M699.26,801l-3.54-2.58a5.44,5.44,0,0,1-1.5-7.14l17.55-30.21a5.46,5.46,0,0,1,7.51-1.94l2.13,1.28Z"/><polygon class="cls-25" points="747.89 762.58 759.16 800.98 781.92 773.38 766.2 771.89 747.89 762.58"/><path class="cls-25" d="M703.82,792.63l4.43,10.47,44.9,24.39H720.46L703,815.83S692.37,811,699.26,801Z"/><path class="cls-29" d="M962.07,736.9l-32.87,9.54s-9.89-.45-11.13,14.31-9.54,58.83-9.54,58.83L893.69,865.7h96.47s6.47-19.67-16.43-30.22c0,0,6.18-10.42-1.06-19.08l26-38.16s5.3-11.84,0-18S987,747,987,747Z"/><path class="cls-31" d="M972.67,816.4H957.3s-14.85-1.76-3.18-15.1L1000.71,771l-2.07,7.27C995.39,789.64,972.67,816.4,972.67,816.4Z"/><path class="cls-31" d="M973.73,835.48H947.34l42.47,16.36S986.27,842.2,973.73,835.48Z"/><path class="cls-31" d="M908.53,819.58s.88,46.12,0,46.12H893.69Z"/><path class="cls-31" d="M967.62,721.56l-5.55,15.34L987,747l6.83-15.31a3,3,0,0,0-1.69-4.07l-20.57-7.83A3,3,0,0,0,967.62,721.56Z"/><rect class="cls-8" x="591.48" y="826.82" width="427.22" height="297.89" rx="21.76"/><line class="cls-10" x1="781.1" y1="1013.06" x2="776.87" y2="1018.71"/><path class="cls-10" d="M885.91,965.52c-.35-.14-.7.48-.87.84l-.09.22v0h0c-.92,2.1-1.55,3.4-1.67,3.64h0a7.72,7.72,0,0,1-9.59,3.86c-.51-.19-4.79-1.79-10.79-4.65h0c-2.72-1.27-2.75,1.87-2.75,1.87,0,.24,0,.48,0,.71,0,.53-.07,1.05-.12,1.57,0,.27-.05.53-.08.8,0,.51-.12,1-.19,1.54,0,.23-.06.47-.1.7-.11.72-.23,1.44-.38,2.14,0,.08,0,.15,0,.22-.14.66-.28,1.31-.44,2-.07.26-.14.51-.2.76-.13.46-.25.91-.38,1.36-.09.28-.17.56-.26.84-.14.43-.28.86-.43,1.29-.09.27-.18.53-.28.8-.19.54-.4,1.08-.62,1.61-.12.31-.26.62-.39.93s-.39.89-.59,1.34c-.14.3-.29.6-.44.91s-.33.66-.5,1-.33.65-.51,1-.33.6-.5.9-.37.66-.57,1-.32.51-.48.77c-.41.66-.84,1.32-1.29,2l-.41.59-.79,1.08-.44.58c-.29.36-.57.72-.87,1.08-.12.16-.26.31-.38.46a53.36,53.36,0,0,1-4.83,5l-.24.22c-.42.37-.85.75-1.29,1.11l-.13.12a53.58,53.58,0,0,1-6.06,4.37l0,0a53.11,53.11,0,0,1-8.6,4.3v-6.76a6.28,6.28,0,0,0-9.6-5.33,149.13,149.13,0,0,0-28.53,23.83,6.28,6.28,0,0,0,0,8.39,148.33,148.33,0,0,0,28.53,23.83,6.27,6.27,0,0,0,9.6-5.32v-11.89c1.9-.47,3.77-1,5.61-1.63l.75-.24c.71-.24,1.42-.5,2.12-.76l1.14-.43c.67-.26,1.33-.53,2-.8l1.21-.52,1.9-.86,1.2-.58c.63-.31,1.25-.62,1.86-.94.39-.2.77-.41,1.15-.62.62-.33,1.23-.67,1.84-1l1-.61q3.19-1.92,6.18-4.11l1-.75c.52-.4,1-.8,1.52-1.21s.77-.6,1.14-.91.95-.81,1.42-1.22.77-.67,1.15-1,.9-.82,1.34-1.24l1.13-1.1q.63-.62,1.26-1.26c.38-.39.75-.79,1.12-1.19l1.17-1.27c.39-.45.78-.91,1.16-1.37s.69-.79,1-1.19c.67-.83,1.33-1.68,2-2.54.29-.39.56-.79.84-1.18s.76-1,1.12-1.58.57-.86.84-1.29.68-1,1-1.57.54-.88.8-1.33.63-1.07.93-1.62l.73-1.34q.45-.85.87-1.71c.22-.44.44-.88.65-1.33.29-.62.57-1.25.85-1.89.18-.4.36-.8.53-1.21.35-.83.67-1.66,1-2.5.08-.23.18-.45.26-.67.38-1.06.74-2.13,1.08-3.22.12-.35.21-.71.32-1.07.22-.74.44-1.49.63-2.24.12-.44.22-.87.33-1.31.16-.69.33-1.38.48-2.08.09-.46.19-.92.27-1.38.14-.69.26-1.38.38-2.08.07-.47.15-.93.21-1.4.11-.72.2-1.44.28-2.16l.15-1.35c.07-.79.13-1.59.18-2.39,0-.38.06-.77.08-1.16.05-1.18.09-2.38.09-3.58h0c0-.9,0-1.8-.06-2.69C886.37,965.82,886.25,965.66,885.91,965.52Z"/><path class="cls-10" d="M775.08,1009.47l0,0a49.89,49.89,0,0,1-20-47.9l4.45,3a6.46,6.46,0,0,0,6.35.48,6.25,6.25,0,0,0,2.39-2,6,6,0,0,0,1.13-3.16,138.4,138.4,0,0,0-3.19-35.79,6.26,6.26,0,0,0-6.87-4.64,153.14,153.14,0,0,0-35.88,9.4,6.1,6.1,0,0,0-3.78,5,6,6,0,0,0,2.65,5.6l9.58,6.47A74,74,0,0,0,728.2,969c0,24.32,11.77,46,30.08,60a13.4,13.4,0,0,0,8.77,3.25,13,13,0,0,0,13.16-12.72A12.56,12.56,0,0,0,775.08,1009.47Z"/><path class="cls-10" d="M890.08,922.83a6.28,6.28,0,0,0-8.17-3.48l-10.85,4.36A80.93,80.93,0,0,0,755.72,911.1l-.19.16-.18.16a1,1,0,0,0-.39,1c.1.62,1.3.45,1.3.45h0c3.6-.64,5.93-.93,6.33-1a9.67,9.67,0,0,1,10.59,7.22c.07.3.47,2,1,4.68h0c1.07,5,4,2.67,4,2.67h0a54.11,54.11,0,0,1,67.46,7.41l-5.87,2.36a6.28,6.28,0,0,0-1.36,10.89,148.52,148.52,0,0,0,32.76,17.59,6.28,6.28,0,0,0,7.78-3.13,148.79,148.79,0,0,0,11.46-35.36A6.27,6.27,0,0,0,890.08,922.83Z"/><path class="cls-7" d="M634.6,826.82s-17.92,8.95-17.92,33.55v215s0,27,36.9,27,365.12.64,365.12.64-2.34,19.57-21.76,21.76-383.7,0-383.7,0-22.36-.61-21.76-21.76,0-254.36,0-254.36.36-22.22,24.29-21.76C638.62,827.25,634.6,826.82,634.6,826.82Z"/><polygon points="625.47 1124.7 585.19 1376.77 1033.45 1376.77 983.57 1124.7 625.47 1124.7"/><line class="cls-33" x1="675.65" y1="1209.28" x2="641.72" y2="1376.77"/><line class="cls-33" x1="810.92" y1="1209.28" x2="803.13" y2="1376.77"/><line class="cls-33" x1="940.6" y1="1209.28" x2="974.53" y2="1376.77"/><path class="cls-13" d="M575.6,1012.57l1.3-28.18s1.41-21.55,14.31-7.68l.28,68.46,41.68,12.46s15.28,3.44,8.75,14.57c0,0,17.31,4.33,6.09,15.64,0,0,3.27,8-4.77,9.8L618.59,1108s.94,4.66-2.29,6.76c-9,5.84-11.36,4.5-13.3,4.33l-18.79-1.62a12.77,12.77,0,0,1-10.54-7c-1.12-2.36-1.42-4.92.66-6.94,0,0-22.26-16.07-16.43-24.91,0,0-14.93-11-3.71-26.23,0,0-10.16-11,.8-19.09Z"/><path class="cls-14" d="M557.92,1078.36c7.55.45,15.08,1,22.61,1.5l22.59,1.71c7.53.6,15.1.84,22.57,1.91,3.74.53,7.48,1.08,11.2,1.76s7.45,1.42,11.14,2.39l0,.41c-3.81.2-7.61.18-11.39.07s-7.56-.31-11.33-.55c-7.54-.47-15-1.78-22.48-2.73l-22.47-2.93c-7.48-1.05-15-2-22.44-3.13Z"/><path class="cls-14" d="M574.35,1103.27c3.73,0,7.44.21,11.15.31l5.57.23,5.56.29c1.85.1,3.71.12,5.57.17a42.93,42.93,0,0,1,5.54.54c1.83.31,3.65.69,5.47,1.17a35.63,35.63,0,0,1,5.4,1.8l0,.4a35.5,35.5,0,0,1-5.66.67c-1.87.11-3.73.11-5.59,0a41,41,0,0,1-5.53-.58c-1.83-.33-3.66-.68-5.49-1l-5.51-.84-5.49-.9c-3.67-.65-7.33-1.24-11-1.94Z"/><path class="cls-14" d="M591.05,976.83c-1.6-.89-3-1.84-4.42-2.57a9.08,9.08,0,0,0-2.06-.85,3.26,3.26,0,0,0-1.84,0,5.43,5.43,0,0,0-2.65,3.06,24.17,24.17,0,0,0-1.4,4.74l0-.17-1.12,15.77c-.36,5.26-.69,10.52-.93,15.78l0,.39-.29.29c-3.4,3.48-6.82,6.94-10.2,10.44L556,1034.23l-.09.09a16.31,16.31,0,0,0-3.1,3.92,10.68,10.68,0,0,0-1.47,4.56,8.35,8.35,0,0,0,1,4.48,13.69,13.69,0,0,0,3.07,3.77l-.78-.4,22,4.63c7.34,1.54,14.64,3.25,21.91,5,14.56,3.58,29.08,7.33,43.47,11.68l-.09.4c-14.85-2.28-29.58-5.15-44.26-8.19-7.34-1.52-14.66-3.13-21.94-4.9l-21.86-5.3-.47-.12-.31-.29a17,17,0,0,1-3.69-4.86,11.52,11.52,0,0,1-1.14-6.2,13.82,13.82,0,0,1,2-5.8,19.06,19.06,0,0,1,3.86-4.57l-.1.08,10.46-10.18c3.49-3.39,6.94-6.82,10.41-10.24l-.31.68c.35-5.26.61-10.52.84-15.78l.64-15.8v-.17a22.8,22.8,0,0,1,1.53-5.37,10.93,10.93,0,0,1,1.55-2.57,6.11,6.11,0,0,1,2.73-1.92,5.92,5.92,0,0,1,3.36,0,8.48,8.48,0,0,1,2.72,1.31,9.9,9.9,0,0,1,3.43,4.42Z"/><path class="cls-13" d="M1034.26,1015.71,1033,987.53s-1.42-21.56-14.32-7.69v68.38l-42,12.54s-15.28,3.45-8.74,14.58c0,0-17.32,4.33-6.1,15.64,0,0-3.27,8,4.77,9.8l24.65,10.34s-.94,4.66,2.29,6.76c9,5.84,11.36,4.5,13.3,4.32l18.79-1.61a12.79,12.79,0,0,0,10.54-7c1.12-2.36,1.42-4.92-.66-6.94,0,0,22.26-16.08,16.43-24.91,0,0,14.93-11,3.71-26.24,0,0,10.16-11-.8-19.08Z"/><path class="cls-14" d="M1052,1081.9c-7.48,1.1-15,2.09-22.44,3.14l-22.47,2.93c-7.49,1-14.94,2.25-22.48,2.73-3.77.24-7.54.46-11.33.55s-7.57.13-11.39-.07l0-.41c3.69-1,7.41-1.72,11.14-2.39s7.46-1.23,11.2-1.76c7.48-1.07,15-1.32,22.57-1.91l22.59-1.71c7.53-.5,15.06-1.06,22.61-1.5Z"/><path class="cls-14" d="M1035.55,1106.82c-3.66.7-7.32,1.29-11,1.94l-5.5.9-5.51.84c-1.83.27-3.66.62-5.49,1a41,41,0,0,1-5.53.58c-1.86.07-3.72.07-5.59,0a36.69,36.69,0,0,1-5.66-.67l0-.41a36.72,36.72,0,0,1,5.4-1.79c1.82-.48,3.64-.86,5.48-1.17a42.61,42.61,0,0,1,5.53-.54c1.86-.05,3.72-.08,5.57-.18l5.56-.28,5.57-.23c3.71-.1,7.42-.26,11.15-.31Z"/><path class="cls-14" d="M1018.49,979.71a18.49,18.49,0,0,1,3.93-3.61,8.89,8.89,0,0,1,2.47-1.16,4.94,4.94,0,0,1,2.8,0,5.27,5.27,0,0,1,2.31,1.61,9.85,9.85,0,0,1,1.46,2.34A23.65,23.65,0,0,1,1033,984v.07l2.28,31.54-.31-.7,20.87,20.42-.09-.09a19.35,19.35,0,0,1,3.85,4.59,13.91,13.91,0,0,1,2,5.8,11.54,11.54,0,0,1-1.15,6.21,17,17,0,0,1-3.69,4.85l-.31.3-.47.11-21.85,5.31c-7.29,1.77-14.61,3.38-22,4.9-14.68,3-29.4,5.91-44.26,8.19l-.09-.4c14.39-4.35,28.91-8.1,43.47-11.69,7.28-1.79,14.58-3.49,21.91-5l22-4.63-.78.41a13.73,13.73,0,0,0,3.07-3.78,8.21,8.21,0,0,0,1-4.47,10.78,10.78,0,0,0-1.47-4.55,16.54,16.54,0,0,0-3.11-3.91l-.09-.09-20.36-20.93-.29-.3,0-.39-1.25-31.6v.07a23.16,23.16,0,0,0-1.35-5,6.11,6.11,0,0,0-3.16-3.61,5.64,5.64,0,0,0-4.71.93,17.5,17.5,0,0,0-3.92,3.37Z"/><path id="Path_446" data-name="Path 446" class="cls-34" d="M2536.08,1428.22h-66c-10.15,0-18.37,9.86-18.41,22h0c0,12.14,8.26,22,18.41,22h27.63c8.05,0,14.58,7.83,14.61,17.47h0c0,9.64-6.55,17.45-14.61,17.47H63.19c-8.06,0-14.58-7.83-14.61-17.47h0c0-9.64,6.55-17.45,14.61-17.47H89.55c10.15,0,18.37-9.88,18.4-22h0c0-12.14-8.25-22-18.4-22H29.21c-16.11-.06-29.16-15.67-29.21-35H0c.05-19.28,13.1-34.89,29.21-35H2536.08c16.12.06,29.16,15.67,29.21,35h0C2565.24,1412.54,2552.2,1428.16,2536.08,1428.22Zm1.12,79c8.07,0,14.6-7.82,14.6-17.47s-6.53-17.47-14.6-17.47-14.6,7.82-14.61,17.47,6.54,17.47,14.61,17.48Z"/></svg>