<?xml version="1.0" encoding="utf-8"?>
<!-- Generator: Adobe Illustrator 25.0.0, SVG Export Plug-In . SVG Version: 6.00 Build 0)  -->
<svg version="1.1" id="Layer_1" xmlns="http://www.w3.org/2000/svg" xmlns:xlink="http://www.w3.org/1999/xlink" x="0px" y="0px"
	 viewBox="0 0 842.53 1390.08" style="enable-background:new 0 0 842.53 1390.08;" xml:space="preserve">
<style type="text/css">
	.st0{fill:#EE655B;}
	.st1{fill:#64DADD;}
	.st2{fill:#05C4A3;}
	.st3{opacity:0.73;}
	.st4{fill:#D2F4EE;}
	.st5{fill:#FFFFFF;}
	.st6{fill:none;stroke:#000000;stroke-width:5.0725;stroke-miterlimit:10;}
	.st7{fill:#87D3C6;}
	.st8{fill:#F2A8A3;}
	.st9{fill:#EB9E3F;}
	.st10{fill:#F7EDC0;}
	.st11{fill:#AFF2E5;}
	.st12{fill:#FEAB8D;}
	.st13{fill:#F3937B;}
	.st14{fill:#F49277;}
	.st15{fill:#87E0F4;}
	.st16{opacity:0.3;}
	.st17{fill:#4B91B5;}
	.st18{fill:#383431;}
	.st19{fill:#F7857C;}
	.st20{fill:#07A889;}
	.st21{clip-path:url(#SVGID_2_);fill:#05C4A3;}
	.st22{clip-path:url(#SVGID_4_);fill:#05C4A3;}
	.st23{clip-path:url(#SVGID_6_);fill:#05C4A3;}
	.st24{fill:none;stroke:#05C4A3;stroke-width:9;stroke-linecap:round;stroke-linejoin:round;stroke-miterlimit:10;}
	.st25{clip-path:url(#SVGID_8_);fill:#05C4A3;}
	.st26{clip-path:url(#SVGID_10_);fill:#05C4A3;}
	.st27{clip-path:url(#SVGID_12_);fill:#05C4A3;}
</style>
<g>
	<g>
		<path class="st2" d="M364.85,392.77c-1.58,0-3.18-0.5-4.53-1.53c-34.32-24.84-80.2-24.9-114.41-0.28c-2.94,2.19-7.12,1.96-9.8-0.7
			c-2.92-2.93-2.93-7.67,0-10.6l0.93-0.8c39.47-28.48,92.48-28.43,131.9,0.1l0.51,0.38c3.28,2.53,3.88,7.24,1.35,10.52
			C369.31,391.77,367.09,392.77,364.85,392.77z"/>
	</g>
	<g>
		<path class="st2" d="M596.57,392.77c-1.58,0-3.18-0.5-4.53-1.53c-34.32-24.84-80.2-24.9-114.41-0.28c-2.94,2.19-7.12,1.96-9.8-0.7
			c-2.92-2.93-2.93-7.67,0-10.6l0.93-0.8c39.47-28.48,92.48-28.43,131.9,0.1l0.51,0.38c3.28,2.53,3.88,7.24,1.35,10.52
			C601.03,391.77,598.81,392.77,596.57,392.77z"/>
	</g>
	<path class="st2" d="M485.93,477.13H357.31c-7.28,0-13.2,5.92-13.2,13.19v14.93c0,42.74,34.77,77.5,77.5,77.5
		c42.74,0,77.5-34.77,77.5-77.5v-14.93C499.12,483.05,493.2,477.13,485.93,477.13z M484.12,505.25c0,12.92-3.94,24.95-10.69,34.92
		c-9.79-18.52-29.18-31.17-51.59-31.17c-22.55,0-42.06,12.8-51.8,31.51c-6.89-10.04-10.93-22.19-10.93-35.26v-13.13h125.01V505.25z"
		/>
	<g class="st3">
		<g>
			<ellipse class="st2" cx="589.28" cy="450.88" rx="32.5" ry="20.63"/>
		</g>
		<g>
			<ellipse class="st2" cx="253.23" cy="450.88" rx="32.5" ry="20.63"/>
		</g>
	</g>
	<g>
		<ellipse class="st4" cx="589.07" cy="450.88" rx="32.5" ry="20.63"/>
	</g>
	<g>
		<ellipse class="st4" cx="253.02" cy="450.88" rx="32.5" ry="20.63"/>
	</g>
	<path class="st2" d="M715.26,531.28c1.45,0.05,2.9,0,4.35,0c69.15-1.4,124.15-53,122.9-115.26
		c-1.25-62.2-58.35-111.56-127.51-110.11c-2.5,0.05-5,0.15-7.45,0.35c-4.8,0.35-7.4-5.5-3.8-8.65c2.55-2.25,5-4.55,7.35-7
		c48.35-49.45,51.5-124.81,7-168.36c-44.5-43.5-119.81-38.7-168.16,10.75c-3.3,3.4-6.4,6.9-9.3,10.55c-3.15,3.95-9.4,1.4-8.9-3.65
		c0.5-4.85,0.8-9.8,0.75-14.85C532.39,55.9,481.84-0.1,419.59,0c-62.25,0.15-112.61,56.3-112.51,125.46c0,3.8,0.2,7.55,0.5,11.2
		c0.4,4.85-5.7,7.35-8.75,3.6c-2.8-3.4-5.8-6.75-9-9.95c-49.5-49.85-124.86-53-168.36-7.1c-43.5,45.95-38.65,123.56,10.85,173.41
		c2.3,2.35,4.65,4.55,7.05,6.65c3.6,3.1,1.25,9-3.45,8.7c-3.6-0.2-7.25-0.3-10.9-0.25c-70.11,1.2-126.06,54.8-125.01,119.76
		c1,64.95,58.65,116.61,128.76,115.46c2.75-0.05,5.55-0.2,8.3-0.4c4.65-0.4,7.35,5.25,3.95,8.5c-1.35,1.3-2.7,2.65-4,4
		c-47.75,50.05-50,125.46-5,168.41c45.06,43,120.26,37.3,168.06-12.7c3.65-3.85,7.05-7.85,10.15-12c3.05-4,9.35-1.65,8.95,3.4
		c-0.4,5.35-0.55,10.8-0.3,16.3c2.25,58.55,40.35,106.31,89.76,118.06v272.32c-6.8-16-17.8-31.25-35.05-42.65
		c-50.51-33.4-148.91-34-185.11-33c-6.9,0.2-11.55,7.15-9.05,13.6c13,33.95,51.55,125.16,102.11,158.61
		c50.55,33.45,107.2,8.5,127.11-2.35v161.51c0,0.8,0.05,1.6,0.15,2.4c1.2,10.75,10.35,19.15,21.45,19.15
		c11.9,0,21.55-9.65,21.55-21.55v-233.51c20.4,10.6,77.06,34.25,126.81,0.3c50.05-34.15,87.3-125.91,99.81-160.06
		c2.35-6.5-2.35-13.35-9.25-13.45c-36.25-0.5-134.61,1.5-184.61,35.65c-15.7,10.7-26.05,24.55-32.75,39.2V841.4
		c54.55-10.5,94.76-64.45,92.31-127.71c-0.15-4.05-0.45-8.05-0.95-12c-0.65-4.8,5.4-7.55,8.6-3.9c2.8,3.2,5.8,6.3,8.95,9.3
		c50.35,47.4,125.75,49.15,168.46,3.85c42.7-45.3,36.51-120.51-13.85-167.91c-1.1-1.05-2.25-2.1-3.35-3.1
		C708.45,536.88,710.66,531.23,715.26,531.28z M421.26,680.91c-143.56,0-259.93-116.38-259.93-259.93s116.38-259.93,259.93-259.93
		S681.2,277.42,681.2,420.98S564.82,680.91,421.26,680.91z"/>
</g>
</svg>
