<svg id="Layer_1" data-name="Layer 1" xmlns="http://www.w3.org/2000/svg" viewBox="0 0 500 500"><defs><style>.cls-1{fill:#05c4a3;}.cls-2{fill:#fff;}</style></defs><path class="cls-1" d="M267.31,328.76h-66a8.17,8.17,0,0,1-8.08-9.34l14.58-99.9a16.19,16.19,0,0,1,15.93-13.77h12.91a16.15,16.15,0,0,1,16,13.95Zm-62.89-10.84H254.9l-13-96.77a5.28,5.28,0,0,0-5.21-4.56H223.75a5.29,5.29,0,0,0-5.2,4.5Z"/><path class="cls-2" d="M240,334.82a7.07,7.07,0,0,1-7-8.12l10.85-74.41a13.06,13.06,0,0,1,12.85-11.11h9.62a13,13,0,0,1,12.87,11.26L289.14,326a7.78,7.78,0,0,1-7.73,8.85Z"/><path class="cls-2" d="M281.41,337.53H240a9.78,9.78,0,0,1-9.67-11.25l10.85-74.38a15.78,15.78,0,0,1,15.53-13.44h9.63a15.74,15.74,0,0,1,15.55,13.62l9.91,73.53a10.52,10.52,0,0,1-10.42,11.92Zm-24.67-93.64a10.34,10.34,0,0,0-10.17,8.79l-10.85,74.41a4.36,4.36,0,0,0,4.31,5h41.38a5.07,5.07,0,0,0,5-5.77l-9.91-73.54a10.28,10.28,0,0,0-10.17-8.91Z"/><path class="cls-2" d="M286.83,335.21H245.46a2,2,0,0,1-2-2.34l10.86-74.43a8,8,0,0,1,7.87-6.8h9.62a8,8,0,0,1,7.88,6.89l9.91,73.53A2.78,2.78,0,0,1,286.83,335.21Z"/><path class="cls-1" d="M286.83,340.63H245.46a7.46,7.46,0,0,1-7.39-8.54l10.86-74.43a13.46,13.46,0,0,1,13.24-11.45h9.62a13.43,13.43,0,0,1,13.26,11.59l9.9,73.54a8.19,8.19,0,0,1-8.12,9.29Zm-37.46-10.84H283.8l-9.5-70.54a2.54,2.54,0,0,0-2.51-2.19h-9.62a2.55,2.55,0,0,0-2.51,2.17Z"/><path class="cls-1" d="M306.35,185.44c2-3.77-1.73-17.35-14.24-20.27a16.31,16.31,0,0,0-13.79,3.55,10.92,10.92,0,0,0-2.28-4.87,12.4,12.4,0,0,0-17.44-1.64,12.72,12.72,0,0,0-3.89,5.8,18.62,18.62,0,0,0-5.67-2,17.61,17.61,0,0,0-20.29,14.48c-.6,3.86-.76,8.24,1.78,10.85C245.21,206.4,299.35,198.85,306.35,185.44Zm-42.58-1.9,0,.3a.6.6,0,0,1-.39-.14C263.46,183.61,263.66,183.63,263.77,183.54Z"/></svg>