<?xml version="1.0" encoding="utf-8"?>
<!-- Generator: Adobe Illustrator 25.0.0, SVG Export Plug-In . SVG Version: 6.00 Build 0)  -->
<svg version="1.1" id="Layer_1" xmlns="http://www.w3.org/2000/svg" xmlns:xlink="http://www.w3.org/1999/xlink" x="0px" y="0px"
	 viewBox="0 0 1200 1072.36" style="enable-background:new 0 0 1200 1072.36;" xml:space="preserve">
<style type="text/css">
	.st0{fill:#EE655B;}
	.st1{fill:#64DADD;}
	.st2{fill:#05C4A3;}
	.st3{opacity:0.73;}
	.st4{fill:#D2F4EE;}
	.st5{fill:#FFFFFF;}
	.st6{fill:none;stroke:#000000;stroke-width:5.0725;stroke-miterlimit:10;}
	.st7{fill:#87D3C6;}
	.st8{fill:#F2A8A3;}
	.st9{fill:#EB9E3F;}
	.st10{fill:#F7EDC0;}
	.st11{fill:#AFF2E5;}
	.st12{fill:#FEAB8D;}
	.st13{fill:#F3937B;}
	.st14{fill:#F49277;}
	.st15{fill:#87E0F4;}
	.st16{opacity:0.3;}
	.st17{fill:#4B91B5;}
	.st18{fill:#383431;}
	.st19{fill:#F7857C;}
	.st20{fill:#07A889;}
	.st21{clip-path:url(#SVGID_2_);fill:#05C4A3;}
	.st22{clip-path:url(#SVGID_4_);fill:#05C4A3;}
	.st23{clip-path:url(#SVGID_6_);fill:#05C4A3;}
	.st24{fill:none;stroke:#05C4A3;stroke-width:9;stroke-linecap:round;stroke-linejoin:round;stroke-miterlimit:10;}
	.st25{clip-path:url(#SVGID_8_);fill:#05C4A3;}
	.st26{clip-path:url(#SVGID_10_);fill:#05C4A3;}
	.st27{clip-path:url(#SVGID_12_);fill:#05C4A3;}
	.st28{fill:#F7931E;}
</style>
<g>
	<g>
		<path class="st10" d="M814.77,624.98c-0.93-0.38-1.83,1.25-2.27,2.19c-0.08,0.19-0.16,0.37-0.24,0.56
			c-0.01,0.03-0.03,0.08-0.03,0.08l0,0c-2.39,5.47-4.03,8.87-4.34,9.5l0,0c-3.48,7.09-10.59,11.28-18.08,11.28
			c-2.3,0-4.64-0.4-6.92-1.23c-1.35-0.49-12.51-4.65-28.15-12.12c-0.03-0.01-0.06-0.02-0.09-0.03c-7.08-3.31-7.16,4.89-7.16,4.89
			c-0.03,0.62-0.07,1.24-0.11,1.86c-0.08,1.37-0.18,2.74-0.31,4.09c-0.06,0.69-0.13,1.38-0.21,2.07c-0.15,1.34-0.32,2.68-0.5,4.02
			c-0.09,0.62-0.16,1.23-0.26,1.85c-0.29,1.87-0.61,3.74-0.98,5.59c-0.04,0.19-0.08,0.38-0.12,0.57c-0.35,1.71-0.74,3.4-1.15,5.08
			c-0.17,0.67-0.35,1.33-0.52,1.99c-0.31,1.19-0.64,2.37-0.99,3.55c-0.22,0.73-0.44,1.46-0.67,2.19c-0.36,1.13-0.73,2.25-1.12,3.36
			c-0.24,0.7-0.47,1.39-0.73,2.09c-0.51,1.41-1.06,2.8-1.62,4.19c-0.33,0.82-0.68,1.63-1.02,2.44c-0.5,1.17-1.01,2.33-1.54,3.48
			c-0.37,0.8-0.76,1.58-1.15,2.37c-0.43,0.87-0.86,1.74-1.3,2.6c-0.43,0.84-0.87,1.67-1.33,2.5c-0.43,0.79-0.87,1.56-1.31,2.34
			c-0.49,0.85-0.97,1.71-1.48,2.55c-0.41,0.68-0.84,1.35-1.26,2.02c-1.08,1.72-2.2,3.43-3.36,5.1c-0.36,0.52-0.7,1.04-1.07,1.55
			c-0.68,0.95-1.38,1.89-2.08,2.82c-0.38,0.5-0.76,1-1.14,1.5c-0.74,0.95-1.49,1.9-2.26,2.83c-0.33,0.41-0.67,0.8-1.01,1.2
			c-3.89,4.63-8.1,9.01-12.59,13.1c-0.21,0.19-0.42,0.38-0.63,0.57c-1.1,0.99-2.21,1.96-3.35,2.91c-0.12,0.1-0.24,0.2-0.36,0.3
			c-4.97,4.15-10.24,7.97-15.79,11.41c-0.03,0.02-0.06,0.04-0.09,0.06c-7.06,4.37-14.56,8.13-22.42,11.22V739.8
			c0-5.95-3.23-11.43-8.43-14.31c-5.21-2.88-11.56-2.72-16.61,0.43c-41.87,26.14-73.1,60.69-74.41,62.15
			c-5.59,6.22-5.59,15.65,0,21.87c1.31,1.46,32.54,36.01,74.41,62.15c2.65,1.65,5.65,2.49,8.67,2.49c2.73,0,5.47-0.68,7.94-2.05
			c5.2-2.89,8.43-8.36,8.43-14.32V827.2c4.96-1.24,9.83-2.68,14.63-4.25c0.65-0.21,1.3-0.41,1.95-0.62c1.86-0.63,3.7-1.32,5.53-2
			c0.99-0.37,1.99-0.73,2.97-1.11c1.74-0.67,3.46-1.39,5.17-2.11c1.05-0.44,2.1-0.88,3.14-1.34c1.67-0.73,3.33-1.49,4.97-2.26
			c1.05-0.49,2.09-0.99,3.12-1.5c1.63-0.8,3.24-1.6,4.85-2.44c1.01-0.53,2.01-1.08,3-1.62c1.6-0.87,3.21-1.75,4.78-2.66
			c0.9-0.52,1.78-1.07,2.66-1.6c5.55-3.33,10.93-6.9,16.11-10.7c0.9-0.66,1.81-1.3,2.69-1.97c1.35-1.02,2.66-2.08,3.98-3.13
			c0.99-0.79,1.99-1.58,2.96-2.39c1.25-1.04,2.48-2.1,3.71-3.17c1-0.87,2-1.75,2.99-2.64c1.18-1.07,2.34-2.14,3.49-3.23
			c1-0.94,1.98-1.9,2.95-2.86c1.1-1.09,2.21-2.18,3.28-3.3c0.99-1.02,1.95-2.07,2.92-3.11c1.02-1.1,2.05-2.19,3.05-3.32
			c1.04-1.17,2.04-2.37,3.05-3.56c0.88-1.04,1.78-2.06,2.64-3.11c1.76-2.17,3.48-4.38,5.15-6.61c0.75-1.01,1.47-2.05,2.2-3.08
			c0.98-1.37,1.97-2.74,2.92-4.13c0.75-1.1,1.47-2.23,2.2-3.35c0.88-1.36,1.76-2.72,2.61-4.1c0.71-1.15,1.39-2.31,2.07-3.47
			c0.82-1.4,1.63-2.8,2.42-4.22c0.64-1.16,1.28-2.33,1.91-3.51c0.78-1.47,1.53-2.96,2.27-4.46c0.57-1.15,1.14-2.3,1.69-3.46
			c0.77-1.63,1.5-3.27,2.22-4.92c0.46-1.06,0.94-2.1,1.39-3.17c0.9-2.15,1.75-4.33,2.57-6.53c0.22-0.58,0.46-1.16,0.68-1.74
			c1.01-2.77,1.95-5.56,2.83-8.38c0.29-0.93,0.54-1.87,0.82-2.8c0.58-1.94,1.14-3.89,1.66-5.85c0.3-1.13,0.56-2.27,0.84-3.41
			c0.44-1.8,0.86-3.61,1.25-5.43c0.26-1.2,0.49-2.4,0.72-3.61c0.35-1.8,0.67-3.6,0.97-5.42c0.2-1.21,0.39-2.43,0.57-3.65
			c0.27-1.86,0.5-3.74,0.71-5.62c0.14-1.18,0.28-2.35,0.39-3.53c0.2-2.06,0.34-4.14,0.47-6.22c0.06-1.01,0.15-2.01,0.2-3.02
			c0.15-3.1,0.24-6.21,0.24-9.34c0,0,0,0,0,0c0-2.35-0.07-4.68-0.16-7.01C815.98,625.77,815.64,625.34,814.77,624.98z"/>
		<path class="st10" d="M525.72,739.59l0.05-0.04c-32.64-24.34-53.68-62.49-53.68-105.4c0-6.64,0.51-13.17,1.48-19.55l11.6,7.84
			c4.88,3.29,11.22,3.77,16.56,1.25c2.54-1.2,4.67-2.99,6.23-5.15c1.73-2.39,2.77-5.23,2.93-8.24c2.57-47.62-7.85-91.48-8.3-93.33
			c-1.9-7.86-9.62-13.09-17.92-12.11c-1.95,0.23-48.16,5.83-93.57,24.51c-5.47,2.25-9.25,7.19-9.87,12.91
			c-0.62,5.72,2.02,11.31,6.9,14.6l25,16.88c-6.27,19.04-9.69,39.32-9.69,60.37c0,63.42,30.71,119.84,78.46,156.36
			c6.07,5.26,14.07,8.48,22.87,8.48c18.96,0,34.33-14.85,34.33-33.16C539.11,755.14,533.85,745.66,525.72,739.59z"/>
		<path class="st10" d="M820.77,507.03c-4.62-3.75-10.91-4.7-16.43-2.48l-28.31,11.38c-37.57-49.24-97.99-81.2-166.17-81.2
			c-51.45,0-98.48,18.22-134.61,48.31c-0.19,0.16-0.35,0.29-0.51,0.43c-0.16,0.13-0.31,0.27-0.46,0.41
			c-0.89,0.84-1.21,1.48-1.02,2.68c0.26,1.62,3.39,1.17,3.39,1.17l0.01,0c9.37-1.65,15.45-2.41,16.49-2.53
			c12.8-1.47,24.68,6.6,27.63,18.84c0.19,0.78,1.22,5.17,2.54,12.19c0,0.01,0.01,0.02,0.01,0.03c2.79,13.13,10.53,6.95,10.53,6.95
			l0,0.03c21.78-13.99,47.88-22.2,76-22.2c39.35,0,74.83,15.96,99.93,41.52l-15.3,6.15c-5.52,2.22-9.4,7.26-10.14,13.16
			c-0.74,5.9,1.79,11.74,6.59,15.25c39.87,29.1,83.58,45.18,85.42,45.86c7.85,2.86,16.6-0.66,20.29-8.16
			c0.87-1.76,21.27-43.63,29.91-92.22c0.55-3.07,0.2-6.18-0.93-8.97C824.62,511.1,822.96,508.82,820.77,507.03z"/>
		<path class="st10" d="M1183.94,407.77l-131.33-84.98V93.29h2.04c17.98,0,32.55-14.57,32.55-32.55s-14.57-32.55-32.55-32.55H778.16
			c-17.98,0-32.55,14.57-32.55,32.55s14.57,32.55,32.55,32.55h9.24v57.89L630.53,49.68c-10.76-6.96-24.61-6.96-35.37,0L41.76,407.77
			c-15.09,9.77-19.41,29.92-9.65,45.02c6.23,9.63,16.69,14.87,27.36,14.87c6.06,0,12.19-1.69,17.65-5.23l96.25-62.28v637.18
			c0,17.98,14.57,32.55,32.55,32.55h813.83c17.98,0,32.55-14.57,32.55-32.55V400.15l96.25,62.28c5.47,3.54,11.59,5.23,17.65,5.23
			c10.67,0,21.13-5.24,27.36-14.87C1203.35,437.69,1199.03,417.53,1183.94,407.77z M987.21,1004.78H238.49V358.02l374.36-242.23
			l186.63,120.76c15.1,9.77,35.25,5.45,45.02-9.65c0.46-0.72,0.89-1.45,1.29-2.19c4.21-5.49,6.72-12.35,6.72-19.8V93.29h135v249.68
			c-0.18,1.4-0.29,2.83-0.29,4.28V1004.78z"/>
	</g>
	<g>
		<path class="st28" d="M789.07,599.28c-0.93-0.38-1.83,1.25-2.27,2.19c-0.08,0.19-0.16,0.37-0.24,0.56
			c-0.01,0.03-0.03,0.08-0.03,0.08l0,0c-2.39,5.47-4.03,8.87-4.34,9.5l0,0c-3.48,7.09-10.59,11.28-18.08,11.28
			c-2.3,0-4.64-0.4-6.92-1.23c-1.35-0.49-12.51-4.65-28.15-12.12c-0.03-0.01-0.06-0.02-0.09-0.03c-7.08-3.31-7.16,4.89-7.16,4.89
			c-0.03,0.62-0.07,1.24-0.11,1.86c-0.08,1.37-0.18,2.74-0.31,4.09c-0.06,0.69-0.13,1.38-0.21,2.07c-0.15,1.34-0.32,2.68-0.5,4.02
			c-0.09,0.62-0.16,1.23-0.26,1.85c-0.29,1.87-0.61,3.74-0.98,5.59c-0.04,0.19-0.08,0.38-0.12,0.57c-0.35,1.71-0.74,3.4-1.15,5.08
			c-0.17,0.67-0.35,1.33-0.52,1.99c-0.31,1.19-0.64,2.37-0.99,3.55c-0.22,0.73-0.44,1.46-0.67,2.19c-0.36,1.13-0.73,2.25-1.12,3.36
			c-0.24,0.7-0.47,1.39-0.73,2.09c-0.51,1.41-1.06,2.8-1.62,4.19c-0.33,0.82-0.68,1.63-1.02,2.44c-0.5,1.17-1.01,2.33-1.54,3.48
			c-0.37,0.8-0.76,1.58-1.15,2.37c-0.43,0.87-0.86,1.74-1.3,2.6c-0.43,0.84-0.87,1.67-1.33,2.5c-0.43,0.79-0.87,1.56-1.31,2.34
			c-0.49,0.85-0.97,1.71-1.48,2.55c-0.41,0.68-0.84,1.35-1.26,2.02c-1.08,1.72-2.2,3.43-3.36,5.1c-0.36,0.52-0.7,1.04-1.07,1.55
			c-0.68,0.95-1.38,1.89-2.08,2.82c-0.38,0.5-0.76,1-1.14,1.5c-0.74,0.95-1.49,1.9-2.26,2.83c-0.33,0.41-0.67,0.8-1.01,1.2
			c-3.89,4.63-8.1,9.01-12.59,13.1c-0.21,0.19-0.42,0.38-0.63,0.57c-1.1,0.99-2.21,1.96-3.35,2.91c-0.12,0.1-0.24,0.2-0.36,0.3
			c-4.97,4.15-10.24,7.97-15.79,11.41c-0.03,0.02-0.06,0.04-0.09,0.06c-7.06,4.37-14.56,8.13-22.42,11.22V714.1
			c0-5.95-3.23-11.43-8.43-14.31c-5.21-2.89-11.56-2.72-16.61,0.43c-41.87,26.14-73.1,60.69-74.41,62.15
			c-5.59,6.22-5.59,15.65,0,21.87c1.31,1.46,32.54,36.01,74.41,62.15c2.65,1.65,5.65,2.49,8.67,2.49c2.73,0,5.47-0.68,7.94-2.05
			c5.2-2.89,8.43-8.36,8.43-14.32V801.5c4.96-1.24,9.83-2.68,14.63-4.25c0.65-0.21,1.3-0.41,1.95-0.62c1.86-0.63,3.7-1.32,5.53-2
			c0.99-0.37,1.99-0.73,2.97-1.11c1.74-0.67,3.46-1.39,5.17-2.11c1.05-0.44,2.1-0.88,3.14-1.34c1.67-0.73,3.33-1.49,4.97-2.26
			c1.05-0.49,2.09-0.99,3.12-1.5c1.63-0.8,3.24-1.6,4.85-2.44c1.01-0.53,2.01-1.08,3-1.62c1.6-0.87,3.21-1.75,4.78-2.66
			c0.9-0.52,1.78-1.07,2.66-1.6c5.55-3.33,10.93-6.9,16.11-10.7c0.9-0.66,1.81-1.3,2.69-1.97c1.35-1.02,2.66-2.08,3.98-3.13
			c0.99-0.79,1.99-1.58,2.96-2.39c1.25-1.04,2.48-2.1,3.71-3.17c1-0.87,2-1.75,2.99-2.64c1.18-1.07,2.34-2.14,3.49-3.23
			c1-0.94,1.98-1.9,2.95-2.86c1.1-1.09,2.21-2.18,3.28-3.3c0.99-1.02,1.95-2.07,2.92-3.11c1.02-1.1,2.05-2.19,3.05-3.32
			c1.04-1.17,2.04-2.37,3.05-3.56c0.88-1.04,1.78-2.06,2.64-3.11c1.76-2.17,3.48-4.38,5.15-6.61c0.75-1.01,1.47-2.05,2.2-3.08
			c0.98-1.37,1.97-2.74,2.92-4.13c0.75-1.1,1.47-2.23,2.2-3.35c0.88-1.36,1.76-2.72,2.61-4.1c0.71-1.15,1.39-2.31,2.07-3.47
			c0.82-1.4,1.63-2.8,2.42-4.22c0.64-1.16,1.28-2.33,1.91-3.51c0.78-1.47,1.53-2.96,2.27-4.46c0.57-1.15,1.14-2.3,1.69-3.46
			c0.77-1.63,1.5-3.27,2.22-4.92c0.46-1.06,0.94-2.1,1.39-3.17c0.9-2.15,1.75-4.33,2.57-6.53c0.22-0.58,0.46-1.16,0.68-1.74
			c1.01-2.77,1.95-5.56,2.83-8.38c0.29-0.93,0.54-1.87,0.82-2.8c0.58-1.94,1.14-3.89,1.66-5.85c0.3-1.13,0.56-2.27,0.84-3.41
			c0.44-1.8,0.86-3.61,1.25-5.43c0.26-1.2,0.49-2.4,0.72-3.61c0.35-1.8,0.67-3.6,0.97-5.42c0.2-1.21,0.39-2.43,0.57-3.65
			c0.27-1.86,0.5-3.74,0.71-5.62c0.14-1.18,0.28-2.35,0.39-3.53c0.2-2.06,0.34-4.14,0.47-6.22c0.06-1.01,0.15-2.01,0.2-3.02
			c0.15-3.1,0.24-6.21,0.24-9.34c0,0,0,0,0,0c0-2.35-0.07-4.68-0.16-7.01C790.27,600.06,789.94,599.63,789.07,599.28z"/>
		<path class="st28" d="M500.02,713.89l0.05-0.04c-32.64-24.34-53.68-62.49-53.68-105.4c0-6.64,0.51-13.17,1.48-19.55l11.6,7.84
			c4.88,3.29,11.22,3.77,16.56,1.25c2.54-1.2,4.67-2.99,6.23-5.15c1.73-2.39,2.77-5.23,2.93-8.24c2.57-47.62-7.85-91.48-8.3-93.33
			c-1.9-7.86-9.62-13.09-17.92-12.11c-1.95,0.23-48.16,5.83-93.57,24.51c-5.47,2.25-9.25,7.19-9.87,12.91
			c-0.62,5.72,2.02,11.31,6.9,14.6l25,16.88c-6.27,19.04-9.69,39.32-9.69,60.37c0,63.42,30.71,119.84,78.46,156.36
			c6.07,5.26,14.07,8.48,22.87,8.48c18.96,0,34.33-14.85,34.33-33.16C513.41,729.44,508.15,719.96,500.02,713.89z"/>
		<path class="st28" d="M795.07,481.33c-4.62-3.75-10.91-4.7-16.43-2.48l-28.31,11.38c-37.57-49.24-97.99-81.2-166.17-81.2
			c-51.45,0-98.48,18.22-134.61,48.31c-0.19,0.16-0.35,0.29-0.51,0.43c-0.16,0.13-0.31,0.27-0.46,0.41
			c-0.89,0.84-1.21,1.48-1.02,2.68c0.26,1.62,3.39,1.17,3.39,1.17l0.01,0c9.37-1.65,15.45-2.41,16.49-2.53
			c12.8-1.47,24.68,6.6,27.63,18.84c0.19,0.78,1.22,5.17,2.54,12.19c0,0.01,0.01,0.02,0.01,0.03c2.79,13.13,10.53,6.95,10.53,6.95
			l0,0.03c21.78-13.99,47.88-22.2,76-22.2c39.35,0,74.83,15.96,99.93,41.52l-15.3,6.15c-5.52,2.22-9.4,7.26-10.14,13.16
			c-0.74,5.9,1.79,11.74,6.59,15.25c39.87,29.1,83.58,45.18,85.42,45.86c7.85,2.86,16.6-0.66,20.29-8.16
			c0.87-1.76,21.27-43.63,29.91-92.22c0.55-3.07,0.2-6.18-0.93-8.97C798.92,485.4,797.26,483.12,795.07,481.33z"/>
		<path class="st28" d="M1158.24,382.06l-131.33-84.98V67.59h2.04c17.98,0,32.55-14.57,32.55-32.55s-14.57-32.55-32.55-32.55H752.46
			c-17.98,0-32.55,14.57-32.55,32.55s14.57,32.55,32.55,32.55h9.24v57.89L604.83,23.98c-10.76-6.96-24.61-6.96-35.37,0L16.06,382.06
			c-15.09,9.77-19.41,29.92-9.65,45.02c6.23,9.63,16.69,14.87,27.36,14.87c6.06,0,12.19-1.69,17.65-5.23l96.25-62.28v637.18
			c0,17.98,14.57,32.55,32.55,32.55h813.83c17.98,0,32.55-14.57,32.55-32.55V374.44l96.25,62.28c5.47,3.54,11.59,5.23,17.65,5.23
			c10.67,0,21.13-5.24,27.36-14.87C1177.65,411.99,1173.33,391.83,1158.24,382.06z M961.51,979.08H212.79V332.32L587.15,90.08
			l186.63,120.76c15.1,9.77,35.25,5.45,45.02-9.65c0.46-0.72,0.89-1.45,1.29-2.19c4.21-5.49,6.72-12.35,6.72-19.8V67.59h135v249.68
			c-0.18,1.4-0.29,2.83-0.29,4.28V979.08z"/>
	</g>
</g>
</svg>
