<?xml version="1.0" encoding="utf-8"?>
<!-- Generator: Adobe Illustrator 25.0.0, SVG Export Plug-In . SVG Version: 6.00 Build 0)  -->
<svg version="1.1" id="Layer_1" xmlns="http://www.w3.org/2000/svg" xmlns:xlink="http://www.w3.org/1999/xlink" x="0px" y="0px"
	 viewBox="0 0 1200 1072.36" style="enable-background:new 0 0 1200 1072.36;" xml:space="preserve">
<style type="text/css">
	.st0{fill:#EE655B;}
	.st1{fill:#64DADD;}
	.st2{fill:#05C4A3;}
	.st3{opacity:0.73;}
	.st4{fill:#D2F4EE;}
	.st5{fill:#FFFFFF;}
	.st6{fill:none;stroke:#000000;stroke-width:5.0725;stroke-miterlimit:10;}
	.st7{fill:#87D3C6;}
	.st8{fill:#F2A8A3;}
	.st9{fill:#EB9E3F;}
	.st10{fill:#F7EDC0;}
	.st11{fill:#AFF2E5;}
	.st12{fill:#FEAB8D;}
	.st13{fill:#F3937B;}
	.st14{fill:#F49277;}
	.st15{fill:#87E0F4;}
	.st16{opacity:0.3;}
	.st17{fill:#4B91B5;}
	.st18{fill:#383431;}
	.st19{fill:#F7857C;}
	.st20{fill:#07A889;}
	.st21{clip-path:url(#SVGID_2_);fill:#05C4A3;}
	.st22{clip-path:url(#SVGID_4_);fill:#05C4A3;}
	.st23{clip-path:url(#SVGID_6_);fill:#05C4A3;}
	.st24{fill:none;stroke:#05C4A3;stroke-width:9;stroke-linecap:round;stroke-linejoin:round;stroke-miterlimit:10;}
	.st25{clip-path:url(#SVGID_8_);fill:#05C4A3;}
	.st26{clip-path:url(#SVGID_10_);fill:#05C4A3;}
	.st27{clip-path:url(#SVGID_12_);fill:#05C4A3;}
</style>
<g>
	<path class="st2" d="M1194.12,870.89c-9.94-31.01-31.36-56.29-60.33-71.19c-28.99-14.93-62.06-17.69-93.01-7.67
		c-12.6,4.03-24.18,10.05-34.57,17.61l72.56-69.94c38.72-37.34,39.84-99.25,2.5-138l-39.7-41.18
		c-11.49-11.89-30.47-12.27-42.39-0.76c-11.93,11.48-12.27,30.49-0.78,42.41l39.7,41.18c14.4,14.91,13.96,38.78-0.97,53.18
		L862.36,865c-7.47,7.17-17.32,10.43-27.62,10.51c-10.34-0.41-19.81-4.92-26.66-12.65L693.11,732.89l7.12-4.77
		c6.84-4.59,6.15-14.86-1.24-18.49l-32.38-15.9l-32.38-15.9c-7.39-3.63-15.95,2.1-15.39,10.32l2.42,35.99l2.42,35.99
		c0.55,8.22,9.8,12.76,16.64,8.17l2.75-1.84c0.47,0.62,0.82,1.28,1.35,1.87l118.75,134.25c17.79,20.12,42.38,31.81,69.22,32.86
		c1.33,0.06,2.67,0.09,4,0.09c25.35,0,49.23-9.64,67.61-27.35l78.03-75.22c-4.69,6.01-8.88,12.48-12.45,19.4
		c-14.89,28.96-17.62,62-7.67,93.01c9.94,31.01,31.36,56.32,60.33,71.19c17.51,9.02,36.49,13.56,55.63,13.56
		c12.52,0,25.11-1.93,37.38-5.89c31.01-9.93,56.3-31.37,71.21-60.33C1201.34,934.94,1204.06,901.9,1194.12,870.89z M1133.1,936.46
		c-7.57,14.73-20.41,25.6-36.18,30.66c-15.75,5.04-32.54,3.69-47.25-3.9c-14.72-7.56-25.61-20.41-30.66-36.2
		c-5.05-15.76-3.66-32.54,3.89-47.24c7.57-14.73,20.43-25.6,36.2-30.66c6.24-1.99,12.62-2.99,18.98-2.99
		c9.72,0,19.37,2.31,28.27,6.88c14.72,7.59,25.61,20.44,30.66,36.2C1142.06,904.98,1140.67,921.76,1133.1,936.46z"/>
	<path class="st2" d="M558.47,630.03l-32.3-16.05l-32.3-16.05c-7.38-3.66-15.96,2.03-15.44,10.25l0.59,9.41l-173.91,20.63
		c-26.66,3.16-50.27,16.69-66.44,38.16c-16.18,21.44-22.73,47.85-18.42,74.36l17.34,106.75c-19.01-57.45-78.38-93.2-139.24-81.3
		C32.4,789.22-10.7,853.48,2.32,919.43c11.44,58.05,62.56,98.37,119.62,98.37c7.79,0,15.7-0.76,23.62-2.31
		c57.94-11.45,98.19-62.43,98.3-119.37l15.31,94.27c4.17,25.74,18.13,48.29,39.26,63.52c16.8,12.12,36.54,18.45,56.82,18.45
		c5.27,0,10.57-0.44,15.88-1.29l56.46-9.17c16.36-2.67,27.46-18.07,24.8-34.41c-2.66-16.37-18.08-27.53-34.41-24.8l-56.48,9.17
		c-9.93,1.7-19.84-0.73-28-6.59c-8.14-5.89-13.51-14.59-15.12-24.48l-38.91-239.65c-1.67-10.22,0.85-20.38,7.09-28.64
		c6.24-8.26,15.32-13.5,25.6-14.7l170.62-20.24l0.17,2.64c0.51,8.22,9.74,12.8,16.6,8.25l30.05-19.95l30.05-19.95
		C566.5,643.97,565.85,633.7,558.47,630.03z M133.95,956.62c-33.52,6.62-66.19-15.29-72.79-48.79c-6.6-33.5,15.28-66.16,48.8-72.78
		c4.03-0.79,8.04-1.17,11.99-1.17c29,0,54.97,20.47,60.78,49.96C189.34,917.35,167.45,950.01,133.95,956.62z"/>
	<path class="st2" d="M736.11,282.21l-82.49-42.42c9.93,2.62,20.27,4.11,30.92,4.11c3.75,0,7.54-0.18,11.35-0.53
		c66.95-6.21,116.37-65.72,110.16-132.67c-2.99-32.45-18.45-61.76-43.51-82.56C737.48,7.36,705.81-2.48,673.38,0.53
		c-66.95,6.21-116.37,65.72-110.16,132.7c3.11,33.62,19.76,62.73,43.97,82.68l-86.98-44.73c-47.81-24.54-106.78-5.68-131.4,42.14
		l-26.17,50.87c-7.58,14.7-1.79,32.8,12.95,40.39c14.77,7.61,32.83,1.76,40.39-12.97l26.17-50.84c9.5-18.42,32.2-25.77,50.64-16.22
		l215.9,111.02c9.2,4.72,15.89,12.8,18.83,22.73c2.96,9.93,1.76,20.35-3.37,29.35l-80.78,141.73l-4.98-2.86
		c-7.14-4.1-16.05,1.07-16.03,9.31l0.09,36.07l0.09,36.07c0.02,8.24,8.95,13.36,16.07,9.22l31.19-18.12l31.19-18.12
		c7.12-4.14,7.1-14.43-0.05-18.53l-5.58-3.2l80.87-141.88c13.31-23.34,16.41-50.37,8.77-76.11
		C777.36,315.45,759.99,294.51,736.11,282.21z M678.91,60.28c1.95-0.2,3.89-0.29,5.83-0.29c14.42,0,28.26,4.98,39.48,14.32
		c12.74,10.54,20.59,25.45,22.11,41.91c3.15,34.03-21.96,64.28-55.98,67.42c-33.88,3.13-64.27-21.94-67.42-55.94
		C619.78,93.66,644.9,63.41,678.91,60.28z"/>
</g>
</svg>
