<svg id="Layer_1" data-name="Layer 1" xmlns="http://www.w3.org/2000/svg" xmlns:xlink="http://www.w3.org/1999/xlink" viewBox="0 0 500 500"><defs><style>.cls-1{fill:none;}.cls-2{clip-path:url(#clip-path);}.cls-3{fill:#f7edc0;}.cls-4{clip-path:url(#clip-path-2);}.cls-5{fill:#f7931e;}</style><clipPath id="clip-path"><rect class="cls-1" x="159.17" y="170.37" width="186.63" height="165.89"/></clipPath><clipPath id="clip-path-2"><rect class="cls-1" x="154.2" y="163.75" width="186.63" height="165.89"/></clipPath></defs><g id="Group_1696" data-name="Group 1696"><g class="cls-2"><g id="Group_1689" data-name="Group 1689"><path id="Path_7020" data-name="Path 7020" class="cls-3" d="M317.28,336.26H187.68a5.18,5.18,0,0,1-5.18-5.19h0V221.18a5.19,5.19,0,1,1,10.37,0v104.7H312.1V221.18a5.19,5.19,0,0,1,10.37,0h0V331.07a5.19,5.19,0,0,1-5.19,5.19"/><line id="Line_19045" data-name="Line 19045" class="cls-1" x1="241.11" y1="285.14" x2="239.35" y2="287.5"/><path id="Path_7021" data-name="Path 7021" class="cls-3" d="M284.64,265.4c-.15-.06-.3.19-.36.34l0,.09v0c-.37.87-.64,1.41-.68,1.51a3.23,3.23,0,0,1-2.88,1.8,3,3,0,0,1-1.1-.21c-.22-.07-2-.73-4.49-1.92h0c-1.13-.53-1.14.78-1.14.78l0,.29c0,.22,0,.43-.05.65l0,.33-.08.64-.05.3c0,.29-.09.59-.15.89l0,.08c0,.28-.12.55-.18.82l-.09.31c-.05.19-.1.38-.16.57s-.07.23-.1.35l-.18.53-.12.33c-.08.22-.16.44-.26.66s-.11.26-.16.39l-.24.56-.19.37a4.11,4.11,0,0,1-.21.42l-.2.4-.22.37-.23.41-.2.31c-.17.28-.35.55-.54.82l-.16.24c-.11.16-.23.3-.34.45a1.5,1.5,0,0,1-.18.24,5.19,5.19,0,0,1-.36.46c0,.06-.1.13-.16.19a21.94,21.94,0,0,1-2,2.09l-.1.09-.53.46-.06.05a21.19,21.19,0,0,1-2.52,1.82h0a22.91,22.91,0,0,1-3.57,1.79v-2.81a2.61,2.61,0,0,0-2.61-2.61,2.69,2.69,0,0,0-1.38.39,62.07,62.07,0,0,0-11.85,9.9,2.62,2.62,0,0,0,0,3.48,62.07,62.07,0,0,0,11.85,9.9,2.62,2.62,0,0,0,1.38.39,2.59,2.59,0,0,0,2.61-2.57v-5c.79-.19,1.57-.42,2.33-.67l.31-.1.88-.32a3.8,3.8,0,0,0,.47-.18c.28-.1.56-.22.83-.33l.51-.21.79-.37.49-.23.77-.39a5.42,5.42,0,0,0,.48-.26l.77-.42.42-.25c.88-.54,1.74-1.11,2.56-1.71l.43-.31.64-.5.47-.38.59-.5.48-.42.55-.51.47-.46c.18-.17.36-.35.53-.53l.46-.5c.16-.16.33-.35.49-.53s.33-.37.48-.56.29-.33.42-.5c.28-.34.55-.69.83-1l.35-.5.46-.66.35-.53.42-.65.33-.55c.13-.23.26-.45.38-.68l.31-.56.36-.7.27-.55c.12-.27.24-.53.35-.79s.15-.33.22-.51c.14-.34.28-.69.41-1l.11-.28c.17-.44.31-.89.45-1.34,0-.14.09-.29.13-.44l.27-.93.12-.55c.08-.28.14-.57.21-.86s.07-.38.12-.57.1-.57.14-.86.07-.39.1-.59.08-.6.11-.89.05-.37.06-.57.05-.66.08-1l0-.49c0-.49,0-1,0-1.49s0-.74,0-1.11-.07-.29-.21-.34"/><path id="Path_7022" data-name="Path 7022" class="cls-3" d="M238.61,283.66h0a20.94,20.94,0,0,1-8.55-16.79,20.26,20.26,0,0,1,.24-3.11l1.84,1.25a2.68,2.68,0,0,0,2.64.2,2.57,2.57,0,0,0,1.46-2.14,57.55,57.55,0,0,0-1.33-14.86,2.6,2.6,0,0,0-2.85-1.93,63.41,63.41,0,0,0-14.9,3.9,2.55,2.55,0,0,0-1.57,2.06,2.49,2.49,0,0,0,1.1,2.32l4,2.7a30.73,30.73,0,0,0-1.54,9.61,31.28,31.28,0,0,0,12.49,24.9,5.55,5.55,0,0,0,3.65,1.35,5.38,5.38,0,0,0,5.46-5.28,5.22,5.22,0,0,0-2.14-4.18"/><path id="Path_7023" data-name="Path 7023" class="cls-3" d="M286.37,247.67a2.75,2.75,0,0,0-.78-1,2.57,2.57,0,0,0-2.62-.4l-4.5,1.82a33.6,33.6,0,0,0-47.17-5.82l-.73.58-.08.07-.08.07a.4.4,0,0,0-.16.42c0,.26.54.19.54.19h0c1.49-.27,2.46-.39,2.62-.41a4,4,0,0,1,4.41,3c0,.13.19.83.4,1.94h0c.45,2.09,1.68,1.11,1.68,1.11h0a22.45,22.45,0,0,1,28,3.08l-2.43,1a2.6,2.6,0,0,0-1.45,3.39,2.64,2.64,0,0,0,.88,1.13,62,62,0,0,0,13.61,7.31,2.6,2.6,0,0,0,3.22-1.31,61.65,61.65,0,0,0,4.77-14.68,2.68,2.68,0,0,0-.15-1.43"/><path id="Path_7024" data-name="Path 7024" class="cls-3" d="M285.46,203.7a5.2,5.2,0,0,1-5.19-5.19V177.45a5.19,5.19,0,1,1,10.37,0v21.06a5.18,5.18,0,0,1-5.18,5.18"/><path id="Path_7025" data-name="Path 7025" class="cls-3" d="M317.33,226.36a5.18,5.18,0,0,1-5.19-5.18V177.45a5.19,5.19,0,0,1,10.37,0h0v43.73a5.18,5.18,0,0,1-5.18,5.18"/><path id="Path_7026" data-name="Path 7026" class="cls-3" d="M322.84,180.73h-44a5.19,5.19,0,0,1,0-10.37h44a5.19,5.19,0,0,1,0,10.37"/><path id="Path_7027" data-name="Path 7027" class="cls-3" d="M340.61,240.35a5.22,5.22,0,0,1-2.82-.83L315,224.75A5.19,5.19,0,0,1,320.6,216l22.82,14.77a5.18,5.18,0,0,1-2.81,9.54"/><path id="Path_7028" data-name="Path 7028" class="cls-3" d="M164.36,240.35a5.19,5.19,0,0,1-2.81-9.54l88.12-57a5.16,5.16,0,0,1,5.62,0l32.54,21.05a5.19,5.19,0,0,1-5.62,8.71l-29.72-19.23-85.32,55.21a5.21,5.21,0,0,1-2.81.83"/></g></g></g><g id="Group_1690" data-name="Group 1690"><g class="cls-4"><g id="Group_1689-2" data-name="Group 1689-2"><path id="Path_7020-2" data-name="Path 7020-2" class="cls-5" d="M312.32,329.64H182.72a5.19,5.19,0,0,1-5.19-5.19h0V214.56a5.19,5.19,0,1,1,10.37,0v104.7H307.13V214.56a5.19,5.19,0,0,1,10.37,0h0V324.45a5.18,5.18,0,0,1-5.18,5.19"/><line id="Line_19045-2" data-name="Line 19045-2" class="cls-1" x1="236.14" y1="278.52" x2="234.39" y2="280.87"/><path id="Path_7021-2" data-name="Path 7021-2" class="cls-5" d="M279.67,258.78c-.15-.06-.29.19-.36.34l0,.09v0c-.38.87-.64,1.41-.69,1.51a3.22,3.22,0,0,1-2.88,1.8,3,3,0,0,1-1.1-.21c-.22-.07-2-.73-4.49-1.92h0c-1.13-.53-1.14.78-1.14.78v.29l-.06.65,0,.33-.08.64,0,.3c0,.29-.09.59-.16.89v.08c-.06.28-.12.55-.19.82l-.08.31c-.05.19-.1.38-.17.57s-.06.23-.1.35-.12.35-.18.53-.07.22-.11.33l-.26.66c-.05.14-.11.26-.17.39a5.55,5.55,0,0,1-.24.56l-.18.37-.21.42-.21.4-.21.37c-.07.13-.16.27-.24.41l-.2.31c-.16.28-.35.55-.53.82l-.17.24-.33.45-.18.24-.36.46a1.45,1.45,0,0,1-.17.19,21.94,21.94,0,0,1-2,2.09l-.1.09-.53.46-.06.05a20.3,20.3,0,0,1-2.51,1.82h0a22.37,22.37,0,0,1-3.56,1.79v-2.81a2.62,2.62,0,0,0-2.62-2.61,2.65,2.65,0,0,0-1.37.39,61.76,61.76,0,0,0-11.85,9.9,2.6,2.6,0,0,0,0,3.48,61.76,61.76,0,0,0,11.85,9.9,2.62,2.62,0,0,0,4-2.18v-5c.79-.19,1.56-.42,2.32-.67l.31-.1.88-.32a3.94,3.94,0,0,0,.48-.18c.28-.1.55-.22.83-.33l.5-.21.79-.37.5-.23.77-.39.48-.26.76-.42.43-.25c.88-.54,1.74-1.11,2.56-1.71l.43-.31.63-.5c.17-.12.32-.25.48-.38l.59-.5.47-.42.56-.51.46-.46c.19-.17.36-.35.53-.53l.47-.5c.15-.16.33-.35.48-.53l.49-.56c.13-.17.28-.33.41-.5.29-.34.56-.69.83-1l.35-.5.47-.66.34-.53c.15-.21.29-.43.42-.65s.22-.37.33-.56l.39-.67.3-.56.36-.7c.09-.19.19-.37.27-.55s.24-.53.35-.79a3.92,3.92,0,0,0,.22-.51c.15-.34.29-.69.42-1,0-.1.07-.18.1-.28.17-.44.31-.89.45-1.34.05-.14.09-.29.13-.44l.27-.93c0-.18.09-.36.13-.55s.14-.57.2-.86l.12-.57.15-.86c0-.2.07-.39.09-.59l.12-.89.06-.57c0-.33.05-.66.08-1l0-.49c0-.49,0-1,0-1.49s0-.74,0-1.11-.08-.29-.22-.34"/><path id="Path_7022-2" data-name="Path 7022-2" class="cls-5" d="M233.64,277h0a20.94,20.94,0,0,1-8.55-16.79,20.26,20.26,0,0,1,.24-3.11l1.85,1.25a2.66,2.66,0,0,0,2.63.2,2.6,2.6,0,0,0,1-.83,2.39,2.39,0,0,0,.46-1.31A57.54,57.54,0,0,0,230,241.59a2.61,2.61,0,0,0-2.86-1.93,63.33,63.33,0,0,0-14.89,3.9,2.53,2.53,0,0,0-1.57,2.06,2.47,2.47,0,0,0,1.1,2.32l4,2.7a30.73,30.73,0,0,0-1.54,9.61,31.29,31.29,0,0,0,12.5,24.9,5.52,5.52,0,0,0,3.64,1.35,5.37,5.37,0,0,0,5.46-5.28,5.21,5.21,0,0,0-2.13-4.18"/><path id="Path_7023-2" data-name="Path 7023-2" class="cls-5" d="M281.4,241.05a2.72,2.72,0,0,0-.77-1,2.57,2.57,0,0,0-2.62-.4l-4.51,1.82a33.6,33.6,0,0,0-47.17-5.82l-.73.58-.08.07-.07.07a.41.41,0,0,0-.17.42c0,.26.55.19.55.19h0c1.49-.27,2.45-.39,2.62-.41a4,4,0,0,1,4.4,3c0,.13.2.83.41,1.94h0c.44,2.09,1.67,1.11,1.67,1.11h0a22.46,22.46,0,0,1,28,3.08l-2.44,1a2.61,2.61,0,0,0-1.45,3.39,2.66,2.66,0,0,0,.89,1.13,62.12,62.12,0,0,0,13.6,7.31,2.61,2.61,0,0,0,3.23-1.31,61.17,61.17,0,0,0,4.76-14.68,2.58,2.58,0,0,0-.14-1.43"/><path id="Path_7024-2" data-name="Path 7024-2" class="cls-5" d="M280.49,197.07a5.18,5.18,0,0,1-5.18-5.18V170.83a5.19,5.19,0,1,1,10.37,0v21.06a5.18,5.18,0,0,1-5.19,5.18"/><path id="Path_7025-2" data-name="Path 7025-2" class="cls-5" d="M312.36,219.74a5.18,5.18,0,0,1-5.18-5.18V170.83a5.19,5.19,0,0,1,10.37,0h0v43.73a5.2,5.2,0,0,1-5.19,5.18"/><path id="Path_7026-2" data-name="Path 7026-2" class="cls-5" d="M317.87,174.11h-44a5.19,5.19,0,1,1,0-10.37h44a5.19,5.19,0,1,1,0,10.37"/><path id="Path_7027-2" data-name="Path 7027-2" class="cls-5" d="M335.64,233.73a5.16,5.16,0,0,1-2.81-.83L310,218.13a5.18,5.18,0,0,1,5.62-8.71l22.83,14.77a5.19,5.19,0,0,1-2.81,9.54"/><path id="Path_7028-2" data-name="Path 7028-2" class="cls-5" d="M159.39,233.73a5.19,5.19,0,0,1-2.81-9.54l88.12-57a5.18,5.18,0,0,1,5.63,0l32.54,21.05a5.19,5.19,0,0,1-5.63,8.71l-29.72-19.23L162.2,232.9a5.16,5.16,0,0,1-2.81.83"/></g></g></g></svg>