<?xml version="1.0" encoding="utf-8"?>
<!-- Generator: Adobe Illustrator 25.0.0, SVG Export Plug-In . SVG Version: 6.00 Build 0)  -->
<svg version="1.1" id="Layer_1" xmlns="http://www.w3.org/2000/svg" xmlns:xlink="http://www.w3.org/1999/xlink" x="0px" y="0px"
	 viewBox="0 0 1200 1072.36" style="enable-background:new 0 0 1200 1072.36;" xml:space="preserve">
<style type="text/css">
	.st0{fill:#EE655B;}
	.st1{fill:#64DADD;}
	.st2{fill:#05C4A3;}
	.st3{opacity:0.73;}
	.st4{fill:#D2F4EE;}
	.st5{fill:#FFFFFF;}
	.st6{fill:none;stroke:#000000;stroke-width:5.0725;stroke-miterlimit:10;}
	.st7{fill:#87D3C6;}
	.st8{fill:#F2A8A3;}
	.st9{fill:#EB9E3F;}
	.st10{fill:#F7EDC0;}
	.st11{fill:#AFF2E5;}
	.st12{fill:#FEAB8D;}
	.st13{fill:#F3937B;}
	.st14{fill:#F49277;}
	.st15{fill:#87E0F4;}
	.st16{opacity:0.3;}
	.st17{fill:#4B91B5;}
	.st18{fill:#383431;}
	.st19{fill:#F7857C;}
	.st20{fill:#07A889;}
	.st21{clip-path:url(#SVGID_2_);fill:#05C4A3;}
	.st22{clip-path:url(#SVGID_4_);fill:#05C4A3;}
	.st23{clip-path:url(#SVGID_6_);fill:#05C4A3;}
	.st24{fill:none;stroke:#05C4A3;stroke-width:9;stroke-linecap:round;stroke-linejoin:round;stroke-miterlimit:10;}
	.st25{clip-path:url(#SVGID_8_);fill:#05C4A3;}
	.st26{clip-path:url(#SVGID_10_);fill:#05C4A3;}
	.st27{clip-path:url(#SVGID_12_);fill:#05C4A3;}
</style>
<g>
	<g>
		<path class="st2" d="M587.66,501.99c-22.46,2.27-42.77,13.25-57.13,29.7l-17.12-126.9c-1.97-14.54-14.48-25.46-29.09-25.46h-72.16
			c-14.42,0-26.94,10.8-29.02,25.1l-78.97,541.04h151.75l-6.81,46.7c-0.67,4.66-0.8,9.27-0.31,13.87H286.86
			c-13.26,0-25.83-5.71-34.49-15.77c-8.65-10-12.58-23.32-10.68-36.39l81.49-558.15c6.38-43.87,44.67-77.01,88.98-77.01h72.16
			c44.8,0,83.15,33.5,89.16,77.99L587.66,501.99z"/>
	</g>
	<g>
		<path class="st2" d="M764.59,1072.36H533.44c-12.13,0-23.63-5.27-31.56-14.44c-7.93-9.17-11.47-21.3-9.7-33.29l60.67-415.86
			c5.33-36.45,37.12-63.97,73.97-63.97h53.75c37.25,0,69.09,27.84,74.07,64.77l55.34,410.86c1.75,13.14-2.23,26.33-10.93,36.28
			C790.34,1066.65,777.78,1072.36,764.59,1072.36z M555.3,1011.77h192.38l-53.1-394.08c-0.93-7.01-6.97-12.28-14.01-12.28h-53.75
			c-6.98,0-12.99,5.21-14,12.13L555.3,1011.77z"/>
	</g>
	<path class="st2" d="M936.79,105.27c-11.01-15.27-25.43-27.4-41.7-35.08c-9-4.24-18.17-7.06-27.26-8.39
		c-3.89-0.56-7.49-0.67-10.66-0.67c-1.97-0.21-4.04-0.37-6.23-0.47c-0.98-1.44-2.05-3.13-2.89-4.47
		c-2.88-4.57-6.15-9.76-10.53-14.41c-11.98-12.73-26.63-23.2-42.39-30.28c-34.59-15.52-75.07-15.33-111.06,0.55
		c-33.61,14.83-59.36,42.11-71.05,75.15c-0.91,0.34-1.94,0.7-2.82,1.01c-2.71,0.96-5.53,1.97-8.4,3.18
		c-28.24,11.95-49.97,33.77-59.62,59.86c-8.88,23.97-7.18,50.43,4.78,74.52c28.1,56.59,91.01,58.18,136.94,59.34
		c5.24,0.14,10.36,0.26,15.27,0.47c14.35,0.61,28.78,0.91,43.22,0.91c19.4,0,38.82-0.55,58.09-1.64c3.71-0.22,7.46-0.4,11.23-0.59
		c49.27-2.43,116.76-5.76,141.35-76.55C964.62,174.47,958.38,135.22,936.79,105.27z M859.85,116.45c3.58,0.85,7.69,1.81,11.69,3.69
		c7.83,3.69,14.9,9.72,20.45,17.43c11.06,15.34,14.56,35.76,8.91,52.02c-11.15,32.07-37.84,36.84-91.91,39.51
		c-3.91,0.19-7.8,0.38-11.64,0.6c-31.8,1.82-64.04,2.04-95.83,0.7c-5.22-0.22-10.65-0.36-16.22-0.5
		c-44.25-1.12-76.52-3.84-88.87-28.7c-5.26-10.6-6.09-20.96-2.46-30.77c4.4-11.87,15.1-22.14,29.36-28.18
		c1.78-0.76,3.53-1.35,5.21-1.95c9.93-3.49,28.41-10,36.06-33.29c6.44-19.61,21.27-35.39,41.76-44.43
		c11.12-4.91,22.87-7.36,34.43-7.36c10.98,0,21.79,2.22,31.7,6.67c6.27,2.82,12.22,6.64,17.62,11.11
		c-21.36,10.39-41.08,28.37-51.35,58.27c-4.95,14.42,2.73,30.14,17.15,35.09c2.97,1.02,6,1.5,8.97,1.5
		c11.47,0,22.18-7.2,26.12-18.65c9.48-27.63,35.66-32.78,50.66-33.38C841.67,115.82,853.95,115.05,859.85,116.45z"/>
</g>
</svg>
