<?xml version="1.0" encoding="utf-8"?>
<!-- Generator: Adobe Illustrator 25.0.0, SVG Export Plug-In . SVG Version: 6.00 Build 0)  -->
<svg version="1.1" id="Layer_1" xmlns="http://www.w3.org/2000/svg" xmlns:xlink="http://www.w3.org/1999/xlink" x="0px" y="0px"
	 viewBox="0 0 842.53 1390.08" style="enable-background:new 0 0 842.53 1390.08;" xml:space="preserve">
<style type="text/css">
	.st0{fill:#EE655B;}
	.st1{fill:#64DADD;}
	.st2{fill:#05C4A3;}
	.st3{opacity:0.73;}
	.st4{fill:#D2F4EE;}
	.st5{fill:#FFFFFF;}
	.st6{fill:none;stroke:#000000;stroke-width:5.0725;stroke-miterlimit:10;}
	.st7{fill:#87D3C6;}
	.st8{fill:#F2A8A3;}
	.st9{fill:#EB9E3F;}
	.st10{fill:#F7EDC0;}
	.st11{fill:#AFF2E5;}
	.st12{fill:#FEAB8D;}
	.st13{fill:#F3937B;}
	.st14{fill:#F49277;}
	.st15{fill:#87E0F4;}
	.st16{opacity:0.3;}
	.st17{fill:#4B91B5;}
	.st18{fill:#383431;}
	.st19{fill:#F7857C;}
	.st20{fill:#07A889;}
	.st21{clip-path:url(#SVGID_2_);fill:#05C4A3;}
	.st22{clip-path:url(#SVGID_4_);fill:#05C4A3;}
	.st23{clip-path:url(#SVGID_6_);fill:#05C4A3;}
	.st24{fill:none;stroke:#05C4A3;stroke-width:9;stroke-linecap:round;stroke-linejoin:round;stroke-miterlimit:10;}
	.st25{clip-path:url(#SVGID_8_);fill:#05C4A3;}
	.st26{clip-path:url(#SVGID_10_);fill:#05C4A3;}
	.st27{clip-path:url(#SVGID_12_);fill:#05C4A3;}
</style>
<g>
	<g>
		<path class="st0" d="M718.37,541.24h4.35c69.94-1.47,125.52-53.62,124.26-116.48c-1.26-62.91-58.97-112.74-128.86-111.32
			c-2.63,0.05-5.26,0.2-7.83,0.35c-4.95,0.4-7.48-5.66-3.64-8.89c1.97-1.72,3.99-3.49,5.91-5.36
			c50.43-48.41,56.04-124.41,12.48-169.84c-43.51-45.38-119.71-42.95-170.19,5.41c-3.89,3.79-7.58,7.73-10.92,11.77
			c-3.23,3.89-9.45,1.26-8.89-3.79c0.66-5.36,0.96-10.86,0.96-16.47C535.85,56.74,484.76,0.14,421.84,0.24
			c-62.91,0.1-113.8,56.9-113.65,126.79c0,5.86,0.36,11.62,1.06,17.23c0.66,5.05-5.71,7.73-8.89,3.74
			c-3.64-4.6-7.58-8.99-11.93-13.24c-50.02-48.87-126.18-51.95-170.14-6.92c-43.96,44.97-39.06,121.08,10.97,169.94
			c3.74,3.59,7.58,6.97,11.57,10.11c3.99,3.13,1.52,9.4-3.53,8.99c-4.7-0.4-9.45-0.56-14.25-0.51
			C51.59,317.59-5.51,371.15-4.45,435.98c1.01,64.88,59.83,116.53,131.34,115.37c4.7-0.1,9.35-0.4,13.9-0.96
			c5-0.56,7.73,5.61,3.84,8.84c-3.64,3.13-7.22,6.47-10.61,10.06c-48.26,50.53-50.53,126.79-5.05,170.19
			c45.53,43.46,121.53,37.7,169.79-12.84c3.74-3.89,7.18-7.93,10.31-12.13c3.08-4.04,9.45-1.67,9.05,3.44
			c-0.45,5.41-0.55,10.92-0.35,16.47c2.27,57.96,39.31,105.51,87.78,118.55v256.65c-6.87-16.22-17.99-31.58-35.43-43.15
			c-51.04-33.76-150.48-34.36-187.07-33.3c-6.97,0.2-11.68,7.18-9.15,13.69c13.14,34.36,52.1,126.53,103.19,160.29
			c51.09,33.81,108.34,8.59,128.46-2.37l0,162.48c0,11.09,7.96,20.98,18.96,22.38c13.3,1.7,24.65-8.63,24.65-21.6v-236.04
			c20.62,10.71,77.87,34.61,128.15,0.3c50.59-34.51,88.23-127.24,100.86-161.75c2.38-6.57-2.37-13.49-9.35-13.59
			c-36.64-0.45-136.03,1.57-186.57,36.03c-15.87,10.81-26.33,24.81-33.1,39.62V855.15c56.65-9.15,98.79-64.48,96.26-129.57
			c-0.15-4.07-0.5-8.09-1-12.07c-0.62-4.91,5.48-7.73,8.74-4.01c2.83,3.23,5.86,6.37,9.05,9.4c50.88,47.9,127.09,49.67,170.24,3.89
			c43.15-45.78,36.89-121.78-14-169.74c-1.12-1.06-2.27-2.07-3.44-3.08C711.5,546.9,713.72,541.19,718.37,541.24z M662.68,528.91
			c-13.29,31.84-32.95,61.6-59.17,87.17c-22.13,21.58-47.15,38.4-73.73,50.63c-0.05-0.15-0.1-0.25-0.2-0.4
			c-35.02,16.02-74.08,24.56-115.16,23.65c-29.56-0.71-57.81-6.27-84.14-15.87v-0.05c-0.45-0.2-0.86-0.4-1.31-0.56
			c-2.17-0.86-4.29-1.77-6.37-2.68c-1.92-0.81-3.84-1.62-5.76-2.53c-1.87-0.86-3.74-1.72-5.61-2.68c-2.07-0.96-4.15-2.02-6.17-3.08
			c-1.66-0.86-3.33-1.77-5-2.63c-2.18-1.21-4.35-2.43-6.47-3.69c-1.51-0.86-2.98-1.77-4.45-2.68c-2.23-1.31-4.4-2.73-6.57-4.14
			c-1.42-0.91-2.78-1.82-4.19-2.78c-2.12-1.47-4.24-2.93-6.37-4.5c-1.41-1.01-2.78-2.07-4.19-3.08c-1.97-1.52-3.99-3.03-5.97-4.65
			c-1.47-1.16-2.93-2.43-4.4-3.64c-1.82-1.52-3.59-2.98-5.3-4.55c-1.67-1.47-3.28-2.93-4.9-4.45c-1.51-1.42-3.03-2.83-4.55-4.3
			c-1.77-1.72-3.48-3.54-5.26-5.31c-1.01-1.06-2.07-2.07-3.08-3.13c-0.26-0.3-0.51-0.61-0.76-0.91c-1.77-1.87-3.43-3.79-5.1-5.71
			c-1.03-1.11-2.03-2.26-3.02-3.42c-1.26-1.47-3.24-3.95-4.45-5.47c-1.48-1.86-3.02-3.71-4.5-5.62c-0.36-0.45-0.66-0.96-1.01-1.42
			c-9.75-12.99-18.14-26.68-25.16-40.83c-0.15-0.35-0.36-0.71-0.51-1.01c-1.36-2.83-2.67-5.71-3.94-8.64
			c-0.15-0.25-0.31-0.51-0.4-0.81c-14.61-34.21-21.83-70.75-21.83-107.13c0-33.91,6.27-67.76,18.7-99.65
			c-0.05-0.05-0.1-0.05-0.15-0.1c14.66-35.57,37.29-68.57,67.97-95.91c21.83-19.56,46.09-34.67,71.6-45.63c0,0.05,0,0.1,0.05,0.1
			c29.76-12.23,62.26-19.3,96.42-19.81c36.54-0.51,71.45,6.47,103.29,19.46c30.67,13.69,59.27,33.45,83.83,59.38
			c24.15,25.52,42.19,54.63,54.22,85.45c0.05,0,0.15,0,0.2-0.05c13.24,31.63,20.62,66.3,20.46,102.73
			c-0.15,33.45-6.57,65.34-18.04,94.75C662.38,528.81,662.53,528.86,662.68,528.91z"/>
	</g>
	<g>
		<path class="st0" d="M287.94,393.68c-23.31,0-46.63-7.17-66.54-21.52c-0.06-0.04-0.11-0.08-0.17-0.12l-0.63-0.52
			c-2.41-2.23-3.17-5.87-1.63-8.95c1.87-3.74,6.43-5.25,10.17-3.39c0.38,0.19,0.75,0.42,1.1,0.67
			c34.52,24.88,80.87,24.88,115.38-0.02c3.4-2.45,8.61-1.8,10.99,1.66c2.26,3.29,1.73,7.69-1.46,10.15
			c-0.09,0.07-0.5,0.38-0.59,0.44C334.65,386.48,311.3,393.68,287.94,393.68z"/>
	</g>
	<g>
		<path class="st0" d="M538.07,393.68c-23.31,0-46.63-7.17-66.54-21.52c-0.06-0.04-0.11-0.08-0.17-0.12l-0.63-0.52
			c-2.41-2.23-3.17-5.87-1.63-8.95c1.88-3.74,6.43-5.25,10.17-3.39c0.38,0.19,0.75,0.42,1.1,0.67
			c34.52,24.88,80.86,24.88,115.38-0.02c3.4-2.45,8.61-1.8,10.99,1.66c2.26,3.29,1.72,7.69-1.46,10.15
			c-0.09,0.07-0.5,0.38-0.59,0.44C584.79,386.48,561.44,393.68,538.07,393.68z"/>
	</g>
	<g>
		<path class="st1" d="M563.72,449.79c0,14.02-5.93,18.98-14.71,18.98c-8.78,0-17.08-4.96-17.08-18.98c0-9.7,7.94-20.62,12.84-26.44
			c1.94-2.31,5.49-2.24,7.32,0.16C556.58,429.36,563.72,440.18,563.72,449.79z"/>
	</g>
	<g>
		<path class="st0" d="M501.21,554.79c-2.16,0-4.29-0.91-5.79-2.68c-6.1-7.22-28.9-30.87-65.84-32.06
			c-0.96-0.03-1.91-0.04-2.86-0.04c-39.55,0-64.18,26.65-68.81,32.11c-2.71,3.2-7.49,3.58-10.68,0.88
			c-3.19-2.71-3.59-7.49-0.88-10.68c5.53-6.52,35.35-39.03,83.72-37.42c43.18,1.39,69.79,29,76.92,37.42
			c2.7,3.2,2.3,7.98-0.89,10.68C504.68,554.2,502.94,554.79,501.21,554.79z"/>
	</g>
</g>
</svg>
