<svg id="Layer_1" data-name="Layer 1" xmlns="http://www.w3.org/2000/svg" viewBox="0 0 2563.66 1828.68"><defs><style>.cls-1{fill:#d3edf5;}.cls-2{fill:#e2fafa;}.cls-26,.cls-3,.cls-40{fill:#fff;}.cls-3,.cls-4,.cls-5,.cls-6{opacity:0.5;}.cls-4{fill:#b5e2ea;}.cls-5{fill:#a9dbd2;}.cls-6{fill:#dbefea;}.cls-7{fill:#87d3c6;}.cls-10,.cls-12,.cls-20,.cls-28,.cls-8{fill:none;stroke-linecap:round;}.cls-20,.cls-8{stroke:#05c4a3;}.cls-10,.cls-12,.cls-20,.cls-8{stroke-linejoin:round;}.cls-10,.cls-8{stroke-width:6px;}.cls-9{fill:#05c4a3;}.cls-10,.cls-12{stroke:#87d3c6;}.cls-11{fill:#d9dadb;}.cls-12,.cls-20,.cls-28{stroke-width:2px;}.cls-13{fill:#e4ddbf;}.cls-14{fill:#cdc7ad;opacity:0.55;}.cls-15{fill:#eb9e3f;}.cls-16{fill:#c88734;}.cls-17{fill:#ee655b;}.cls-18{fill:#c8554d;}.cls-19{fill:#f39686;}.cls-21{fill:#e9eaea;}.cls-22{fill:#dbdbdb;}.cls-23{fill:#f1f2f2;}.cls-24{fill:#e7e8e8;opacity:0.59;}.cls-25{fill:#f5cdb0;}.cls-27{fill:#f6f8fb;}.cls-28{stroke:#000;stroke-miterlimit:10;}.cls-29{fill:#ecb9b0;}.cls-30{fill:#a16d26;}.cls-31{fill:#c7822a;}.cls-32{fill:#d97b6c;}.cls-33{fill:#f7edc0;}.cls-34{fill:#54b7ce;}.cls-35{fill:#cb4b47;}.cls-36,.cls-38{fill:#b24b43;}.cls-36{opacity:0.37;}.cls-37{fill:#1e1e1e;}.cls-38{opacity:0.49;}.cls-39{fill:#a0433b;opacity:0.71;}.cls-40{opacity:0.9;}</style></defs><path class="cls-1" d="M839.52,1799.82H207.3s-290.56-86.63-104.6-420.88,127.84-431,184.29-627.8S494.53,260.51,871.42,187.05s216,129.84,765.49,20.5,667.34,358.74,667.34,452.72,8.3,365.63,147.77,574.06,158.53,537.86-135.52,555c-164.78,9.61-421,11.09-621.12,10.48-161.44-.49-279.39,0-279.39,0Z"/><path class="cls-2" d="M812.82,1817.49H180.6S-110,1730.87,76,1396.61s127.84-431,184.29-627.8S467.83,278.19,844.72,204.72s216,129.85,765.49,20.51S2277.55,584,2277.55,678s8.3,365.62,147.77,574.05,158.53,537.86-135.52,555c-164.78,9.62-421,11.09-621.12,10.48-161.44-.49-279.39,0-279.39,0Z"/><path class="cls-3" d="M935.73,882.51c10.07-18.49.67-42.73-15.58-56.11s-37.56-18.55-58.07-23.32l-75.7-17.63c-11.18-2.6-23.48-6-29.62-15.67-9-14.16.26-32.54,10.13-46.08,10.73-14.73,25.38-34.59,11.62-52.19-7.81-10-20.47-14.75-32.75-17.91-80.84-20.84-155.44,12.19-235,19.56-44.18,4.1-88.53-2.25-131.62-11.79-9.49-2.1-64.25-21.85-69.09-10.54C294,688.38,276.6,727.16,267,767c-1.74,7.25-3.7,10,1.94,13.42,8.1,4.88,29.26,2.61,38.77,3.18,30.31,1.81,63.44,5.25,93-2.59,9.83-2.63,22.11-5.18,32.25-3.85,8.45,1.11,17,6.09,19.69,14.16,5.53,16.26-11.81,42.76-26.08,49.91-10.68,5.35-23,6.3-34.11,10.73-15.6,6.22-27.27,18.74-36.84,32.14-9.1,12.74-13.36,23.27-28.63,29.08-13.5,5.14-28.9,5.65-43.17,5.95-13.2.27-31.72-1.93-44.93-2-2.37,8.58-16.72,106.47-12.19,107,37.71,4.42,73.21,14.65,110.86,20.54,47.83,7.47,100,7,140.68-19.21C515.47,1001.5,537.18,960,569,929.38c9.13-8.79,19.39-16.85,31.44-20.77,10.85-3.53,22.49-3.49,33.91-3.43l235.37,1.4C894.41,906.72,923.93,904.17,935.73,882.51Z"/><path class="cls-3" d="M2283.32,759.41c-18,.67-38.12-3-60.35-13-18.11-8.14,23.28-89.51-1.63-139.42-18.27-36.63-66.37-44.79-107.3-44.78s-87.17,1.53-116.27-27.25c-2.65-2.62-5.16-5.56-6.31-9.1-1.61-5-.32-10.45,1.83-15.21,12.34-27.37,47.1-34.66,76.89-38.45L2192,456.66c4.89-.62,9.89-1.3,14.89-2.14-27.85-46.88-65-93.91-113.92-134.1-10.34,24.91-22,48.81-43,64.09-27.82,20.32-65,20.23-99.47,20.06a2369.38,2369.38,0,0,0-341.43,23.1c-21.72,3.06-44,6.62-63,17.64s-34.16,31.26-32.87,53.16c1.46,24.81,22.93,44,45.45,54.47s47.53,15.39,69.07,27.77c9,5.19,18.24,13.63,17.07,24-1.06,9.44-10.13,15.47-17.28,21.73a74.83,74.83,0,0,0-24.27,66.07C1703.59,733,1815.73,724,1923.81,726.11c30.85.62,63.16,2.64,89.52,18.69,8.69,5.29,17,12.79,19,22.77,1.48,7.28-.61,14.79-3.14,21.77-16.31,44.93-52.61,87.16-43.3,134,10.08,50.73,67.36,75.32,117.68,87.24,25.08,5.93,171.35,38.09,235.85,50.89C2301.43,949.24,2288,838.54,2283.32,759.41Z"/><path class="cls-4" d="M1909.69,915.47a27.88,27.88,0,0,1,34.19-20.71,41,41,0,0,1,49.36-21.8,50.56,50.56,0,0,1,90.82,8.83,34.69,34.69,0,0,1,51.55,30.31c0,1.14-.05,2.26-.16,3.37Z"/><path class="cls-5" d="M2400.3,1782.08A49.31,49.31,0,0,0,2409,1768c10.88-27.19-3.9-61.39-33-68.7-18.48-4.64-39.43,3-50.65,18.37-5.31,7.3-8.5,16-14,23.18-23.52,30.73-43.24-5-26.11-30.06a331.89,331.89,0,0,1,34.61-42.66c14.94-15.58,32.77-33.08,30.67-54.57-2-20.1-20.61-33.81-37.68-44.59-17.65-11.15-36.32-22.36-57.12-24.1-84.42-7-55.28,132.48-61.57,180.59-5.43,41.53-33.27,50.63-62.33,18.65-20.25-22.28,5.53-38.3-1.21-62.29-2.54-9-9.5-16.11-16.79-22-14.44-11.68-31.86-20.59-50.42-21.36-32.27-1.33-53,26-56.88,56-2.36,18.18,13.36,77.22-5.94,85.61-7.23,3.14-15.49,1.89-23.31,1-44.84-5.34-94.67,3.61-124.93,37.14,56.6-4,114.8-1,171.64-2.24,102.86-2.22,208.25,2.47,310.65-6.57C2357.35,1807.27,2384.75,1800,2400.3,1782.08Z"/><path class="cls-6" d="M2440.6,1782.08a49.28,49.28,0,0,0,8.66-14.11c10.88-27.19-3.9-61.39-33-68.7-18.48-4.64-39.43,3-50.64,18.37-5.32,7.3-8.51,16-14,23.18-23.52,30.73-43.25-5-26.12-30.06a331.89,331.89,0,0,1,34.61-42.66c14.95-15.58,32.77-33.08,30.68-54.57-2-20.1-20.62-33.81-37.69-44.59-17.65-11.15-36.32-22.36-57.12-24.1-84.42-7-55.28,132.48-61.57,180.59-5.43,41.53-33.27,50.63-62.33,18.65-20.25-22.28,5.53-38.3-1.21-62.29-2.54-9-9.5-16.11-16.79-22-14.43-11.68-31.86-20.59-50.42-21.36-32.27-1.33-53,26-56.88,56-2.36,18.18,13.36,77.22-5.94,85.61-7.22,3.14-15.49,1.89-23.31,1-44.84-5.34-102.64,3.14-132.9,36.66,56.6-4,122.77-.54,179.61-1.76,102.86-2.22,208.26,2.47,310.65-6.57C2397.64,1807.27,2425,1800,2440.6,1782.08Z"/><path class="cls-7" d="M1674.77,1693c45.29-18.73,283.38-106.26,449.08,48.24a5.54,5.54,0,0,1-1.48,9.13c-44.63,20.07-281.4,114.85-449.36-48.29A5.54,5.54,0,0,1,1674.77,1693Z"/><path class="cls-8" d="M1670.87,1697.43s226.44-37.73,431.83,42"/><path class="cls-7" d="M1667.43,1700s-8.09-483.75,261.52-457.8-217.31,456-217.31,456Z"/><path class="cls-8" d="M1966.06,1261.8s-239.3,35.32-278.54,438.18"/><path class="cls-5" d="M181.8,1786.4a61.59,61.59,0,0,1-11.24-17.46c-14.38-33.78,3.22-77,39.5-87,23-6.31,49.5,2.64,64,21.65,6.86,9,11.1,19.83,18.17,28.68,30.31,37.88,54.07-7.37,31.92-38.38a416.4,416.4,0,0,0-44.53-52.53c-19.15-19.13-42-40.58-39.92-67.57,1.92-25.24,24.93-42.93,46-56.9,21.82-14.46,44.91-29,70.94-31.75,105.61-11.12,72.86,164.55,82,224.67,7.93,51.9,43.07,62.56,78.63,21.69,24.77-28.47-8-47.85-.17-78.1,2.94-11.38,11.47-20.44,20.45-28,17.77-15,39.37-26.67,62.62-28.13,40.41-2.54,67.09,31.1,72.79,68.6,3.46,22.73-14.65,97.15,9.76,107.13,9.14,3.74,19.47,2,29.24.58,56.06-7.91,118.75,2,157.58,43.17-71-3.52-143.91,1.83-215.18,1.83-129,0-260.94,8.73-389.52.15C236.32,1816.8,201.78,1808.39,181.8,1786.4Z"/><path class="cls-6" d="M131.25,1785.34A62,62,0,0,1,120,1767.89c-14.37-33.78,3.23-77.05,39.5-87,23-6.32,49.5,2.64,64,21.65,6.86,9,11.1,19.82,18.18,28.67,30.31,37.88,54.07-7.37,31.91-38.38a414.69,414.69,0,0,0-44.52-52.52c-19.16-19.13-42-40.58-39.92-67.57,1.91-25.24,24.92-42.93,46-56.91,21.81-14.45,44.91-29,70.93-31.74C411.71,1473,379,1648.65,388.14,1708.77c7.93,51.9,43.07,62.55,78.62,21.69,24.78-28.47-8-47.86-.16-78.1,2.94-11.39,11.47-20.45,20.45-28,17.77-15,39.37-26.67,62.61-28.13,40.41-2.54,67.1,31.1,72.8,68.6,3.45,22.72-14.66,97.14,9.76,107.13,9.14,3.74,19.46,2,29.24.58,56.06-7.91,118.74,2,157.57,43.17-71-3.52-143.9,1.82-215.17,1.82-129,0-260.95,8.73-389.53.16C185.77,1815.75,151.23,1807.34,131.25,1785.34Z"/><path class="cls-7" d="M393.08,542.9a256.13,256.13,0,0,0,21.56,69.67c20.38,42.87,53.13,80.76,65.48,127.24,13.27,49.91,5.58,104.27-6.75,153.51-9.85,39.31-22.88,78.3-24.77,118.79-8.38,180.25,220.41,204.45,350,169.37,26.77-7.24,53.17-17.5,75.12-34.44,91.46-70.59,44.72-216.6-15.38-291.5-14.71-18.33-31.62-34.94-44.87-54.35-24.36-35.7-25.83-76.42-9.47-115.76,17.36-41.74,48.15-76.24,71.47-115,45.55-75.65,29-143.74-16.05-214.27C834.67,317.48,808.86,279,790,236.93c-18.56-41.4-22.39-83.08-31.16-126.81-19.64-97.93-109-130.88-194.5-80.62-32.67,19.21-58.27,51.94-64.24,89.37-6.92,43.32,13.15,87.24,1.48,130-14.2,52-65.35,85.68-87,134.81C392.46,433.88,384.53,489.48,393.08,542.9Z"/><line class="cls-8" x1="643.55" y1="54.94" x2="643.55" y2="1616.76"/><line class="cls-8" x1="643.55" y1="1011.32" x2="546.67" y2="934.73"/><line class="cls-8" x1="643.55" y1="879.89" x2="739.36" y2="791.95"/><line class="cls-8" x1="643.55" y1="1082.28" x2="717.18" y2="1015.13"/><line class="cls-8" x1="643.55" y1="757.64" x2="546.67" y2="681.05"/><line class="cls-8" x1="643.55" y1="659.48" x2="724.11" y2="585.4"/><line class="cls-8" x1="643.55" y1="505.35" x2="581.33" y2="456.48"/><line class="cls-8" x1="643.55" y1="382.23" x2="690.84" y2="338.66"/><line class="cls-8" x1="643.55" y1="326.52" x2="581.33" y2="277.66"/><line class="cls-8" x1="643.55" y1="203.41" x2="672.82" y2="176.47"/><path class="cls-7" d="M2193.53,1224.42a138.25,138.25,0,0,0,11.64,37.6c11,23.14,28.67,43.59,35.34,68.68,7.16,26.94,3,56.28-3.64,82.86-5.32,21.22-12.35,42.26-13.37,64.11-4.53,97.29,119,110.35,188.9,91.42,14.45-3.91,28.7-9.44,40.55-18.59,49.37-38.1,24.14-116.91-8.3-157.33-7.94-9.9-17.07-18.86-24.22-29.34-13.15-19.27-13.94-41.25-5.11-62.48,9.37-22.53,26-41.15,38.57-62,24.59-40.83,15.66-77.58-8.66-115.65-13.35-20.9-27.28-41.68-37.45-64.38-10-22.35-12.09-44.85-16.82-68.45-10.61-52.85-58.82-70.64-105-43.51-17.64,10.37-31.45,28-34.68,48.24-3.73,23.38,7.1,47.08.8,70.18-7.67,28.1-35.27,46.25-47,72.77C2193.2,1165.57,2188.92,1195.58,2193.53,1224.42Z"/><line class="cls-8" x1="2328.72" y1="961.04" x2="2328.72" y2="1804.04"/><line class="cls-8" x1="2328.72" y1="1477.25" x2="2276.43" y2="1435.91"/><line class="cls-8" x1="2328.72" y1="1406.31" x2="2380.44" y2="1358.84"/><line class="cls-8" x1="2328.72" y1="1515.55" x2="2368.47" y2="1479.31"/><line class="cls-8" x1="2328.72" y1="1340.32" x2="2276.43" y2="1298.99"/><line class="cls-8" x1="2328.72" y1="1287.34" x2="2372.21" y2="1247.36"/><line class="cls-8" x1="2328.72" y1="1204.15" x2="2295.14" y2="1177.77"/><line class="cls-8" x1="2328.72" y1="1137.7" x2="2354.25" y2="1114.18"/><line class="cls-8" x1="2328.72" y1="1107.63" x2="2295.14" y2="1081.25"/><line class="cls-8" x1="2328.72" y1="1041.18" x2="2344.52" y2="1026.63"/><path class="cls-9" d="M521.8,941.35a207.68,207.68,0,0,1-17.45,56.37c-16.49,34.68-43,65.34-53,103-10.73,40.38-4.51,84.36,5.46,124.19,8,31.81,18.52,63.36,20,96.12,6.79,145.83-178.32,165.41-283.16,137-21.65-5.86-43-14.16-60.77-27.87-74-57.11-36.18-175.24,12.44-235.84,11.9-14.83,25.59-28.27,36.31-44,19.7-28.88,20.9-61.82,7.66-93.66-14-33.76-39-61.68-57.82-93-36.86-61.2-23.48-116.29,13-173.35,20-31.33,40.89-62.48,56.14-96.5,15-33.5,18.12-67.22,25.21-102.6C241.76,512,314,485.31,383.22,526c26.44,15.54,47.15,42,52,72.3,5.6,35.05-10.64,70.58-1.2,105.21,11.5,42.12,52.88,69.32,70.4,109.07C522.3,853.14,528.71,898.13,521.8,941.35Z"/><line class="cls-10" x1="320.28" y1="546.56" x2="320.28" y2="1810.18"/><line class="cls-10" x1="320.28" y1="1320.34" x2="241.9" y2="1258.37"/><line class="cls-10" x1="320.28" y1="1214" x2="397.8" y2="1142.85"/><line class="cls-10" x1="320.28" y1="1377.75" x2="379.85" y2="1323.42"/><line class="cls-10" x1="320.28" y1="1115.09" x2="241.9" y2="1053.13"/><line class="cls-10" x1="320.28" y1="1035.67" x2="385.46" y2="975.74"/><line class="cls-10" x1="320.28" y1="910.97" x2="269.94" y2="871.43"/><line class="cls-10" x1="320.28" y1="811.36" x2="358.54" y2="776.1"/><line class="cls-10" x1="320.28" y1="766.29" x2="269.94" y2="726.75"/><line class="cls-10" x1="320.28" y1="666.68" x2="343.96" y2="644.88"/><path class="cls-9" d="M1666.19,1691.5A1759,1759,0,0,1,1918.06,1484c72.34-49,153.07-73.72,240.48-52.33a260.58,260.58,0,0,1,41.1,13.74c35.46,15.29,90.39,54,54.92,97-14,17-36.11,24.9-57.46,30.43-79.34,20.54-161.94,22.33-242.12,38.58a1143.56,1143.56,0,0,0-143.55,38.93c-44.42,15.2-97.42,30.47-134.49,60.34l-.09.07a5.62,5.62,0,0,1-9.09-3.84Z"/><path class="cls-10" d="M2249.53,1508.09s-355.88-59.35-581.77,198.88"/><path class="cls-11" d="M1015.16,847.1s10.25-250,223.23-334.29,354.22,120.73,379.28,334.29L1555,873.86l-10.26-26.76s4.56-328.59-212.13-322.9c-214.23,5.63-256,328-256,328s-34.17,86.56-36.45,78.59S1015.16,847.1,1015.16,847.1Z"/><path class="cls-9" d="M1537,852.68A1045.07,1045.07,0,0,1,1594.71,668c20-47.81,52.07-86.25,102.4-104a154.81,154.81,0,0,1,24.85-6.52c22.57-3.92,62.38-2.54,58.75,30.36-1.43,13-9.84,24.07-18.64,33.74-32.72,35.94-73.14,63.63-107.67,97.7a678.72,678.72,0,0,0-58.63,65.9c-17.11,22-38.47,46.73-47.18,73.58l0,.07a3.33,3.33,0,0,1-5.75,1Z"/><path class="cls-12" d="M1765.38,573.56s-194.22,84.83-222.56,286.29"/><path id="bottle" class="cls-13" d="M1377.43,661.27c-14.82,31.26-138.08,325.24-138.08,325.24l265.54,112.73S1631.42,804.72,1643,774s7.72-47.55,6.16-58.89c-5.15-37.45-11.23-105.21-9.33-130.56,2.63-35.32,6.16-47,6.16-47l37.69-88.79s22.38-40.2-11.77-57.88,1.24-.15-31.84-13.51-44.36,29.23-44.36,29.23l-39.42,92.87s-14.78,24.3-28.75,34.81c-10.07,7.58-77,54.65-114.18,80.76C1413.32,615,1392.23,630,1377.43,661.27Z"/><path class="cls-14" d="M1614.13,523.14l39.43-92.87s7.64-28.89,28.81-31.64a37.84,37.84,0,0,0-10.5-7.77c-34.16-17.68,1.25-.15-31.82-13.53s-44.36,29.24-44.36,29.24l-39.44,92.87s-14.77,24.3-28.74,34.8c-10.08,7.59-77,54.67-114.18,80.77,0,0-21.1,15-35.9,46.26s-138.08,325.24-138.08,325.24l265.55,112.73.31-.72-167.4-88.31c27.49-65.66,54.54-131.51,82.32-197.05q21.11-49.77,42.91-99.23c6.35-14.34,11.28-30.22,21.88-41.77,10.19-11.1,23.45-18.74,35.32-27.82,22.8-17.47,40.84-40.13,56.94-63.72C1589.32,562.82,1605.75,543.07,1614.13,523.14Z"/><path class="cls-13" d="M1639.8,584.56c-1.91,25.35,4.18,93.12,9.33,130.56,1.57,11.33,5.39,28.17-6.16,58.88-11.21,29.83-130.84,308.41-137.76,324.52l-208-88.31s123.26-294,138.08-325.24,35.89-46.26,35.89-46.26c37.16-26.1,104.12-73.17,114.19-80.77,14-10.5,28.75-34.8,28.75-34.8l39.43-92.87s7.64-28.89,28.81-31.64c18.29,19.55,1.29,50.1,1.29,50.1L1646,537.52S1642.43,549.24,1639.8,584.56Z"/><g id="hotdog"><path id="Subtraction_6" data-name="Subtraction 6" class="cls-15" d="M1134.22,1087.26a98.94,98.94,0,0,1-64.55-1.45c-37.16-14-58.46-49.94-72.88-84.95-28.09-68.16-43.51-143.4-65.73-213.65-23.34-73.82-42.68-150.68-70.35-223-4.27-13.55-27.18-54.18-30.52-67.79-5.64-23,6.49-36.28,30.89-31.67,11.22,2.12,14,3.85,24.89.42,7.54-2.36,14-5.69,22-4.82,10.55,1.13,44.13,39.25,60.22,40.5,26.4,2,41.12-.19,65.26-7.5,9.82-3,17.32-7.71,21.73,5,41.7,120.58,78.27,242.92,116.92,364.5,19.46,61.19,59,139.68,7,195.92A103.29,103.29,0,0,1,1134.22,1087.26Z"/><ellipse id="Ellipse_8" data-name="Ellipse 8" class="cls-16" cx="975.64" cy="584.77" rx="73.87" ry="21.34" transform="translate(-108.71 928.3) rotate(-48.52)"/><ellipse id="Ellipse_8-2" data-name="Ellipse 8-2" class="cls-16" cx="1016.91" cy="705.55" rx="73.87" ry="21.34" transform="translate(-185.26 999.99) rotate(-48.52)"/><ellipse id="Ellipse_8-3" data-name="Ellipse 8-3" class="cls-16" cx="1051.41" cy="841.1" rx="73.87" ry="21.34" transform="translate(-275.16 1071.59) rotate(-48.52)"/><ellipse id="Ellipse_8-4" data-name="Ellipse 8-4" class="cls-16" cx="1097.67" cy="971.43" rx="73.87" ry="21.34" transform="translate(-357.18 1150.24) rotate(-48.52)"/></g><path class="cls-7" d="M1107.85,634.9a4.31,4.31,0,0,0-1.31.37c-5,2.48-11,17.92-13.67,22.89a265.27,265.27,0,0,0-21.1,50,241.59,241.59,0,0,0-8,36c-2.16,15.23,11.72,18.86,23.1,24.12l.12.06a4.42,4.42,0,0,1-1.56,8.38q-6.33.51-12.61,1.45c-4.9.74-10.52,2.24-12.47,6.8-1.12,2.6-.71,5.56-.27,8.35,14.86,92.69,62.8,181.37,135.13,242.53a4.43,4.43,0,0,0,6.5-.88c26.56-38.73,49-81.31,59.77-127.24a241,241,0,0,0,6.4-56.44c-.05-8.53.94-20.31-1.92-28.43s-9-7.12-16.89-8.33c-2.88-.44-19.29-5.12-21.54-3.24l22.37-8.82c6.28-2.47,9.85-2,10.4-9.11.67-8.74-6-15.07-9.55-22.33a420.81,420.81,0,0,0-23.28-41.1c-6.48-10.26-31,9.29-40.26,10,6.71-.52,12.24-12.82,14.7-17.82,4.67-9.49,7.65-16.66-1.2-24.39-10-8.7-20-17.37-30.48-25.42a353.44,353.44,0,0,0-43.87-28.66C1121.92,641.09,1112.87,634.33,1107.85,634.9Z"/><path class="cls-9" d="M1264.09,817.55c-3.55-4.15-10.11-3.44-14.94-3.84l-1-.08a4.43,4.43,0,0,1-1.15-8.56,34,34,0,0,0,8.65-4.76c12.3-9.65-8.8-38.78-14.22-48.17-4.06-7-7.7-14.26-12-21.14a12.85,12.85,0,0,0-4-4.52c-6-3.62-18.42,5.85-24.1,8-4.36,1.68-9,2.23-13.19,4.45,12.88-4.34,26.37-29,14.27-39.39-28.25-24.35-57-48.81-91.55-63.85-6.7-2.92-4.22,17.49-4.28,21.13q-.19,11.58.19,23.14c.51,15.81,1.76,31.59,3.55,47.31a839.28,839.28,0,0,0,16.8,94.82c12.54,53.92,29.16,106.9,48.51,158.74,6.23,16.68,11.34,36.93,18.44,53.29a4.43,4.43,0,0,0,7.71.77c4-5.79,10.82-16.5,11.83-18.1,4.94-7.87,9.68-15.86,14.15-24a372.15,372.15,0,0,0,23.33-50.63c12.93-35.09,19.38-72.42,15.84-109.8q-.54-5.71-1.36-11.4A6.68,6.68,0,0,0,1264.09,817.55Z"/><path id="cup" class="cls-17" d="M1214.9,649.61l194.66,53.76s-78.07,225.77-84.38,245.83S1300,964.63,1300,964.63l-123.82-34.2s-17.79-6.72-14.72-24.84S1214.9,649.61,1214.9,649.61Z"/><path id="cup_head" data-name="cup head" class="cls-18" d="M1197.83,654.48a10.83,10.83,0,0,1,4.07-21.21A10.84,10.84,0,0,1,1215.23,620l1.61.45,4.67-16.89s3.86-17.27,21.78-12.33l172.12,47.54c17.08,4.72,12.43,20.4,12.43,20.4l-5,18.16,1.17.32a10.84,10.84,0,0,1,4.6,18.27,10.83,10.83,0,0,1-7.38,20.28Z"/><path id="cover" class="cls-19" d="M1194.53,745.64s74.35,40.52,184,47.14c-22.57,67.57-25,72.31-25,72.31s-62.37,9.07-175.17-44.87C1184.59,790.81,1194.53,745.64,1194.53,745.64Z"/><path class="cls-7" d="M1583.88,848.68s89.63-189.59,189.45-127.79S1601.4,856.47,1601.4,856.47Z"/><path class="cls-20" d="M1780.94,737s-122,16.41-189.25,115.54"/><path class="cls-21" d="M948.54,847.1s10.25-250,223.23-334.29S1526,633.54,1551.05,847.1l-62.65,26.76-10.25-26.76s4.56-328.59-212.13-322.9c-214.23,5.63-256,328-256,328s-34.17,86.56-36.45,78.59S948.54,847.1,948.54,847.1Z"/><path class="cls-22" d="M1672,847.1H889.83A22.88,22.88,0,0,0,867,868.57l-57,924.64a22.87,22.87,0,0,0,22.83,24.28H1729a22.87,22.87,0,0,0,22.83-24.28l-57-924.64A22.88,22.88,0,0,0,1672,847.1Z"/><path class="cls-23" d="M1657.1,847.1H874.94a22.87,22.87,0,0,0-22.83,21.47l-57,924.64A22.88,22.88,0,0,0,818,1817.49h896.1a22.88,22.88,0,0,0,22.84-24.28l-57-924.64A22.87,22.87,0,0,0,1657.1,847.1Z"/><path class="cls-24" d="M1729.49,1672.88c-704.59,16.37-708.07-624.3-691.81-825.78H874.94a22.87,22.87,0,0,0-22.83,21.47l-57,924.64A22.88,22.88,0,0,0,818,1817.49h896.1a22.88,22.88,0,0,0,22.84-24.28Z"/><line class="cls-9" x1="1179.17" y1="1463.21" x2="1163.86" y2="1483.69"/><path class="cls-9" d="M1558.65,1291.11c-1.28-.52-2.54,1.73-3.14,3-.12.27-.23.51-.34.77l0,.11h0c-3.31,7.59-5.59,12.3-6,13.19h0a27.92,27.92,0,0,1-34.71,14c-1.88-.68-17.36-6.45-39.08-16.83l-.13,0c-9.84-4.59-9.94,6.79-9.94,6.79,0,.86-.1,1.72-.15,2.58q-.16,2.85-.42,5.68c-.09,1-.19,1.91-.29,2.87-.2,1.86-.44,3.72-.7,5.57-.12.86-.22,1.71-.36,2.56-.4,2.61-.84,5.19-1.36,7.76,0,.26-.11.52-.17.78-.48,2.37-1,4.72-1.6,7.06-.23.92-.48,1.84-.72,2.76-.44,1.65-.89,3.29-1.37,4.92-.31,1-.61,2-.93,3-.49,1.56-1,3.12-1.55,4.67-.34,1-.66,1.93-1,2.89-.71,2-1.47,3.9-2.25,5.82-.46,1.14-.94,2.26-1.42,3.39-.69,1.61-1.39,3.23-2.13,4.82-.52,1.11-1.06,2.2-1.6,3.3s-1.19,2.41-1.8,3.61-1.22,2.32-1.84,3.47-1.21,2.18-1.83,3.26-1.35,2.37-2,3.53c-.56,1-1.16,1.87-1.74,2.8-1.51,2.4-3.06,4.76-4.67,7.08-.49.72-1,1.44-1.48,2.15-.94,1.32-1.92,2.62-2.89,3.92-.53.69-1.05,1.39-1.59,2.08q-1.53,2-3.13,3.93c-.46.56-.93,1.11-1.4,1.67a188.72,188.72,0,0,1-17.48,18.19l-.87.79q-2.28,2.06-4.64,4l-.51.42a191.51,191.51,0,0,1-21.92,15.84l-.12.07a193.38,193.38,0,0,1-31.13,15.58v-24.5a22.72,22.72,0,0,0-34.75-19.28c-58.13,36.29-101.49,84.26-103.31,86.28a22.73,22.73,0,0,0,0,30.36c1.82,2,45.18,50,103.31,86.28a22.72,22.72,0,0,0,34.75-19.27v-43c6.89-1.72,13.65-3.72,20.32-5.91.9-.3,1.81-.56,2.71-.87,2.58-.88,5.13-1.82,7.68-2.77,1.38-.51,2.76-1,4.13-1.54,2.41-.93,4.79-1.92,7.18-2.92,1.45-.61,2.91-1.22,4.35-1.86,2.33-1,4.62-2.06,6.91-3.14,1.45-.68,2.89-1.38,4.33-2.08,2.26-1.11,4.51-2.23,6.73-3.39,1.4-.74,2.79-1.5,4.17-2.25,2.23-1.22,4.46-2.43,6.64-3.7,1.25-.72,2.47-1.48,3.7-2.22q11.57-6.92,22.37-14.86c1.25-.91,2.51-1.81,3.74-2.74,1.87-1.42,3.69-2.89,5.52-4.35,1.38-1.1,2.76-2.19,4.12-3.31,1.74-1.45,3.44-2.92,5.15-4.4q2.09-1.82,4.14-3.67c1.64-1.48,3.25-3,4.85-4.49,1.38-1.31,2.74-2.64,4.1-4,1.53-1.52,3.06-3,4.55-4.58s2.72-2.87,4.06-4.31,2.85-3,4.23-4.61,2.83-3.29,4.23-4.94c1.22-1.44,2.47-2.86,3.66-4.32q3.67-4.52,7.15-9.19c1.05-1.4,2-2.85,3.06-4.27,1.36-1.9,2.73-3.8,4-5.74,1-1.53,2-3.09,3-4.65,1.23-1.88,2.45-3.77,3.63-5.69,1-1.59,1.93-3.2,2.88-4.81q1.71-2.91,3.35-5.86c.9-1.62,1.78-3.24,2.65-4.88,1.08-2,2.13-4.11,3.16-6.18.79-1.6,1.59-3.19,2.35-4.8,1.06-2.26,2.07-4.55,3.08-6.84.64-1.46,1.31-2.92,1.93-4.4,1.25-3,2.42-6,3.56-9.06.31-.81.65-1.6.94-2.42q2.1-5.76,3.94-11.63c.4-1.29.75-2.6,1.14-3.89.8-2.69,1.58-5.39,2.3-8.12.41-1.57.78-3.15,1.17-4.73.6-2.5,1.2-5,1.73-7.53.36-1.66.69-3.34,1-5,.48-2.5.93-5,1.34-7.52.28-1.69.55-3.38.79-5.08.37-2.58.7-5.19,1-7.8.19-1.63.39-3.26.55-4.9.27-2.87.47-5.75.66-8.64.08-1.41.21-2.8.27-4.2.21-4.3.33-8.63.33-13h0c0-3.26-.1-6.5-.22-9.73C1560.32,1292.2,1559.86,1291.6,1558.65,1291.11Z"/><path class="cls-9" d="M1157.36,1450.23l.07-.06c-45.31-33.79-74.52-86.75-74.52-146.33a179.82,179.82,0,0,1,2.06-27.13l16.11,10.88a23.4,23.4,0,0,0,23,1.74,22.62,22.62,0,0,0,8.65-7.15,21.39,21.39,0,0,0,4.07-11.44c3.57-66.12-10.9-127-11.52-129.57-2.63-10.91-13.36-18.16-24.88-16.8-2.7.32-66.86,8.09-129.9,34a22,22,0,0,0-13.7,17.92,21.66,21.66,0,0,0,9.58,20.27l34.7,23.44a267.27,267.27,0,0,0-13.45,83.81c0,88,42.63,166.38,108.93,217.08a48.34,48.34,0,0,0,31.74,11.78c26.32,0,47.66-20.62,47.66-46A45.38,45.38,0,0,0,1157.36,1450.23Z"/><path class="cls-9" d="M1573.73,1136.53a22.7,22.7,0,0,0-29.56-12.61l-39.3,15.8c-52.16-68.36-136-112.73-230.69-112.73-71.44,0-136.72,25.29-186.89,67.07l-.7.6-.65.57a3.61,3.61,0,0,0-1.41,3.71c.36,2.25,4.71,1.63,4.71,1.63h0c13-2.29,21.45-3.34,22.9-3.51,17.77-2,34.26,9.16,38.36,26.15.26,1.08,1.69,7.18,3.52,16.93l0,0c3.87,18.23,14.62,9.66,14.62,9.66v0a195.87,195.87,0,0,1,244.25,26.83l-21.24,8.54a22.73,22.73,0,0,0-4.92,39.44c55.35,40.39,116,62.72,118.59,63.66a22.72,22.72,0,0,0,28.17-11.33c1.2-2.44,29.53-60.56,41.51-128A22.59,22.59,0,0,0,1573.73,1136.53Z"/><g id="woman"><g id="WOMAN-2"><path id="Path_269" data-name="Path 269" class="cls-25" d="M704.05,1742.94v52h25.3v-52Z"/><path id="Path_270" data-name="Path 270" d="M731.2,1791.59H704.4s-3.08-1.68-4.19,7.25-2,16.19-2,16.19-1.4,2.79,8.37,2.79h53.85s12.83-5.31,0-14.23C746.55,1798,731.2,1791.59,731.2,1791.59Z"/><path id="Path_268" data-name="Path 268" class="cls-25" d="M604.66,1742.94v52H630v-52Z"/><path id="Path_15" data-name="Path 15" class="cls-17" d="M610.69,1424.52s-15.83,24.25-15.83,345.43c27.7,2.47,31.67,2.47,67.3,0,1-16.33,15.84-286.53,15.84-286.53s14.84,50.48,10.88,286.53c23.76,5.44,59.39,4.45,73.25-5.44,0-15.84-3-353.35-12.87-351.37s-138.57-8.91-138.57-8.91Z"/><path id="Path_267" data-name="Path 267" d="M631.81,1791.59H605s-3.08-1.68-4.19,7.25-2,16.19-2,16.19-1.4,2.79,8.37,2.79h53.85s12.83-5.31,0-14.23C647.15,1798,631.81,1791.59,631.81,1791.59Z"/><path id="Path_18" data-name="Path 18" class="cls-25" d="M771.3,1281.33s-1.4,15.2-2.14,24.53-6.88,23.94,11.15,14.66c11.46-5.64,63.52-30.63,63.52-30.63a27,27,0,0,0,16.22-27v39.64s-100,66.23-111.28,68-9.91,0-9.91,0v-89.2Z"/><path id="Path_21" data-name="Path 21" d="M509.4,1140.77c3.54-1.36,10.82-4.82,16.52-7.2,8.16-4.56,17.33-14.39,19.46-33s34.92-24.26,43.45-23.46,40,7.93,61.58-8.8,63.72,2.2,74.65,12.33,34.28,31.45,31.16,75.8c-2.42,32.58-29,42-39.69,49.77s-26.94,53-26.94,53l-24.25,19.72-56.52-16.26-20,6.93s-47.13-5.08-82.37-54.92C475.74,1167.23,495.61,1148.42,509.4,1140.77Z"/><path id="Path_20" data-name="Path 20" class="cls-25" d="M666.18,1208.23l5.24-35.35s-13.53-3.59-18.23-21.27c-5.8,2.21-17.39,3.32-19.88-4.14s1.12-18,11.07-15.74c9.33-2.75,31.23-18.19,41.3-35.07,2.8-5.75-5,17.3,0,15.18,5.13-2.25,22.76-27.61,22.76-27.61a47.08,47.08,0,0,1,20.16,27.61c5.25-1.1,18.78,7.19,2.76,19.89-1.1,9.66.28,34.52-29.55,44.74.28,11,0,31.76,0,31.76Z"/><path id="Path_19" data-name="Path 19" class="cls-15" d="M570.33,1256.1s24,30.76,39.37,28.3c9.23-9.64,10.87-12.71,10.87-12.71l-8.82,14.76s-5.54,99.61-1.85,136.52c41.22,3.08,103,2.26,140.47-9.23.36-15.4,0-115,0-115l32-16.82s-12.1-82.94-80.59-87.4c.61-.57-9.84,11.69-32.81,0a214.26,214.26,0,0,0-24,2.46s-15.91-.82-33.17,14.36S570.33,1256.1,570.33,1256.1Z"/><path id="Path_16" data-name="Path 16" class="cls-25" d="M630.43,1452s-17.51-13-13.71-26.65c-6.85-4.57-96.69-72.34-96.69-72.34a22.87,22.87,0,0,1,0-25.88c9.13-13.71,64.71-77.66,64.71-77.66l32,24.37-47.81,56.76s-6.13,8.53-1.34,14.93c9.07,8.27,83.41,85.91,83.41,85.91l-14.46,25.89Z"/><path id="Path_265" data-name="Path 265" class="cls-15" d="M603.57,1223.9l33.18,30.94s-11.94,14-26.58,29.93C593,1283.51,573.78,1258,573.78,1258Z"/><path id="Path_22" data-name="Path 22" d="M1000.69,966.46c-6,3.54-129.56,88.78-129.56,88.78s-18.18,8.56-12.82,34.23c0,28.88-.25,716.09.09,719.84-.34,6,2.22,8.69,5.06,9.75s14.1,0,14.1,0,5.85-.49,5.85-9.75V1089.47s-2.44-10.54,10.22-18.82,120.25-85.21,120.25-85.21,7.3-3.4,3.89-9.25a54.23,54.23,0,0,0-6.81-9.74C1008.62,963.6,1006.65,962.92,1000.69,966.46Z"/><path id="Subtraction_7" data-name="Subtraction 7" class="cls-25" d="M874.07,1290.75h0a7.09,7.09,0,0,1-1.59-.16,3.74,3.74,0,0,1-1.28-.55,2.72,2.72,0,0,1-.87-1,3.84,3.84,0,0,1-.35-1.6c0-.57.69-1.06,2.17-1.52a3.48,3.48,0,0,1-1.93-1,3,3,0,0,1-.57-.95,4.31,4.31,0,0,1-.22-1.33.84.84,0,0,1,.14-.51,1.56,1.56,0,0,1,.41-.44,5.19,5.19,0,0,1,1.48-.67,5.25,5.25,0,0,1-2.58-.94,3.11,3.11,0,0,1-.83-1,3.88,3.88,0,0,1-.45-1.37,1,1,0,0,1,.14-.67c.55-.86,2.44-1.25,4.22-1.51a8.58,8.58,0,0,1-2.94-1,3.05,3.05,0,0,1-.87-.77,1.65,1.65,0,0,1-.34-.92,1.28,1.28,0,0,1,.09-.67,1.64,1.64,0,0,1,.38-.55,4.23,4.23,0,0,1,1.46-.82,26.66,26.66,0,0,1,4.41-1c.63-.1,1.22-.2,1.78-.31a14.45,14.45,0,0,0,5.34-2.88c1-.75,1.89-1.55,2.78-2.39l1.45-1.29v23.54a1.23,1.23,0,0,1-.33.26,4.79,4.79,0,0,1-1.09,1.11,9.41,9.41,0,0,1-1.64,1,13.94,13.94,0,0,1-2.6,1A24.53,24.53,0,0,1,874.07,1290.75Z"/></g><circle id="Ellipse_13" data-name="Ellipse 13" cx="679.82" cy="1124.31" r="4.4"/><circle id="Ellipse_13-2" data-name="Ellipse 13" cx="711.99" cy="1124.31" r="4.4"/><path id="Subtraction_8" data-name="Subtraction 8" class="cls-26" d="M683.28,1149.63h22a2.06,2.06,0,0,1,1.8,3,11.1,11.1,0,0,1-3.75,4.26,15.54,15.54,0,0,1-18.11,0,11.19,11.19,0,0,1-3.75-4.26A2.06,2.06,0,0,1,683.28,1149.63Z"/><path id="Rectangle_40" data-name="Rectangle 40" class="cls-27" d="M651.62,1429.8h0a1.08,1.08,0,0,1,.44,1.46L637.88,1458a1.08,1.08,0,0,1-1.46.45h0A1.08,1.08,0,0,1,636,1457l14.19-26.72A1.08,1.08,0,0,1,651.62,1429.8Z"/><path class="cls-28" d="M673.94,1115.06a17.51,17.51,0,0,1,6.43-.93,16.93,16.93,0,0,1,5.33,1"/><path class="cls-28" d="M706.12,1115.06a17.51,17.51,0,0,1,6.43-.93,16.78,16.78,0,0,1,5.32,1"/></g><path class="cls-29" d="M694.94,1127.89l4.1,6.74c1,1.59,2,3.55,1.12,5.21-.95,1.91-3.65,2.07-5.69,1.45"/><path class="cls-30" d="M747.14,1261.86s5.82,20.9,5.24,35.89C752.38,1297.75,748.52,1275.34,747.14,1261.86Z"/><path class="cls-4" d="M48.14,911.38A15.3,15.3,0,0,1,66.89,900a22.51,22.51,0,0,1,27.05-11.95,27.73,27.73,0,0,1,49.8,4.84A19,19,0,0,1,172,909.53c0,.62,0,1.24-.09,1.85Z"/><path class="cls-4" d="M1108.61,420a15.52,15.52,0,0,1,15.12-12,15.29,15.29,0,0,1,3.91.5,22.86,22.86,0,0,1,27.49-12.14,28.16,28.16,0,0,1,50.58,4.92,19.31,19.31,0,0,1,28.71,16.88c0,.63,0,1.25-.09,1.87Z"/><path class="cls-31" d="M1841.31,1192.9s-32.4,40.82-62.54,41.79l5.28,36.4s29.52,2,51.17-9.84Z"/><g id="man"><g id="man_" data-name="man "><path id="Path_84" data-name="Path 84" class="cls-17" d="M1516.4,1150.69l36.61,373.1s.53,23.88,8.66,30.45c8,2.87,13.15,1.39,18.94,6.36,5,6,10,12.59,20.36,14,20.3,7.45,125.36-6.41,125.36-6.41,9.47-1.25,18.9-2.34,28.28-4.27,9-1.86,18.21-3.67,26.75-7.27,9.39-3.95,13.49-8.8,19.24-16.75,4.73-6.54,12.59-8,18-13.44,2.64-2.62,3.34-6.35,3.85-9.91-.57-7.72-40.59-393.83-40.59-393.83s0-12.46-11.27-25.2c-9.54-14-21.43-29.44-21.43-29.44s-3.54-7.5-1.11-10.51-.21-9.32-.21-9.32-6.48-4.66-20.5-5.16-70.08,2.69-96.75,5-63.36,9.07-63.36,9.07-35.32,8.47-35.93,13.9.68,6.5.68,6.5a9.53,9.53,0,0,1,2.83,6.29c-.14,3.43-4.39,16.68-11.86,39.76S1516.4,1150.69,1516.4,1150.69Z"/><path id="Path_85" data-name="Path 85" class="cls-32" d="M1528.8,1280.31s150.62,12.87,266.13-28.82l10,97.09s-94.78,54.49-266.13,28.82C1529.36,1283.78,1528.8,1280.31,1528.8,1280.31Z"/><path id="Path_83" data-name="Path 83" class="cls-25" d="M1752.84,1312.59l-10.65-4.24-19.67-13.14s-9.12-5-3.16,3.43S1724,1307,1724,1307s-34.55-6.77-25.06.83,23.08,8.49,23.08,8.49l-25.21-2.92s-15.71-.62-.92,6.22c18,5.23,24.64,5.24,24.64,5.24l-24.22-.55s-16.44,1.48-1.09,6.64c17.22,3.58,23.12,4.17,23.12,4.17l-22.07,1s-13,3.68-1.24,5.82,31.07.52,31.07.52,27-4.29,32.3-3.93,15.55,2.3,15.55,2.3l4.83-22.73Z"/><path id="Path_81" data-name="Path 81" class="cls-25" d="M1844,1753.77v50.89h24.76v-50.89Z"/><path id="Path_82" data-name="Path 82" class="cls-25" d="M1986.76,1752.74V1805h26.13v-39.19Z"/><path id="Path_78" data-name="Path 78" d="M1829,1117.87c-.89-.15-1.74-7.73-1.83-8.45a53.94,53.94,0,0,1,.8-20,40.13,40.13,0,0,1,23.07-27.59,56,56,0,0,1,22.19-4.4c9.12-.06,18.39,1.7,26.35,6.15,18.19,10.17,22.36,32.33,19.8,51.54-2.19,16.39-4.49,11.31-4.49,11.31Z"/><path id="Path_77" data-name="Path 77" class="cls-25" d="M1854.85,1195.84v-32s-18.44-3.9-23.9-33.53c-3.28-1.12-16.1-14.77,0-19.14.25-.55,7.36-26.49,11.19-23.48,3.82,5.19,18.57,14.74,22.66,14.47-1.64-7.37-4.09-14.47-1.91-12.55S1906,1121,1910.13,1118s19.93-2.41,11.47,12.3c-1.92,2.71-10.65,6.26-13.93,6-1.36,3.27-15,26.15-22.12,27.55.55,6.85,2.46,24.87,2.46,24.87Z"/><path id="Path_75" data-name="Path 75" class="cls-33" d="M1826.58,1411.06l13.18,371.07h36.5l23.32-218,84.15,218h32.44s-48.66-366-66.91-371.07C1933,1412.08,1826.58,1411.06,1826.58,1411.06Z"/><path id="Path_76" data-name="Path 76" class="cls-15" d="M1850.93,1183.2c9.12,4,29.4-2,36.5-7.1,8.11,3,70.11,26.61,51.14,100.9,13.18,92.26,21.85,131.27,21.85,131.27s2,3-7.09,6.08-10.55,2.7-10.55,2.7H1816.86s-4.61-.48-2.84-8.78,5.32-22.15,6-56.23c-12.42,0-65.31-3.91-70.64-7.46s-1.13-45.84,8.47-44.64,57.76,2.4,62.17-3.6c1.42-10.19,0-29.39,0-29.39S1818.44,1203.78,1850.93,1183.2Z"/><path id="Path_79" data-name="Path 79" class="cls-34" d="M1844.12,1791.83h26.21s3-1.64,4.1,7.1,1.91,15.83,1.91,15.83,1.36,2.73-8.19,2.73h-52.7s-12.55-5.19,0-13.92C1829.1,1798.11,1844.12,1791.83,1844.12,1791.83Z"/><path id="Path_80" data-name="Path 80" d="M1987.92,1791.83h26.22s3-1.64,4.09,7.1,1.91,15.83,1.91,15.83,1.37,2.73-8.19,2.73h-52.7s-12.55-5.19,0-13.92C1972.9,1798.11,1987.92,1791.83,1987.92,1791.83Z"/><path id="Path_266" data-name="Path 266" d="M1844.12,1791.83h26.21s3-1.64,4.1,7.1,1.91,15.83,1.91,15.83,1.36,2.73-8.19,2.73h-52.7s-12.55-5.19,0-13.92C1829.1,1798.11,1844.12,1791.83,1844.12,1791.83Z"/><path class="cls-35" d="M1561.67,1554.24s163.91,10.34,260-33.44c0,0-.34,5.59-11.06,11.21s-11.7,10.21-11.7,10.21-8.09,12-20.72,15.65a292.72,292.72,0,0,1-36.18,7.94c-38.46,6.08-77.44,10.14-116.4,10.83-7.34.13-15.28,0-22.51-1.46a37.85,37.85,0,0,1-14.6-6.11c-4.48-3.24-7-8.43-12.2-10.77C1571.65,1556.21,1566.79,1554.38,1561.67,1554.24Z"/><path class="cls-36" d="M1557.44,1059.72s-3.1,9,8.89,12-15.74,66.35-15.74,66.35-1.5.85,0,13.34,41.22,393.9,41.22,393.9a29.06,29.06,0,0,0,14,13.49s1.69.28,3.38,4.78,13.23,13.19,22.22,12.89c0,0-34.47,4.09-46.93-11.18,0,0-5.81-8.34-15.92-9.31s-10.35-6.27-13.49-15.75a116.63,116.63,0,0,1-1.74-12c-.27-4.49-8.34-86.75-8.34-86.75l-28.17-287a42.57,42.57,0,0,1,1.15-13.61l16.42-54.27s2-4-2.35-9.13c0,0-3.15-6.72,1.85-9.2A103.61,103.61,0,0,1,1557.44,1059.72Z"/></g><circle id="Ellipse_20" data-name="Ellipse 20" class="cls-37" cx="1877.73" cy="1118.79" r="4.7"/><circle id="Ellipse_21" data-name="Ellipse 21" class="cls-37" cx="1847.61" cy="1118.79" r="4.7"/><path id="Subtraction_9" data-name="Subtraction 9" class="cls-26" d="M1874.91,1144.94h-21.68a1.94,1.94,0,0,0-1.68,2.89,10.6,10.6,0,0,0,3.66,4,15.6,15.6,0,0,0,17.72,0,10.6,10.6,0,0,0,3.66-4A1.94,1.94,0,0,0,1874.91,1144.94Z"/><path class="cls-28" d="M1870.68,1110.44a17.29,17.29,0,0,1,6.43-.93,16.78,16.78,0,0,1,5.32,1"/><path class="cls-28" d="M1841.73,1110.44a17.35,17.35,0,0,1,6.44-.93,16.85,16.85,0,0,1,5.32,1"/></g><path class="cls-29" d="M1864.87,1121a85.17,85.17,0,0,1-5.34,12.14,4.64,4.64,0,0,0-.81,2.65,3,3,0,0,0,3.07,2.31,6.53,6.53,0,0,0,3.79-1.65"/><path class="cls-30" d="M1822,1352.06c13.08.35,29.24-1.35,41.19-7,11.33-5.36,20.71-15,27.77-25.23,8.8-12.73,14.26-27.52,17.73-42.6-.76,3.3-2.6,6-3.83,9.11s-2.31,6-3.63,8.93a138.6,138.6,0,0,1-7.52,14.4c-6,10-13.4,19.66-23.09,26.36C1856.34,1345.94,1838.71,1348.73,1822,1352.06Z"/><path class="cls-30" d="M1821,1296.58s20.47-4.88,37.66-35.54C1858.7,1261,1848,1292,1821,1296.58Z"/><path class="cls-38" d="M1533.84,1068.35s22-18.71,163.39-24.52c0,0,43.18-2.6,50.62,4.38,0,0,3,4.59.21,9.32s-90.34,30.09-216.07,20C1532,1077.55,1528.63,1071.17,1533.84,1068.35Z"/><path class="cls-39" d="M1557.44,1059.72s-3,9.32,8.89,12c0,0,4,.25,3,7.83,0,0-32-1.08-37.31-2,0,0-3.32-6.39,1.85-9.2S1544.26,1062.56,1557.44,1059.72Z"/><path class="cls-40" d="M775.87,335.7A28,28,0,0,1,803.12,314a28.28,28.28,0,0,1,7.06.9A41.23,41.23,0,0,1,859.72,293a50.75,50.75,0,0,1,91.16,8.87,34.82,34.82,0,0,1,51.74,30.42c0,1.14,0,2.27-.16,3.38Z"/></svg>