<?xml version="1.0" encoding="utf-8"?>
<!-- Generator: Adobe Illustrator 25.0.0, SVG Export Plug-In . SVG Version: 6.00 Build 0)  -->
<svg version="1.1" id="Layer_1" xmlns="http://www.w3.org/2000/svg" xmlns:xlink="http://www.w3.org/1999/xlink" x="0px" y="0px"
	 viewBox="0 0 2563.66 1828.68" style="enable-background:new 0 0 2563.66 1828.68;" xml:space="preserve">
<style type="text/css">
	.st0{fill:#D3EDF5;}
	.st1{fill:#E2FAFA;}
	.st2{opacity:0.5;enable-background:new    ;}
	.st3{fill:#FFFFFF;}
	.st4{fill:#B5E2EA;}
	.st5{fill:#A9DBD2;}
	.st6{fill:#DBEFEA;}
	.st7{fill:#87D3C6;}
	.st8{fill:#05C4A3;}
	.st9{fill:#D9DADB;}
	.st10{fill:#E4DDBF;}
	.st11{opacity:0.55;enable-background:new    ;}
	.st12{fill:#CDC7AD;}
	.st13{fill:#EB9E3F;}
	.st14{fill:#C88734;}
	.st15{fill:#EE655B;}
	.st16{fill:#C8554D;}
	.st17{fill:#F39686;}
	.st18{fill:#E9EAEA;}
	.st19{fill:#DBDBDB;}
	.st20{fill:#F1F2F2;}
	.st21{opacity:0.59;enable-background:new    ;}
	.st22{fill:#E7E8E8;}
	.st23{fill:none;}
	.st24{fill:#F2A8A3;}
	.st25{fill:#515151;}
	.st26{fill:#5D5A5A;}
	.st27{fill:#1E1E1E;}
	.st28{fill:#F6F8FB;}
	.st29{fill:#EE8B8A;}
	.st30{fill:#A16D26;}
	.st31{fill:#C7822A;}
	.st32{fill:#D97B6C;}
	.st33{fill:#F7EDC0;}
	.st34{fill:#54B7CE;}
	.st35{fill:#CB4B47;}
	.st36{opacity:0.37;enable-background:new    ;}
	.st37{fill:#B24B43;}
	.st38{opacity:0.49;enable-background:new    ;}
	.st39{opacity:0.71;enable-background:new    ;}
	.st40{fill:#A0433B;}
	.st41{opacity:0.9;enable-background:new    ;}
</style>
<g>
	<g>
		<path class="st0" d="M839.52,1799.82H207.3c0,0-290.55-86.63-104.6-420.88s127.84-431.03,184.29-627.8
			s207.54-490.62,584.43-564.09c376.89-73.46,216.03,129.84,765.49,20.5s667.34,358.74,667.34,452.72s8.3,365.62,147.77,574.05
			c139.46,208.43,158.53,537.86-135.52,555.02c-164.78,9.61-421,11.09-621.12,10.48c-161.44-0.49-279.39,0-279.39,0L839.52,1799.82
			L839.52,1799.82z"/>
	</g>
	<g>
		<path class="st1" d="M812.82,1817.49H180.6c0,0-290.55-86.63-104.6-420.88s127.84-431.03,184.29-627.8
			s207.54-490.62,584.43-564.09c376.89-73.46,216.03,129.84,765.49,20.5s667.34,358.74,667.34,452.72s8.3,365.62,147.77,574.05
			c139.46,208.43,158.53,537.86-135.52,555.02c-164.78,9.61-420.99,11.09-621.12,10.48c-161.44-0.49-279.39,0-279.39,0H812.82z"/>
	</g>
	<g class="st2">
		<path class="st3" d="M935.73,882.51c10.07-18.49,0.68-42.73-15.58-56.11c-16.25-13.39-37.56-18.55-58.07-23.32
			c-25.23-5.88-50.47-11.75-75.7-17.63c-11.18-2.6-23.48-5.98-29.62-15.67c-8.96-14.16,0.27-32.54,10.13-46.08
			c10.73-14.73,25.38-34.59,11.62-52.19c-7.81-9.99-20.47-14.75-32.75-17.91c-80.84-20.84-155.44,12.2-234.98,19.56
			c-44.18,4.09-88.53-2.25-131.61-11.79c-9.5-2.1-64.25-21.85-69.1-10.54c-16.09,37.55-33.47,76.33-43.04,116.2
			c-1.74,7.25-3.7,10.02,1.94,13.42c8.09,4.88,29.26,2.61,38.77,3.18c30.31,1.81,63.43,5.26,93.03-2.59
			c9.83-2.63,22.11-5.17,32.25-3.84c8.45,1.11,16.95,6.09,19.69,14.16c5.53,16.26-11.81,42.76-26.08,49.91
			c-10.67,5.35-23.02,6.3-34.11,10.73c-15.6,6.22-27.27,18.74-36.84,32.14c-9.1,12.74-13.36,23.27-28.63,29.08
			c-13.5,5.14-28.9,5.65-43.17,5.94c-13.2,0.27-31.73-1.93-44.94-2.04c-2.37,8.57-16.72,106.46-12.19,106.99
			c37.72,4.41,73.21,14.65,110.86,20.53c47.83,7.47,99.99,7.02,140.68-19.2c37.16-23.95,58.87-65.41,90.72-96.06
			c9.13-8.79,19.39-16.85,31.44-20.76c10.85-3.53,22.5-3.5,33.91-3.43c78.46,0.46,156.92,0.93,235.37,1.39
			C894.41,906.72,923.93,904.17,935.73,882.51z"/>
	</g>
	<g class="st2">
		<path class="st3" d="M2283.32,759.41c-18.03,0.67-38.12-3.02-60.35-13.01c-18.11-8.14,23.28-89.51-1.62-139.42
			c-18.28-36.63-66.37-44.79-107.31-44.78c-40.94,0.01-87.17,1.53-116.27-27.26c-2.65-2.62-5.15-5.55-6.3-9.1
			c-1.61-4.97-0.32-10.45,1.82-15.21c12.34-27.37,47.11-34.66,76.89-38.45c40.62-5.17,81.24-10.34,121.86-15.51
			c4.89-0.62,9.89-1.31,14.89-2.14c-27.85-46.88-65.03-93.91-113.92-134.1c-10.34,24.91-22.04,48.81-42.96,64.09
			c-27.81,20.32-65.02,20.23-99.46,20.06c-114.17-0.55-228.38,7.18-341.43,23.1c-21.72,3.06-43.99,6.62-62.96,17.64
			c-18.97,11.02-34.17,31.26-32.87,53.16c1.46,24.8,22.93,43.97,45.45,54.47c22.52,10.5,47.54,15.39,69.08,27.77
			c9.02,5.19,18.24,13.63,17.07,23.97c-1.07,9.44-10.13,15.47-17.29,21.73c-18.41,16.11-27.87,41.87-24.27,66.07
			c100.22,40.51,212.37,31.46,320.45,33.63c30.85,0.62,63.16,2.64,89.52,18.68c8.7,5.29,16.99,12.79,19.02,22.77
			c1.48,7.28-0.6,14.79-3.14,21.77c-16.31,44.93-52.61,87.16-43.3,134.05c10.07,50.73,67.35,75.31,117.68,87.23
			c25.07,5.94,171.35,38.09,235.85,50.89C2301.43,949.24,2287.97,838.54,2283.32,759.41z"/>
	</g>
	<g class="st2">
		<path class="st4" d="M1909.69,915.47c2.84-12.37,13.92-21.61,27.15-21.61c2.43,0,4.79,0.31,7.03,0.9
			c6.53-13.97,20.71-23.65,37.15-23.65c4.25,0,8.35,0.65,12.21,1.85c8.85-14.66,24.93-24.46,43.3-24.46
			c21.86,0,40.47,13.87,47.53,33.29c4.99-2.78,10.74-4.38,16.86-4.38c19.16,0,34.69,15.53,34.69,34.69c0,1.14-0.06,2.26-0.17,3.37
			L1909.69,915.47L1909.69,915.47z"/>
	</g>
	<g class="st2">
		<path class="st5" d="M2400.3,1782.08c3.58-4.12,6.54-8.8,8.66-14.11c10.88-27.19-3.9-61.39-33-68.7
			c-18.48-4.64-39.43,2.95-50.65,18.36c-5.32,7.31-8.51,16-14,23.18c-23.52,30.73-43.25-4.95-26.11-30.06
			c10.33-15.14,21.92-29.43,34.61-42.66c14.95-15.58,32.77-33.08,30.68-54.57c-1.96-20.1-20.62-33.81-37.69-44.59
			c-17.65-11.15-36.32-22.36-57.12-24.1c-84.42-7.06-55.28,132.48-61.57,180.59c-5.43,41.52-33.27,50.63-62.33,18.65
			c-20.25-22.28,5.53-38.3-1.21-62.29c-2.54-9.03-9.5-16.11-16.79-22.01c-14.43-11.68-31.85-20.59-50.42-21.36
			c-32.27-1.33-52.98,25.96-56.88,55.96c-2.36,18.18,13.36,77.22-5.94,85.61c-7.22,3.14-15.49,1.9-23.31,0.96
			c-44.84-5.34-94.67,3.61-124.93,37.13c56.59-4.03,114.8-1.02,171.64-2.24c102.86-2.22,208.25,2.48,310.65-6.57
			C2357.35,1807.27,2384.75,1799.97,2400.3,1782.08z"/>
	</g>
	<g class="st2">
		<path class="st6" d="M2440.6,1782.08c3.58-4.12,6.54-8.8,8.66-14.11c10.88-27.19-3.9-61.39-33-68.7
			c-18.48-4.64-39.43,2.95-50.65,18.36c-5.32,7.31-8.51,16-14,23.18c-23.52,30.73-43.25-4.95-26.11-30.06
			c10.33-15.14,21.92-29.43,34.61-42.66c14.95-15.58,32.77-33.08,30.68-54.57c-1.96-20.1-20.62-33.81-37.69-44.59
			c-17.65-11.15-36.32-22.36-57.12-24.1c-84.42-7.06-55.28,132.48-61.57,180.59c-5.43,41.52-33.27,50.63-62.33,18.65
			c-20.25-22.28,5.53-38.3-1.21-62.29c-2.54-9.03-9.5-16.11-16.79-22.01c-14.43-11.68-31.85-20.59-50.42-21.36
			c-32.27-1.33-52.98,25.96-56.88,55.96c-2.36,18.18,13.36,77.22-5.94,85.61c-7.22,3.14-15.49,1.9-23.31,0.96
			c-44.84-5.34-102.64,3.14-132.9,36.66c56.59-4.03,122.77-0.54,179.61-1.77c102.86-2.22,208.25,2.48,310.65-6.57
			C2397.64,1807.27,2425.04,1799.97,2440.6,1782.08z"/>
	</g>
	<g>
		<g>
			<path class="st7" d="M1674.77,1693.04c45.28-18.74,283.37-106.27,449.08,48.24c2.91,2.71,2.15,7.5-1.48,9.13
				c-44.63,20.06-281.4,114.85-449.35-48.3C1670.17,1699.35,1671.1,1694.56,1674.77,1693.04z"/>
		</g>
		<g>
			<path class="st8" d="M2102.7,1742.46c-0.36,0-0.73-0.07-1.08-0.2c-105.63-41.02-216.96-50.23-291.74-50.72
				c-81.12-0.55-137.94,8.76-138.51,8.86c-1.63,0.28-3.18-0.83-3.45-2.47c-0.27-1.63,0.83-3.18,2.47-3.45
				c0.57-0.1,57.78-9.48,139.4-8.94c75.33,0.49,187.48,9.76,294.01,51.13c1.54,0.6,2.31,2.34,1.71,3.88
				C2105.04,1741.73,2103.9,1742.46,2102.7,1742.46z"/>
		</g>
	</g>
	<g>
		<g>
			<path class="st7" d="M1667.43,1699.97c0,0-8.09-483.76,261.52-457.8s-217.31,456.03-217.31,456.03L1667.43,1699.97z"/>
		</g>
		<g>
			<path class="st8" d="M1687.51,1702.98c-0.1,0-0.2,0-0.29-0.01c-1.65-0.16-2.86-1.63-2.7-3.28
				c8.99-92.23,29.29-172.78,60.35-239.4c24.9-53.41,56.73-98.05,94.61-132.69c64.67-59.13,123.66-68.41,126.14-68.77
				c1.64-0.25,3.17,0.89,3.41,2.53c0.24,1.64-0.89,3.16-2.53,3.41l0,0c-0.59,0.09-59.96,9.5-123.3,67.56
				c-37.22,34.12-68.52,78.13-93.03,130.8c-30.69,65.95-50.77,145.73-59.67,237.14C1690.34,1701.82,1689.04,1702.98,1687.51,1702.98
				z"/>
		</g>
	</g>
	<g class="st2">
		<path class="st5" d="M181.8,1786.4c-4.6-5.07-8.43-10.86-11.24-17.45c-14.37-33.78,3.23-77.05,39.5-86.99
			c23.04-6.32,49.5,2.64,63.97,21.65c6.86,9.01,11.1,19.83,18.17,28.68c30.31,37.88,54.07-7.37,31.92-38.38
			c-13.36-18.7-28.27-36.29-44.53-52.53c-19.15-19.13-41.96-40.58-39.92-67.57c1.91-25.24,24.92-42.93,46.03-56.91
			c21.82-14.45,44.91-29,70.94-31.74c105.61-11.12,72.86,164.55,82.04,224.67c7.93,51.9,43.07,62.55,78.62,21.69
			c24.77-28.47-7.97-47.86-0.16-78.1c2.94-11.39,11.47-20.45,20.45-28.04c17.77-15.03,39.37-26.67,62.61-28.13
			c40.41-2.54,67.1,31.1,72.8,68.6c3.45,22.72-14.66,97.15,9.76,107.13c9.14,3.74,19.46,1.96,29.24,0.58
			c56.06-7.91,118.74,1.97,157.57,43.17c-71.04-3.52-143.91,1.83-215.18,1.83c-128.98,0-260.94,8.73-389.52,0.16
			C236.32,1816.8,201.78,1808.39,181.8,1786.4z"/>
	</g>
	<g class="st2">
		<path class="st6" d="M131.25,1785.34c-4.6-5.07-8.43-10.86-11.24-17.45c-14.37-33.78,3.23-77.05,39.5-86.99
			c23.04-6.32,49.5,2.64,63.97,21.65c6.86,9.01,11.1,19.83,18.17,28.68c30.31,37.88,54.07-7.37,31.92-38.38
			c-13.36-18.7-28.27-36.29-44.53-52.53c-19.15-19.13-41.96-40.58-39.92-67.57c1.91-25.24,24.92-42.93,46.03-56.91
			c21.82-14.45,44.91-29,70.94-31.74c105.61-11.12,72.86,164.55,82.04,224.67c7.93,51.9,43.07,62.55,78.62,21.69
			c24.77-28.47-7.97-47.86-0.16-78.1c2.94-11.39,11.47-20.45,20.45-28.04c17.77-15.03,39.37-26.67,62.61-28.13
			c40.41-2.54,67.1,31.1,72.8,68.6c3.45,22.72-14.66,97.15,9.76,107.13c9.14,3.74,19.46,1.96,29.24,0.58
			c56.06-7.91,118.74,1.97,157.57,43.17c-71.04-3.52-143.91,1.83-215.18,1.83c-128.98,0-260.94,8.73-389.52,0.16
			C185.77,1815.75,151.23,1807.34,131.25,1785.34z"/>
	</g>
	<g>
		<g>
			<path class="st7" d="M393.08,542.9c3.82,23.89,10.94,47.34,21.56,69.68c20.38,42.87,53.13,80.75,65.48,127.24
				c13.26,49.91,5.58,104.27-6.75,153.5c-9.85,39.32-22.89,78.31-24.77,118.79c-8.39,180.25,220.41,204.44,349.98,169.37
				c26.76-7.24,53.17-17.51,75.12-34.45c91.46-70.59,44.72-216.6-15.38-291.49c-14.71-18.34-31.63-34.94-44.88-54.36
				c-24.35-35.69-25.83-76.42-9.47-115.76c17.36-41.73,48.15-76.24,71.47-114.96C921,494.82,904.46,426.73,859.4,356.2
				c-24.74-38.72-50.54-77.22-69.39-119.27c-18.56-41.41-22.39-83.09-31.16-126.82C739.21,12.19,649.88-20.76,564.35,29.5
				c-32.68,19.21-58.27,51.94-64.25,89.37c-6.92,43.32,13.16,87.24,1.48,130.04c-14.2,52.06-65.35,85.68-87.01,134.82
				C392.46,433.88,384.53,489.48,393.08,542.9z"/>
		</g>
		<g>
			<path class="st8" d="M643.55,1619.76c-1.66,0-3-1.34-3-3V54.94c0-1.66,1.34-3,3-3s3,1.34,3,3v1561.82
				C646.55,1618.42,645.21,1619.76,643.55,1619.76z"/>
		</g>
		<g>
			<path class="st8" d="M643.55,1014.32c-0.65,0-1.31-0.21-1.86-0.65l-96.88-76.59c-1.3-1.03-1.52-2.91-0.49-4.21
				c1.03-1.3,2.91-1.52,4.21-0.49l96.88,76.59c1.3,1.03,1.52,2.91,0.49,4.21C645.31,1013.93,644.43,1014.32,643.55,1014.32z"/>
		</g>
		<g>
			<path class="st8" d="M643.55,882.89c-0.81,0-1.62-0.33-2.21-0.97c-1.12-1.22-1.04-3.12,0.18-4.24l95.81-87.94
				c1.22-1.12,3.12-1.04,4.24,0.18c1.12,1.22,1.04,3.12-0.18,4.24l-95.81,87.94C645,882.63,644.28,882.89,643.55,882.89z"/>
		</g>
		<g>
			<path class="st8" d="M643.55,1085.28c-0.81,0-1.63-0.33-2.22-0.98c-1.12-1.22-1.03-3.12,0.2-4.24l73.63-67.15
				c1.22-1.12,3.12-1.03,4.24,0.2c1.12,1.22,1.03,3.12-0.2,4.24l-73.63,67.15C645,1085.02,644.27,1085.28,643.55,1085.28z"/>
		</g>
		<g>
			<path class="st8" d="M643.55,760.64c-0.65,0-1.31-0.21-1.86-0.65l-96.88-76.59c-1.3-1.03-1.52-2.91-0.49-4.21
				c1.03-1.3,2.91-1.52,4.21-0.49l96.88,76.59c1.3,1.03,1.52,2.91,0.49,4.21C645.31,760.25,644.43,760.64,643.55,760.64z"/>
		</g>
		<g>
			<path class="st8" d="M643.55,662.48c-0.81,0-1.62-0.33-2.21-0.97c-1.12-1.22-1.04-3.12,0.18-4.24l80.56-74.08
				c1.22-1.12,3.12-1.04,4.24,0.18c1.12,1.22,1.04,3.12-0.18,4.24l-80.56,74.08C645,662.22,644.28,662.48,643.55,662.48z"/>
		</g>
		<g>
			<path class="st8" d="M643.55,508.35c-0.65,0-1.3-0.21-1.85-0.64l-62.22-48.87c-1.3-1.02-1.53-2.91-0.51-4.21s2.91-1.53,4.21-0.51
				l62.22,48.87c1.3,1.02,1.53,2.91,0.51,4.21C645.32,507.96,644.44,508.35,643.55,508.35z"/>
		</g>
		<g>
			<path class="st8" d="M643.55,385.23c-0.81,0-1.62-0.33-2.21-0.97c-1.12-1.22-1.04-3.12,0.17-4.24l47.29-43.57
				c1.22-1.12,3.12-1.04,4.24,0.17c1.12,1.22,1.04,3.12-0.17,4.24l-47.29,43.57C645.01,384.97,644.28,385.23,643.55,385.23z"/>
		</g>
		<g>
			<path class="st8" d="M643.55,329.52c-0.65,0-1.3-0.21-1.85-0.64l-62.22-48.86c-1.3-1.02-1.53-2.91-0.51-4.21s2.91-1.53,4.21-0.51
				l62.22,48.86c1.3,1.02,1.53,2.91,0.51,4.21C645.32,329.13,644.44,329.52,643.55,329.52z"/>
		</g>
		<g>
			<path class="st8" d="M643.55,206.41c-0.81,0-1.62-0.33-2.21-0.97c-1.12-1.22-1.04-3.12,0.18-4.24l29.27-26.94
				c1.22-1.12,3.12-1.04,4.24,0.18c1.12,1.22,1.04,3.12-0.18,4.24l-29.27,26.94C645,206.15,644.28,206.41,643.55,206.41z"/>
		</g>
	</g>
	<g>
		<g>
			<path class="st7" d="M2193.53,1224.42c2.06,12.9,5.91,25.55,11.64,37.61c11,23.14,28.68,43.59,35.34,68.68
				c7.16,26.94,3.01,56.28-3.64,82.85c-5.32,21.22-12.35,42.27-13.37,64.12c-4.53,97.29,118.96,110.35,188.9,91.42
				c14.45-3.91,28.7-9.45,40.54-18.59c49.37-38.1,24.14-116.91-8.3-157.33c-7.94-9.9-17.07-18.86-24.22-29.34
				c-13.15-19.27-13.94-41.25-5.11-62.48c9.37-22.52,25.99-41.15,38.57-62.05c24.59-40.83,15.66-77.58-8.66-115.65
				c-13.35-20.9-27.28-41.68-37.45-64.38c-10.02-22.35-12.09-44.85-16.82-68.45c-10.6-52.86-58.82-70.64-104.98-43.51
				c-17.64,10.37-31.45,28.03-34.68,48.24c-3.73,23.38,7.1,47.09,0.8,70.19c-7.67,28.1-35.27,46.25-46.96,72.77
				C2193.2,1165.57,2188.92,1195.58,2193.53,1224.42z"/>
		</g>
		<g>
			<path class="st8" d="M2328.72,1807.04c-1.66,0-3-1.34-3-3v-843c0-1.66,1.34-3,3-3s3,1.34,3,3v843
				C2331.72,1805.7,2330.38,1807.04,2328.72,1807.04z"/>
		</g>
		<g>
			<path class="st8" d="M2328.72,1480.25c-0.65,0-1.31-0.21-1.86-0.65l-52.29-41.34c-1.3-1.03-1.52-2.91-0.49-4.21
				s2.91-1.52,4.21-0.49l52.29,41.34c1.3,1.03,1.52,2.91,0.49,4.21C2330.48,1479.86,2329.6,1480.25,2328.72,1480.25z"/>
		</g>
		<g>
			<path class="st8" d="M2328.72,1409.31c-0.81,0-1.62-0.33-2.21-0.97c-1.12-1.22-1.04-3.12,0.18-4.24l51.72-47.47
				c1.22-1.12,3.12-1.04,4.24,0.18s1.04,3.12-0.18,4.24l-51.72,47.47C2330.17,1409.05,2329.45,1409.31,2328.72,1409.31z"/>
		</g>
		<g>
			<path class="st8" d="M2328.72,1518.55c-0.81,0-1.63-0.33-2.22-0.98c-1.12-1.22-1.03-3.12,0.2-4.24l39.75-36.24
				c1.22-1.12,3.12-1.03,4.24,0.2s1.03,3.12-0.2,4.24l-39.75,36.24C2330.17,1518.29,2329.44,1518.55,2328.72,1518.55z"/>
		</g>
		<g>
			<path class="st8" d="M2328.72,1343.32c-0.65,0-1.31-0.21-1.86-0.65l-52.29-41.33c-1.3-1.03-1.52-2.91-0.49-4.21
				s2.91-1.52,4.21-0.49l52.29,41.33c1.3,1.03,1.52,2.91,0.49,4.21C2330.48,1342.93,2329.6,1343.32,2328.72,1343.32z"/>
		</g>
		<g>
			<path class="st8" d="M2328.72,1290.34c-0.81,0-1.62-0.33-2.21-0.97c-1.12-1.22-1.04-3.12,0.18-4.24l43.49-39.98
				c1.22-1.12,3.12-1.04,4.24,0.18s1.04,3.12-0.18,4.24l-43.49,39.98C2330.17,1290.08,2329.45,1290.34,2328.72,1290.34z"/>
		</g>
		<g>
			<path class="st8" d="M2328.72,1207.15c-0.65,0-1.3-0.21-1.85-0.64l-33.58-26.38c-1.3-1.02-1.53-2.91-0.51-4.21
				s2.91-1.53,4.21-0.51l33.58,26.38c1.3,1.02,1.53,2.91,0.51,4.21C2330.49,1206.76,2329.61,1207.15,2328.72,1207.15z"/>
		</g>
		<g>
			<path class="st8" d="M2328.72,1140.7c-0.81,0-1.62-0.33-2.21-0.97c-1.12-1.22-1.04-3.12,0.17-4.24l25.53-23.52
				c1.22-1.12,3.12-1.05,4.24,0.17c1.12,1.22,1.04,3.12-0.17,4.24l-25.53,23.52C2330.18,1140.44,2329.45,1140.7,2328.72,1140.7z"/>
		</g>
		<g>
			<path class="st8" d="M2328.72,1110.63c-0.65,0-1.3-0.21-1.85-0.64l-33.58-26.38c-1.3-1.02-1.53-2.91-0.51-4.21
				s2.91-1.53,4.21-0.51l33.58,26.38c1.3,1.02,1.53,2.91,0.51,4.21C2330.49,1110.24,2329.61,1110.63,2328.72,1110.63z"/>
		</g>
		<g>
			<path class="st8" d="M2328.72,1044.18c-0.81,0-1.62-0.33-2.21-0.97c-1.12-1.22-1.04-3.12,0.17-4.24l15.8-14.55
				c1.22-1.12,3.12-1.04,4.24,0.17c1.12,1.22,1.04,3.12-0.17,4.24l-15.8,14.55C2330.18,1043.92,2329.45,1044.18,2328.72,1044.18z"/>
		</g>
	</g>
	<g>
		<g>
			<path class="st8" d="M521.8,941.35c-3.09,19.33-8.85,38.3-17.44,56.37c-16.49,34.68-42.98,65.34-52.98,102.95
				c-10.73,40.38-4.52,84.36,5.46,124.2c7.97,31.81,18.52,63.35,20.04,96.11c6.78,145.83-178.32,165.41-283.16,137.03
				c-21.65-5.86-43.02-14.16-60.77-27.87c-74-57.11-36.18-175.24,12.44-235.84c11.9-14.84,25.59-28.27,36.31-43.98
				c19.7-28.88,20.9-61.83,7.66-93.66c-14.04-33.76-38.96-61.68-57.82-93.01c-36.85-61.2-23.47-116.29,12.98-173.35
				c20.01-31.33,40.89-62.48,56.14-96.5c15.02-33.5,18.12-67.22,25.21-102.6c15.89-79.23,88.17-105.89,157.36-65.22
				c26.44,15.54,47.14,42.02,51.98,72.3c5.6,35.05-10.64,70.58-1.2,105.21c11.49,42.12,52.87,69.32,70.4,109.08
				C522.3,853.14,528.71,898.13,521.8,941.35z"/>
		</g>
		<g>
			<path class="st7" d="M320.28,1813.18c-1.66,0-3-1.34-3-3V546.56c0-1.66,1.34-3,3-3s3,1.34,3,3v1263.62
				C323.28,1811.84,321.94,1813.18,320.28,1813.18z"/>
		</g>
		<g>
			<path class="st7" d="M320.28,1323.34c-0.65,0-1.31-0.21-1.86-0.65l-78.38-61.97c-1.3-1.03-1.52-2.91-0.49-4.21
				c1.03-1.3,2.91-1.52,4.21-0.49l78.38,61.97c1.3,1.03,1.52,2.91,0.49,4.21C322.04,1322.95,321.16,1323.34,320.28,1323.34z"/>
		</g>
		<g>
			<path class="st7" d="M320.28,1217c-0.81,0-1.62-0.33-2.21-0.97c-1.12-1.22-1.04-3.12,0.18-4.24l77.52-71.15
				c1.22-1.12,3.12-1.04,4.24,0.18c1.12,1.22,1.04,3.12-0.18,4.24l-77.52,71.15C321.73,1216.74,321.01,1217,320.28,1217z"/>
		</g>
		<g>
			<path class="st7" d="M320.28,1380.75c-0.81,0-1.63-0.33-2.22-0.98c-1.12-1.22-1.03-3.12,0.2-4.24l59.57-54.33
				c1.22-1.12,3.12-1.03,4.24,0.2c1.12,1.22,1.03,3.12-0.2,4.24l-59.57,54.33C321.73,1380.49,321,1380.75,320.28,1380.75z"/>
		</g>
		<g>
			<path class="st7" d="M320.28,1118.09c-0.65,0-1.31-0.21-1.86-0.65l-78.38-61.96c-1.3-1.03-1.52-2.91-0.49-4.21
				s2.91-1.52,4.21-0.49l78.38,61.96c1.3,1.03,1.52,2.91,0.49,4.21C322.04,1117.7,321.16,1118.09,320.28,1118.09z"/>
		</g>
		<g>
			<path class="st7" d="M320.28,1038.67c-0.81,0-1.62-0.33-2.21-0.97c-1.12-1.22-1.04-3.12,0.18-4.24l65.18-59.93
				c1.22-1.12,3.12-1.04,4.24,0.18c1.12,1.22,1.04,3.12-0.18,4.24l-65.18,59.93C321.73,1038.41,321.01,1038.67,320.28,1038.67z"/>
		</g>
		<g>
			<path class="st7" d="M320.28,913.97c-0.65,0-1.3-0.21-1.85-0.64l-50.34-39.54c-1.3-1.02-1.53-2.91-0.51-4.21
				c1.02-1.3,2.91-1.53,4.21-0.51l50.34,39.54c1.3,1.02,1.53,2.91,0.51,4.21C322.05,913.58,321.17,913.97,320.28,913.97z"/>
		</g>
		<g>
			<path class="st7" d="M320.28,814.36c-0.81,0-1.62-0.33-2.21-0.97c-1.12-1.22-1.05-3.12,0.17-4.24l38.26-35.26
				c1.22-1.12,3.12-1.04,4.24,0.17c1.12,1.22,1.05,3.12-0.17,4.24l-38.26,35.26C321.74,814.1,321.01,814.36,320.28,814.36z"/>
		</g>
		<g>
			<path class="st7" d="M320.28,769.29c-0.65,0-1.3-0.21-1.85-0.64l-50.34-39.54c-1.3-1.02-1.53-2.91-0.51-4.21
				c1.02-1.3,2.91-1.53,4.21-0.51l50.34,39.54c1.3,1.02,1.53,2.91,0.51,4.21C322.05,768.9,321.17,769.29,320.28,769.29z"/>
		</g>
		<g>
			<path class="st7" d="M320.28,669.68c-0.81,0-1.62-0.33-2.21-0.97c-1.12-1.22-1.04-3.12,0.18-4.24l23.68-21.8
				c1.22-1.12,3.12-1.04,4.24,0.18c1.12,1.22,1.04,3.12-0.18,4.24l-23.68,21.8C321.74,669.42,321.01,669.68,320.28,669.68z"/>
		</g>
	</g>
	<g>
		<g>
			<path class="st8" d="M1666.19,1691.5c77.93-77.15,161.2-146.05,251.87-207.51c72.34-49.04,153.07-73.72,240.48-52.32
				c14.05,3.44,27.81,8.01,41.09,13.74c35.47,15.29,90.39,53.96,54.92,97.05c-14.01,17.02-36.11,24.9-57.45,30.43
				c-79.34,20.54-161.94,22.34-242.13,38.58c-48.63,9.85-96.61,22.86-143.55,38.93c-44.42,15.2-97.42,30.48-134.49,60.34
				c-0.03,0.02-0.06,0.05-0.09,0.07c-3.46,2.78-8.64,0.59-9.09-3.83L1666.19,1691.5z"/>
		</g>
		<g>
			<path class="st7" d="M1667.77,1709.98c-0.7,0-1.41-0.24-1.97-0.74c-1.25-1.09-1.37-2.99-0.28-4.23
				c51.8-59.22,114.77-106.57,187.17-140.76c57.89-27.33,121.89-46.35,190.23-56.52c116.33-17.31,206.21-2.75,207.11-2.6
				c1.63,0.27,2.74,1.82,2.47,3.45c-0.27,1.63-1.81,2.75-3.45,2.47c-0.89-0.15-90-14.57-205.44,2.64
				c-67.73,10.1-131.14,28.95-188.47,56.03c-71.6,33.83-133.88,80.67-185.11,139.23C1669.43,1709.63,1668.6,1709.98,1667.77,1709.98
				z"/>
		</g>
	</g>
	<g>
		<path class="st9" d="M1015.16,847.1c0,0,10.25-250,223.24-334.29s354.22,120.73,379.27,334.29l-62.64,26.77l-10.25-26.77
			c0,0,4.56-328.59-212.13-322.9c-214.23,5.63-255.98,328.02-255.98,328.02s-34.17,86.56-36.45,78.59
			C1037.94,922.84,1015.16,847.1,1015.16,847.1z"/>
	</g>
	<g>
		<g>
			<path class="st8" d="M1537.01,852.68c13.65-63.58,32.64-124.79,57.7-184.72c20-47.81,52.07-86.25,102.4-103.99
				c8.09-2.85,16.41-5.05,24.86-6.51c22.56-3.92,62.38-2.54,58.75,30.35c-1.43,12.99-9.84,24.08-18.65,33.74
				c-32.72,35.94-73.14,63.63-107.67,97.7c-20.94,20.66-40.54,42.69-58.63,65.9c-17.11,21.96-38.47,46.73-47.18,73.58
				c-0.01,0.02-0.01,0.04-0.02,0.06c-0.82,2.51-4.1,3.09-5.75,1.05L1537.01,852.68z"/>
		</g>
		<g>
			<path class="st7" d="M1542.81,860.85c-0.05,0-0.09,0-0.14-0.01c-0.55-0.08-0.93-0.58-0.85-1.13
				c6.49-46.09,22.26-89.87,46.87-130.11c19.69-32.19,45.04-62.19,75.37-89.19c51.62-45.96,100.43-67.55,100.92-67.76
				c0.51-0.22,1.1,0.01,1.32,0.52c0.22,0.51-0.01,1.1-0.52,1.32c-0.48,0.21-49.05,21.7-100.44,67.47
				c-30.16,26.87-55.38,56.72-74.96,88.73c-24.46,40-40.13,83.51-46.58,129.31C1543.73,860.49,1543.3,860.85,1542.81,860.85z"/>
		</g>
	</g>
	<g id="bottle">
		<path class="st10" d="M1377.43,661.27c-14.82,31.25-138.08,325.24-138.08,325.24l265.54,112.73c0,0,126.53-294.52,138.08-325.24
			s7.72-47.55,6.16-58.89c-5.16-37.44-11.24-105.2-9.34-130.56c2.63-35.31,6.16-47.03,6.16-47.03l37.7-88.79
			c0,0,22.38-40.2-11.78-57.88s1.25-0.15-31.84-13.52s-44.35,29.23-44.35,29.23l-39.43,92.87c0,0-14.77,24.3-28.75,34.81
			c-10.07,7.58-77.02,54.65-114.18,80.76C1413.32,615,1392.23,630.01,1377.43,661.27z"/>
	</g>
	<g class="st11">
		<path class="st12" d="M1614.13,523.14l39.43-92.87c0,0,7.64-28.9,28.81-31.64c-2.68-2.88-6.12-5.51-10.5-7.77
			c-34.15-17.68,1.26-0.15-31.82-13.53c-33.1-13.36-44.36,29.24-44.36,29.24l-39.43,92.87c0,0-14.77,24.3-28.75,34.8
			c-10.07,7.59-77.03,54.66-114.17,80.76c-0.02,0-21.11,15-35.91,46.26c-14.82,31.26-138.07,325.24-138.07,325.24l265.55,112.74
			c0,0,0.1-0.25,0.31-0.73l-167.41-88.31c27.5-65.66,54.54-131.51,82.32-197.05c14.07-33.18,28.32-66.28,42.91-99.23
			c6.35-14.34,11.27-30.22,21.88-41.77c10.19-11.1,23.45-18.73,35.32-27.82c22.8-17.46,40.85-40.13,56.94-63.71
			C1589.32,562.82,1605.75,543.07,1614.13,523.14z"/>
	</g>
	<g>
		<path class="st10" d="M1639.8,584.56c-1.9,25.36,4.18,93.12,9.33,130.57c1.57,11.33,5.39,28.17-6.15,58.88
			c-11.21,29.82-130.85,308.4-137.76,324.51l-207.99-88.31c0,0,123.25-293.98,138.07-325.24c14.8-31.26,35.89-46.26,35.89-46.26
			c37.17-26.1,104.12-73.17,114.19-80.76c13.98-10.5,28.75-34.8,28.75-34.8l39.43-92.87c0,0,7.64-28.9,28.81-31.64
			c18.29,19.55,1.29,50.1,1.29,50.1l-37.69,88.79C1645.97,537.52,1642.43,549.24,1639.8,584.56z"/>
	</g>
	<g id="hotdog" transform="matrix(0.966, 0.259, -0.259, 0.966, 140.839, 0)">
		<g id="Subtraction_6">
			<path class="st13" d="M1240.92,792.82c-18.35,11.67-40.3,17.5-62.72,15.31c-39.5-3.86-69.39-33.09-92.39-63.17
				c-44.77-58.55-79.14-127.22-118.79-189.32c-41.66-65.25-80.24-134.47-125.68-197.12c-7.64-11.98-40.28-45.28-47.03-57.56
				c-11.4-20.75-3.13-36.72,21.63-38.59c11.38-0.86,14.52,0.09,24.15-6.03c6.66-4.24,12.01-9.11,20.05-10.37
				c10.47-1.64,52.77,26.48,68.64,23.52c26.03-4.86,39.66-10.83,61.08-24.14c8.71-5.42,14.73-11.93,22.29-0.75
				c71.5,105.65,138.49,214.34,207.3,321.74c34.63,54.06,93.11,119.64,57.46,187.41C1268.45,769.88,1255.88,783.3,1240.92,792.82z"
				/>
		</g>
		<g id="Ellipse_8">
			
				<ellipse transform="matrix(-0.4458 0.8951 -0.8951 -0.4458 1696.6267 -353.2714)" class="st14" cx="957.67" cy="348.57" rx="73.86" ry="21.34"/>
		</g>
		<g id="Ellipse_8-2">
			
				<ellipse transform="matrix(-0.4458 0.8951 -0.8951 -0.4458 1894.3282 -263.7418)" class="st14" cx="1028.81" cy="454.54" rx="73.86" ry="21.34"/>
		</g>
		<g id="Ellipse_8-3">
			
				<ellipse transform="matrix(-0.4458 0.8951 -0.8951 -0.4458 2102.4229 -148.631)" class="st14" cx="1097.22" cy="576.51" rx="73.86" ry="21.34"/>
		</g>
		<g id="Ellipse_8-4">
			
				<ellipse transform="matrix(-0.4458 0.8951 -0.8951 -0.4458 2317.7681 -54.1703)" class="st14" cx="1175.65" cy="690.4" rx="73.86" ry="21.34"/>
		</g>
	</g>
	<g>
		<g>
			<g>
				<path class="st7" d="M1107.85,634.9c-0.48,0.05-0.92,0.18-1.32,0.37c-4.98,2.48-10.96,17.92-13.67,22.89
					c-8.67,15.9-15.85,32.63-21.1,49.97c-3.56,11.76-6.23,23.79-7.96,35.96c-2.17,15.24,11.71,18.86,23.09,24.13
					c0.04,0.02,0.08,0.04,0.13,0.06c4.04,1.91,2.89,8.03-1.57,8.38c-4.22,0.33-8.42,0.82-12.6,1.45c-4.9,0.74-10.52,2.24-12.48,6.8
					c-1.11,2.6-0.71,5.56-0.26,8.35c14.86,92.69,62.79,181.37,135.12,242.53c1.99,1.68,5.02,1.27,6.5-0.88
					c26.56-38.73,48.98-81.31,59.77-127.25c4.34-18.47,6.52-37.46,6.4-56.43c-0.05-8.53,0.94-20.31-1.91-28.43
					c-2.89-8.24-8.99-7.12-16.9-8.33c-2.87-0.44-19.29-5.12-21.54-3.24c7.46-2.94,14.91-5.88,22.37-8.82
					c6.28-2.47,9.85-1.97,10.4-9.11c0.67-8.74-6.03-15.07-9.55-22.34c-6.89-14.22-14.85-27.74-23.29-41.1
					c-6.48-10.26-30.96,9.29-40.25,10.02c6.7-0.53,12.24-12.82,14.7-17.82c4.67-9.5,7.65-16.66-1.2-24.4
					c-9.95-8.7-20-17.36-30.48-25.42c-13.84-10.69-28.61-20.13-43.87-28.66C1121.92,641.09,1112.87,634.33,1107.85,634.9z"/>
			</g>
			<g>
				<path class="st8" d="M1264.09,817.55c-3.55-4.15-10.11-3.43-14.94-3.83c-0.32-0.03-0.64-0.05-0.97-0.08
					c-4.68-0.41-5.52-6.84-1.15-8.56c3.13-1.23,6.09-2.74,8.65-4.76c12.3-9.65-8.8-38.79-14.22-48.17
					c-4.06-7.03-7.7-14.26-12.02-21.14c-1.08-1.72-2.23-3.48-3.97-4.52c-6.01-3.62-18.42,5.85-24.11,8.03
					c-4.36,1.67-9.01,2.23-13.19,4.45c12.88-4.34,26.37-28.96,14.27-39.39c-28.25-24.35-57.01-48.81-91.54-63.85
					c-6.71-2.92-4.22,17.49-4.28,21.13c-0.13,7.71-0.06,15.42,0.19,23.13c0.51,15.81,1.76,31.59,3.55,47.31
					c3.64,31.91,9.53,63.55,16.8,94.82c12.54,53.92,29.16,106.9,48.51,158.74c6.23,16.68,11.34,36.92,18.44,53.28
					c1.38,3.19,5.74,3.63,7.71,0.77c3.99-5.79,10.82-16.5,11.83-18.1c4.94-7.86,9.68-15.86,14.15-23.99
					c8.96-16.29,16.9-33.17,23.33-50.63c12.93-35.09,19.38-72.43,15.83-109.8c-0.36-3.81-0.82-7.61-1.36-11.4
					C1265.4,819.59,1264.87,818.46,1264.09,817.55z"/>
			</g>
		</g>
	</g>
	<g>
		<g id="cup">
			<path class="st15" d="M1214.9,649.61l194.67,53.76c0,0-78.08,225.77-84.38,245.83s-25.21,15.43-25.21,15.43l-123.81-34.19
				c0,0-17.8-6.72-14.72-24.85C1164.5,887.46,1214.9,649.61,1214.9,649.61z"/>
		</g>
		<g id="cup_head">
			<path class="st16" d="M1197.83,654.48c-5.76-1.6-9.14-7.56-7.55-13.33c1.42-5.12,6.34-8.45,11.62-7.88
				c-1.58-5.77,1.81-11.73,7.58-13.31c1.88-0.52,3.87-0.52,5.75,0l1.61,0.45l4.67-16.89c0,0,3.86-17.27,21.78-12.32l172.12,47.53
				c17.08,4.72,12.43,20.4,12.43,20.4l-5.02,18.16l1.17,0.32c5.76,1.59,9.15,7.55,7.56,13.32c-0.52,1.88-1.54,3.59-2.95,4.94
				c5.44,2.49,7.83,8.92,5.33,14.36c-2.21,4.83-7.6,7.34-12.72,5.93L1197.83,654.48z"/>
		</g>
		<g id="cover">
			<path class="st17" d="M1194.53,745.64c0,0,74.35,40.51,184.04,47.14c-22.57,67.57-25.05,72.3-25.05,72.3
				s-62.37,9.07-175.17-44.87C1184.59,790.81,1194.53,745.64,1194.53,745.64z"/>
		</g>
	</g>
	<g>
		<g>
			<path class="st7" d="M1583.88,848.68c0,0,89.63-189.58,189.45-127.79c99.82,61.8-171.93,135.58-171.93,135.58L1583.88,848.68z"/>
		</g>
		<g>
			<path class="st8" d="M1591.68,853.53c-0.19,0-0.39-0.06-0.56-0.17c-0.46-0.31-0.58-0.93-0.27-1.39
				c34.9-51.41,84.69-80.2,120.3-95.3c38.58-16.36,69.34-20.62,69.65-20.67c0.56-0.07,1.05,0.31,1.12,0.86
				c0.07,0.55-0.31,1.05-0.86,1.12c-0.3,0.04-30.85,4.28-69.19,20.55c-35.35,15-84.76,43.57-119.37,94.56
				C1592.31,853.38,1592,853.53,1591.68,853.53z"/>
		</g>
	</g>
	<g>
		<path class="st18" d="M948.54,847.1c0,0,10.25-250,223.24-334.29c212.99-84.28,354.22,120.73,379.27,334.29l-62.64,26.77
			l-10.25-26.77c0,0,4.56-328.59-212.13-322.9c-214.23,5.63-255.98,328.02-255.98,328.02s-34.17,86.56-36.45,78.59
			C971.31,922.84,948.54,847.1,948.54,847.1z"/>
	</g>
	<g>
		<path class="st19" d="M1671.98,847.1H889.83c-12.09,0-22.09,9.4-22.83,21.47l-56.98,924.64c-0.81,13.16,9.65,24.29,22.83,24.29
			h896.11c13.19,0,23.65-11.12,22.83-24.29l-56.98-924.64C1694.07,856.5,1684.07,847.1,1671.98,847.1z"/>
	</g>
	<g>
		<g>
			<path class="st20" d="M1657.1,847.1H874.94c-12.09,0-22.09,9.4-22.83,21.47l-56.98,924.64c-0.81,13.16,9.65,24.29,22.83,24.29
				h896.11c13.19,0,23.65-11.12,22.83-24.29l-56.98-924.64C1679.19,856.5,1669.19,847.1,1657.1,847.1z"/>
		</g>
		<g class="st21">
			<path class="st22" d="M1729.49,1672.88c-704.6,16.37-708.07-624.3-691.81-825.78H874.94c-12.09,0-22.09,9.4-22.83,21.47
				l-56.98,924.64c-0.81,13.16,9.65,24.29,22.83,24.29h896.11c13.19,0,23.65-11.12,22.83-24.29L1729.49,1672.88z"/>
		</g>
	</g>
	<g>
		<g>
			<line class="st23" x1="1179.17" y1="1463.21" x2="1163.86" y2="1483.69"/>
		</g>
		<g>
			<path class="st8" d="M1558.65,1291.11c-1.29-0.52-2.54,1.73-3.15,3.04c-0.12,0.27-0.22,0.51-0.34,0.77
				c-0.02,0.04-0.04,0.11-0.04,0.11h-0.01c-3.31,7.6-5.59,12.31-6.03,13.19l0,0c-4.83,9.84-14.7,15.67-25.1,15.67
				c-3.2,0-6.44-0.55-9.61-1.71c-1.88-0.69-17.36-6.45-39.08-16.83c-0.05-0.02-0.08-0.03-0.13-0.05c-9.84-4.59-9.94,6.79-9.94,6.79
				c-0.04,0.86-0.1,1.72-0.15,2.58c-0.11,1.9-0.25,3.8-0.43,5.69c-0.09,0.96-0.18,1.91-0.28,2.87c-0.2,1.87-0.44,3.72-0.7,5.57
				c-0.12,0.85-0.23,1.71-0.36,2.56c-0.4,2.6-0.85,5.19-1.36,7.75c-0.05,0.26-0.11,0.52-0.17,0.79c-0.49,2.37-1.02,4.72-1.6,7.06
				c-0.23,0.92-0.48,1.84-0.73,2.76c-0.44,1.65-0.89,3.29-1.37,4.92c-0.3,1.01-0.61,2.03-0.93,3.03c-0.49,1.57-1.02,3.12-1.55,4.67
				c-0.33,0.97-0.66,1.94-1.01,2.9c-0.71,1.96-1.47,3.89-2.25,5.82c-0.46,1.13-0.94,2.26-1.42,3.38c-0.69,1.62-1.4,3.23-2.14,4.83
				c-0.52,1.11-1.05,2.2-1.59,3.29c-0.59,1.21-1.19,2.42-1.81,3.62c-0.6,1.16-1.21,2.32-1.84,3.47c-0.59,1.09-1.21,2.17-1.82,3.25
				c-0.68,1.18-1.35,2.37-2.05,3.54c-0.57,0.94-1.16,1.87-1.75,2.8c-1.5,2.39-3.05,4.76-4.66,7.08c-0.5,0.72-0.98,1.44-1.48,2.15
				c-0.94,1.32-1.92,2.62-2.89,3.92c-0.53,0.7-1.05,1.39-1.59,2.08c-1.03,1.32-2.07,2.63-3.13,3.93c-0.46,0.56-0.93,1.11-1.4,1.67
				c-5.41,6.43-11.24,12.51-17.48,18.19c-0.29,0.26-0.58,0.53-0.87,0.79c-1.53,1.37-3.07,2.72-4.65,4.04
				c-0.17,0.14-0.34,0.28-0.5,0.42c-6.89,5.76-14.22,11.06-21.92,15.83c-0.04,0.02-0.08,0.05-0.12,0.08
				c-9.8,6.06-20.21,11.29-31.13,15.58v-24.5c0-8.26-4.48-15.87-11.7-19.87c-7.23-4.01-16.05-3.78-23.06,0.59
				c-58.12,36.29-101.48,84.26-103.3,86.28c-7.75,8.63-7.75,21.73,0,30.36c1.82,2.03,45.17,49.99,103.3,86.28
				c3.67,2.3,7.85,3.45,12.03,3.45c3.79,0,7.59-0.95,11.02-2.85c7.22-4.01,11.7-11.61,11.7-19.87v-43.02
				c6.88-1.72,13.65-3.72,20.32-5.91c0.9-0.3,1.81-0.56,2.71-0.87c2.58-0.88,5.13-1.83,7.68-2.77c1.38-0.51,2.76-1.01,4.13-1.54
				c2.41-0.94,4.8-1.92,7.18-2.92c1.46-0.61,2.92-1.22,4.36-1.86c2.32-1.02,4.62-2.07,6.91-3.14c1.45-0.68,2.89-1.38,4.33-2.09
				c2.26-1.11,4.5-2.23,6.73-3.39c1.4-0.73,2.78-1.49,4.17-2.25c2.23-1.21,4.45-2.42,6.64-3.69c1.25-0.72,2.47-1.48,3.7-2.22
				c7.71-4.62,15.17-9.58,22.37-14.86c1.25-0.92,2.51-1.81,3.74-2.74c1.87-1.42,3.69-2.89,5.52-4.35c1.38-1.1,2.76-2.19,4.11-3.31
				c1.74-1.44,3.44-2.92,5.15-4.4c1.39-1.21,2.78-2.43,4.15-3.67c1.63-1.48,3.25-2.98,4.85-4.49c1.38-1.31,2.74-2.64,4.1-3.97
				c1.53-1.51,3.06-3.03,4.56-4.58c1.37-1.42,2.71-2.87,4.05-4.31c1.42-1.53,2.85-3.05,4.23-4.6c1.44-1.62,2.83-3.29,4.23-4.94
				c1.22-1.44,2.47-2.86,3.66-4.32c2.45-3.01,4.83-6.07,7.15-9.18c1.05-1.4,2.04-2.85,3.06-4.27c1.36-1.9,2.73-3.8,4.05-5.74
				c1.04-1.53,2.04-3.1,3.05-4.65c1.23-1.88,2.44-3.77,3.62-5.69c0.98-1.59,1.93-3.2,2.88-4.82c1.14-1.94,2.26-3.89,3.36-5.86
				c0.89-1.62,1.78-3.24,2.65-4.87c1.08-2.05,2.13-4.11,3.16-6.19c0.79-1.6,1.59-3.19,2.35-4.8c1.07-2.26,2.08-4.54,3.08-6.83
				c0.64-1.47,1.31-2.92,1.93-4.4c1.25-2.99,2.42-6.02,3.57-9.06c0.31-0.81,0.64-1.61,0.94-2.42c1.4-3.84,2.71-7.72,3.93-11.64
				c0.4-1.29,0.75-2.59,1.14-3.88c0.8-2.69,1.59-5.39,2.3-8.12c0.41-1.57,0.78-3.15,1.17-4.73c0.61-2.5,1.2-5.01,1.74-7.53
				c0.35-1.66,0.68-3.34,1.01-5.01c0.48-2.5,0.93-5,1.34-7.52c0.28-1.69,0.54-3.38,0.79-5.07c0.37-2.59,0.69-5.19,0.99-7.8
				c0.19-1.63,0.39-3.27,0.55-4.91c0.27-2.87,0.47-5.75,0.66-8.64c0.09-1.4,0.21-2.79,0.28-4.2c0.2-4.3,0.33-8.62,0.33-12.97l0,0
				l0,0c0-3.26-0.1-6.5-0.22-9.73C1560.32,1292.2,1559.86,1291.6,1558.65,1291.11z"/>
		</g>
		<g>
			<path class="st8" d="M1157.36,1450.23l0.07-0.06c-45.31-33.79-74.52-86.75-74.52-146.32c0-9.22,0.7-18.28,2.06-27.13l16.11,10.88
				c6.77,4.57,15.57,5.24,22.99,1.74c3.53-1.67,6.48-4.15,8.65-7.15c2.4-3.31,3.84-7.26,4.07-11.44
				c3.57-66.11-10.9-127-11.52-129.56c-2.63-10.92-13.36-18.17-24.88-16.81c-2.7,0.32-66.86,8.1-129.91,34.03
				c-7.6,3.13-12.84,9.99-13.7,17.93c-0.86,7.94,2.81,15.7,9.58,20.27l34.7,23.44c-8.71,26.44-13.45,54.58-13.45,83.81
				c0,88.04,42.63,166.37,108.93,217.08c8.43,7.3,19.54,11.77,31.75,11.77c26.32,0,47.65-20.61,47.65-46.04
				C1175.95,1471.81,1168.65,1458.65,1157.36,1450.23z"/>
		</g>
		<g>
			<path class="st8" d="M1573.73,1136.53c-1.42-3.52-3.71-6.68-6.76-9.16c-6.41-5.21-15.14-6.53-22.8-3.44l-39.3,15.8
				c-52.16-68.36-136.04-112.73-230.7-112.73c-71.43,0-136.72,25.29-186.88,67.07c-0.26,0.22-0.48,0.41-0.7,0.6
				c-0.22,0.18-0.43,0.38-0.65,0.56c-1.24,1.17-1.68,2.06-1.42,3.71c0.36,2.25,4.71,1.63,4.71,1.63l0.01,0.01
				c13.02-2.29,21.45-3.34,22.89-3.51c17.77-2.05,34.27,9.16,38.36,26.15c0.26,1.08,1.69,7.18,3.52,16.93
				c0,0.01,0.01,0.02,0.01,0.04c3.87,18.23,14.62,9.65,14.62,9.65v0.04c30.24-19.42,66.47-30.82,105.51-30.82
				c54.63,0,103.89,22.15,138.74,57.64l-21.24,8.54c-7.66,3.08-13.05,10.08-14.07,18.27c-1.02,8.2,2.48,16.3,9.15,21.17
				c55.35,40.39,116.03,62.73,118.59,63.66c10.9,3.97,23.05-0.91,28.17-11.33c1.2-2.44,29.53-60.57,41.52-128.03
				C1575.78,1144.71,1575.3,1140.41,1573.73,1136.53z"/>
		</g>
	</g>
	<g>
		<g id="woman_1_" transform="translate(738.597 362.67)">
			<g id="WOMAN-2_1_">
				<g id="Path_269_1_">
					<path class="st24" d="M-34.55,1380.27v52h25.3v-52H-34.55z"/>
				</g>
				<g id="Path_270_1_">
					<path class="st25" d="M-10.55,1428.92h-26.8c0,0-3.08-1.68-4.19,7.25c-1.11,8.93-1.95,16.18-1.95,16.18s-1.4,2.79,8.37,2.79
						h53.86c0,0,12.83-5.3,0-14.23C4.8,1435.34-10.55,1428.92-10.55,1428.92z"/>
				</g>
				<g id="Path_268_1_">
					<path class="st24" d="M-133.94,1380.27v52h25.3v-52H-133.94z"/>
				</g>
				<g id="Path_15_1_">
					<path class="st15" d="M-125.9,1061.85c0,0-15.84,24.25-15.84,345.43c27.7,2.47,31.67,2.47,67.31,0
						c0.99-16.33,15.84-286.53,15.84-286.53s14.84,50.48,10.89,286.53c23.75,5.44,59.39,4.45,73.24-5.44
						c0-15.84-2.97-353.35-12.87-351.37s-138.57-8.91-138.57-8.91L-125.9,1061.85L-125.9,1061.85z"/>
				</g>
				<g id="Path_267_1_">
					<path class="st25" d="M-109.94,1428.92h-26.8c0,0-3.08-1.68-4.19,7.25s-1.95,16.18-1.95,16.18s-1.4,2.79,8.37,2.79h53.86
						c0,0,12.83-5.3,0-14.23C-94.59,1435.34-109.94,1428.92-109.94,1428.92z"/>
				</g>
				<g id="Path_18_1_">
					<path class="st24" d="M32.7,918.66c0,0-1.4,15.2-2.14,24.53c-0.75,9.33-6.88,23.94,11.16,14.66
						c11.45-5.64,63.52-30.64,63.52-30.64c10.65-4.59,17.18-15.47,16.22-27.03v39.65c0,0-100.01,66.23-111.28,68.03
						c-11.26,1.8-9.91,0-9.91,0v-89.2H32.7z"/>
				</g>
				<g id="Path_21_1_">
					<path class="st25" d="M-229.2,778.1c3.54-1.36,10.82-4.83,16.53-7.2c8.16-4.56,17.33-14.4,19.46-33.06s34.92-24.26,43.45-23.46
						s39.99,7.93,61.58-8.8s63.71,2.2,74.65,12.33s34.28,31.44,31.16,75.8c-2.43,32.58-29.03,42.03-39.69,49.76
						S-49,896.54-49,896.54l-24.26,19.73L-129.78,900l-19.99,6.93c0,0-47.13-5.08-82.37-54.92
						C-262.86,804.56-242.98,785.75-229.2,778.1z"/>
				</g>
				<g id="Path_20_1_">
					<path class="st24" d="M-72.42,845.56l5.25-35.35c0,0-13.53-3.59-18.23-21.27c-5.8,2.21-17.4,3.31-19.89-4.14
						c-2.49-7.46,1.12-17.96,11.07-15.74c9.33-2.75,31.24-18.19,41.3-35.06c2.81-5.76-4.97,17.3,0,15.18
						c5.13-2.25,22.77-27.62,22.77-27.62c9.94,6.35,17.14,16.21,20.16,27.62c5.25-1.11,18.78,7.18,2.76,19.89
						c-1.11,9.67,0.27,34.52-29.55,44.74c0.28,11.05,0,31.76,0,31.76L-72.42,845.56z"/>
				</g>
				<g id="Path_19_1_">
					<path class="st13" d="M-166.21,893.43c0,0,23.99,30.76,39.37,28.3c9.23-9.64,10.87-12.71,10.87-12.71l-8.82,14.77
						c0,0-5.54,99.61-1.84,136.52c41.22,3.08,102.99,2.25,140.46-9.23c0.36-15.39-0.05-114.99-0.05-114.99l31.99-16.81
						c0,0-12.1-82.95-80.59-87.41c0.62-0.56-9.84,11.69-32.81,0c-8.04,0.37-16.05,1.19-23.99,2.46c0,0-15.9-0.82-33.17,14.36
						S-166.21,893.43-166.21,893.43z"/>
				</g>
				<g id="Path_16_1_">
					<path class="st24" d="M-108.17,1089.37c0,0-17.51-12.94-13.71-26.65c-6.85-4.57-96.69-72.34-96.69-72.34
						c-5.35-7.8-5.35-18.09,0-25.89c9.14-13.71,64.72-77.66,64.72-77.66l31.98,24.37l-47.82,56.77c0,0-6.13,8.53-1.33,14.93
						c9.06,8.27,83.41,85.91,83.41,85.91l-14.47,25.89L-108.17,1089.37z"/>
				</g>
				<g id="Path_265_1_">
					<path class="st13" d="M-135.03,861.23l33.19,30.95c0,0-11.95,14.03-26.58,29.93c-17.15-1.26-36.39-26.77-36.39-26.77
						L-135.03,861.23z"/>
				</g>
				<g id="Path_22_1_">
					<path class="st26" d="M263.92,602.88c-5.97,3.54-129.55,88.78-129.55,88.78s-18.18,8.56-12.83,34.23
						c0,28.88-0.24,716.1,0.1,719.85c-0.34,5.97,2.22,8.68,5.05,9.75c2.83,1.07,14.11,0,14.11,0s5.84-0.49,5.84-9.75V725.89
						c0,0-2.43-10.55,10.22-18.82c12.66-8.28,120.25-85.21,120.25-85.21s7.3-3.41,3.89-9.25c-1.91-3.49-4.2-6.76-6.82-9.75
						C271.85,600.02,269.88,599.34,263.92,602.88z"/>
				</g>
				<g id="Subtraction_7_1_">
					<path class="st24" d="M135.48,928.08L135.48,928.08c-0.53,0.01-1.07-0.05-1.59-0.16c-0.46-0.1-0.89-0.29-1.28-0.55
						c-0.37-0.26-0.67-0.61-0.87-1.03c-0.23-0.5-0.35-1.05-0.35-1.6c-0.02-0.57,0.68-1.07,2.17-1.52c-0.74-0.12-1.41-0.48-1.93-1.03
						c-0.25-0.28-0.44-0.6-0.57-0.95c-0.14-0.43-0.22-0.88-0.22-1.33c-0.01-0.18,0.04-0.36,0.14-0.51c0.11-0.17,0.25-0.32,0.42-0.44
						c0.45-0.3,0.95-0.53,1.48-0.67c-0.93-0.07-1.82-0.39-2.58-0.93c-0.34-0.26-0.62-0.59-0.83-0.97c-0.23-0.43-0.39-0.89-0.45-1.37
						c-0.03-0.23,0.02-0.47,0.14-0.67c0.54-0.86,2.44-1.25,4.22-1.51c-1.03-0.16-2.03-0.51-2.94-1.03c-0.34-0.2-0.63-0.46-0.87-0.77
						c-0.2-0.27-0.32-0.59-0.34-0.92c-0.03-0.23,0.01-0.46,0.09-0.67c0.09-0.21,0.22-0.39,0.38-0.55c0.43-0.37,0.92-0.65,1.46-0.82
						c1.44-0.44,2.92-0.76,4.41-0.96c0.63-0.1,1.22-0.2,1.78-0.3c1.96-0.58,3.78-1.56,5.34-2.88c0.97-0.75,1.9-1.55,2.78-2.4
						l1.45-1.28v23.54c-0.09,0.11-0.2,0.19-0.33,0.26c-0.3,0.43-0.67,0.81-1.09,1.11c-0.51,0.39-1.06,0.72-1.64,1
						c-0.84,0.4-1.71,0.71-2.6,0.94C139.37,927.66,137.43,927.99,135.48,928.08z"/>
				</g>
			</g>
			<g id="EYELASH_1_">
				<path class="st27" d="M-69.27,752.78L-69.27,752.78c0.48-0.79,1.05-1.52,1.69-2.18c0.62-0.64,1.31-1.2,2.07-1.67
					c0.74-0.46,1.54-0.82,2.38-1.07c1.7-0.5,3.51-0.5,5.21,0c0.84,0.25,1.63,0.61,2.38,1.07c0.76,0.47,1.45,1.03,2.07,1.67
					c0.64,0.66,1.21,1.39,1.69,2.18c-2.64-1.6-5.66-2.44-8.74-2.43C-63.61,750.34-66.64,751.18-69.27,752.78z"/>
			</g>
			<g id="Ellipse_13_1_">
				<circle class="st27" cx="-58.78" cy="761.64" r="4.4"/>
			</g>
			<g id="Ellipse_13_2_">
				<circle class="st27" cx="-26.6" cy="761.64" r="4.4"/>
			</g>
			<g id="EYELASH-2_1_">
				<path class="st27" d="M-34.7,752.78L-34.7,752.78c0.48-0.79,1.05-1.52,1.69-2.18c0.62-0.64,1.31-1.2,2.07-1.67
					c0.74-0.46,1.54-0.82,2.38-1.07c1.7-0.5,3.51-0.5,5.21,0c0.84,0.25,1.63,0.61,2.38,1.07c0.76,0.47,1.45,1.03,2.07,1.67
					c0.64,0.66,1.21,1.39,1.69,2.18c-2.64-1.6-5.66-2.44-8.74-2.43C-29.04,750.34-32.07,751.18-34.7,752.78z"/>
			</g>
			<g id="Subtraction_8_1_">
				<path class="st3" d="M-58.37,790.7h28.11c-1.03,2.12-2.81,3.77-5,4.63c-2.85,1.25-5.94,1.89-9.05,1.85
					c-3.11,0.04-6.2-0.59-9.05-1.85C-55.56,794.46-57.34,792.81-58.37,790.7z"/>
			</g>
			<g id="Rectangle_40_1_">
				<path class="st28" d="M-86.98,1067.13L-86.98,1067.13c0.53,0.28,0.73,0.93,0.45,1.46l-14.19,26.71
					c-0.28,0.53-0.93,0.73-1.46,0.45l0,0c-0.53-0.28-0.73-0.93-0.45-1.46l14.19-26.71C-88.16,1067.05-87.51,1066.85-86.98,1067.13z"
					/>
			</g>
		</g>
		<g>
			<g>
				<g>
					<path class="st29" d="M694.51,1128.14c0.96,1.58,1.92,3.16,2.88,4.74c0.88,1.44,1.98,2.91,2.43,4.56
						c0.39,1.4-0.06,2.81-1.47,3.38c-1.18,0.47-2.55,0.34-3.74-0.01c-0.62-0.18-0.88,0.79-0.27,0.96c2.63,0.76,6.6,0.21,6.63-3.27
						c0.02-1.9-1.2-3.62-2.15-5.18c-1.15-1.9-2.31-3.79-3.46-5.69C695.04,1127.09,694.17,1127.59,694.51,1128.14L694.51,1128.14z"/>
				</g>
			</g>
		</g>
		<g>
			<path class="st30" d="M747.14,1262.86c0,0,5.82,20.91,5.24,35.89C752.38,1298.75,748.52,1276.34,747.14,1262.86z"/>
		</g>
	</g>
	<g class="st2">
		<path class="st4" d="M48.14,911.38c1.56-6.78,7.63-11.85,14.89-11.85c1.33,0,2.62,0.17,3.86,0.49
			c3.58-7.66,11.35-12.97,20.37-12.97c2.33,0,4.58,0.36,6.69,1.01c4.85-8.04,13.67-13.41,23.74-13.41c11.98,0,22.19,7.6,26.06,18.25
			c2.74-1.53,5.89-2.4,9.24-2.4c10.5,0,19.02,8.51,19.02,19.02c0,0.62-0.03,1.24-0.09,1.85L48.14,911.38L48.14,911.38z"/>
	</g>
	<g class="st2">
		<path class="st4" d="M1108.61,419.99c1.58-6.89,7.75-12.03,15.12-12.03c1.35,0,2.67,0.17,3.92,0.5
			c3.64-7.78,11.53-13.17,20.69-13.17c2.37,0,4.65,0.36,6.8,1.03c4.93-8.16,13.88-13.62,24.11-13.62c12.17,0,22.54,7.72,26.47,18.54
			c2.78-1.55,5.98-2.44,9.39-2.44c10.67,0,19.32,8.65,19.32,19.32c0,0.63-0.03,1.26-0.09,1.87H1108.61z"/>
	</g>
	<g>
		<g>
			<g>
				<path class="st31" d="M1841.31,1192.9c0,0-32.4,40.82-62.54,41.79l5.28,36.4c0,0,29.52,1.97,51.17-9.84L1841.31,1192.9z"/>
			</g>
			<g id="man_1_" transform="translate(1198.598 383.395)">
				<g id="man__1_" transform="translate(0 0)">
					<g id="Path_84_1_">
						<path class="st15" d="M317.8,767.29l36.62,373.1c0,0,0.52,23.88,8.65,30.45c8.05,2.87,13.15,1.39,18.94,6.36
							c4.97,5.98,10,12.58,20.36,13.95c20.29,7.45,125.36-6.41,125.36-6.41c9.47-1.25,18.9-2.34,28.27-4.27
							c9.04-1.86,18.21-3.67,26.76-7.27c9.39-3.95,13.49-8.8,19.24-16.75c4.73-6.54,12.59-8.05,18.01-13.44
							c2.64-2.62,3.34-6.36,3.84-9.92c-0.56-7.72-40.58-393.83-40.58-393.83s-0.03-12.46-11.27-25.2
							c-9.54-14.02-21.43-29.44-21.43-29.44s-3.54-7.51-1.11-10.51s-0.21-9.32-0.21-9.32s-6.48-4.66-20.5-5.16
							c-14.01-0.5-70.09,2.69-96.76,5.03s-63.36,9.07-63.36,9.07s-35.32,8.47-35.93,13.91c-0.62,5.44,0.69,6.49,0.69,6.49
							c1.69,1.67,2.7,3.91,2.83,6.29c-0.14,3.43-4.39,16.68-11.86,39.76S317.8,767.29,317.8,767.29z"/>
					</g>
					<g id="Path_85_1_">
						<path class="st32" d="M330.2,896.91c0,0,150.62,12.87,266.13-28.82l9.98,97.09c0,0-94.78,54.49-266.13,28.82
							C330.76,900.39,330.2,896.91,330.2,896.91z"/>
					</g>
					<g id="Path_83_1_">
						<path class="st24" d="M554.24,929.19l-10.65-4.24l-19.67-13.14c0,0-9.12-4.98-3.16,3.43s4.63,8.37,4.63,8.37
							s-34.55-6.77-25.07,0.83c9.49,7.6,23.08,8.49,23.08,8.49l-25.21-2.92c0,0-15.7-0.63-0.91,6.22
							c17.98,5.22,24.64,5.24,24.64,5.24l-24.22-0.55c0,0-16.44,1.48-1.08,6.64c17.22,3.58,23.12,4.17,23.12,4.17l-22.07,0.98
							c0,0-13.04,3.68-1.24,5.83s31.07,0.52,31.07,0.52s27.03-4.29,32.3-3.93c5.28,0.36,15.55,2.3,15.55,2.3l4.83-22.73
							L554.24,929.19z"/>
					</g>
					<g id="Path_81_1_">
						<path class="st24" d="M645.44,1370.38v50.89h24.76v-50.89H645.44z"/>
					</g>
					<g id="Path_82_1_">
						<path class="st24" d="M788.16,1369.34v52.26h26.13v-39.19L788.16,1369.34z"/>
					</g>
					<g id="Path_78_1_">
						<path class="st25" d="M630.43,734.48c-0.89-0.16-1.73-7.73-1.83-8.45c-0.91-6.63-0.76-13.47,0.8-19.99
							c2.97-12.4,11.41-22.46,23.07-27.59c6.95-3.05,14.59-4.35,22.19-4.4c9.12-0.06,18.39,1.7,26.36,6.15
							c18.18,10.16,22.36,32.33,19.79,51.54c-2.18,16.38-4.48,11.3-4.48,11.3S630.47,734.48,630.43,734.48z"/>
					</g>
					<g id="Path_77_1_">
						<path class="st24" d="M656.25,812.44v-31.98c0,0-18.43-3.9-23.89-33.54c-3.29-1.12-16.1-14.77,0-19.14
							c0.25-0.54,7.36-26.49,11.19-23.48c3.82,5.19,18.58,14.74,22.66,14.47c-1.64-7.37-4.09-14.47-1.91-12.55
							c2.18,1.92,43.14,31.4,47.24,28.4c4.09-3,19.93-2.41,11.47,12.3c-1.91,2.71-10.65,6.26-13.93,5.98
							c-1.37,3.28-15.02,26.16-22.12,27.55c0.55,6.85,2.46,24.88,2.46,24.88L656.25,812.44z"/>
					</g>
					<g id="Path_75_1_">
						<path class="st33" d="M627.99,1027.67l13.18,371.06h36.5l23.32-217.98l84.15,217.98h32.44c0,0-48.66-366-66.91-371.06
							C734.44,1028.68,627.99,1027.67,627.99,1027.67z"/>
					</g>
					<g id="Path_76_2_">
						<path class="st13" d="M653.33,800.04c9.12,4.06,29.4-2.03,36.5-7.1c8.11,3.04,70.12,26.6,51.14,100.89
							c13.18,92.26,21.86,131.28,21.86,131.28s2.03,3.04-7.1,6.08c-9.12,3.04-10.54,2.7-10.54,2.7H619.26c0,0-4.62-0.48-2.84-8.79
							c1.77-8.31,5.32-22.15,6.02-56.23c-12.42,0-65.31-3.91-70.64-7.46c-5.33-3.55-1.13-45.84,8.46-44.64s57.76,2.4,62.18-3.6
							c1.41-10.2,0-29.4,0-29.4S620.84,820.62,653.33,800.04z"/>
					</g>
					<g id="Path_79_1_">
						<path class="st34" d="M645.52,1408.43h26.21c0,0,3.01-1.64,4.1,7.1c1.08,8.74,1.91,15.84,1.91,15.84s1.37,2.73-8.19,2.73
							h-52.7c0,0-12.55-5.19,0-13.93C630.5,1414.71,645.52,1408.43,645.52,1408.43z"/>
					</g>
					<g id="Path_80_1_">
						<path class="st25" d="M789.32,1408.43h26.21c0,0,3.01-1.64,4.1,7.1c1.08,8.74,1.91,15.84,1.91,15.84s1.37,2.73-8.19,2.73
							h-52.7c0,0-12.55-5.19,0-13.93C774.31,1414.71,789.32,1408.43,789.32,1408.43z"/>
					</g>
					<g id="Path_266_1_">
						<path class="st25" d="M645.52,1408.43h26.21c0,0,3.01-1.64,4.1,7.1c1.08,8.74,1.91,15.84,1.91,15.84s1.37,2.73-8.19,2.73
							h-52.7c0,0-12.55-5.19,0-13.93C630.5,1414.71,645.52,1408.43,645.52,1408.43z"/>
					</g>
					<g>
						<path class="st35" d="M363.07,1170.85c0,0,163.91,10.34,259.97-33.45c0,0-0.34,5.6-11.06,11.21
							c-10.72,5.62-11.7,10.21-11.7,10.21s-8.09,11.99-20.72,15.66c-11.93,3.46-23.88,5.99-36.18,7.93
							c-38.46,6.08-77.44,10.14-116.4,10.83c-7.34,0.13-15.28,0.03-22.51-1.46c-5.19-1.05-10.29-2.99-14.6-6.11
							c-4.48-3.24-7.03-8.42-12.2-10.77C373.05,1172.81,368.19,1170.98,363.07,1170.85z"/>
					</g>
					<g class="st36">
						<path class="st37" d="M358.84,676.32c0,0-3.1,9.04,8.89,12.04S352,754.72,352,754.72s-1.5,0.85,0,13.33
							s41.21,393.91,41.21,393.91s4.12,9.27,13.96,13.49c0,0,1.69,0.28,3.37,4.78c1.69,4.5,13.23,13.19,22.22,12.89
							c0,0-34.47,4.09-46.93-11.18c0,0-5.81-8.35-15.93-9.32s-10.34-6.26-13.48-15.74c0,0-1.48-7.51-1.74-12
							c-0.26-4.49-8.33-86.75-8.33-86.75l-28.17-286.97c0,0-0.69-6.7,1.14-13.61l16.42-54.27c0,0,2.02-3.98-2.35-9.13
							c0,0-3.15-6.72,1.85-9.2C335.25,684.95,344.94,679.62,358.84,676.32z"/>
					</g>
				</g>
				<g id="EYELASH-3_1_">
					<path class="st27" d="M689.89,727.78L689.89,727.78c-0.47-0.77-1.03-1.49-1.66-2.14c-0.61-0.62-1.29-1.17-2.03-1.63
						c-0.72-0.45-1.51-0.8-2.32-1.04c-0.83-0.24-1.69-0.37-2.55-0.37s-1.72,0.12-2.55,0.37c-0.82,0.24-1.6,0.6-2.32,1.05
						c-0.74,0.46-1.42,1.01-2.03,1.63c-0.63,0.65-1.18,1.36-1.65,2.14c2.58-1.56,5.54-2.39,8.55-2.37
						C684.35,725.39,687.31,726.21,689.89,727.78z"/>
				</g>
				<g id="Ellipse_20_1_">
					<circle class="st27" cx="679.13" cy="735.39" r="4.7"/>
				</g>
				<g id="Ellipse_21_1_">
					<circle class="st27" cx="649.01" cy="735.39" r="4.7"/>
				</g>
				<g id="EYELASH-4_1_">
					<path class="st27" d="M656.06,727.78L656.06,727.78c-0.47-0.77-1.03-1.49-1.66-2.14c-0.61-0.62-1.29-1.17-2.03-1.63
						c-0.72-0.45-1.51-0.8-2.32-1.04c-0.83-0.24-1.69-0.37-2.55-0.37s-1.72,0.12-2.55,0.37c-0.82,0.24-1.6,0.6-2.32,1.05
						c-0.74,0.46-1.42,1.01-2.03,1.63c-0.63,0.65-1.18,1.36-1.65,2.14c2.58-1.56,5.54-2.39,8.55-2.37
						C650.52,725.39,653.48,726.21,656.06,727.78z"/>
				</g>
				<g id="Subtraction_9_1_">
					<path class="st3" d="M679.22,764.88h-27.5c1.01,2.07,2.75,3.69,4.89,4.53c2.79,1.23,5.81,1.84,8.86,1.81
						c3.05,0.04,6.07-0.58,8.86-1.81C676.47,768.57,678.22,766.95,679.22,764.88z"/>
				</g>
			</g>
			<g>
				<g>
					<g>
						<path class="st29" d="M1864.39,1120.88c-0.81,2.3-1.71,4.57-2.72,6.8c-0.51,1.13-1.05,2.25-1.61,3.36
							c-0.51,1.02-1.13,2-1.55,3.06c-0.73,1.82,0.06,3.58,1.89,4.27c1.99,0.74,3.98-0.36,5.52-1.55c0.51-0.39-0.2-1.1-0.71-0.71
							c-1.36,1.06-3.29,2.1-4.97,1.09c-2.03-1.23-0.48-3.41,0.3-4.93c1.86-3.59,3.46-7.31,4.8-11.13
							C1865.56,1120.53,1864.6,1120.27,1864.39,1120.88L1864.39,1120.88z"/>
					</g>
				</g>
			</g>
			<g>
				<path class="st30" d="M1822.02,1352.06c13.08,0.34,29.25-1.35,41.19-7c11.34-5.37,20.72-15.03,27.77-25.23
					c8.8-12.73,14.27-27.52,17.73-42.6c-0.76,3.29-2.6,6.02-3.83,9.11c-1.19,2.99-2.32,6-3.63,8.93c-2.21,4.94-4.75,9.76-7.52,14.4
					c-5.98,10.03-13.4,19.65-23.09,26.36C1856.34,1345.94,1838.71,1348.73,1822.02,1352.06z"/>
			</g>
			<g>
				<path class="st30" d="M1821.04,1296.58c0,0,20.46-4.88,37.66-35.54C1858.7,1261.04,1847.95,1292,1821.04,1296.58z"/>
			</g>
		</g>
		<g class="st38">
			<path class="st37" d="M1533.84,1068.35c0,0,21.95-18.7,163.39-24.52c0,0,43.18-2.6,50.62,4.39c0,0,3.03,4.59,0.21,9.32
				s-90.34,30.08-216.07,20.01C1531.99,1077.55,1528.63,1071.17,1533.84,1068.35z"/>
		</g>
		<g class="st39">
			<path class="st40" d="M1557.44,1059.72c0,0-3.03,9.33,8.89,12.04c0,0,4.01,0.25,2.97,7.83c0,0-32.05-1.07-37.31-2.04
				c0,0-3.33-6.39,1.85-9.2C1539.02,1065.53,1544.26,1062.56,1557.44,1059.72z"/>
		</g>
	</g>
	<g class="st41">
		<path class="st3" d="M775.87,335.7c2.85-12.42,13.97-21.69,27.25-21.69c2.44,0,4.8,0.31,7.06,0.9
			c6.56-14.02,20.79-23.74,37.29-23.74c4.27,0,8.38,0.65,12.25,1.85c8.88-14.71,25.02-24.55,43.46-24.55
			c21.94,0,40.62,13.92,47.7,33.41c5.01-2.79,10.78-4.39,16.93-4.39c19.23,0,34.82,15.59,34.82,34.82c0,1.14-0.06,2.27-0.17,3.38
			L775.87,335.7L775.87,335.7z"/>
	</g>
</g>
</svg>
