<svg id="Layer_1" data-name="Layer 1" xmlns="http://www.w3.org/2000/svg" viewBox="0 0 65 80"><defs><style>.cls-1{fill:#05c4a3;}</style></defs><path id="Path_6724" data-name="Path 6724" class="cls-1" d="M60.14,19.28a27.41,27.41,0,0,0-6.43-8.73,30.28,30.28,0,0,0-9.54-5.89,32.74,32.74,0,0,0-23.35,0,30.12,30.12,0,0,0-9.53,5.89,27.26,27.26,0,0,0-6.43,8.73A25.08,25.08,0,0,0,2.51,30a24.13,24.13,0,0,0,.64,6.11,23.48,23.48,0,0,0,2.46,5.87c2.55,4.54,7,10.36,14.41,20,3.3,4.3,7,9.18,11.48,15.08a1.28,1.28,0,0,0,1.8.19,1.21,1.21,0,0,0,.2-.19c4.44-5.9,8.18-10.78,11.48-15.08,7.39-9.64,11.86-15.46,14.41-20a23.48,23.48,0,0,0,2.46-5.87A24.13,24.13,0,0,0,62.49,30,25.23,25.23,0,0,0,60.14,19.28ZM23.21,46.43a3.23,3.23,0,0,1-2.13-.81,18.72,18.72,0,0,1-7.35-14.83,18.27,18.27,0,0,1,.91-5.73l-2.34-1.6a1.49,1.49,0,0,1-.65-1.38,1.51,1.51,0,0,1,.93-1.23,36.82,36.82,0,0,1,8.75-2.32A1.53,1.53,0,0,1,23,19.68a35.06,35.06,0,0,1,.77,8.85,1.47,1.47,0,0,1-.27.78,1.48,1.48,0,0,1-.59.49,1.56,1.56,0,0,1-1.55-.12l-1.08-.74a12.7,12.7,0,0,0-.14,1.85,12.5,12.5,0,0,0,5,10h0a3.13,3.13,0,0,1,1.25,2.49,3.19,3.19,0,0,1-3.21,3.15ZM52.28,32.55a1,1,0,0,1,0,.35,2.24,2.24,0,0,1-.06.52c0,.11,0,.25,0,.35l-.1.52a1.36,1.36,0,0,1-.07.35c0,.17-.07.31-.1.5a1,1,0,0,0-.08.34c-.07.18-.1.35-.16.56a2.17,2.17,0,0,0-.07.24,4.2,4.2,0,0,1-.28.8c0,.08,0,.11,0,.17a4.35,4.35,0,0,0-.25.63.84.84,0,0,0-.13.27c-.08.18-.14.32-.21.5a2.38,2.38,0,0,0-.17.31l-.21.42a2.72,2.72,0,0,0-.16.35c-.08.14-.14.24-.21.38l-.21.35c-.07.14-.17.24-.24.38l-.21.31a3.89,3.89,0,0,1-.28.39l-.21.31a7.68,7.68,0,0,1-.5.63,2.09,2.09,0,0,1-.24.28,2.3,2.3,0,0,1-.28.34,2.92,2.92,0,0,0-.28.32c-.1.1-.16.21-.27.31l-.31.31a3.33,3.33,0,0,0-.28.25l-.32.31c-.1.1-.2.17-.27.24a2.66,2.66,0,0,0-.35.32.92.92,0,0,0-.28.24,2.47,2.47,0,0,0-.38.28,1.32,1.32,0,0,1-.25.16,13.77,13.77,0,0,1-1.53,1A1.38,1.38,0,0,1,43,47a2,2,0,0,1-.45.24,2.61,2.61,0,0,1-.28.17l-.45.21a1,1,0,0,1-.28.14A2.47,2.47,0,0,1,41,48l-.28.11-.5.21c-.1,0-.16.07-.27.1a3.27,3.27,0,0,1-.53.17c-.07,0-.1.07-.17.07l-1.36.42V52a1.63,1.63,0,0,1-.24.83,1.53,1.53,0,0,1-2.1.51h0a37.59,37.59,0,0,1-7-5.88,1.6,1.6,0,0,1,0-2.09,36.37,36.37,0,0,1,7-5.91,1.59,1.59,0,0,1,.8-.21,1.55,1.55,0,0,1,1.56,1.53v1.68a13.18,13.18,0,0,0,2.09-1c.52-.34,1-.69,1.5-1.08l0,0c.1-.1.21-.17.31-.28l0-.07a13.6,13.6,0,0,0,1.18-1.22,1.7,1.7,0,0,0,.1-.14,2.57,2.57,0,0,0,.21-.24.49.49,0,0,1,.11-.14c.07-.11.13-.16.21-.28s.06-.1.1-.14.21-.31.31-.49l.11-.21a2,2,0,0,0,.14-.25l.1-.2a.58.58,0,0,0,.14-.24.77.77,0,0,1,.14-.25l.1-.21a1.51,1.51,0,0,1,.14-.35,2.56,2.56,0,0,0,.11-.24c0-.1.1-.24.14-.38a.38.38,0,0,1,.07-.21l.1-.32a.48.48,0,0,1,.07-.2,2.7,2.7,0,0,0,.07-.35s0-.11.07-.17.07-.31.11-.49v0c0-.18.06-.39.1-.56a.33.33,0,0,1,0-.17v-.07a15.29,15.29,0,0,0,3.72,2.48c.48,0,1.7-1.57,2.77-2.92,0,.19,0,.37-.07.58Zm-1.74-3.61a1.51,1.51,0,0,1-1.91.76,34.21,34.21,0,0,1-8-4.35,1.64,1.64,0,0,1-.53-.66,1.56,1.56,0,0,1,.87-2l1.43-.59A13,13,0,0,0,33,18.16a13.87,13.87,0,0,0-6.61,2,14.44,14.44,0,0,0-.17-4.4,10.67,10.67,0,0,0-4.17-.38A19.63,19.63,0,0,1,48.6,19.58l2.68-1.11a1.53,1.53,0,0,1,2,.86h0a1.44,1.44,0,0,1,.07.87,36.58,36.58,0,0,1-2.79,8.73Z"/></svg>